<?xml version="1.0" encoding="UTF-8" standalone="no"?>
<!DOCTYPE svg PUBLIC "-//W3C//DTD SVG 1.1//EN" "http://www.w3.org/Graphics/SVG/1.1/DTD/svg11.dtd">
<!-- Created with Vectornator (http://vectornator.io/) -->
<svg height="100%" stroke-miterlimit="10" style="fill-rule:nonzero;clip-rule:evenodd;stroke-linecap:round;stroke-linejoin:round;" version="1.1" viewBox="0 0 313.779 333.275" width="100%" xml:space="preserve" xmlns="http://www.w3.org/2000/svg" xmlns:vectornator="http://vectornator.io" xmlns:xlink="http://www.w3.org/1999/xlink">
<defs/>
<g id="Layer-1" vectornator:layerName="Layer 1">
<g opacity="0.985428" vectornator:layerName="Curve 1">
<path d="M237.656 137.031C233.999 136.443 230.557 138.937 229.969 142.594C229.205 147.802 228.771 153.02 228.594 158.281C228.281 167.535 228.459 176.908 226.875 186.062C226.199 189.97 224.94 193.597 223.125 197.125C222.804 197.748 222.456 198.351 222.125 198.969C221.956 199.283 221.912 199.437 221.531 199.594C219.909 200.262 217.789 199.774 216.188 199.312C212.15 198.148 207.636 195.45 205.844 191.469C203.737 186.789 203.235 181.577 203.25 176.5C203.272 168.926 204.322 161.392 204.062 153.812C203.95 150.527 203.589 147.223 202.781 144.031C202.491 142.885 202.178 141.23 200.875 140.781C198.496 139.961 197.438 143.542 196.906 145.156C196.749 145.632 196.61 146.113 196.469 146.594C195.643 149.404 194.941 152.256 194.219 155.094C193.686 157.189 193.051 159.238 192.562 161.344C192.002 163.763 191.589 166.244 191.156 168.688C190.9 170.138 190.641 171.595 190.312 173.031C190.203 173.509 190.091 173.963 189.969 174.438C189.989 174.238 189.981 174.041 190 173.844C190.107 172.707 190.239 171.546 190.312 170.406C190.122 171.775 189.85 173.136 189.625 174.5C189.534 175.054 189.403 175.655 189.406 176.219C189.407 176.277 189.49 176.408 189.531 176.438C189.528 176.446 189.535 176.46 189.531 176.469C189.533 176.468 189.561 176.471 189.562 176.469C189.634 176.343 189.686 176.224 189.75 176.094C189.299 176.883 189.888 176.417 190.031 176C190.192 175.533 190.343 175.062 190.5 174.594C190.658 174.123 190.854 173.662 191 173.188C191.146 172.713 191.241 172.228 191.375 171.75C191.775 170.317 192.166 168.879 192.531 167.438C193.013 165.534 193.48 163.626 194.062 161.75C194.603 160.01 195.29 158.319 195.875 156.594C196.802 153.86 197.668 151.119 198.656 148.406C198.995 147.476 199.354 146.565 199.75 145.656C199.753 145.676 199.747 145.699 199.75 145.719C199.94 147.041 200.053 148.352 200.094 149.688C200.234 154.234 199.696 158.753 199.094 163.25C197.977 171.589 196.368 180.085 197.719 188.5C198.232 191.698 199.073 194.999 200.844 197.75C202.465 200.27 204.702 202.385 207.125 204.125C209.013 205.48 211.069 206.647 213.219 207.531C216.799 209.004 220.923 209.804 224.719 208.688C228.219 207.658 230.203 205.331 232.094 202.344C234.036 199.275 235.425 195.918 236.625 192.5C237.509 189.982 238.294 187.419 238.875 184.812C240.301 178.412 240.726 171.807 241.156 165.281C241.61 158.394 242.025 151.525 243.219 144.719C243.807 141.062 241.313 137.62 237.656 137.031Z" fill="#a8a6ff" stroke="none"/>
</g>
<g opacity="0.985428" vectornator:layerName="Curve 2">
<path d="M225 143.688C223.288 143.564 221.525 144.1 220.125 145.312C217.324 147.737 217.013 151.98 219.438 154.781C222.774 158.391 226.107 161.972 229.625 165.406C230.946 166.696 232.354 167.885 233.719 169.125C234.616 169.94 235.421 170.865 236.281 171.719C237.582 173.009 239.022 174.172 240.375 175.406C244.627 179.286 248.854 183.299 252.656 187.625C259.606 195.531 264.892 204.733 270.844 213.375C266.574 204.135 262.97 194.509 257.906 185.656C255.316 181.128 252.308 176.861 249.406 172.531C247.687 169.966 246.077 167.28 244.219 164.812C243.476 163.826 242.65 162.884 241.938 161.875C241.225 160.867 240.573 159.84 239.844 158.844C236.614 154.428 233.036 150.25 229.594 146C228.382 144.6 226.712 143.811 225 143.688Z" fill="#a8a6ff" stroke="none"/>
</g>
<path d="M227.465 215.812C228.965 217.609 231.859 220.382 232.48 219.279C233.278 217.862 234.123 216.301 234.093 214.675C234.002 209.85 233.701 204.894 232.124 200.333C229.969 194.1 227.065 187.984 223.055 182.748C221.724 181.011 218.785 179.345 216.902 180.459C214.048 182.147 213.057 186.009 212.149 189.198C211.377 191.908 211.704 194.849 212.006 197.651C212.443 201.698 214.204 204.992 217.301 207.627C218.675 208.796 220.246 210.627 222.017 210.282C224.964 209.71 228.795 208.178 229.491 205.257C231.13 198.381 229.819 190.981 228.262 184.085C227.209 179.424 224.367 175.321 221.818 171.28C220.348 168.95 218.739 166.411 216.302 165.125C214.879 164.374 212.955 165.105 211.529 165.851C210.836 166.213 210.787 167.27 210.711 168.048C210.417 171.069 210.081 174.134 210.427 177.149C211.213 183.973 212.283 190.8 214.091 197.426C215.336 201.987 219.465 206.346 224.041 207.533C226.304 208.12 229.599 205.05 230.585 203.663C232.18 201.417 233.511 198.977 234.661 196.473C235.627 194.37 236.459 192.174 236.905 189.903C237.736 185.677 238.604 181.382 238.475 177.077C238.206 168.139 234.975 159.335 231.053 151.299C230.532 150.231 230.169 148.746 229.048 148.351C226.5 147.454 223.449 146.68 220.967 147.746C219.238 148.49 219.051 151.038 218.565 152.857C216.839 159.323 217.421 167.674 218.126 174.209C218.21 174.987 218.354 175.809 218.791 176.458C220.145 178.472 222.905 179.069 224.729 180.669C226.159 181.923 227.263 183.506 228.56 184.897C228.695 185.041 229.022 185.466 229.022 185.269C229.028 183.378 227.741 181.783 227.039 182.529C226.035 183.598 226.93 186.421 227.117 187.162C227.845 190.048 228.761 192.884 229.521 195.762C230.111 197.992 227.754 194.098 227.397 193.671" fill="none" opacity="0.985428" stroke="#a8a6ff" stroke-linecap="round" stroke-linejoin="round" stroke-width="14.7408" vectornator:layerName="Curve 3"/>
<path d="M265.215 129.684C266.068 128.467 267.015 127.311 267.774 126.033C267.921 125.785 267.971 124.899 267.893 125.177C264.881 135.779 262.222 146.479 259.314 157.11C255.411 171.372 251.02 185.295 246.139 199.243C245.014 202.46 243.783 205.642 242.75 208.89C242.207 210.597 241.326 212.307 241.413 214.097C241.449 214.839 242.557 213.103 242.924 212.457C243.635 211.205 244.084 209.821 244.604 208.479C245.79 205.418 247.107 202.397 248.038 199.249C250.871 189.676 253.672 180.081 255.89 170.347C258.954 156.897 260.922 141.745 262.279 127.892C262.73 123.293 262.963 118.675 263.319 114.068C263.462 112.223 262.514 107.181 263.777 108.534C265.211 110.071 264.031 112.733 264.035 114.835C264.045 120.49 263.868 126.156 263.332 131.786C261.891 146.926 260.488 162.165 257.026 176.974C255.05 185.431 252.236 193.671 249.813 202.011C249.621 202.672 249.457 203.346 249.181 203.977C249.125 204.105 249.101 203.695 249.136 203.56C249.752 201.225 250.493 198.925 251.127 196.595C252.811 190.405 254.579 184.228 255.865 177.943C260.67 154.476 265.026 132.232 267.158 108.592C267.927 100.065 268.755 93.9134 268.691 85.6447C268.682 84.4563 269.256 81.3828 268.309 82.1C266.911 83.1581 267.155 85.4172 266.741 87.1207C265.842 90.8163 265.266 94.5834 264.574 98.3233C262.316 110.524 260.228 122.757 257.763 134.918C254.618 150.438 250.772 163.29 245.164 178.465C243.339 183.402 241.048 188.161 238.702 192.873C238.261 193.758 237.77 194.842 236.842 195.183C236.301 195.382 236.91 194.021 237.079 193.47C238.941 187.396 241.061 181.404 242.927 175.331C244.704 169.548 246.666 163.807 248.009 157.908C253.652 133.108 258.675 107.869 259.275 82.4416C259.396 77.3378 259.243 72.139 258.05 67.1751C257.807 66.1646 256.415 68.6744 256.212 69.6936C254.433 78.6236 253.768 87.7453 252.165 96.7087C248.767 115.712 245.758 134.816 241.214 153.578C238.835 163.396 235.108 172.853 231.441 182.266C229.92 186.168 227.833 189.839 225.684 193.434C225.246 194.166 223.783 195.971 223.756 195.118C223.654 191.778 224.662 188.486 225.433 185.234C226.597 180.32 228.308 175.55 229.556 170.656C237.278 140.371 242.231 111.496 244.066 80.2852C244.227 77.5413 244.81 74.7277 244.231 72.0407C243.919 70.5927 243.477 74.9094 243.221 76.3685C242.345 81.3627 241.82 86.4179 240.834 91.3918C238.131 105.032 235.639 118.733 232.157 132.195C229.924 140.827 227.195 149.367 223.715 157.575C219.272 168.055 214.199 178.298 208.447 188.121C207.349 189.995 204.828 193.893 203.408 192.25C201.408 189.938 203.501 186.101 204.109 183.104C205.069 178.372 206.906 173.856 208.091 169.175C213.217 148.915 218.365 128.657 223.039 108.288C223.631 105.709 223.696 103.033 223.875 100.393C224.158 96.2304 226.631 91.4295 224.425 87.8883C223.027 85.6454 221.183 92.1691 220.303 94.661C217.442 102.765 215.963 111.303 213.276 119.466C209.815 129.979 206.415 140.557 201.874 150.65C197.712 159.899 192.432 168.615 187.244 177.33C185.218 180.732 182.824 183.921 180.265 186.942C178.936 188.511 177.661 190.637 175.643 191.027C174.613 191.225 175.082 188.923 175.305 187.899C175.897 185.179 177.029 182.603 178.04 180.01C180.665 173.278 183.565 166.656 186.211 159.933C190.401 149.285 195.302 138.853 198.357 127.826C201.535 116.352 204.585 104.843 207.5 93.2999C208.182 90.5989 208.794 87.8697 209.148 85.1064C209.219 84.5474 209.013 82.9575 208.759 83.4608C203.594 93.7081 201.844 105.388 197.284 115.918C190.112 132.476 182.45 148.84 174.082 164.827C171.578 169.611 167.977 173.737 164.753 178.068C163.306 180.011 161.819 181.949 160.08 183.635C158.616 185.053 157.148 186.713 155.204 187.325C154.398 187.578 155.603 185.665 155.999 184.919C160.168 177.075 164.593 169.37 168.882 161.591C180.109 141.224 187.449 120.388 194.098 98.1205C195.192 94.4559 195.937 90.6822 196.473 86.8954C196.7 85.2974 197.68 81.1082 196.373 82.0546C194.398 83.4847 194.663 86.6236 193.734 88.8784C190.539 96.6317 187.316 104.374 184.002 112.077C178.668 124.472 173.535 137.036 166.422 148.567C162.334 155.195 157.932 161.635 153.321 167.911C151.969 169.75 150.234 171.279 148.58 172.852C148.059 173.348 146.689 174.805 146.816 174.097C148.385 165.32 152.006 157.018 155.258 148.717C159.4 138.147 163.31 127.454 166.34 116.513C168.346 109.267 170.164 101.965 171.783 94.6213C171.964 93.7992 172.192 91.3983 171.722 92.0966C170.341 94.147 169.806 96.6536 168.874 98.9429C163.97 110.994 159.707 123.324 154.213 135.118C151.067 141.874 147.049 148.204 143.011 154.468C141.431 156.919 139.759 159.463 137.408 161.189C136.786 161.646 136.775 159.67 136.952 158.918C137.664 155.905 138.971 153.065 140.014 150.15C143.186 141.29 146.73 132.557 149.595 123.593C152.832 113.466 155.482 103.16 158.309 92.9105C159.021 90.3311 159.277 87.6194 160.21 85.1116C160.927 83.1846 159.578 89.1904 158.963 91.1524C157.795 94.8817 156.883 98.7881 154.875 102.14C152.942 105.368 149.942 107.825 147.344 110.547C147.084 110.819 146.679 110.9 146.347 111.076" fill="none" opacity="0.985428" stroke="#a8a6ff" stroke-linecap="round" stroke-linejoin="round" stroke-width="14.7408" vectornator:layerName="Curve 4"/>
<path d="M173.151 122.951C172.807 124.324 172.778 125.817 172.119 127.07C167.855 135.176 163.286 143.128 158.447 150.904C155.727 155.276 152.697 159.464 149.467 163.475C148.091 165.184 146.643 167.012 144.682 167.999C144.064 168.31 143.061 167.388 143.065 166.696C143.103 160.011 146.242 153.692 148.361 147.351C153.608 131.652 158.935 115.974 163.729 100.131C164.375 97.9927 164.986 95.8322 165.348 93.6279C165.752 91.1656 167.894 87.8204 166.02 86.1725C164.487 84.824 163.613 89.5073 162.784 91.3731C160.321 96.9165 158.424 102.695 156.175 108.328C151.705 119.528 146.446 132.157 140.433 142.3C136.848 148.348 134.593 162.259 128.15 159.446C121.807 156.676 131.893 146.107 134.235 139.594C139.609 124.648 146.629 110.212 150.498 94.8078C151.074 92.5135 148.142 98.9185 147.166 101.074C146.264 103.067 145.715 105.205 144.877 107.227C140.625 117.471 135.82 128.525 130.279 138.122C127.648 142.68 124.687 147.051 121.575 151.295C120.806 152.344 119.236 155.109 118.695 153.927C117.811 151.996 119.195 149.672 119.919 147.677C121.917 142.176 124.558 136.929 126.826 131.533C130.607 122.542 134.035 113.386 136.943 104.075C137.885 101.057 138.611 97.9423 138.895 94.7937C138.929 94.4188 138.014 94.1746 137.807 94.4892C136.167 96.9848 135.118 99.8229 133.821 102.513C131.613 107.092 129.835 111.893 127.292 116.296C121.291 126.686 115.062 136.968 108.226 146.829C106.385 149.485 103.995 151.798 101.372 153.686C100.914 154.015 100.787 152.568 100.983 152.04C102.079 149.095 103.674 146.359 105.133 143.577C107.349 139.352 109.767 135.236 112.005 131.023C116.428 122.699 120.989 114.398 124.454 105.633C125.17 103.822 125.673 101.913 125.955 99.9865C126.009 99.614 125.642 98.6812 125.425 98.9889C122.637 102.942 120.424 107.272 117.905 111.402C111.91 121.228 105.762 131.019 98.6362 140.059C96.9736 142.168 95.1801 144.286 92.9206 145.738C92.2871 146.145 90.7707 145.881 90.7455 145.129C90.6847 143.316 91.9422 141.696 92.7303 140.063C96.0252 133.235 99.4619 126.474 102.986 119.761C105.762 114.472 108.797 109.323 111.629 104.063C112.254 102.902 113.104 101.797 113.354 100.502C113.489 99.802 113.421 98.3853 112.712 98.4617C111.679 98.5732 111.288 99.9796 110.643 100.794C107.512 104.748 104.441 108.749 101.387 112.762C97.3139 118.114 93.4729 123.648 89.1996 128.842C86.1191 132.586 82.9247 136.239 79.6225 139.789C79.1323 140.316 77.5012 141.659 77.8583 141.034C81.9113 133.944 86.3877 127.103 90.8021 120.232C94.6309 114.272 99.6743 108.984 101.931 102.156C102.151 101.489 100.468 102.224 99.868 102.589C98.0761 103.681 96.3788 104.938 94.784 106.302C91.4793 109.128 88.4481 112.261 85.1905 115.142C79.4382 120.228 73.7525 125.473 67.3567 129.722C66.5798 130.238 65.2177 131.424 64.7135 130.64C64.1367 129.742 65.3989 128.563 66.0892 127.749C70.4162 122.649 75.0189 117.784 79.6853 112.993C81.9875 110.629 84.5283 108.51 86.979 106.3C87.5406 105.794 89.3097 105.321 88.7207 104.847C88.0472 104.304 87.0519 105.341 86.286 105.742C84.8458 106.497 83.4848 107.397 82.1321 108.299C78.9576 110.417 75.7855 112.543 72.7082 114.8C67.2822 118.78 62.6169 123.778 56.9882 127.465C55.1725 128.654 52.9122 130.652 50.9127 129.808C49.5195 129.219 52.1491 127.028 53.01 125.785C54.1078 124.199 55.4081 122.755 56.7529 121.373C60.8786 117.133 65.5507 113.459 70.0383 109.604C72.6155 107.39 75.1855 105.15 77.5181 102.68C77.8217 102.358 78.2281 101.272 77.8002 101.384C74.1248 102.34 70.1544 105.34 67.0577 107.394C60.8288 111.527 54.5856 115.729 47.844 118.959C47.201 119.267 46.5126 119.524 45.8038 119.601C45.5532 119.628 44.9476 119.422 45.1333 119.251C47.6339 116.957 50.4435 115.023 53.0976 112.908C55.6196 110.898 57.2047 109.584 60.1093 107.511C60.5426 107.202 61.2553 107.2 61.5014 106.728C61.663 106.418 60.7923 106.735 60.4588 106.84C58.7444 107.38 57.0265 107.931 55.3809 108.654C49.6931 111.152 42.3 116.084 35.8748 117.508C35.6287 117.562 36.2544 117.175 36.4554 117.023C36.9048 116.683 37.358 116.347 37.825 116.032C39.5865 114.841 41.3599 113.668 43.14 112.505C45.8361 110.744 49.197 109.713 51.2167 107.204C51.4834 106.873 50.347 106.998 49.9432 107.131C48.4104 107.636 46.955 108.36 45.5133 109.085C43.7503 109.972 42.0903 111.053 40.3393 111.964C38.8874 112.719 36.9584 112.852 35.932 114.127C35.7933 114.299 36.3591 114.278 36.58 114.268C37.4879 114.227 38.3907 114.102 39.2907 113.975C40.5387 113.8 41.8374 113.794 43.0214 113.362C49.5895 110.968 55.813 107.68 62.409 105.364C72.5165 101.815 82.8538 100.368 93.3038 98.4458C100.882 97.0517 108.321 94.7951 115.649 92.4495C120.128 91.016 124.825 91.1732 129.299 89.9225C132.614 88.9956 135.759 87.5247 139.06 86.5492C143.851 85.1338 149.111 84.8797 153.938 83.6787C157.854 82.7044 161.466 80.7582 165.3 79.5C169.393 78.1569 174.009 78.3233 178.093 76.8544C183.869 74.7769 189.503 72.3067 195.322 70.3553C199.628 68.9116 203.991 68.2287 208.189 66.4362C213.166 64.311 217.91 61.2993 223.056 59.559C226.213 58.4913 229.377 57.8058 232.423 56.4392C236.469 54.624 239.983 51.9365 244.231 50.5249C256.185 46.5525 268.865 42.6564 279.804 36.1406C284.829 33.148 289.598 29.7429 294.611 26.7387C296.115 25.8375 297.762 25.1644 299.182 24.1363C300.557 23.1407 301.135 22.0917 301.295 22.2208C301.568 22.44 300.871 22.7908 300.76 23.1223C300.283 24.5506 299.968 26.0284 299.542 27.4725C298.379 31.4075 297.295 35.3694 295.96 39.2496C290.532 55.0365 284.381 70.772 278.254 86.3007C276.243 91.3984 274.081 96.4447 271.651 101.357C271.341 101.983 270.917 102.548 270.58 103.16C270.505 103.297 270.356 103.743 270.417 103.599C276.954 88.122 281.739 72.4276 285.97 56.1477C287.072 51.9104 288.126 47.6583 289.022 43.373C289.241 42.3263 289.328 41.2471 289.31 40.1778C289.302 39.6836 289.36 38.4735 288.944 38.7407C288.178 39.2334 288.056 40.3396 287.732 41.1918C286.356 44.8167 285.334 48.5745 283.852 52.1573C278.695 64.625 273.58 77.1226 267.822 89.3244C265.841 93.5224 263.218 97.3931 260.674 101.275C260.417 101.668 259.566 102.499 259.49 102.036C259.245 100.547 259.618 98.9874 260.06 97.5446C261.967 91.3261 264.367 85.2701 266.512 79.1297C267.429 76.5022 268.385 73.8871 269.247 71.2408C272.611 60.9149 276.059 50.614 279.189 40.2149C279.737 38.3939 282.16 34.8481 280.273 34.6136C277.962 34.3265 276.908 37.8691 275.555 39.7632C274.382 41.4037 273.676 43.3321 272.758 45.1274C270.25 50.03 267.69 54.9065 265.276 59.8564C261.068 68.4891 257.214 77.2939 252.895 85.872C250.436 90.7572 247.773 95.5438 244.951 100.229C244.186 101.499 242.856 105.004 242.161 103.694C241.266 102.008 243.188 100.008 243.892 98.2339C247.945 88.0292 252.369 77.9748 256.427 67.772C260.598 57.2846 265.059 46.8815 268.41 36.1041C268.527 35.7265 267.848 36.6775 267.666 37.0281C265.514 41.155 263.654 45.4325 261.419 49.5146C257.718 56.2724 253.726 62.866 249.867 69.5343C243.454 80.6164 236.917 91.847 229.335 102.124C228.011 103.919 225.712 107.805 224.088 106.276C222.334 104.627 225.55 101.679 226.518 99.4751C228.828 94.2168 231.447 89.1002 233.91 83.912C240.605 69.808 248.559 55.0422 253.875 40.2032C254.109 39.5517 252.941 41.2339 252.573 41.8202C248.918 47.6486 245.438 53.5845 241.816 59.4338C233.367 73.083 225.009 86.8526 216.047 100.183C214.059 103.141 212.048 106.095 209.813 108.871C209.361 109.432 208.493 110.682 208.048 110.116C207.461 109.368 208.198 108.181 208.59 107.315C212.867 97.8796 217.458 88.589 222.02 79.2881C224.779 73.6653 227.699 68.1235 230.551 62.5475C233.493 56.7941 237.092 51.2326 238.782 44.9953C238.905 44.5426 238.354 43.4806 238.022 43.8117C222.075 59.7042 211.553 78.7879 198.618 97.0002C197.33 98.8142 195.841 100.484 194.317 102.105C194.059 102.379 193.174 102.982 193.319 102.634C199.271 88.4272 207.946 76.0514 216.051 63.0568C218.189 59.6283 221.178 56.5559 222.314 52.678C222.876 50.7592 219.199 55.2199 217.901 56.74C215.875 59.1104 214.166 61.735 212.387 64.2958C205.436 74.3047 198.801 84.5512 191.355 94.1977C187.821 98.7761 184.102 103.211 180.357 107.618C179.233 108.942 178.162 110.364 176.755 111.382C176.245 111.751 174.663 112.176 174.878 111.584C176.612 106.829 179.185 102.415 181.638 97.9879C185.793 90.4902 190.489 83.3042 195.095 76.0752C196.404 74.0218 197.777 72.0105 199.075 69.9505C200.059 68.3889 202.912 63.6435 201.939 65.2118C191.102 82.6798 180.644 100.603 167.382 116.401C163.716 120.768 159.984 125.146 155.646 128.847C155.112 129.303 154.942 127.432 155.213 126.784C156.841 122.883 158.976 119.202 161.178 115.594C165.136 109.107 169.453 102.844 173.676 96.5265C177.203 91.25 180.771 86.0005 184.426 80.812C186.875 77.3356 190.229 74.4634 192.194 70.6927C192.513 70.0822 190.885 71.2332 190.408 71.7292C185.048 77.2956 179.864 83.0312 174.743 88.8175C170.712 93.3719 166.876 98.0952 162.956 102.745C160.182 106.035 157.853 109.796 154.517 112.515C154.322 112.674 153.718 112.382 153.847 112.166C156.535 107.641 159.541 103.309 162.551 98.9921C168.549 90.3902 175.939 82.8399 182.501 74.6915C183.247 73.7643 184.36 72.9154 184.502 71.7334C184.568 71.1781 183.31 71.6208 182.834 71.9134C179.367 74.0412 176.106 76.4892 172.829 78.8988C167.753 82.632 163.333 87.1991 158.315 91.0114C155.95 92.8083 153.483 94.5142 150.819 95.8279C150.506 95.9825 150.009 95.3979 150.104 95.0613C150.204 94.7035 152.005 92.0692 152.663 91.4102C154.283 89.7875 155.92 88.1777 157.634 86.6551C159.708 84.8142 161.903 83.1158 164.021 81.3256C171.158 75.2902 177.993 70.1905 186.419 66.0422C190.666 63.9511 195.2 62.4984 199.545 60.6184C207.387 57.2253 214.828 53.1762 222.625 49.6913C228.203 47.1978 234.03 45.2876 239.6 42.7977C243.096 41.2349 246.359 39.1931 249.784 37.4803C252.886 35.9296 256.58 35.7892 259.799 34.5016C262.618 33.3742 264.943 31.3092 267.78 30.2657C268.883 29.8599 272.137 29.8033 273.365 29.2414C273.689 29.0931 272.654 29.1071 272.3 29.1453C271.67 29.2132 271.043 29.346 270.446 29.5563C268.964 30.078 267.669 31.0296 266.247 31.6967C260.68 34.3074 255.469 35.1735 249.374 35.6262C242.787 36.1154 236.648 38.5825 230.207 39.803C227.028 40.4053 223.785 40.6813 220.727 41.8802C213.798 44.5974 207.126 48.075 200.156 50.6383C193.142 53.2179 186.078 56.9302 178.915 59.0469C173.979 60.5052 169.082 61.9055 164.261 64.0025C160.096 65.8145 156.227 68.3186 152.037 69.9618C148.342 71.4105 144.569 72.2233 140.816 73.4925C129.902 77.1837 119.319 82.2594 108.973 87.2634C107.576 87.9387 105.912 88.1404 104.475 88.5922C98.6588 90.4225 92.6586 92.0777 86.9481 94.2798C78.7386 97.4456 71.1329 101.716 62.7361 104.485C59.8844 105.426 57.0009 106.121 54.1584 107.098C53.3406 107.379 52.5249 107.668 51.7237 107.993C51.5789 108.052 51.2149 108.354 51.3292 108.247C55.1246 104.704 60.7053 104.717 65.2893 102.733C74.0477 98.9436 83.1687 96.5148 92.0935 93.0919C97.2885 91.0995 102.31 88.6108 107.401 86.3782C110.689 84.936 114.879 84.28 117.951 82.498C118.898 81.9489 120.48 81.7927 120.713 80.7235C120.842 80.1306 117.058 80.4167 116.684 80.5253C113.728 81.382 110.9 82.9692 107.987 83.9946C100.646 86.5794 92.9172 88.6306 85.8441 91.8676C82.9136 93.2087 79.0477 92.7988 75.9254 93.7812C73.8104 94.4467 71.9096 95.8379 69.9174 96.7496C63.9288 99.4903 57.6503 101.315 51.4599 103.592C48.8188 104.564 46.3149 106.117 43.5978 106.972C41.1815 107.732 38.9336 108.274 36.6882 109.404C33.1728 111.173 28.7184 111.395 25.0053 112.563C22.8592 113.238 20.7449 114.921 18.5353 115.159" fill="none" opacity="0.985428" stroke="#a8a6ff" stroke-linecap="round" stroke-linejoin="round" stroke-width="14.7408" vectornator:layerName="Curve 5"/>
<path d="M280.884 154.288C281.999 157.133 280.532 166.232 280.106 169.174C278.643 179.272 276.012 189.203 274.032 199.194C270.673 216.139 268.151 233.399 266.09 250.558C264.658 262.481 261.983 274.092 260.684 286.034C259.801 294.153 257.098 302.032 256.891 310.23C256.815 313.239 254.997 316.788 255.445 319.66" fill="none" opacity="0.985428" stroke="#a8a6ff" stroke-linecap="round" stroke-linejoin="round" stroke-width="14.7408" vectornator:layerName="Curve 6"/>
<path d="M252.29 316.962C250.025 315.757 248.391 313.154 246.59 311.38C242.936 307.781 238.718 304.63 235.211 300.941C232.915 298.527 231.103 295.574 228.882 293.087C226.677 290.618 223.79 288.621 221.687 286.098C216.456 279.826 210.873 274.022 205.383 268.042C204.326 266.891 202.693 266.161 201.55 265.085C196.451 260.286 191.105 255.708 185.871 251.034C182.377 247.913 178.787 244.693 175.521 241.346C173.152 238.919 170.567 236.021 167.435 234.495C167.244 234.402 167.518 234.919 167.621 235.104C168.43 236.559 168.104 235.65 169.069 236.792C170.274 238.219 171.528 239.441 172.877 240.756C176.456 244.245 179.923 247.771 183.53 251.216C190.157 257.546 196.539 264.134 203.436 270.168C207.003 273.288 209.828 277.269 213.247 280.487C216.159 283.227 219.119 285.839 221.986 288.603C222.833 289.419 223.722 290.002 224.462 291.042C224.774 291.48 225.804 292.704 225.396 292.355C219.671 287.458 215.204 281.016 209.863 275.729C202.164 268.108 194.423 260.393 186.382 253.141C183.578 250.612 180.272 248.412 177.665 245.751C172.313 240.285 165.834 235.632 159.999 230.642C158.316 229.203 156.49 228.052 154.74 226.723C154.064 226.209 153.379 225.706 152.683 225.22C152.56 225.135 152.198 224.887 152.285 225.009C153.067 226.108 154.448 226.667 155.487 227.426C158.269 229.457 160.993 231.749 163.62 233.996C172.939 241.966 182.202 250.524 190.325 259.726C194.123 264.029 198.102 268.299 202.379 272.156C203.716 273.362 205.137 274.923 206.303 276.283C206.653 276.691 206.926 277.159 207.237 277.596C207.432 277.87 208.089 278.618 207.821 278.416C201.701 273.833 196.609 267.952 191.303 262.49C180.471 251.341 169.74 239.937 157.964 229.865C153.769 226.278 149.238 223.124 144.969 219.588C144.76 219.414 142.215 217.473 141.953 217.779C141.269 218.58 147.676 224.216 148.54 224.955C153.36 229.077 158.119 233.059 162.771 237.318C165.496 239.813 167.707 242.772 170.551 245.128C173.056 247.204 175.291 249.753 177.63 251.954C178.415 252.693 179.327 253.645 179.942 254.51C180.179 254.842 181.043 255.71 180.807 255.377C179.249 253.188 176.29 251.198 174.311 249.372C168.752 244.246 162.737 239.57 157.37 234.241C152.838 229.742 147.895 225.54 143.609 220.802C139.215 215.945 134.943 211.046 130.107 206.684C128.026 204.808 125.481 203.396 123.306 201.638C119.731 198.75 116.283 195.737 112.649 192.91C111.543 192.05 110.347 190.821 109.049 190.281C108.911 190.224 109.057 190.589 109.118 190.726C109.338 191.216 109.699 191.634 110.052 192.039C110.277 192.297 110.562 192.496 110.8 192.743C112.409 194.411 114.145 195.967 115.753 197.621C119.824 201.811 124.322 205.361 128.51 209.303C130.057 210.759 131.872 212.04 133.441 213.456C137.783 217.371 140.809 222.576 146.152 225.418C152.184 228.627 158.72 229.309 165.053 231.494C168.434 232.661 171.582 234.633 174.805 236.172C175.211 236.366 175.548 236.78 175.998 236.806C176.187 236.817 176.209 236.394 176.092 236.244C175.179 235.067 174.098 234.026 173.032 232.985C170.584 230.593 168.053 228.288 165.556 225.948C163.356 223.886 161.196 221.781 158.943 219.779C157.386 218.394 155.696 217.163 154.129 215.79C152.634 214.48 151.148 213.154 149.76 211.732C149.612 211.58 149.39 211.018 149.574 211.123C150.55 211.682 151.379 212.467 152.262 213.165C164.644 222.949 176.859 233.326 187.803 244.717C190.843 247.882 193.777 251.156 196.538 254.566C197.511 255.766 198.409 257.026 199.387 258.223C199.687 258.59 200.48 259.716 200.368 259.255C199.862 257.167 198.064 255.606 196.633 254.004C192.668 249.564 188.744 245.079 184.557 240.849C181.417 237.677 177.984 234.81 174.673 231.817C171.167 228.649 167.579 225.555 164.322 222.13C164.091 221.887 163.425 221.19 163.739 221.31C165.807 222.099 167.134 224.153 168.786 225.626C174.061 230.333 179.504 234.877 184.418 239.959C189.922 245.65 195.303 251.464 200.535 257.406C203.023 260.231 205.183 263.329 207.564 266.244C208.375 267.237 209.21 268.214 210.109 269.128C210.407 269.431 211.163 270.303 211.138 269.879C210.925 266.318 207.737 263.579 205.608 260.716C202.03 255.903 198.117 251.32 193.908 247.047C191.329 244.429 188.754 241.807 186.128 239.237C184.953 238.085 181.345 234.717 182.507 235.882C196.159 249.588 208.617 263.785 221.233 278.513C222.067 279.487 222.938 280.429 223.779 281.397C224.309 282.007 225.407 284.055 225.344 283.249C225.034 279.281 221.892 276.005 219.442 272.868C215.424 267.724 211.33 262.629 206.972 257.769C204.15 254.623 200.886 251.902 197.93 248.88C196.655 247.577 195.491 246.169 194.287 244.8C194.198 244.699 193.956 244.38 194.053 244.472C204.419 254.29 213.876 265.053 223.111 275.942C227.975 281.677 231.989 288.087 236.675 293.969C236.956 294.321 238.058 295.011 237.868 294.603C234.263 286.868 229.171 279.875 224.029 273.064C219.327 266.836 214.284 260.867 209.177 254.965C209.079 254.851 209.154 255.292 209.247 255.41C210.91 257.527 212.705 259.537 214.408 261.623C220.404 268.97 226.459 276.269 232.342 283.708C235.714 287.972 238.644 292.568 241.796 296.998C242.34 297.764 242.491 299.324 243.43 299.295C244.26 299.27 242.905 297.712 242.521 296.976C240.866 293.802 239.146 290.659 237.32 287.58C233.87 281.761 230.639 277.493 226.677 271.923C225.976 270.938 225.276 269.954 224.576 268.969C224.381 268.696 223.776 267.892 223.992 268.149C230.318 275.637 235.898 283.728 241.689 291.638C243.951 294.726 246.062 297.931 248.014 301.224C248.29 301.689 249.005 303.147 248.784 302.653C246.014 296.467 242.681 290.546 239.409 284.611C238.758 283.43 238.069 282.269 237.403 281.096C236.77 279.981 235.481 279.027 235.513 277.745C235.539 276.736 236.858 279.257 237.428 280.089C239.062 282.472 240.632 284.901 242.119 287.378C243.752 290.098 245.262 292.89 246.784 295.674C247.727 297.398 248.575 299.172 249.513 300.899C249.641 301.135 250.077 301.805 249.98 301.555C248.192 296.992 245.685 292.648 244.037 287.991C243.683 286.99 242.119 285.333 243.107 284.946C244.109 284.553 244.324 286.728 244.81 287.688C246.878 291.774 250.322 297.929 250.797 302.704C250.83 303.038 250.347 302.191 250.213 301.883C249.823 300.987 249.528 300.052 249.235 299.119C248.476 296.706 247.305 294.269 247.447 291.743C247.458 291.553 247.925 291.667 248.009 291.837C249.252 294.366 250.239 297.012 251.318 299.615C251.505 300.066 251.688 300.523 251.806 300.997C252.091 302.134 253.329 303.586 252.525 304.439C251.829 305.179 251.501 302.679 251.103 301.745C249.718 298.497 249.053 295.034 248.337 291.604C248.294 291.396 248.144 290.783 248.151 290.995C248.165 291.445 248.29 291.885 248.359 292.33" fill="none" opacity="0.985428" stroke="#a8a6ff" stroke-linecap="round" stroke-linejoin="round" stroke-width="14.7408" vectornator:layerName="Curve 7"/>
<path d="M270.214 152.489C270.589 151.974 271.328 150.309 271.34 150.946C271.536 160.636 271.477 170.351 270.769 180.017C270.328 186.028 268.967 191.939 267.902 197.871C266.884 203.533 265.605 209.155 264.053 214.694C263.611 216.272 263.203 217.894 262.406 219.325C262.271 219.567 261.786 219.062 261.775 218.786C261.707 217.12 261.995 215.457 262.182 213.801C262.979 206.766 263.904 199.747 264.728 192.715C266.028 181.629 266.985 172.606 267.739 161.168C267.91 158.583 267.846 155.987 267.895 153.397C267.924 151.813 268.097 150.225 267.974 148.645C267.963 148.496 267.547 148.566 267.529 148.715C265.845 163.133 265.394 177.684 263.536 192.081C262.369 201.119 260.542 210.059 258.989 219.038C258.625 221.143 258.225 223.242 257.783 225.332C257.752 225.479 257.564 225.879 257.571 225.73C258.19 213.353 261.135 201.203 262.769 188.92C263.704 181.897 264.459 174.848 265.034 167.787C265.179 166.006 264.969 164.213 264.928 162.426C264.911 161.701 264.983 159.533 264.862 160.249C262.924 171.74 262.995 183.854 261.68 195.378C260.646 204.432 258.471 213.331 257.414 222.382C257.302 223.343 258.155 220.591 258.449 219.669C258.666 218.989 258.799 218.285 258.945 217.586C259.791 213.542 260.678 209.506 261.426 205.443C262.406 200.122 263.365 194.794 264.126 189.437C265.51 179.691 266.415 169.879 267.203 160.067C267.508 156.263 266.928 152.315 267.974 148.645C268.148 148.036 268.095 149.908 268.088 150.542C268.038 154.81 268.055 159.083 267.805 163.345C267.121 175.01 265.387 186.608 263.383 198.12C262.786 201.552 261.231 208.969 260.078 212.579C259.923 213.066 259.668 214.221 259.28 213.889C258.809 213.486 259.365 212.653 259.447 212.04C260.125 207.005 260.845 201.976 261.56 196.946C262.803 188.193 263.923 179.412 264.561 170.595C264.806 167.194 264.71 163.776 264.698 160.366C264.695 159.583 264.969 158.663 264.515 158.025C264.269 157.679 263.818 158.632 263.764 159.053C262.726 167.119 262.158 175.239 261.259 183.322C260.23 192.569 258.596 201.739 257.179 210.935C256.897 212.765 256.465 214.569 256.115 216.387C256.079 216.573 255.976 217.133 256.02 216.949C258.845 205.08 260.579 190.375 261.55 178.173C261.88 174.024 261.892 169.856 262.066 165.698C262.129 164.169 262.36 159.583 262.262 161.11C261.471 173.442 261.434 185.838 259.919 198.113C259.151 204.334 258.171 210.526 257.355 216.741C257.323 216.981 257.162 217.577 257.377 217.466C257.927 217.183 258.458 216.685 258.62 216.088C259.751 211.917 260.427 207.635 261.196 203.382C261.847 199.786 262.484 196.181 262.879 192.548C263.883 183.32 264.724 174.073 265.391 164.815C265.411 164.547 264.974 163.895 264.924 164.159C262.398 177.476 261.719 191.492 260.07 204.925C259.335 210.908 258.205 216.836 257.202 222.779C256.997 223.996 256.792 225.213 256.587 226.43C256.555 226.617 256.434 227.172 256.492 226.991C259.668 217.041 261.199 206.604 262.544 196.246C263.56 188.429 264.15 180.504 263.784 172.63C263.656 169.871 264.777 165.896 262.419 164.458C260.514 163.296 261.431 168.818 261.166 171.033C260.256 178.638 259.803 186.293 258.897 193.898C258.184 199.885 257.314 205.854 256.311 211.8C255.986 213.723 255.29 219.4 254.919 217.485C254.403 214.825 255.546 212.103 255.847 209.411C255.927 208.702 255.991 207.991 256.062 207.281" fill="none" opacity="0.985428" stroke="#a8a6ff" stroke-linecap="round" stroke-linejoin="round" stroke-width="14.7408" vectornator:layerName="Curve 8"/>
<path d="M265.701 186.093C264.398 186.114 262.799 185.329 261.792 186.156C260.838 186.938 261.319 188.58 261.176 189.806C259.604 203.31 263.919 218.851 256.649 230.339C250.865 239.479 256.198 208.711 256.057 197.895C256.015 194.673 256.635 185.05 256.1 188.228C255.548 191.498 256.069 194.86 256.01 198.176C255.894 204.659 255.603 214.872 255.262 221.441C254.985 226.78 254.659 232.117 254.295 237.45C254.233 238.351 254.135 239.251 253.985 240.142C253.898 240.659 253.6 242.186 253.584 241.662C253.1 225.701 252.553 209.617 252.297 193.651C252.294 193.501 252.362 193.946 252.366 194.096C252.442 196.608 252.469 199.121 252.539 201.633C252.659 205.988 252.935 210.339 252.935 214.696C252.934 222.684 252.538 230.674 251.928 238.64C251.736 241.152 251.549 243.674 251.094 246.152C250.953 246.922 250.786 248.765 250.154 248.303C249.256 247.648 249.696 246.127 249.552 245.025C249.211 242.433 248.851 239.839 248.701 237.229C248.225 228.995 247.821 220.754 247.672 212.508C247.602 208.629 247.789 204.747 248.046 200.875C248.072 200.485 248.468 199.411 248.516 199.8C248.904 202.942 249.135 206.115 249.083 209.281C249.01 213.715 248.609 218.141 248.144 222.551C247.885 225.005 247.323 227.418 246.913 229.852C246.395 232.922 246.207 236.537 244.062 239.045" fill="none" opacity="0.985428" stroke="#a8a6ff" stroke-linecap="round" stroke-linejoin="round" stroke-width="14.7408" vectornator:layerName="Curve 9"/>
<path d="M241.216 246.507C237.397 244.034 233.314 241.928 229.76 239.088C227.165 237.014 225.889 233.3 222.893 231.865C220.888 230.904 214.386 231.439 216.267 232.624C223.357 237.094 231.224 240.805 239.468 242.314C241.672 242.717 237.677 238.181 236.437 236.315C234.132 232.848 231.622 229.502 228.872 226.376C227.809 225.166 223.798 221.788 222.326 222.384C221.459 222.734 220.792 223.787 220.776 224.721C220.736 227.154 221.432 229.567 222.167 231.887C223.293 235.441 224.577 238.978 226.337 242.265C229.352 247.897 231.268 254.802 236.44 258.553C238.423 259.991 240.888 255.695 241.647 253.366C242.447 250.911 241.23 248.198 240.632 245.687C239.816 242.259 238.687 238.904 237.421 235.615C236.247 232.562 234.043 228.589 231.119 226.755C229.087 225.48 228.118 230.377 228.228 232.765C228.362 235.679 229.358 238.493 230.107 241.312C230.685 243.487 231.001 245.827 232.201 247.73C233.65 250.026 235.146 253.41 237.854 253.593C239.861 253.728 240.127 250.215 240.767 248.308C241.312 246.686 241.382 244.917 241.339 243.207C241.213 238.165 239.034 232.195 234.93 228.986C233.959 228.227 232.816 227.342 231.585 227.411C230.377 227.479 229.097 228.287 228.515 229.348C227.127 231.884 228.599 237.487 229.385 239.602C230.334 242.157 231.497 244.649 232.905 246.982C233.368 247.749 234.02 248.721 234.914 248.765C237.106 248.873 239.367 248.328 241.354 247.397C242.258 246.973 242.737 245.884 243.068 244.942C243.681 243.195 244.071 241.341 244.132 239.49C244.269 235.311 242.815 231.735 240.057 228.551C238.245 226.459 236.512 223.268 233.747 223.155C231.647 223.069 230.202 226.057 229.875 228.133C229.459 230.78 230.749 233.462 231.733 235.955C233.126 239.487 235.084 242.774 236.956 246.077C237.446 246.94 239.385 249.296 240.837 248.753C243.91 247.605 245.598 242.934 244.81 239.749C244.022 236.567 242.453 233.583 240.684 230.823C239.717 229.313 236.615 228.65 235.046 229.15C232.526 229.953 232.324 232.596 232.648 234.81C232.934 236.763 233.604 238.666 234.439 240.455C235.35 242.404 236.014 244.81 237.846 245.939C239.631 247.039 242.318 247.494 244.118 246.419C245.877 245.368 246.047 242.753 246.517 240.759C246.744 239.794 246.52 238.728 246.148 237.809C244.873 234.658 243.336 231.608 241.625 228.671C240.643 226.985 237.907 224.788 235.968 224.54C234.744 224.384 233.387 224.689 232.362 225.376C228.813 227.755 229.909 233.829 230.511 238.059C230.709 239.447 231.273 240.769 231.861 242.041C233.112 244.747 233.947 247.812 236.012 249.961C236.812 250.794 238.579 250.695 239.477 249.968C240.605 249.054 240.901 247.344 241.029 245.898C241.228 243.651 241.032 241.331 240.434 239.155C239.613 236.172 238.753 233.022 236.823 230.605C234.836 228.117 232.264 225.4 229.109 224.972C226.914 224.674 224.735 226.868 223.694 228.823C222.741 230.615 223.221 232.972 223.823 234.91C224.665 237.621 226.302 240.041 227.905 242.385C228.384 243.085 229.158 243.613 229.962 243.887C231.175 244.3 232.652 245.003 233.776 244.386C235.546 243.413 237.127 241.651 237.601 239.688C238.171 237.324 237.572 234.706 236.655 232.453C235.643 229.967 233.806 227.864 231.986 225.89C231.233 225.073 230.187 224.089 229.087 224.246C225.262 224.792 220.756 225.09 218.078 227.876C216.387 229.636 217.949 232.823 218.579 235.18C219.212 237.547 220.347 239.813 221.796 241.788C223.059 243.507 224.554 245.342 226.563 246.057C228.008 246.571 229.645 245.674 231.059 245.083C231.691 244.818 232.227 244.228 232.467 243.587C233.216 241.582 233.924 239.481 233.954 237.34C234.042 230.885 229.934 221.673 224.535 217.847C222.45 216.369 219.909 213.629 217.566 214.65C214.894 215.814 214.235 219.652 213.782 222.531C213.511 224.252 214.814 225.871 215.551 227.45C216.718 229.95 219.704 234.601 222.229 235.796C224.119 236.69 226.55 237.419 228.454 236.557C230.041 235.839 230.357 233.58 230.828 231.904C231.105 230.917 230.894 229.825 230.623 228.837C229.903 226.214 229.566 223.285 227.876 221.154C225.407 218.04 222.139 215.472 218.598 213.669C217.314 213.015 215.126 213.056 214.313 214.246C212.456 216.963 211.688 220.476 211.696 223.767C211.702 226.112 213.297 228.186 214.352 230.28C215.108 231.779 215.887 233.343 217.106 234.499C218.481 235.802 220.113 236.998 221.945 237.481C223.339 237.848 225.41 238.089 226.23 236.904C228.132 234.154 228.42 230.557 229.011 227.265C229.229 226.053 228.934 224.781 228.62 223.59C227.96 221.084 227.36 218.502 226.107 216.235C224.741 213.765 223.241 211.118 220.876 209.577C217.351 207.28 213.106 203.961 209.064 205.13C205.776 206.081 205.147 210.962 204.482 214.32C204.11 216.194 205.46 218.022 206.156 219.801C206.475 220.616 207.043 221.31 207.51 222.05C208.98 224.381 209.799 227.311 211.967 229.011C214.856 231.278 218.528 232.405 222.047 233.455C222.78 233.674 223.578 233.107 224.202 232.663C224.878 232.182 225.565 231.56 225.821 230.77C226.596 228.377 227.312 225.867 227.216 223.353C227.121 220.849 226.228 218.406 225.264 216.093C224.025 213.12 220.1 207.89 217.419 206.106C215.09 204.556 212.524 203.148 209.771 202.65C208.309 202.386 206.675 203.032 205.508 203.952C202.296 206.488 203.161 211.526 204.715 214.648C206.161 217.555 207.511 220.537 209.333 223.224C210.885 225.513 212.549 227.845 214.775 229.485C216.648 230.865 218.954 231.889 221.277 232.026C223.567 232.16 225.938 231.4 227.928 230.26C229.107 229.584 229.896 228.211 230.229 226.893C230.94 224.077 231.223 221.105 230.971 218.211C230.757 215.736 229.938 213.302 228.855 211.067C227.626 208.529 226.178 205.984 224.117 204.059C223.285 203.281 221.801 203.056 220.748 203.491C219.803 203.881 219.08 205.089 219.151 206.109C219.49 210.963 220.559 215.772 221.932 220.44C222.838 223.522 224.458 226.353 225.941 229.202C227.778 232.732 231.109 237.686 234.37 240.01C235.497 240.813 237.141 241.752 238.37 241.118C240.2 240.173 241.355 238.06 241.961 236.092C242.586 234.064 242.138 231.832 241.88 229.725C241.636 227.729 240.293 222.958 238.174 221.736C235.464 220.172 232.436 218.57 229.309 218.652C227.429 218.701 225.574 220.357 224.831 222.084C223.828 224.415 224.196 227.18 224.559 229.691C225.38 235.38 228.93 243.672 234.24 246.774C236.868 248.31 241.233 246.087 242.743 243.444C243.902 241.414 244.147 238.975 244.605 236.682C244.766 235.879 244.96 234.954 244.587 234.225C241.622 228.421 235.42 228.696 232.695 234.529C231.623 236.824 232.487 239.669 233.148 242.114C234.08 245.558 235.339 248.911 236.64 252.233C237.333 254.003 239.542 256.737 241.476 256.947C242.837 257.095 244.3 256.279 245.225 255.269C246.383 254.004 246.824 252.211 247.317 250.568C249.59 242.99 245.643 236.654 237.437 239.805C236.371 240.214 234.936 240.685 234.647 241.789C233.894 244.673 234.124 247.786 234.583 250.731C234.924 252.918 235.615 255.192 237.005 256.915C238.525 258.799 240.617 260.422 242.943 261.093C244.21 261.459 245.547 260.428 246.644 259.696C247.51 259.117 248.224 258.245 248.638 257.289C249.676 254.89 251.615 248.232 248.403 245.842C247.118 244.887 245.53 243.938 243.936 244.078C241.68 244.276 239.409 245.291 237.704 246.781C236.652 247.7 236.464 249.345 236.315 250.734C236.123 252.531 236.174 254.414 236.702 256.142C237.56 258.95 238.831 261.656 240.409 264.131C241.736 266.214 245.555 266.932 247.662 265.644C251.439 263.335 251.242 257.161 251.383 253.853C251.436 252.622 251.353 251.356 250.993 250.178C250.657 249.079 250.371 247.655 249.337 247.155C246.465 245.764 242.525 248.185 240.388 250.555C239.274 251.79 239.438 255.244 239.558 256.335C239.784 258.395 240.028 260.484 240.693 262.446C241.391 264.505 242.306 266.539 243.607 268.281C244.111 268.954 245.035 269.364 245.876 269.385C248.186 269.443 250.16 267.407 250.612 265.275C251.323 261.92 251.516 258.453 251.475 255.024C251.443 252.355 249.929 247.361 247.561 245.7C246.347 244.849 244.297 247.118 244.184 248.596C244.043 250.434 244.17 252.293 244.407 254.121C244.633 255.851 245.116 257.54 245.568 259.226C246.062 261.071 246.525 262.936 247.243 264.706C248.06 266.721 249.006 268.696 250.157 270.541C250.269 270.721 250.666 270.542 250.766 270.354C251.615 268.759 252.463 267.125 252.906 265.373C253.487 263.07 253.547 260.666 253.809 258.306C254.103 255.657 254.34 253.003 254.574 250.348C254.72 248.69 255.46 246.051 254.843 244.474C254.551 243.728 254.516 246.104 254.464 246.72C254.404 247.431 254.323 248.14 254.249 248.85C254.092 250.363 253.94 251.877 253.772 253.39C253.249 258.101 252.772 262.9 252.527 267.619C252.437 269.349 252.515 271.084 252.517 272.816C252.518 273.807 251.938 276.055 252.886 275.766C253.262 275.651 254.379 269.513 254.467 268.957C255.292 263.754 256.155 258.556 256.955 253.349C257.223 251.613 257.438 249.869 257.691 248.131C257.746 247.755 258.105 246.701 257.881 247.008C256.76 248.543 256.897 250.691 256.653 252.576C256.34 254.981 256.128 257.397 255.866 259.808C255.522 262.972 255.087 266.126 254.701 269.285C254.452 271.316 254.315 273.359 254.104 275.394C254.03 276.103 253.723 278.217 253.889 277.523C255.657 270.092 255.517 262.644 255.946 255.056C256.01 253.915 256.169 252.78 256.233 251.639C256.242 251.489 256.207 251.05 256.164 251.194C254.778 255.813 255.102 261.281 254.824 265.985C254.592 269.917 253.941 273.87 253.841 277.804C253.821 278.612 254.054 276.2 254.104 275.394C254.191 273.96 254.216 272.523 254.252 271.087C254.318 268.497 254.391 265.907 254.408 263.316C254.424 260.858 254.305 258.4 254.352 255.942C254.392 253.888 254.526 251.836 254.668 249.787C254.695 249.408 255.078 248.973 254.858 248.664C254.684 248.419 254.476 249.161 254.435 249.459C254.015 252.473 253.756 255.508 253.481 258.539C252.909 264.855 252.554 271.19 252.157 277.52C252.082 278.713 251.471 282.179 251.986 281.101C254.607 275.611 253.233 264.391 253.2 258.492C253.183 255.269 253.883 251.983 253.242 248.824C253.183 248.53 252.884 249.326 252.82 249.619C252.668 250.317 252.64 251.036 252.605 251.749C252.502 253.854 252.501 255.963 252.405 258.069C252.193 262.75 251.944 267.429 251.769 272.112C251.724 273.306 251.594 274.498 251.598 275.693C251.599 275.905 251.703 276.498 251.784 276.302C254.077 270.787 252.722 262.665 252.711 257.11C252.71 256.197 252.757 255.284 252.74 254.371C252.729 253.738 252.803 251.867 252.627 252.475C250.569 259.554 250.723 263.923 250.413 271.594C250.352 273.083 250.41 274.575 250.38 276.065C250.358 277.166 249.169 279.535 250.257 279.365C251.438 279.181 251.111 277.111 251.27 275.926C251.494 274.263 251.394 272.572 251.397 270.894C251.402 268.53 251.309 266.166 251.294 263.801C251.279 261.492 251.36 259.182 251.307 256.873C251.303 256.661 251.294 256.141 251.121 256.264C250.848 256.458 250.844 256.889 250.815 257.223C250.54 260.408 250.266 263.599 250.211 266.795C250.152 270.276 250.366 273.756 250.472 277.236C250.484 277.627 250.41 278.767 250.563 278.406C252.37 274.143 251.605 272.049 251.615 267.032C251.624 262.561 251.521 258.087 251.712 253.62C251.777 252.1 250.949 249.962 252.189 249.08C253.359 248.247 252.05 251.95 252.04 253.386C252.029 254.932 252.167 256.477 252.124 258.021C251.997 262.611 251.914 267.208 251.536 271.784C251.359 273.917 251.127 276.045 250.891 278.173C250.849 278.55 250.482 278.987 250.702 279.296C250.896 279.57 250.973 278.671 251.008 278.337C251.435 274.217 251.832 270.091 252.085 265.956C252.417 260.543 252.258 255.111 252.375 249.689C252.391 248.924 252.549 248.157 252.473 247.395C252.439 247.054 252.372 246.333 252.053 246.458C250.993 246.873 251.495 248.688 251.485 249.827C251.441 254.837 251.511 259.846 251.549 264.855C251.571 267.704 251.723 270.551 251.696 273.399C251.677 275.507 251.6 277.614 251.497 279.719C251.462 280.432 251.049 282.523 251.282 281.849C252.086 279.518 252.204 276.933 252.233 274.501C252.302 268.633 252.244 262.765 252.314 256.898C252.328 255.703 252.447 254.512 252.485 253.317C252.513 252.405 253.008 249.811 252.513 250.579C251.573 252.04 251.989 255.462 251.986 257.132C251.982 259.051 251.929 260.971 251.881 262.89C251.736 268.634 251.5 274.375 251.285 280.116C251.216 281.981 251.134 283.846 251.064 285.71C251.051 286.046 250.968 287.045 251.038 286.717C253.194 276.629 252.252 265.797 252.831 255.542C252.907 254.211 253.082 252.889 253.214 251.563C253.425 249.433 254.484 247.221 253.858 245.174C253.45 243.838 252.72 247.753 252.469 249.127C252.06 251.376 252.019 253.678 251.894 255.961C251.477 263.629 251.64 271.319 251.475 278.993C251.456 279.853 251.252 280.712 251.329 281.568C251.343 281.717 251.673 281.919 251.727 281.779C252.776 279.029 252.803 275.969 252.914 273.027C253.12 267.608 253.111 262.182 253.204 256.759C253.225 255.511 253.412 251.775 253.258 253.014C252.835 256.417 252.539 259.839 252.395 263.265C252.203 267.826 252.366 272.395 252.251 276.958C252.239 277.433 252.124 277.901 252.014 278.362C251.958 278.598 251.879 279.249 251.756 279.041C251.257 278.2 251.072 277.209 250.778 276.277C250.35 274.92 250.816 271.453 249.592 272.178C248.041 273.098 248.466 275.724 248.692 277.513C248.879 278.992 249.96 280.221 250.768 281.473C250.841 281.586 251.128 281.37 251.096 281.24C250.549 278.982 249.018 275.799 247.992 276.529C247.892 276.6 249.303 277.6 249.629 277.094C250.472 275.785 248.31 274.258 247.437 272.97C245.804 270.56 242.293 265.794 240.62 263.734C240.34 263.389 237.783 260.552 237.396 260.591C237.007 260.63 236.753 261.315 236.926 261.667C239.577 267.062 242.638 272.248 245.673 277.437C246.452 278.77 247.239 280.147 248.357 281.211C249.075 281.894 250.379 283.28 251.023 282.527C251.679 281.76 250.043 280.756 249.437 279.949C248.505 278.71 247.46 277.561 246.424 276.409C244.298 274.043 242.137 271.71 239.954 269.397C237.694 267.004 235.697 264.07 232.71 262.688C232.491 262.587 232.347 263.148 232.452 263.367C233.06 264.64 233.921 265.779 234.739 266.929C236.179 268.954 237.52 271.073 239.221 272.883C241.943 275.78 244.901 278.46 247.96 280.999C248.363 281.334 249.002 281.615 249.48 281.4C249.787 281.263 249.109 280.84 248.897 280.58C246.516 277.659 244.115 274.755 241.704 271.858C237.198 266.444 232.486 261.267 226.893 256.942C226.725 256.812 226.968 257.37 227.079 257.551C228.03 259.096 229.036 260.606 230.066 262.098C233.424 266.958 236.744 271.863 240.502 276.42C241.113 277.162 241.743 277.992 242.628 278.367C242.943 278.501 243.432 277.947 243.332 277.62C242.194 273.896 239.269 270.935 236.726 267.986C230.86 261.183 224.862 254.49 218.742 247.914C217.521 246.603 216.096 245.497 214.722 244.349C213.859 243.627 213.015 242.859 212.034 242.307C211.85 242.203 211.333 242.302 211.426 242.493C212.161 244.003 213.11 245.417 214.179 246.712C219.633 253.312 225.284 259.749 230.971 266.149C232.638 268.025 234.095 268.096 234.152 267.841C234.369 266.867 233.877 265.8 233.338 264.96C231.56 262.19 229.434 259.652 227.291 257.154C221.975 250.956 216.05 245.285 210.003 239.798C207.032 237.102 203.908 234.488 200.397 232.547C200.103 232.384 199.251 232.216 199.39 232.521C201.514 237.188 203.82 239.144 207.024 242.906C209.207 245.468 211.279 248.127 213.516 250.643C215.812 253.225 218.115 255.811 220.617 258.194C221.448 258.985 222.47 259.556 223.469 260.119C223.891 260.356 224.201 259.196 223.987 258.762C223.036 256.832 222.036 254.864 220.58 253.278C216.147 248.449 211.203 244.113 206.422 239.627C205.258 238.536 204.058 237.472 202.753 236.554C200.093 234.682 197.755 231.812 194.547 231.271C192.946 231.001 195.915 234.236 196.856 235.559C197.99 237.154 199.431 238.507 200.733 239.967C204.733 244.455 208.661 249.009 212.762 253.403C215.593 256.437 218.509 259.393 221.522 262.245C221.807 262.514 222.402 263.054 222.598 262.715C223.03 261.972 223.122 260.913 222.744 260.141C221.413 257.429 219.633 254.924 217.656 252.641C209.328 243.024 196.817 232.04 184.912 226.758C184.659 226.646 185.023 227.332 185.215 227.531C187.25 229.646 189.472 231.575 191.546 233.653C196.061 238.174 200.488 242.781 204.979 247.326C211.579 254.005 217.954 260.922 224.86 267.284C225.813 268.163 226.824 269.253 228.109 269.421C228.682 269.496 229.003 268.258 228.674 267.783C223.253 259.938 217.492 252.304 211.28 245.067C208.33 241.631 204.732 238.803 201.28 235.872C198.074 233.151 194.686 230.651 191.323 228.128C189.387 226.676 187.582 224.966 185.386 223.95C184.143 223.375 187.343 225.867 188.376 226.765C192.088 229.989 195.96 233.028 199.617 236.314C207.489 243.387 214.352 251.512 221.599 259.226C222.898 260.609 223.99 262.234 225.523 263.353C226.136 263.801 228.08 264.425 227.769 263.732C226.178 260.177 223.925 256.885 221.328 253.982C213.44 245.166 205.057 236.788 196.425 228.7C191.944 224.501 186.888 220.961 182.052 217.179C179.276 215.008 176.38 212.994 173.59 210.842C172.546 210.037 169.478 209.073 170.552 208.308C171.66 207.52 172.811 209.822 173.919 210.609C176.808 212.662 179.802 214.583 182.544 216.829C189.282 222.347 195.858 228.064 202.337 233.885C204.307 235.654 205.945 237.768 207.873 239.583C208.445 240.122 209.173 241.377 209.813 240.921C210.415 240.493 209.009 239.678 208.53 239.117C206.033 236.19 203.63 233.167 200.892 230.464C193.386 223.052 184.973 216.595 176.588 210.193C174.293 208.441 171.992 206.698 169.669 204.983C168.867 204.39 168.01 203.873 167.215 203.269C167.108 203.188 166.873 202.862 166.982 202.941C174.494 208.427 181.796 214.211 188.904 220.212C193.21 223.847 197.204 227.836 201.428 231.565C201.858 231.945 202.319 232.323 202.854 232.528C203.475 232.765 204.872 233.522 204.82 232.859C204.705 231.381 203.493 230.185 202.58 229.016C200.71 226.621 198.682 224.339 196.508 222.216C190.311 216.166 183.522 210.734 176.667 205.441C175.273 204.364 173.851 203.323 172.437 202.273C171.755 201.767 169.735 200.219 170.38 200.771C176.041 205.613 181.137 209.261 187.583 213.491C190.825 215.619 194.106 217.708 197.543 219.503C197.781 219.627 198.309 219.281 198.199 219.036C194.667 211.145 185.423 205.761 179.157 200.952C177.642 199.788 176.062 198.712 174.529 197.572C174.137 197.28 173.054 196.297 173.384 196.657C179.456 203.271 188.749 209.61 195.89 214.748C196.865 215.449 198.013 217.009 199.07 216.44C200.023 215.926 199.409 214.066 198.749 213.209C196.01 209.649 192.55 206.7 189.241 203.663C186.374 201.032 183.226 198.724 180.243 196.225C179.557 195.65 178.909 195.031 178.234 194.443C177.608 193.897 175.638 192.383 176.341 192.824C183.631 197.396 189.91 203.097 196.863 208.126C197.763 208.777 199.086 210.652 199.762 209.77C200.576 208.708 199.404 206.964 198.529 205.952C195.129 202.018 191.095 198.674 187.197 195.232C184.329 192.7 181.225 190.446 178.317 187.959C177.956 187.65 178.924 188.698 179.298 188.991C180.97 190.298 182.731 191.487 184.44 192.746C190.275 197.046 194.652 200.484 200.943 204.482C201.263 204.686 202.057 205.051 202.066 204.671C202.094 203.547 201.732 202.333 201.019 201.462C197.921 197.681 194.344 194.311 190.81 190.933C189.444 189.626 187.829 188.608 186.346 187.436C185.196 186.527 184.052 185.611 182.911 184.691C182.315 184.211 181.707 183.744 181.135 183.236C181.034 183.147 180.794 182.827 180.901 182.908C186.508 187.121 191.621 192.448 197.776 195.862C198.998 196.539 200.648 198.134 201.729 197.251C202.678 196.476 200.831 194.945 200.121 193.947C198.948 192.298 197.605 190.757 196.127 189.375C194.141 187.516 191.909 185.939 189.77 184.259C188.551 183.302 187.286 182.406 186.054 181.467C185.665 181.17 184.507 180.273 184.909 180.551C189.494 183.735 193.875 187.204 198.395 190.479C200.304 191.862 202.147 193.364 204.216 194.493C204.641 194.725 205.761 194.924 205.667 194.449C204.688 189.504 199.936 186.057 196.257 182.61C194.568 181.028 192.616 179.751 190.765 178.363C189.967 177.764 189.134 177.212 188.31 176.649C188.012 176.445 187.141 175.808 187.399 176.062C191.56 180.161 196.978 183.86 202.078 186.624C203.224 187.245 204.448 187.933 205.75 187.966C206.18 187.976 206.316 187.099 206.104 186.726C204.944 184.682 203.344 182.917 201.855 181.1C201.462 180.621 199.866 179.753 200.476 179.856C200.514 179.863 203.081 182.101 203.609 181.829C204.009 181.622 203.697 180.833 203.401 180.494C200.541 177.219 197.363 174.235 194.29 171.16C192.503 169.372 190.547 167.754 188.823 165.906C187.769 164.776 184.451 161.992 185.974 162.249C188.111 162.609 189.371 164.94 191.069 166.285" fill="none" opacity="0.985428" stroke="#a8a6ff" stroke-linecap="round" stroke-linejoin="round" stroke-width="14.7408" vectornator:layerName="Curve 10"/>
<path d="M138.071 189.089C130.333 184.286 122.513 179.573 114.369 175.496C113.035 174.828 111.666 174.213 110.249 173.745C109.877 173.622 108.862 173.419 109.073 173.749C110.877 176.564 114.713 177.348 117.613 179.013C121.781 181.405 126.002 183.707 130.126 186.175C133.905 188.435 137.605 190.824 141.317 193.194C141.729 193.457 142.868 194.389 142.495 194.072C133.05 186.027 121.813 180.118 110.693 174.772C109.127 174.02 107.506 173.362 105.838 172.877C105.353 172.736 106.161 173.911 106.577 174.197C109.663 176.327 112.841 178.321 116.001 180.34C119.173 182.367 122.387 184.328 125.571 186.336C128.031 187.886 130.341 189.698 132.933 191.015C133.554 191.331 132.15 189.838 131.606 189.403C129.63 187.825 127.572 186.342 125.42 185.014C117.94 180.396 110.635 176.264 102.897 172.298C100.752 171.199 98.5672 170.181 96.4208 169.085C95.1325 168.428 93.8977 167.666 92.5937 167.04C92.3685 166.932 91.7045 166.699 91.8585 166.895C93.8135 169.393 96.3755 170.939 98.9304 172.752C101.968 174.907 104.905 177.213 108.062 179.189C112.619 182.043 117.291 184.719 122.047 187.228C122.762 187.605 124.244 188.601 124.4 187.809C124.587 186.857 123.098 186.358 122.336 185.758C120.243 184.108 118.069 182.561 115.856 181.075C109.327 176.693 102.505 172.736 95.5391 169.088C92.8221 167.666 90.0635 166.323 87.297 164.999C85.8928 164.327 84.4311 163.779 83.0295 163.102C82.5152 162.853 81.152 161.822 81.5572 162.225C86.2825 166.921 93.3604 168.407 99.2207 171.575C105.148 174.78 110.925 178.256 116.739 181.661C120.06 183.605 123.096 186.074 126.604 187.655C127.109 187.883 125.871 186.811 125.425 186.483C122.085 184.027 118.778 181.51 115.263 179.314C111.357 176.873 107.27 174.731 103.192 172.591C98.7301 170.25 94.21 168.019 89.651 165.873C86.5548 164.417 83.3618 163.174 80.2333 161.788C78.7506 161.131 77.2557 160.495 75.8183 159.744C75.3842 159.518 74.6415 159.356 74.64 158.866C74.6387 158.462 75.4362 159.02 75.8165 159.157C78.9692 160.284 82.1739 161.292 85.2324 162.654C95.9987 167.45 106.702 172.441 117.022 178.133C119.289 179.383 121.511 180.713 123.794 181.933C124.067 182.079 124.932 182.4 124.677 182.224C109.754 171.922 95.022 165.38 78.1641 157.974C75.3491 156.737 72.4674 155.658 69.6299 154.473C68.7395 154.101 67.8296 153.765 66.9811 153.306C66.7375 153.174 66.135 152.615 66.3915 152.72C78.2223 157.548 89.7109 163.18 101.269 168.63C105.291 170.526 109.17 172.717 113.191 174.618C116.482 176.174 119.783 177.732 123.197 178.995C123.888 179.251 125.804 179.752 125.402 179.135C124.04 177.045 121.953 175.495 119.949 174.009C115.747 170.894 111.357 168.021 106.843 165.379C102.021 162.557 96.963 160.158 91.9767 157.637C89.1612 156.214 86.2883 154.907 83.4407 153.549C81.1863 152.473 78.8034 151.637 76.6709 150.337C75.9587 149.902 74.4605 149.023 75.0485 148.431C75.7269 147.749 76.9464 148.807 77.8429 149.157C80.1919 150.074 82.4908 151.121 84.7592 152.222C89.4101 154.48 94.0576 156.754 98.5946 159.233C106.203 163.39 113.172 168.775 121.119 172.242C121.443 172.383 120.823 171.557 120.528 171.362C117.264 169.2 114.036 166.937 110.516 165.221C102.63 161.376 94.4717 158.114 86.3834 154.715C84.7267 154.019 83.0149 153.363 81.2351 153.115C80.8012 153.054 82.0253 153.494 82.4125 153.699C86.4413 155.831 90.4766 157.952 94.4827 160.127C104.129 165.365 116.333 173.781 126.72 177.809C127.725 178.198 130.28 178.826 129.953 177.799C129.24 175.553 126.935 174.133 125.088 172.67C120.624 169.135 115.904 165.92 111.097 162.868C103.618 158.12 94.3114 153.293 86.2196 149.278C83.9429 148.149 90.7667 151.554 92.9904 152.784C96.3129 154.623 99.6056 156.518 102.854 158.485C107.655 161.392 112.356 164.463 117.136 167.405C119.325 168.752 121.203 171.104 123.761 171.352C125.485 171.519 121.458 168.734 120.076 167.69C114.47 163.453 108.812 159.256 102.845 155.546C95.8291 151.184 88.5926 147.049 80.9129 144.004" fill="none" opacity="0.985428" stroke="#a8a6ff" stroke-linecap="round" stroke-linejoin="round" stroke-width="14.7408" vectornator:layerName="Curve 11"/>
<path d="M176.823 222.327C177.919 222.543 178.774 223.506 179.474 224.377C179.653 224.599 178.941 224.139 178.738 223.938C177.803 223.009 176.995 221.96 176.084 221.007C175.127 220.006 174.118 219.054 173.136 218.077C169.886 214.847 166.879 211.714 163.847 208.26C155.914 199.222 148.752 190.009 142.157 179.965C139.822 176.409 137.88 172.905 135.072 169.7C134.385 168.917 133.706 168.127 133.007 167.356C132.757 167.079 132.229 166.162 132.563 166.328C135.197 167.635 138.001 171.238 140.079 173.212C145.1 177.98 149.697 183.208 154.966 187.714C156.228 188.793 162.172 193.4 163.651 192.243C165.246 190.994 164.97 189.367 164.812 187.537C164.773 187.095 164.735 186.652 164.661 186.214C164.635 186.062 164.443 185.636 164.512 185.774C165.499 187.733 165.492 189.368 166.147 191.794C166.198 191.983 166.158 191.402 166.146 191.206C166.106 190.569 166.089 189.928 165.993 189.296C165.789 187.967 165.561 186.638 165.246 185.331C165.177 185.045 165.241 185.919 165.248 186.213C165.297 188.123 165.508 190.035 165.413 191.943C165.328 193.67 165.271 198.391 163.086 199.886C161.397 201.042 158.984 198.93 157.348 197.7C155.239 196.112 153.385 194.205 151.307 192.575C150.58 192.004 149.149 190.21 148.952 191.113C148.633 192.57 150.141 193.85 150.728 195.222C151.375 196.736 152.029 198.247 152.652 199.771C152.828 200.202 152.621 201.322 152.216 201.095C150.753 200.278 149.569 199.04 148.238 198.022C146.574 196.747 144.94 195.43 143.23 194.216C142.873 193.963 142.405 193.372 142.053 193.632C141.4 194.114 140.848 195.05 141.031 195.84C141.544 198.06 143.011 199.945 143.989 202.003C144.243 202.537 144.454 203.093 144.729 203.617C145.095 204.316 146.158 204.92 145.911 205.671C145.714 206.266 144.897 204.927 144.438 204.499C143.323 203.461 142.276 202.351 141.195 201.277C140.31 200.398 139.538 199.389 138.541 198.64C137.893 198.152 136.905 197.043 136.334 197.618C135.777 198.178 137.118 198.989 137.516 199.671C138.693 201.69 139.947 203.673 141.355 205.538C141.65 205.929 142.633 207.003 142.24 206.711C139.01 204.303 136.255 200.763 133.396 197.921C132.166 196.699 130.41 195.754 129.857 194.111" fill="none" opacity="0.985428" stroke="#a8a6ff" stroke-linecap="round" stroke-linejoin="round" stroke-width="14.7408" vectornator:layerName="Curve 12"/>
<path d="M116.062 200.032C119.625 204.752 109.858 195.032 108.401 193.884C102.046 188.875 95.5772 184.362 89.8376 178.658C75.6926 164.6 61.4611 150.75 47.385 136.761C44.2785 133.673 40.2272 131.679 36.6342 129.299C34.4162 127.831 32.5455 125.889 30.3002 124.47C28.6478 123.425 27.2657 122.333 25.8807 120.956C25.7333 120.81 25.292 120.664 25.4385 120.517C25.6202 120.334 27.3257 121.6 27.4994 121.686C30.1019 122.977 32.6886 124.551 35.3011 125.924C44.8386 130.935 54.1664 136.749 64.1503 140.823C67.0972 142.026 70.3389 142.827 73.417 143.587C74.5234 143.86 75.7418 143.962 76.7992 144.311C77.2405 144.457 78.1245 145.213 78.1231 144.748C78.1191 143.471 71.1363 139.087 70.0211 138.454C68.9349 137.838 67.7856 137.336 66.6362 136.848C66.2755 136.695 65.2148 136.546 65.4606 136.852C66.4628 138.096 67.8594 139.461 69.2923 140.367C70.1967 140.938 70.0278 140.615 69.144 139.926C67.5981 138.722 66.0211 137.558 64.4305 136.414C64.2618 136.293 64.6815 136.772 64.8728 136.853C65.7112 137.21 66.7391 137.629 67.5179 136.845C68.6433 135.713 66.9932 133.708 69.1294 135.224" fill="none" opacity="0.985428" stroke="#a8a6ff" stroke-linecap="round" stroke-linejoin="round" stroke-width="14.7408" vectornator:layerName="Curve 13"/>
<path d="M69.0777 165.937C61.4833 158.39 52.577 151.13 45.9337 142.643C44.1159 140.321 41.0994 139.373 39.4504 137.079C37.4604 134.311 30.1537 126.233 26.7788 126.244C26.1553 126.246 27.5918 127.209 28.1055 127.562C28.6957 127.968 30.2977 129.22 30.757 129.612C33.2788 131.76 36.0082 133.756 38.5651 135.906C39.2973 136.522 40.7918 138.545 41.8062 138.541C41.9611 138.541 42.2961 138.54 42.2466 138.393C41.8727 137.283 37.0361 134.464 36.0601 133.71C32.5226 130.976 28.7626 128.215 25.5995 125.072C23.1297 122.617 20.7878 120.224 17.9371 118.336C17.761 118.219 14.7539 117.008 14.5549 117.612C14.535 117.672 15.2585 118.638 15.8806 118.636C16.3655 118.635 14.5048 117.269 14.8488 117.611C15.291 118.05 16.1754 118.929 16.1754 118.929C16.1754 118.929 15.2789 117.847 14.7014 117.464C14.1406 117.093 7.44489 114.157 10.5812 115.713" fill="none" opacity="0.985428" stroke="#a8a6ff" stroke-linecap="round" stroke-linejoin="round" stroke-width="14.7408" vectornator:layerName="Curve 14"/>
<path d="M300.3 44.4242C300.578 46.3258 299.728 48.1219 299.436 50.0111C298.799 54.1281 298.132 58.5355 296.976 62.5098C296.444 64.3407 296.357 66.3886 295.965 68.2442C294.753 73.988 293.046 79.4977 291.904 85.3034C291.418 87.7699 289.923 90.1663 289.575 92.6583C288.537 100.094 286.347 107.443 285.53 115.008C284.902 120.825 282.973 126.292 282.35 132.064C282.092 134.454 282.099 137.275 281.344 139.562C280.503 142.111 280.709 144.882 280.193 147.501C279.977 148.6 279.961 149.987 279.616 151.03C279.573 151.162 279.323 151.325 279.323 151.325C279.323 151.325 279.292 150.767 279.468 150.59C279.645 150.412 281.047 149.989 281.523 149.701C281.641 149.63 281.717 149.309 281.816 149.407C282.208 149.797 281.171 151.434 280.646 151.174C280.042 150.874 279.013 140.398 278.995 140.157C278.373 131.815 278.78 123.716 279.065 115.322C279.254 109.749 279.984 104.248 280.336 98.7121C280.417 97.4411 281.227 95.7891 280.324 94.8913C279.066 93.6414 278.67 100.828 278.581 101.363C278.139 104.016 277.537 106.643 277.136 109.303C275.684 118.937 273.577 128.47 272.229 138.121C271.818 141.063 271.576 143.981 271.374 146.941C271.307 147.923 271.162 148.899 271.09 149.881C271.075 150.076 271.154 150.654 271.091 150.469C270.441 148.537 271.75 143.53 271.947 141.943C272.421 138.12 272.919 134.3 273.381 130.476C273.884 126.308 274.387 122.139 274.958 117.98C275.382 114.891 275.757 111.795 276.252 108.718C276.719 105.815 277.331 102.938 277.842 100.042C277.96 99.3735 278.548 95.9601 278.414 95.0442C278.392 94.8909 278.009 95.0417 277.974 95.1925C277.749 96.151 277.823 97.1571 277.689 98.1325C276.961 103.431 276.26 108.734 275.387 114.011C274.603 118.75 273.474 123.425 272.492 128.127C272.205 129.5 271.992 130.892 271.623 132.245C271.287 133.473 271.371 135.37 270.164 135.776C269.978 135.839 270.144 135.383 270.162 135.188C270.381 132.883 270.562 130.573 270.876 128.279C271.233 125.67 271.722 123.081 272.174 120.487C272.926 116.17 273.683 111.855 274.485 107.547C275.08 104.355 275.782 101.184 276.366 97.9896C276.637 96.5075 277.643 92.2054 275.329 95.2007" fill="none" opacity="0.985428" stroke="#a8a6ff" stroke-linecap="round" stroke-linejoin="round" stroke-width="14.7408" vectornator:layerName="Curve 15"/>
<path d="M300.116 17.0995C301.262 16.1741 302.808 13.8172 303.451 12.4076C303.691 11.8801 303.932 11.3526 304.172 10.8251C304.232 10.6933 304.476 10.3531 304.353 10.4295C303.105 11.2029 302.53 12.7658 301.254 13.5564C299.177 14.8438 296.74 16.0635 294.467 16.9127C290.567 18.3699 286.253 17.9115 282.516 20.0648C273.778 25.099 262.873 29.1157 253.281 32.2999C246.25 34.6342 238.308 36.5422 232.076 40.5505" fill="none" opacity="0.985428" stroke="#a8a6ff" stroke-linecap="round" stroke-linejoin="round" stroke-width="14.7408" vectornator:layerName="Curve 16"/>
</g>
<g id="Untitled" vectornator:layerName="Untitled">
<path d="M306.981 0.726831C309.105-0.044764 311.948-0.612516 313.234 1.24569C313.981 2.3232 313.808 3.76459 313.604 5.05934C296.645 112.925 279.686 220.791 262.727 328.657C262.444 330.455 261.892 332.587 260.159 333.148C258.57 333.662 256.966 332.517 255.686 331.443C171.428 260.748 87.1692 190.052 2.91075 119.357C1.44246 118.125-0.166063 116.572 0.013827 114.664C0.223812 112.437 2.67577 111.246 4.77869 110.482C105.513 73.8972 206.247 37.312 306.981 0.726831M6.14272 115.266C78.8811 176.384 151.619 237.503 224.358 298.621C235.513 307.994 246.669 317.367 257.824 326.741C274.649 219.768 291.473 112.796 308.298 5.82302C207.579 42.3041 106.861 78.7852 6.14272 115.266Z" fill="#000000" fill-rule="nonzero" opacity="1" stroke="none" vectornator:layerName="path"/>
</g>
</svg>
