<?xml version="1.0" encoding="UTF-8" standalone="no"?>
<!DOCTYPE svg PUBLIC "-//W3C//DTD SVG 1.1//EN" "http://www.w3.org/Graphics/SVG/1.1/DTD/svg11.dtd">
<!-- Created with Vectornator (http://vectornator.io/) -->
<svg height="100%" stroke-miterlimit="10" style="fill-rule:nonzero;clip-rule:evenodd;stroke-linecap:round;stroke-linejoin:round;" version="1.1" viewBox="0 0 318.588 231.164" width="100%" xml:space="preserve" xmlns="http://www.w3.org/2000/svg" xmlns:vectornator="http://vectornator.io" xmlns:xlink="http://www.w3.org/1999/xlink">
<defs/>
<clipPath id="ArtboardFrame">
<rect height="231.164" width="318.588" x="0" y="0"/>
</clipPath>
<g clip-path="url(#ArtboardFrame)" id="Layer-1" vectornator:layerName="Layer 1">
<path d="M89.1079 81.5262C88.4912 81.5947 87.6242 81.231 87.2579 81.7318C84.1363 86.0001 80.6001 90.2474 79.0356 95.2986C78.0774 98.3922 79.1253 101.86 80.0634 104.96C80.7408 107.198 81.9726 109.417 83.7634 110.921C85.5756 112.443 87.9773 113.481 90.3413 113.593C93.9532 113.765 97.7651 113.297 101.03 111.743C106.454 109.163 111.423 105.546 115.83 101.465C118.928 98.5972 121.018 94.7828 123.231 91.1875C124.325 89.4098 125.228 87.4657 125.697 85.4318C126.067 83.8295 126.414 81.9787 125.697 80.4984C125.203 79.4775 123.746 79.1207 122.614 79.0595C121.07 78.9761 119.529 79.5171 118.092 80.0873C115.186 81.2402 112.065 82.1974 109.664 84.1985C105.786 87.4296 101.657 90.8991 99.5914 95.5042C98.1328 98.7557 99.2196 102.677 99.7969 106.193C99.9971 107.412 100.793 108.641 101.853 109.277C105.378 111.392 109.232 112.99 113.158 114.21C117.348 115.512 121.833 112.561 125.903 110.921C127.608 110.234 129.192 109.277 130.836 108.454" fill="none" opacity="1" stroke="#9dfc7c" stroke-linecap="round" stroke-linejoin="round" stroke-width="12.5423" vectornator:layerName="Curve 1"/>
<path d="M29.2905 87.4874C29.2905 80.5576 37.1527 73.6037 41.4184 68.7816C54.9302 53.5074 73.366 42.8382 91.3691 33.8367C111.223 23.91 132.571 17.4151 154.27 13.0753C160.146 11.9001 166.263 11.8798 172.153 11.2253C175.188 10.8881 178.382 11.6569 181.404 11.2253C189.721 10.037 199.337 9.97251 207.715 11.0197C210.654 11.3872 213.441 12.5467 216.348 13.0753C218.956 13.5493 221.452 13.5938 223.954 14.3087C226.325 14.986 229.113 14.9287 231.56 15.3365C233.371 15.6383 235.251 16.4779 236.904 17.1865C240.383 18.6773 244.417 19.074 248.004 20.2699C249.63 20.8116 251.344 21.8481 252.938 22.531C257.417 24.4507 262.279 25.3399 266.505 27.8755C272.387 31.4051 279.923 34.7162 284.799 39.5923C288.438 43.2309 290.543 48.8194 292.816 53.3647C293.738 55.2075 295.43 56.6837 296.722 58.2981C297.686 59.5039 298.283 60.9967 299.188 62.2037C301.03 64.6586 302.687 71.0653 303.3 74.1261C303.748 76.3697 305.185 78.4465 305.561 80.704C306.008 83.3869 306.338 86.4843 307 89.1319C307.946 92.9188 309.435 96.9548 308.85 101.054C308.32 104.765 306.846 108.556 305.766 112.154C304.621 115.972 303.53 119.893 302.272 123.666C301.348 126.437 299.064 128.847 297.75 131.477C294.533 137.911 290.901 143.951 286.033 149.36C280.211 155.829 272.518 160.874 265.066 165.188" fill="none" opacity="1" stroke="#9dfc7c" stroke-linecap="round" stroke-linejoin="round" stroke-width="12.5423" vectornator:layerName="Curve 2"/>
<path d="M30.7294 80.4984C17.9509 91.999 14.4726 105.888 11.818 121.816C11.0965 126.145 11.818 130.812 11.818 135.177C11.818 142.034 11.1121 149.504 13.2569 155.938C15.8249 163.642 16.1141 173.671 23.7404 178.755" fill="none" opacity="1" stroke="#9dfc7c" stroke-linecap="round" stroke-linejoin="round" stroke-width="12.5423" vectornator:layerName="Curve 3"/>
<path d="M25.3849 179.166C25.0235 178.444 28.3134 182.135 28.6738 182.455C30.9556 184.484 32.6091 186.932 35.0461 188.828C39.639 192.4 45.1202 193.694 49.8463 196.844C51.1644 197.723 52.5273 198.867 53.9575 199.517C54.4904 199.759 55.0584 199.916 55.6019 200.133C55.7442 200.19 56.1214 200.231 56.013 200.339C55.6738 200.678 52.5189 199.157 52.313 199.106C49.3992 198.377 43.7477 198.508 41.4184 196.844C39.9815 195.818 38.8625 194.333 37.3072 193.555C37.1702 193.487 37.0045 193.242 36.8961 193.35C36.5859 193.66 37.3904 194.086 37.7184 194.378C39.0979 195.604 40.6115 196.789 42.2406 197.667C46.1752 199.785 49.373 203.288 53.3408 205.272C55.1821 206.193 57.0844 206.501 58.8909 207.533C66.2172 211.72 74.2058 213.436 82.3245 215.756C87.4261 217.213 92.9062 219.49 98.1525 220.072C102.26 220.529 106.372 220.027 110.486 220.484C117.203 221.23 124.111 223.2 131.042 222.334C139.851 221.232 148.105 219.455 156.737 217.606C160.002 216.906 163.334 216.839 166.603 216.372C174.93 215.183 183.539 212.851 191.476 210.206C194.42 209.224 197.489 208.702 200.52 207.945C204.495 206.951 207.987 204.713 212.032 204.039C214.19 203.679 216.236 202.208 218.199 201.367C218.973 201.035 219.851 200.777 220.665 200.544C220.874 200.485 221.435 200.186 221.282 200.339C218.703 202.918 213.884 204.623 210.593 205.889C204.836 208.103 199.653 211.469 193.737 213.289C191.225 214.062 188.848 215.244 186.337 215.961C186.018 216.053 184.281 216.198 184.281 216.784C184.281 217.745 186.257 216.91 187.159 216.578C189.801 215.605 192.384 214.398 194.97 213.289C206.144 208.5 216.404 201.989 227.449 197.256C233.776 194.544 239.976 192 245.949 188.417C250.519 185.675 254.319 181.709 258.899 178.961C270.942 171.735 281.638 162.51 288.911 150.388C293.44 142.839 293.9 132.965 295.077 124.488" fill="none" opacity="1" stroke="#9dfc7c" stroke-linecap="round" stroke-linejoin="round" stroke-width="12.5423" vectornator:layerName="Curve 4"/>
<path d="M70.1966 101.876C70.4021 101.534 70.6177 101.197 70.8132 100.849C75.003 93.3857 80.0381 86.3337 83.3523 78.4428C84.4414 75.8496 84.8201 72.6215 83.7634 70.015C83.3138 68.906 81.2154 70.105 80.2689 70.8372C77.4711 73.0015 75.0299 75.6426 72.8688 78.4428C67.4478 85.4672 62.8119 93.2307 59.5075 101.465C56.8205 108.162 53.6359 114.864 52.7241 122.021C52.2179 125.995 51.3966 133.96 55.3964 133.738C61.2023 133.415 63.9789 125.808 67.5243 121.199C71.5585 115.954 74.9638 110.218 78.0078 104.343C81.8325 96.9615 85.2809 89.3546 88.0801 81.5262C89.3471 77.983 93.8729 70.8657 90.1357 70.4261C83.9735 69.7011 78.6333 75.643 74.1022 79.8818C69.9109 83.8026 67.41 89.2407 64.6465 94.2708C61.296 100.369 57.9897 106.575 55.8075 113.182C53.0291 121.594 51.5962 130.398 49.8463 139.083C49.5158 140.723 51.9645 142.658 52.7241 143.194C53.004 143.391 53.4573 143.369 53.7519 143.194C55.697 142.039 57.7328 140.918 59.302 139.288C61.3462 137.165 62.969 134.647 64.4409 132.094C69.6929 122.983 75.1172 113.926 79.4467 104.343C81.253 100.345 82.0204 95.9273 82.7356 91.5986C83.3285 88.0099 84.6245 84.1116 83.3523 80.704C82.4413 78.2639 79.548 76.617 76.98 76.1817C74.922 75.8329 72.9243 77.4372 71.2244 78.6484C67.3869 81.3826 63.7706 84.4729 60.5353 87.8985C57.9099 90.6783 55.677 93.845 53.7519 97.1486C50.1107 103.397 46.7339 109.824 43.8851 116.471C42.3984 119.94 41.2835 123.622 40.8017 127.366C40.3815 130.631 39.3038 134.551 41.2128 137.233C42.8613 139.548 46.5945 139.595 49.4352 139.494C50.8468 139.443 51.8862 137.959 52.7241 136.821C57.673 130.105 62.6062 123.328 66.7021 116.06C69.6262 110.871 71.9674 105.317 73.6911 99.6153C74.6677 96.3849 75.0025 92.9059 74.7188 89.543C74.5112 87.0812 73.8642 84.4261 72.2521 82.554C71.398 81.562 69.4814 81.4904 68.3465 82.1429C63.7359 84.794 59.3451 88.0383 55.8075 92.0097C51.9765 96.3106 48.7588 101.282 46.5574 106.604C43.291 114.501 41.4471 122.934 39.5684 131.271C39.2356 132.748 39.1963 134.498 39.9795 135.794C41.1101 137.663 42.755 140.454 44.9129 140.11C48.6492 139.515 51.5905 136.307 54.163 133.532C58.6639 128.679 62.24 123.028 65.8798 117.499C69.8116 111.527 72.0755 104.275 72.6633 97.1486C72.8892 94.4095 74.3551 90.418 72.0466 88.9263C68.4766 86.6196 63.2221 86.8725 59.302 88.5152C55.3227 90.1827 52.6061 94.2263 50.463 97.9709C46.2844 105.272 43.2718 113.224 40.5962 121.199C39.6767 123.94 38.5072 127.234 39.7739 129.832C41.4969 133.367 44.7428 136.949 48.6129 137.644C51.475 138.157 53.6573 134.668 55.8075 132.71C58.286 130.454 60.4838 127.865 62.3853 125.105C67.1638 118.168 70.4563 109.979 71.841 101.671C72.2353 99.3054 72.1529 96.8542 71.841 94.4764C71.5987 92.6283 71.4978 90.4665 70.1966 89.1319C68.5695 87.4631 66.1549 86.2541 63.8243 86.2541C61.3048 86.2541 58.7482 87.4923 56.8353 89.1319C52.3767 92.9535 48.6281 97.5795 45.1185 102.288C42.9744 105.164 41.3424 108.425 39.9795 111.743C38.1765 116.133 36.024 120.578 35.6628 125.31C35.319 129.814 36.3652 134.432 37.9239 138.671C38.2624 139.592 39.8207 139.288 40.8017 139.288C41.3236 139.288 41.8436 139.01 42.2406 138.671C44.1947 137.005 46.1543 135.306 47.7907 133.327C57.6559 121.393 62.5648 108.828 65.6743 93.6542C66.1284 91.438 66.6919 88.9821 65.8798 86.8707C65.1833 85.0596 63.3178 83.7937 61.5631 82.9651C60.6255 82.5224 59.4207 82.9406 58.4797 83.3762C55.6645 84.6796 52.8652 86.141 50.463 88.1041C46.4485 91.3847 42.7686 95.0898 39.3628 98.9987C36.7152 102.037 34.0724 105.21 32.3738 108.865C28.619 116.946 25.0164 125.237 23.1237 133.944C22.5377 136.639 23.2286 140.01 25.1793 141.96C26.5368 143.318 29.194 142.564 30.9349 141.755C34.2654 140.207 37.0271 137.615 39.7739 135.177C48.9296 127.051 54.1779 118.482 58.0686 106.81C58.5689 105.309 58.6903 103.65 58.4797 102.082C58.066 99.0021 58.309 95.337 56.2186 93.0375C54.882 91.5672 52.2163 92.7041 50.2574 93.0375C48.9269 93.264 47.7075 93.9757 46.5574 94.682C43.7877 96.3826 40.7847 97.881 38.5406 100.232C33.5236 105.488 28.6483 111.025 24.9737 117.293C22.7267 121.127 21.2611 125.599 21.0681 130.038C20.8387 135.316 21.5335 140.86 23.7404 145.66C24.5749 147.475 27.3811 148.509 29.2905 147.922C34.1987 146.411 38.5815 143.286 42.4462 139.905C45.2936 137.413 47.1028 133.914 49.0241 130.655C52.7212 124.383 55.1005 117.139 55.8075 109.893C56.0958 106.938 56.5412 102.368 53.9575 102.288C49.5738 102.151 45.2276 105.269 42.4462 108.66C39.1799 112.642 36.4461 117.068 34.0183 121.61C32.177 125.055 30.6364 128.712 29.7016 132.505C28.2242 138.499 26.5155 144.634 26.8238 150.799C27.0125 154.574 28.891 158.246 31.1405 161.283C31.925 162.342 33.7556 162.167 35.0461 161.9C37.513 161.388 39.9271 160.401 42.0351 159.022C43.7787 157.88 45.1958 156.233 46.3518 154.499C48.7846 150.85 51.1099 147.066 52.7241 142.988C53.7482 140.401 54.2589 137.547 54.163 134.766C54.0496 131.475 53.7111 127.98 52.1074 125.105C51.4517 123.929 49.2911 123.286 48.2018 124.077C43.066 127.806 38.2384 132.283 34.8405 137.644C31.9058 142.274 30.8908 147.915 29.7016 153.266C28.8215 157.227 28.283 161.356 28.6738 165.394C28.9165 167.902 29.7701 170.601 31.5516 172.383C32.7305 173.562 34.8297 173.404 36.485 173.205C38.3801 172.978 40.3513 172.357 41.8295 171.15C45.3209 168.298 48.4306 164.931 51.0796 161.283C54.4416 156.653 55.1062 151.368 55.1908 145.866C55.2184 144.073 56.0846 141.488 54.5741 140.521C51.8397 138.771 47.8025 137.808 44.9129 139.288C41.29 141.144 39.636 145.564 37.7184 149.155C36.3703 151.679 35.7716 154.563 35.2517 157.377C34.6012 160.897 33.7177 164.523 34.2239 168.066C34.7061 171.442 36.3388 174.62 38.1295 177.522C38.7853 178.585 43.7415 176.855 45.7351 175.466C48.0017 173.888 49.9503 171.851 51.6963 169.711C56.5584 163.751 60.9763 156.752 62.1798 149.155C62.7055 145.836 64.2604 141.337 61.7687 139.083C59.6608 137.175 55.9338 139.801 53.5463 141.344C51.2544 142.825 49.6277 145.275 48.4074 147.716C45.8861 152.759 44.1816 158.18 42.4462 163.544C41.9122 165.195 41.6481 166.948 41.624 168.683C41.5791 171.91 41.5074 175.202 42.2406 178.344C42.5058 179.48 43.3685 180.738 44.5018 181.016C47.2967 181.702 50.3082 181.555 53.1352 181.016C54.7632 180.706 56.1553 179.582 57.4519 178.55C59.5373 176.89 61.8148 175.272 63.2076 173C65.7888 168.788 67.7494 164.164 69.1688 159.433C70.0387 156.533 70.2232 153.407 69.991 150.388C69.8048 147.967 69.3823 145.349 67.9354 143.399C67.3907 142.665 66.0009 143.476 65.2632 144.016C63.1122 145.59 61.1895 147.499 59.5075 149.566C57.8758 151.572 56.2333 153.697 55.3964 156.144C52.6419 164.195 49.792 172.357 48.8185 180.811C48.4514 183.999 49.9043 187.271 51.4908 190.061C52.0695 191.079 53.6136 191.188 54.7797 191.294C56.6952 191.468 58.7551 191.611 60.5353 190.883C63.42 189.703 66.0957 187.9 68.3465 185.744C71.0288 183.175 73.273 180.122 75.13 176.905C77.1407 173.422 78.981 169.73 79.8578 165.805C80.4561 163.127 80.4501 160.137 79.4467 157.583C78.805 155.949 77.0497 154.67 75.3355 154.294C73.854 153.969 72.2905 154.906 71.0188 155.733C68.1206 157.617 65.4275 159.848 63.002 162.311C60.9441 164.4 59.0234 166.704 57.6575 169.3C56.2447 171.984 54.9902 174.907 54.7797 177.933C54.4314 182.94 54.782 188.073 56.013 192.939C56.316 194.136 57.8613 194.973 59.0964 194.994C62.1061 195.046 65.3858 194.745 67.9354 193.144C72.0803 190.543 75.203 186.555 78.4189 182.866C79.8938 181.175 81.106 179.205 81.9134 177.111C83.3186 173.466 84.734 169.702 84.9968 165.805C85.1589 163.401 84.1784 160.994 83.1467 158.816C82.8578 158.206 81.9552 157.846 81.2967 157.994C78.4406 158.635 75.6234 159.638 73.0744 161.077C71.3003 162.079 69.8852 163.648 68.5521 165.188C66.7851 167.23 64.7566 169.232 63.8243 171.766C62.033 176.635 60.3518 181.793 60.5353 186.978C60.6416 189.979 62.3991 193.002 64.6465 194.994C65.8771 196.085 67.9845 195.393 69.5799 194.994C71.0972 194.615 72.5196 193.769 73.6911 192.733C80.6281 186.597 87.2748 176.66 85.819 166.833C85.571 165.159 85.327 163.115 83.969 162.105C82.2868 160.854 79.8872 160.655 77.8022 160.872C76.3646 161.021 75.19 162.181 74.1022 163.133C71.8776 165.079 69.7534 167.174 67.9354 169.505C67.0494 170.641 66.5075 172.033 66.0854 173.411C65.1991 176.303 64.3006 179.237 64.0298 182.25C63.7474 185.392 63.7417 188.629 64.4409 191.705C64.8032 193.299 65.7589 194.902 67.1132 195.817C68.505 196.757 70.3698 196.945 72.0466 196.844C75.2538 196.652 79.3689 194.521 81.5023 192.117C84.7131 188.498 88.2932 184.988 90.3413 180.605C91.8345 177.41 91.968 173.644 91.7802 170.122C91.6176 167.073 88.4564 163.704 85.4079 163.544C84.1096 163.476 82.7215 163.963 81.7078 164.777C78.1188 167.659 74.5248 170.699 71.841 174.439C70.2366 176.674 69.6375 179.538 69.1688 182.25C68.6668 185.154 68.6506 188.158 68.9632 191.089C69.2048 193.354 69.3904 195.888 70.8132 197.667C72.3476 199.585 74.7316 201.262 77.1855 201.367C80.046 201.489 82.6719 199.623 85.2023 198.283C86.23 197.739 87.0197 196.781 87.669 195.817C89.4344 193.194 91.125 190.489 92.3969 187.594C94.5165 182.77 93.5684 177.773 92.3969 172.794C92.0176 171.182 91.5306 169.424 90.3413 168.272C89.1715 167.139 87.4463 166.355 85.819 166.422C81.4763 166.599 76.7516 171.367 74.7188 174.439C71.2871 179.624 69.7985 185.995 69.5799 192.117C69.4864 194.733 69.4828 197.476 70.4021 199.928C71.1913 202.032 72.6583 204.003 74.5133 205.272C75.5312 205.969 77.0338 205.633 78.2133 205.272C79.5957 204.85 80.8159 203.952 81.9134 203.011C83.7163 201.466 85.5039 199.831 86.8468 197.872C91.7224 190.762 94.7794 182.504 93.0135 173.822C92.671 172.138 92.0966 170.381 90.9579 169.094C90.3522 168.409 89.1357 168.141 88.2857 168.477C85.6519 169.52 83.1682 171.074 81.0911 173C79.3212 174.641 77.3889 176.582 76.98 178.961C75.8307 185.648 70.1489 197.116 76.5689 199.311C85.1805 202.255 93.6931 192.568 101.03 187.183C102.819 185.87 101.947 182.822 102.058 180.605C102.154 178.684 102.541 176.553 101.647 174.85C100.931 173.486 99.2805 172.428 97.7414 172.383C96.4674 172.346 95.4822 173.672 94.658 174.644C92.7775 176.862 90.87 179.166 89.7246 181.839C88.3629 185.016 87.8979 188.514 87.2579 191.911C86.262 197.197 87.6404 203.327 92.1913 206.711C93.2489 207.498 94.8226 207.664 96.0969 207.328C98.6152 206.663 100.979 205.365 103.086 203.833C104.607 202.727 107.25 199.674 108.43 197.461C109.772 194.946 111.356 192.532 112.336 189.855C113.154 187.622 114.022 185.232 113.775 182.866C113.387 179.159 111.94 175.61 110.486 172.177C110.181 171.458 109.417 170.708 108.636 170.739C103.216 170.951 97.0137 173.396 94.0413 177.933C91.521 181.78 89.623 186.072 88.2857 190.472C87.4666 193.167 87.1358 196.134 87.669 198.9C88.2669 202.001 89.4643 205.183 91.5746 207.533C92.7631 208.857 94.9365 208.893 96.7136 208.972C100.503 209.141 104.359 205.729 106.58 203.422C110.169 199.695 114.118 193.144 115.419 188.211C115.944 186.223 115.823 184.06 115.419 182.044C115.052 180.209 114.15 178.492 113.158 176.905C112.744 176.243 112.072 175.628 111.308 175.466C109.7 175.125 107.894 174.838 106.375 175.466C103.74 176.557 101.148 178.157 99.3858 180.4C96.5072 184.063 94.8183 188.53 92.808 192.733C92.5403 193.293 92.4734 193.976 92.6024 194.583C93.6456 199.492 93.2912 205.163 96.3025 209.178C97.783 211.152 101.333 210.071 103.703 209.383C105.822 208.768 107.425 206.973 109.047 205.478C114.495 200.457 120.786 192.148 118.914 184.1C118.608 182.784 117.989 181.346 116.858 180.605C114.338 178.954 110.45 181.246 108.225 183.278C106.43 184.916 104.767 186.756 103.497 188.828C100.184 194.232 99.5962 198.331 99.7969 204.656C99.8439 206.134 100.064 207.704 100.825 208.972C101.772 210.551 103.053 212.119 104.73 212.878C106.166 213.528 107.979 213.421 109.458 212.878C111.492 212.131 113.238 210.676 114.803 209.178C116.496 207.557 118.269 205.812 119.119 203.628C120.857 199.168 121.482 194.346 122.408 189.65C122.456 189.407 122.23 189.117 121.997 189.033C118.568 187.799 116.914 186.612 114.597 189.855C113.154 191.876 111.85 194.066 111.103 196.433C110.586 198.068 110.409 199.929 110.897 201.572C111.752 204.451 113.041 207.32 115.008 209.589C115.902 210.621 117.619 211.254 118.914 210.822C121.871 209.837 124.68 208.035 126.725 205.683C128.937 203.14 130.128 199.818 131.247 196.639C131.866 194.883 132.073 192.938 131.864 191.089C131.605 188.801 130.341 184.438 127.342 183.689C124.558 182.993 121.135 186.619 120.147 188.211C118.624 190.665 117.316 193.376 116.858 196.228C116.401 199.076 117.117 201.998 117.475 204.861C117.532 205.317 117.801 205.739 118.092 206.095C119.043 207.258 119.838 208.697 121.175 209.383C124.78 211.235 127.939 209.466 130.836 207.328C136.873 202.872 139.203 195.446 138.853 188.211C138.794 186.987 138.011 185.848 137.209 184.922C132.939 179.995 128.518 181.864 124.258 185.95C119.2 190.801 115.8 198.315 117.064 205.478C117.33 206.987 117.992 208.552 119.119 209.589C119.891 210.299 121.208 210.537 122.203 210.206C124.277 209.514 126.313 208.356 127.753 206.711C133.086 200.616 136.831 193.123 139.675 185.539" fill="none" opacity="1" stroke="#9dfc7c" stroke-linecap="round" stroke-linejoin="round" stroke-width="12.5423" vectornator:layerName="Curve 5"/>
<path d="M21.2251 146.561C20.0373 148.145 20.5441 150.525 20.8165 152.486C21.2648 155.714 21.8326 158.935 22.6553 162.089C23.2883 164.515 24.1331 167.809 27.1502 167.809" fill="none" opacity="1" stroke="#9dfc7c" stroke-linecap="round" stroke-linejoin="round" stroke-width="12.5423" vectornator:layerName="Curve 6"/>
<path d="M62.7006 199.274C62.3601 199.001 61.432 198.097 61.6791 198.456C63.9609 201.775 66.7676 204.695 70.8732 205.607C73.8464 206.268 76.8746 206.653 79.8629 207.242C84.5634 208.168 90.1738 210.09 94.9821 209.489" fill="none" opacity="1" stroke="#9dfc7c" stroke-linecap="round" stroke-linejoin="round" stroke-width="12.5423" vectornator:layerName="Curve 7"/>
<path d="M7.94475 143.905C6.16196 136.774 5.69547 128.721 9.57925 122.248" fill="none" opacity="1" stroke="#9dfc7c" stroke-linecap="round" stroke-linejoin="round" stroke-width="12.5423" vectornator:layerName="Curve 8"/>
<path d="M18.9777 116.936C17.355 115.854 19.4792 113.025 20.2035 111.215C20.4639 110.564 20.8569 109.973 21.2251 109.376C27.09 99.8707 33.9355 91.4922 41.4521 83.2239C51.6666 71.9879 64.7777 62.5596 77.4112 54.4157C81.9202 51.5091 86.6005 48.8172 91.5088 46.6518C97.3049 44.0948 103.374 42.1825 109.284 39.9095C114.366 37.955 119.63 36.4671 124.812 34.8017C129.361 33.3395 133.645 31.4343 138.296 30.3068C141.099 29.6274 143.909 28.8785 146.673 28.0594C147.75 27.7403 148.834 27.4268 149.942 27.2421C150.417 27.1629 151.713 27.3783 151.373 27.0378C150.02 25.685 145.766 26.081 144.426 26.2205C140.215 26.6592 136.074 27.6613 131.963 28.6723C116.381 32.5039 102.663 39.4591 88.8527 47.4691C87.5878 48.2027 86.1406 48.6349 84.9708 49.5122C84.8618 49.5939 85.2603 49.5784 85.3794 49.5122C85.8915 49.2277 86.2966 48.7737 86.8096 48.4907C88.2763 47.6814 89.8296 47.0374 91.3045 46.2432C95.4697 44.0004 99.4244 41.3834 103.563 39.0923C111.686 34.5957 122.138 30.0675 130.941 26.4248C143.117 21.3866 156.574 19.5506 169.556 18.2523C174.457 17.7623 179.524 16.4416 184.471 16.8221C193.319 17.5027 202.201 18.3744 211.032 19.4782C217.537 20.2913 224.033 20.3278 230.442 21.93C249.084 26.5904 266.625 35.9488 280.498 49.3079C284.409 53.0739 288.881 57.5444 291.123 62.5883C293.499 67.934 293.674 74.0055 294.392 79.7506C295.221 86.3839 298.546 93.9854 296.639 100.795C291.026 120.84 277.792 141.635 260.884 153.712" fill="none" opacity="1" stroke="#9dfc7c" stroke-linecap="round" stroke-linejoin="round" stroke-width="12.5423" vectornator:layerName="Curve 9"/>
<path d="M303.586 68.5133C303.586 68.0366 303.229 67.3999 303.586 67.0831C304.047 66.6734 304.855 66.6416 305.425 66.8788C305.569 66.9392 308.333 73.0192 308.694 74.0298C310.259 78.4128 309.715 83.7314 309.715 88.3317C309.715 91.4793 310 94.8008 309.715 97.9344C309.309 102.4 307 107.451 305.016 111.419C303.851 113.749 303.9 116.436 302.564 118.774C301.704 120.28 300.935 122.038 299.704 123.269C298.791 124.182 297.011 124.569 296.435 125.721" fill="none" opacity="1" stroke="#9dfc7c" stroke-linecap="round" stroke-linejoin="round" stroke-width="12.5423" vectornator:layerName="Curve 10"/>
<path d="M299.499 113.258C292.28 121.975 285.061 130.693 277.842 139.41" fill="none" opacity="1" stroke="#9dfc7c" stroke-linecap="round" stroke-linejoin="round" stroke-width="12.5423" vectornator:layerName="Curve 11"/>
<path d="M266.196 160.046C262.195 164.047 259.487 167.422 254.755 170.261C254.414 170.466 255.115 169.546 255.368 169.24C256.412 167.975 257.575 166.812 258.637 165.562C259.891 164.087 261.058 162.54 262.315 161.067C269.207 152.987 276.265 145.087 283.972 137.775C286.836 135.058 286.928 134.975 290.101 132.463C290.635 132.041 292.345 130.933 291.736 131.237C287.614 133.298 283.929 137.887 280.907 140.84C277.754 143.922 275.209 147.32 272.326 150.647C269.591 153.803 268.145 155.341 265.175 158.411C264.438 159.172 263.65 159.884 262.927 160.659C262.592 161.018 261.634 162.004 262.11 161.884C263.256 161.598 265.17 159.06 265.379 158.82C268.603 155.112 271.747 151.251 275.595 148.195C276.693 147.323 277.912 145.812 279.272 146.152C279.42 146.189 279.173 146.45 279.068 146.561C278.01 147.681 276.933 148.786 275.799 149.83C273.494 151.953 271.068 153.948 268.853 156.164" fill="none" opacity="1" stroke="#9dfc7c" stroke-linecap="round" stroke-linejoin="round" stroke-width="12.5423" vectornator:layerName="Curve 12"/>
<path d="M125.629 214.189C125.891 213.403 127.254 213.835 128.081 213.78C129.388 213.693 130.662 213.323 131.963 213.167C135.689 212.72 139.683 213.341 143.404 212.963C146.113 212.687 150.153 211.392 152.803 210.715C162.457 208.25 172.448 206.653 182.019 203.973C184.705 203.221 187.266 202.169 189.988 201.521C195.699 200.161 201.566 199.092 207.15 197.231C215.495 194.449 223.131 190.768 231.055 187.015C239.527 183.001 247.638 178.562 255.164 172.917C257.172 171.411 258.968 169.635 260.884 168.014C261.031 167.889 261.379 167.777 261.293 167.605C260.908 166.835 259.625 168.064 258.841 168.422C257.068 169.233 255.322 170.106 253.529 170.874C248.657 172.962 243.708 174.945 238.819 177.004C227.666 181.699 216.107 185.333 204.903 189.875C191.616 195.262 178.672 201.208 164.857 205.199C158.439 207.053 153.032 207.06 146.469 207.446C143.506 207.621 140.664 208.468 137.684 208.468C135.271 208.468 132.179 208.415 129.92 207.446C129.64 207.326 129.029 207.333 129.102 207.038C129.203 206.634 132.971 206.045 134.415 205.812C135.565 205.626 136.744 205.627 137.888 205.403C139.882 205.013 141.864 204.548 143.813 203.973C155.777 200.445 167.737 196.475 179.568 192.531C191.593 188.523 204.03 184.944 215.731 180.068C228.087 174.92 238.913 168.159 250.26 161.067C253.826 158.838 257.262 156.234 260.884 154.121C261.884 153.537 263.088 153.261 263.949 152.486C264.465 152.021 262.501 152.537 261.906 152.895C260.884 153.508 259.874 154.139 258.841 154.733C257.626 155.433 256.406 156.127 255.164 156.777C249.093 159.95 242.708 162.376 236.367 164.949C224.8 169.643 213.826 175.641 202.246 180.273C188.987 185.576 175.028 189.167 161.384 193.349C154.598 195.428 147.543 196.677 140.544 197.844C139.018 198.098 134.759 198.668 132.984 198.865C132.111 198.962 131.165 198.696 130.328 198.456C130.121 198.397 129.543 198.381 129.715 198.252C131.552 196.875 138.757 196.566 140.953 196.209C147.434 195.154 153.735 193.404 159.954 191.305C169.081 188.225 177.869 184.554 186.923 181.294C200.105 176.549 213.483 171.812 226.151 165.766C233.44 162.288 240.082 157.449 246.991 153.303C255.343 148.292 262.565 143.45 269.465 136.55C275.48 130.535 282.297 122.871 284.585 114.484C285.876 109.75 287.093 104.492 287.445 99.5689C287.581 97.6625 286.772 95.5892 286.628 93.6438C286.326 89.5673 285.799 85.8035 285.198 81.7937C284.393 76.4328 284.168 72.1711 282.133 67.0831C281.189 64.7225 279.289 63.6264 277.638 61.9753C273.612 57.9492 269.463 55.1665 264.766 51.964C259.659 48.4815 254.214 46.7546 248.626 44.2001C243.11 41.6785 237.531 38.7 231.872 36.4362C230.308 35.8105 228.586 35.6821 226.968 35.2103C220.547 33.3373 214.193 31.5536 207.559 30.5111C191.534 27.993 174.514 27.5154 158.319 28.468C153.064 28.7771 148.313 29.7397 143.2 30.9197C141.365 31.3433 139.545 31.8592 137.684 32.1456C137.414 32.187 136.623 32.2674 136.866 32.1456C138.439 31.3594 140.901 31.3061 142.587 30.9197C148.267 29.6181 153.597 28.5343 159.341 27.6507C168.474 26.2456 177.652 24.7903 186.923 24.7903C194.787 24.7903 202.407 25.944 210.215 26.8335C217.147 27.6232 225.317 26.7642 231.872 29.2852C237.839 31.5803 242.751 34.9714 248.013 38.4793C252.819 41.6833 257.375 44.6452 261.702 48.4907C262.403 49.114 272.465 61.8547 271.509 57.0718C271.139 55.2257 266.342 53.5273 265.175 52.9855C264.096 52.4847 263.01 51.9971 261.906 51.5554C252.625 47.8429 243.154 45.3465 233.302 43.5871C222.336 41.6289 211.284 39.4502 200.203 38.275C191.839 37.3879 183.265 37.5214 174.869 37.2534C149.462 36.4426 124.008 39.7518 100.294 49.3079C87.4164 54.4975 76.4444 61.443 65.3567 69.9435C61.1472 73.1708 58.1889 77 54.3238 80.5678C53.2599 81.5499 52.131 82.4596 51.0548 83.4282C50.7684 83.6859 50.4842 83.9495 50.2376 84.2454C50.1401 84.3624 49.9256 84.7618 50.0332 84.6541C62.0298 72.6575 75.4078 63.5929 90.6915 56.0502C96.5251 53.1713 102.892 51.5191 109.08 49.5122C115.603 47.3965 122.512 46.8217 129.307 46.6518C131.354 46.6007 133.798 47.4718 135.436 46.2432C135.84 45.9405 134.409 45.757 132.78 45.8346C130.442 45.9459 128.124 46.374 125.833 46.8562C121.657 47.7354 119.073 48.4347 114.8 49.9208C102.056 54.3538 92.7466 62.3412 82.7233 70.7608C79.366 73.581 76.1124 76.5451 73.1206 79.7506C72.4236 80.4974 71.2818 82.2023 71.2818 82.2023C71.2818 82.2023 71.3717 81.8942 71.4861 81.7937C73.628 79.9114 75.8241 78.0913 78.0241 76.2772C79.7064 74.8901 81.2854 73.3504 83.132 72.191C96.1802 63.9979 108.632 57.2101 122.769 51.5554C155.453 38.4816 192.978 44.1284 226.56 50.1252C231.932 51.0845 237.48 51.5424 242.905 52.1683C250.248 53.0156 258.353 53.3566 263.132 59.7279C269.138 67.7365 272.931 79.966 275.595 89.5576C276.987 94.5686 278.43 98.4251 276.821 103.655C274.653 110.7 271.308 117.417 267.422 123.678C266.416 125.299 265.332 126.877 264.153 128.377C263.207 129.581 261.857 131.205 261.906 131.237C263.297 132.165 265.92 127.806 266.401 127.151C268.393 124.44 270.508 121.81 272.326 118.979C278.194 109.835 280.953 93.7234 278.66 83.0196C277.503 77.6208 274.185 72.0527 271.1 67.4918C270.367 66.4082 269.351 65.5308 268.648 64.4271C268.435 64.092 267.65 63.3092 268.035 63.4055C269.475 63.7654 270.78 66.8219 271.1 67.9004C272.733 73.4116 273.522 77.2315 273.756 82.6109C274.184 92.4467 272.859 100.86 269.465 110.193C268.438 113.019 267.561 115.689 265.788 118.161C260.769 125.162 254.19 130.462 248.83 137.163C244.557 142.503 243.47 145.557 237.593 149.626C236.476 150.399 234.03 152.473 233.711 152.282C232.86 151.772 233.89 150.181 234.528 149.421C235.519 148.241 236.596 147.118 237.797 146.152C241.494 143.179 246.986 139.242 251.486 137.367C253.797 136.404 258.496 136.658 260.067 134.302C260.334 133.901 259.06 134.277 258.637 134.506C257.391 135.181 256.307 136.121 255.164 136.958C253.515 138.165 251.878 139.388 250.26 140.636C246.403 143.612 242.741 146.63 239.227 150.034C238.776 150.471 238.478 151.056 238.001 151.464C237.513 151.883 235.969 152.99 236.367 152.486C240.552 147.185 246.052 142.18 251.486 138.184C253.135 136.972 253.969 136.265 255.776 135.937C256.045 135.888 256.594 135.664 256.594 135.937C256.594 137.623 254.469 138.603 253.12 139.614C251.594 140.759 249.931 141.717 248.421 142.883C244.906 145.6 242.021 148.663 239.227 152.077" fill="none" opacity="1" stroke="#9dfc7c" stroke-linecap="round" stroke-linejoin="round" stroke-width="12.5423" vectornator:layerName="Curve 13"/>
<path d="M251.077 46.4475C251.145 46.5837 251.246 46.708 251.282 46.8562C253.222 55.0207 255.387 63.1386 257.002 71.3737C259.099 82.0603 259.622 93.0027 260.476 103.859C260.578 105.165 260.864 106.451 261.089 107.741C261.137 108.018 261.204 108.825 261.293 108.559C261.861 106.856 261.724 104.087 261.702 102.429C261.649 98.479 261.718 94.5236 261.497 90.5791C261.036 82.3286 260.174 74.1046 259.658 65.8573C259.425 62.1164 259.175 58.3675 259.25 54.62C259.258 54.223 259.796 55.2501 259.863 55.6416C260.414 58.8896 260.655 62.1829 261.089 65.4486C261.813 70.9004 262.425 76.3701 263.336 81.7937C264.982 91.5935 267.364 101.256 269.261 111.01C269.394 111.692 269.67 113.748 269.67 113.054C269.67 99.2372 265.673 84.6294 262.723 71.578C261.591 66.5671 260.466 61.5368 258.841 56.6632C258.793 56.5187 258.645 56.9198 258.637 57.0718C258.508 59.3848 258.463 61.7021 258.433 64.0184C258.395 66.8105 258.355 69.6041 258.433 72.3953C258.689 81.611 259.648 90.7955 260.476 99.9775C260.807 103.65 260.964 107.337 261.293 111.01C261.373 111.903 261.603 112.776 261.702 113.667C261.739 114.005 261.702 115.029 261.702 114.688C261.702 102.916 260.014 90.881 257.82 79.3419C256.792 73.9354 255.448 68.5932 254.346 63.2012C253.909 61.0597 253.938 61.1086 253.938 59.7279C253.938 59.5917 253.923 60.0011 253.938 60.1365C254.059 61.2279 254.255 62.3112 254.346 63.4055C254.596 66.3987 254.706 69.4025 254.959 72.3953C255.835 82.7327 257.64 93.171 259.046 103.451C259.716 108.356 260.434 113.254 261.089 118.161C261.116 118.364 261.089 118.979 261.089 118.774C261.089 102.51 257.138 86.5925 253.938 70.7608C253.265 67.4351 252.718 64.0853 252.099 60.7494C251.833 59.318 252.24 57.5545 251.282 56.4589C250.683 55.7751 250.733 58.2086 250.669 59.1149C250.528 61.0849 250.531 63.0698 250.669 65.04C251.621 78.6712 252.73 92.2917 253.938 105.903C254.405 111.17 255.035 116.432 255.981 121.635C256.066 122.104 256.044 120.677 255.981 120.205C255.635 117.607 255.177 115.027 254.755 112.441C254.155 108.761 253.539 105.084 252.916 101.408C250.751 88.635 248.365 75.9284 245.969 63.2012C245.574 61.0996 245.273 58.9811 244.948 56.8675C244.864 56.3248 244.711 54.6849 244.744 55.233C245.977 76.1976 248.262 97.1016 250.669 117.957C251.014 120.953 251.303 123.956 251.69 126.947C251.78 127.636 251.608 128.499 252.099 128.99C252.484 129.375 252.165 127.896 252.099 127.355C251.62 123.465 250.996 119.593 250.464 115.71C249.43 108.152 248.437 100.588 247.4 93.0309C246.256 84.7001 244.846 76.408 243.518 68.1047C242.755 63.3395 242.187 58.5407 241.27 53.8028C240.959 52.1953 240.395 50.6441 239.84 49.1036C239.775 48.9224 239.46 48.5045 239.431 48.695C238.421 55.4304 239.276 62.325 239.636 69.1263C240.173 79.2825 240.834 89.4337 241.679 99.5689C242.265 106.599 243.199 113.596 243.926 120.613C244.348 124.683 244.206 126.543 245.152 130.012C245.206 130.209 245.172 129.602 245.152 129.399C244.899 126.741 244.647 124.082 244.335 121.43C243.724 116.236 242.827 111.08 242.088 105.903C240.278 93.2353 238.683 81.7576 235.958 69.3306C235.282 66.2489 234.499 63.1913 233.711 60.1365C233.409 58.968 233.071 57.8081 232.689 56.6632C232.593 56.3742 232.364 55.5531 232.28 55.8459C231.231 59.5183 232.596 63.4797 232.893 67.2875C233.335 72.943 233.802 78.5968 234.324 84.2454C235.478 96.7371 236.794 109.223 238.614 121.635C239.295 126.276 240.09 130.901 240.862 135.528C241.112 137.03 241.396 138.527 241.679 140.023C241.873 141.047 241.555 142.351 242.292 143.088C242.973 143.769 242.035 141.178 241.883 140.227C241.286 136.479 240.664 132.735 240.044 128.99C239.233 124.085 238.353 119.192 237.593 114.279C235.126 98.347 233.097 82.3421 230.237 66.4702C229.695 63.46 229.082 60.4618 228.399 57.4804C228.331 57.1836 227.982 56.3587 227.99 56.6632C228.637 82.5621 232.659 108.441 235.958 134.098C236.143 135.539 236.367 137.695 237.184 139.001C237.298 139.184 237.394 138.604 237.388 138.388C237.326 136.002 237.285 133.605 236.98 131.237C235.854 122.497 234.408 113.8 233.098 105.085C231.328 93.3074 229.857 81.5077 227.99 69.7392C227.042 63.7634 225.939 57.7919 224.312 51.964C224.046 51.0089 223.775 50.0549 223.495 49.1036C223.434 48.897 223.343 48.2817 223.291 48.4907C222.465 51.7949 223.259 55.3086 223.495 58.7063C224.178 68.5236 224.914 78.3407 225.947 88.1274C226.481 93.1944 227.48 98.2018 228.194 103.247C229.591 113.117 230.923 122.996 232.28 132.872C232.53 134.687 232.869 137.676 233.302 139.41C233.362 139.648 233.72 140.268 233.711 140.023C233.478 133.979 232.013 128.045 231.259 122.043C229.446 107.619 228.045 93.1433 226.151 78.729C224.826 68.6446 223.457 58.566 222.065 48.4907C222.026 48.2125 221.929 47.9458 221.861 47.6734C221.724 47.1286 221.649 45.5131 221.452 46.0389C221.069 47.0612 221.262 48.2162 221.248 49.3079C221.194 53.2576 221.104 57.2106 221.248 61.1581C221.922 79.6935 224.371 98.1342 226.764 116.527C227.491 122.114 228.201 127.705 229.011 133.281C229.359 135.674 229.69 138.076 230.237 140.432C230.375 141.025 230.559 141.712 231.055 142.066C231.29 142.234 231.588 141.731 231.668 141.453C231.874 140.73 231.804 139.955 231.872 139.206" fill="none" opacity="1" stroke="#9dfc7c" stroke-linecap="round" stroke-linejoin="round" stroke-width="12.5423" vectornator:layerName="Curve 14"/>
<path d="M92.5304 79.1376C90.7596 79.7506 89.0618 80.6412 87.2182 80.9764C86.7892 81.0544 87.6654 80.1856 88.0355 79.9549C104.509 69.6841 120.652 58.8284 137.684 49.5122C146.765 44.5447 120.416 60.9375 111.94 66.8788C103.719 72.6412 95.3845 78.2817 87.6268 84.6541C87.4604 84.7908 88.0598 84.9766 88.2398 84.8584C92.6935 81.9335 96.8557 78.5794 101.316 75.6643C107.28 71.766 113.374 68.0665 119.5 64.4271C124.954 61.1868 130.274 57.6538 136.049 55.0287C137.864 54.2037 143.571 53.0178 141.974 54.2114C133.798 60.3232 124.479 64.7374 115.822 70.1478C111.401 72.911 107.091 75.8477 102.746 78.729C100.621 80.1383 98.5265 81.5937 96.4123 83.0196C95.598 83.5688 93.1433 85.1989 93.9605 84.6541C113.145 71.8645 133.128 59.5245 154.029 49.7165C158.929 47.417 163.864 44.9657 169.148 43.7915C170.893 43.4037 166.53 46.246 165.061 47.2648C162.297 49.182 159.374 50.8619 156.48 52.5769C147.788 57.7277 138.867 62.4986 130.328 67.9004C126.002 70.6373 121.735 73.4659 117.457 76.2772C116.967 76.599 115.494 77.5443 116.026 77.2988C123.758 73.7304 130.666 68.5932 138.092 64.4271C149.541 58.0046 161.296 52.1118 173.234 46.6518C175.409 45.6572 178.161 42.6438 179.976 44.2001C181.612 45.6017 176.507 46.7634 174.664 47.8777C170.645 50.3079 166.483 52.4941 162.405 54.8244C156.949 57.9425 151.495 61.0669 146.06 64.2228C142.171 66.4811 137.58 67.989 134.619 71.3737C134.39 71.6351 135.318 71.2984 135.64 71.1694C136.009 71.0219 136.319 70.7562 136.662 70.5565C140.882 68.1002 145.047 65.5471 149.329 63.2012C160.453 57.1073 172.046 51.2923 183.858 46.6518C186.063 45.7856 188.348 45.1366 190.601 44.4044C191.072 44.2511 192.398 43.6623 192.031 43.9958C188.781 46.9506 184.503 48.5399 180.589 50.5338C171.469 55.1801 162.298 59.7486 153.416 64.8357C150.314 66.6119 147.245 68.4461 144.222 70.3522C144.093 70.4334 143.879 70.8244 144.017 70.7608C160.077 63.382 175.517 54.9213 191.827 48.082C194.707 46.8742 197.876 44.813 201.021 44.813C201.173 44.813 200.95 45.1479 200.816 45.2216C197.724 46.9321 194.571 48.5307 191.418 50.1252C181.877 54.949 172.295 59.6917 162.814 64.6314C161.3 65.42 159.792 66.22 158.319 67.0831C157.814 67.3794 156.313 68.2127 156.889 68.1047C161.416 67.256 165.357 64.4782 169.556 62.5883C176.398 59.5093 183.296 56.554 190.192 53.5985C191.877 52.8761 193.588 52.2117 195.3 51.5554C197.674 50.6452 200.026 49.665 202.451 48.8993C203.916 48.4366 205.474 47.4362 206.946 47.8777C207.886 48.16 205.363 49.0548 204.494 49.5122C201.475 51.101 198.361 52.5016 195.3 54.0071C190.052 56.5879 184.817 59.1933 179.568 61.771C176.04 63.5033 171.813 64.3997 169.148 67.2875C168.917 67.5377 169.639 67.9999 169.965 67.9004C172.24 67.2053 174.332 66.0131 176.503 65.04C184.908 61.2722 193.226 57.2738 201.838 54.0071C205.02 52.7999 208.206 51.595 211.441 50.5338C212.571 50.163 213.746 49.9411 214.914 49.7165C215.519 49.6001 216.829 48.9003 216.753 49.5122C216.639 50.4214 215.499 50.8859 214.71 51.351C211.665 53.145 208.466 54.6625 205.311 56.2546C201.178 58.3404 196.982 60.2994 192.848 62.3839C189.013 64.3178 185.067 66.0617 181.407 68.309C181.054 68.5258 180.788 69.5537 181.202 69.5349C182.838 69.4606 184.388 68.7295 185.901 68.1047C191.82 65.6612 197.619 62.937 203.472 60.3408C206.064 59.1913 208.634 57.9928 211.236 56.8675C213.674 55.8133 216.063 54.6156 218.592 53.8028C219.903 53.3813 223.78 52.3635 222.678 53.1899C219.485 55.5841 215.629 56.9347 212.053 58.7063C208.068 60.681 204 62.4839 199.999 64.4271C196.848 65.9574 193.626 67.3614 190.601 69.1263C190.284 69.3111 189.826 70.125 190.192 70.1478C195.594 70.4855 200.35 66.3868 205.311 64.2228C210.413 61.9975 218.156 58.8798 223.086 56.8675" fill="none" opacity="1" stroke="#9dfc7c" stroke-linecap="round" stroke-linejoin="round" stroke-width="12.5423" vectornator:layerName="Curve 15"/>
<path d="M97.6382 85.267C93.8924 87.7188 90.0525 90.0323 86.401 92.6223C84.1887 94.1914 77.8105 99.2346 80.0673 97.7301C82.9349 95.8183 85.3793 93.319 88.2398 91.3964C93.698 87.7278 99.3885 84.4167 104.993 80.9764C109.264 78.3553 113.515 75.6985 117.865 73.2125C119.241 72.4266 123.114 69.9082 122.156 71.1694C119.965 74.0514 116.827 76.0808 113.983 78.3204C105.925 84.666 97.4748 90.5056 89.4657 96.9129C83.5071 101.68 77.6908 106.635 72.0991 111.828C71.8446 112.064 72.0177 113.047 72.3034 112.849C76.1712 110.177 79.491 106.768 83.3363 104.064C93.7341 96.7505 104.321 89.7046 115.005 82.8153C118.902 80.3019 122.885 77.8886 127.059 75.8686C127.366 75.7203 127.937 76.4713 127.672 76.6859C113.614 88.0955 97.679 97.0229 83.5406 108.354C78.8313 112.129 74.3655 116.198 69.8516 120.205C68.9151 121.036 66.1829 123.597 67.1955 122.861C85.9776 109.201 103.636 94.9806 123.79 83.2239C125.582 82.1785 128.411 79.0128 129.511 80.7721C130.611 82.5324 126.475 83.6163 124.812 84.8584C121.088 87.6394 117.14 90.1087 113.37 92.8266C102.11 100.945 91.1021 109.434 80.4759 118.366C76.969 121.314 73.6317 124.458 70.2602 127.56C68.5233 129.158 63.1782 133.757 65.1524 132.463C69.0848 129.887 72.4712 126.56 76.1853 123.678C84.9347 116.889 93.6756 110.087 102.542 103.451C108.547 98.9563 114.902 94.883 121.543 91.3964C122.86 90.705 126.959 89.198 125.833 90.1705C119.279 95.8349 111.93 100.509 104.993 105.698C98.0776 110.872 91.1896 116.096 84.5621 121.635C79.4888 125.875 74.5564 130.282 69.6473 134.711C68.2886 135.937 67.0289 137.269 65.7653 138.593C65.5958 138.77 65.1738 139.37 65.3567 139.206C77.2672 128.533 88.9976 117.561 101.929 108.15C107.901 103.804 114.261 100.015 120.521 96.0956C122.097 95.1092 124.8 91.6889 125.425 93.4395C126.181 95.557 123.183 97.4182 121.543 98.956C117.686 102.572 113.246 105.509 109.08 108.763C93.6356 120.823 78.5717 132.558 64.1308 145.744C63.633 146.198 65.0649 144.77 65.561 144.313C70.1732 140.07 74.6701 135.694 79.4543 131.646C90.445 122.346 101.876 113.49 113.983 105.698C116.164 104.295 118.421 103.006 120.726 101.816C122.649 100.824 125.213 97.5426 126.651 99.1603C128.027 100.708 123.956 102.334 122.36 103.655C117.607 107.59 112.504 111.083 107.65 114.892C97.4904 122.865 87.2239 130.763 77.8198 139.614C74.8032 142.453 71.7402 145.302 69.2387 148.604C68.4059 149.703 71.6641 147.253 72.712 146.357C77.3281 142.408 81.6229 138.096 86.1967 134.098C94.7369 126.633 103.571 119.252 112.962 112.849C116.117 110.698 119.456 108.826 122.769 106.924C123.142 106.71 124.305 106.217 123.995 106.516C112.858 117.224 100.428 126.49 89.2613 137.163C83.7603 142.42 78.326 147.747 72.9163 153.099C71.9913 154.014 69.2698 156.803 70.2602 155.959C85.5781 142.911 99.9836 129.264 117.048 118.366C120.956 115.87 124.904 113.39 129.102 111.419C130.019 110.989 127.848 113.032 127.059 113.667C124.363 115.834 121.384 117.635 118.682 119.796C107.481 128.757 96.4876 138.007 85.9923 147.787C83.7724 149.855 81.5999 151.975 79.4543 154.121C78.8064 154.768 76.9 156.736 77.6155 156.164C82.3198 152.4 86.2677 147.762 90.8959 143.905C99.3446 136.864 107.866 129.9 116.639 123.269C119.594 121.036 122.846 119.222 126.038 117.344C127.482 116.495 128.99 115.749 130.533 115.097C130.783 114.991 131.542 114.904 131.35 115.097C115.961 130.485 97.2497 142.236 82.9276 158.82C82.7869 158.983 83.3816 158.761 83.5406 158.615C85.78 156.568 87.7667 154.247 90.0786 152.282C98.6696 144.979 107.301 137.713 116.231 130.829C119.507 128.303 123.103 126.215 126.651 124.086C127.878 123.35 129.124 121.992 130.533 122.248C131.444 122.413 129.567 123.854 128.898 124.495C127.915 125.438 126.67 126.069 125.629 126.947C116.657 134.515 107.763 142.176 98.8641 149.83C98.0236 150.553 97.1962 151.293 96.4123 152.077C93.8582 154.632 91.3563 157.238 88.8527 159.841C87.9509 160.779 85.1292 163.446 86.1967 162.702C100.396 152.805 112.331 140.102 127.059 130.829C129.894 129.044 132.738 126.843 136.049 126.334C136.262 126.301 135.991 126.789 135.845 126.947C134.342 128.575 132.811 130.186 131.146 131.646C127.29 135.026 123.205 138.136 119.295 141.453C113.077 146.73 106.897 152.059 100.907 157.594C98.7851 159.555 96.7376 161.6 94.7778 163.723C94.2781 164.265 92.9595 166 93.5519 165.562C99.0235 161.518 103.675 156.465 108.875 152.077C115.748 146.279 121.795 141.282 129.307 136.345C130.579 135.509 132.39 133.156 133.393 134.302C134.389 135.44 131.765 136.871 130.737 137.98C129.164 139.677 127.336 141.117 125.629 142.679C119.821 147.996 111.078 155.858 105.606 161.271C102.661 164.185 99.837 167.219 97.0252 170.261C95.6815 171.715 94.3504 173.187 93.1433 174.756C92.9721 174.979 92.7205 175.75 92.939 175.573C98.4107 171.154 103.047 165.786 108.262 161.067C115.677 154.359 123.535 148.06 131.963 142.679C133.503 141.695 135.087 140.642 136.866 140.227C137.384 140.106 138.455 140.86 138.092 141.249C134.309 145.307 129.748 148.564 125.629 152.282C116.995 160.075 108.181 168.022 100.294 176.595C100.148 176.753 100.748 176.535 100.907 176.391C104.371 173.253 107.638 169.901 111.123 166.788C119.647 159.173 129.118 153.296 139.318 148.195C139.623 148.043 140.557 147.933 140.34 148.195C136.797 152.476 130.111 157.73 126.242 161.271C120.875 166.184 115.629 171.226 110.306 176.186C109.635 176.811 107.532 178.579 108.262 178.025C117.74 170.835 126.52 163.49 136.662 157.185C138.944 155.767 141.263 154.408 143.609 153.099C144.194 152.772 144.825 152.033 145.447 152.282C145.903 152.464 144.972 153.155 144.63 153.508C142.922 155.273 141.111 156.936 139.318 158.615C134.746 162.897 130.24 167.248 125.629 171.487C123.497 173.447 121.258 175.287 119.091 177.208C118.261 177.943 115.935 180.311 116.639 179.455C123.268 171.406 131.535 165.088 139.931 159.024C141.248 158.073 142.604 157.169 144.017 156.368C144.475 156.109 147.146 154.97 147.899 155.346C148.204 155.499 147.516 155.912 147.286 156.164C145.403 158.229 143.526 160.302 141.565 162.293C139.166 164.73 136.665 167.064 134.21 169.444C130.233 173.301 126.24 177.142 122.156 180.886C121.693 181.31 121.118 181.621 120.726 182.111C120.591 182.28 121.176 182.049 121.338 181.907C125.003 178.7 128.499 175.303 132.167 172.1C136.365 168.434 141.042 165.306 145.856 162.497C147.309 161.65 148.875 160.743 150.555 160.659C151.136 160.629 150.326 161.856 149.942 162.293C148.321 164.138 146.446 165.747 144.63 167.401C138.562 172.927 132.208 178.13 126.038 183.542C125.648 183.883 123.844 185.743 123.995 185.993C124.327 186.547 125.302 185.748 125.833 185.38C128.188 183.755 130.291 181.791 132.576 180.068C137.603 176.279 143.106 173.117 148.716 170.261C149.829 169.695 151.691 169.265 151.781 169.444C152.027 169.935 151.339 170.473 150.964 170.874C149.352 172.598 147.566 174.151 145.856 175.778C141.457 179.962 137.046 184.133 132.576 188.241C130.906 189.775 129.163 191.229 127.468 192.736C127.324 192.864 126.867 193.144 127.059 193.144C129.719 193.144 131.208 189.812 133.189 188.036C138.838 182.971 146.249 175.812 154.233 174.552C154.435 174.52 154.375 175.018 154.233 175.165C152.153 177.309 149.854 179.229 147.695 181.294C145.004 183.868 141.995 186.087 139.114 188.445C138.76 188.734 139.988 188.123 140.34 187.832C141.974 186.48 143.431 184.925 145.039 183.542C146.837 181.995 148.595 180.383 150.555 179.047C152.301 177.857 154.449 176.219 156.48 176.799C157.661 177.137 156.743 179.206 154.846 181.703C153.062 184.049 151.103 186.259 149.125 188.445C148.51 189.125 146.359 190.846 147.082 190.284C148.417 189.245 149.703 188.143 150.964 187.015C152.292 185.826 153.549 184.56 154.846 183.337C155.933 182.313 157.025 181.294 158.115 180.273" fill="none" opacity="1" stroke="#9dfc7c" stroke-linecap="round" stroke-linejoin="round" stroke-width="12.5423" vectornator:layerName="Curve 16"/>
<path d="M305.833 251.986C300.317 252.804 294.8 253.621 289.284 254.438" fill="none" opacity="1" stroke="#9dfc7c" stroke-linecap="round" stroke-linejoin="round" stroke-width="12.5423" vectornator:layerName="Curve 17"/>
<path d="M305.22 252.191C300.317 252.804 295.413 253.417 290.51 254.03" fill="none" opacity="1" stroke="#9dfc7c" stroke-linecap="round" stroke-linejoin="round" stroke-width="12.5423" vectornator:layerName="Curve 18"/>
<path d="M308.898 253.417C309.307 253.144 309.715 252.872 310.124 252.599" fill="none" opacity="1" stroke="#9dfc7c" stroke-linecap="round" stroke-linejoin="round" stroke-width="12.5423" vectornator:layerName="Curve 19"/>
<path d="M134.415 85.267C143.472 77.9798 150.219 60.98 161.588 63.4055C170.646 65.3378 154.905 80.8497 149.738 88.536C143.762 97.4263 135.505 104.55 128.489 112.645C127.669 113.591 130.217 110.829 131.146 109.989C145.338 97.1392 159.26 83.9773 173.847 71.578C176.206 69.5732 170.019 76.4516 167.922 78.729C163.518 83.512 158.573 87.7687 154.029 92.418C147.8 98.7899 141.601 105.19 135.436 111.623C133.769 113.363 131.869 114.93 130.533 116.936C129.86 117.944 132.532 115.542 133.393 114.688C139.961 108.18 146.241 101.385 152.803 94.8697C157.858 89.8502 163.228 84.8733 168.943 80.5678C171.947 78.3052 174.979 76.0707 178.138 74.0298C179.417 73.2033 183.269 70.8791 182.224 71.9867C176.668 77.8745 170.313 82.9549 164.449 88.536C156.635 95.9728 148.931 103.538 141.565 111.419C138.337 114.874 135.194 118.411 132.167 122.043C131.777 122.511 131.436 123.075 131.35 123.678C131.319 123.891 131.807 123.622 131.963 123.474C133.39 122.108 134.679 120.605 136.049 119.183C143.668 111.275 150.903 102.974 158.932 95.4827C167.201 87.767 175.965 80.5806 184.88 73.6212C186.56 72.3092 188.682 71.6909 190.601 70.7608C190.931 70.6008 191.771 70.017 191.622 70.3522C191.229 71.2367 190.492 71.94 189.783 72.5996C186.534 75.625 183.12 78.469 179.772 81.3851C170.278 89.6538 160.747 97.8898 151.577 106.516C146.541 111.253 142.341 115.239 138.092 120.613C137.563 121.283 136.181 123.369 136.866 122.861C141.004 119.787 144.228 115.636 148.104 112.236C158.705 102.937 169.153 93.4438 180.181 84.6541C183.286 82.1788 186.921 80.4455 190.396 78.5247C192.103 77.5814 195.708 74.1227 195.708 76.0729C195.708 78.3069 192.155 78.7811 190.396 80.1592C187.115 82.7312 183.816 85.2828 180.589 87.9231C172.402 94.6215 164.308 101.443 156.48 108.559C154.235 110.6 152.115 112.774 149.942 114.892C149.391 115.43 148.594 115.812 148.308 116.527C148.138 116.951 149.195 116.221 149.534 115.914C152.138 113.552 154.477 110.907 157.093 108.559C162.448 103.753 167.904 99.0592 173.438 94.4611C182.365 87.0437 191.9 80.3523 201.634 74.0298C203.936 72.5343 206.382 71.2725 208.784 69.9435C209.584 69.5012 211.919 68.1106 211.236 68.7176C206.491 72.936 200.775 75.9239 195.708 79.7506C189.665 84.3152 183.658 88.931 177.729 93.6438C175.688 95.2664 173.742 97.0073 171.804 98.7517C171.691 98.8535 171.473 99.2448 171.6 99.1603C184.356 90.6562 195.147 79.7832 208.172 71.578C210.88 69.8714 213.695 68.33 216.548 66.8788C217.721 66.2827 218.978 65.0327 220.226 65.4486C221.095 65.7384 219.06 66.8696 218.387 67.4918C216.332 69.3929 214.206 71.218 212.053 73.0082C207.327 76.9394 202.561 80.8249 197.752 84.6541C195.546 86.4102 193.258 88.0614 191.009 89.7619C190.466 90.1726 188.858 91.431 189.375 90.9878C200.068 81.8223 212.004 72.762 224.312 65.8573C224.632 65.6778 224.177 66.6345 223.904 66.8788C220.945 69.5226 217.773 71.9171 214.71 74.4384C206.804 80.9445 198.865 87.4353 191.418 94.4611C190.891 94.9579 190.422 95.5164 189.988 96.0956C189.805 96.3393 189.307 97.0491 189.579 96.9129C195.948 93.7284 200.808 88.1335 206.537 84.0411C210.61 81.1317 214.775 78.348 219 75.6643C219.823 75.1415 220.717 74.6994 221.656 74.4384C221.991 74.3455 222.914 74.3879 222.678 74.6427C217.784 79.9278 211.622 83.8782 206.128 88.536C203.294 90.939 200.514 93.4055 197.752 95.8913C195.746 97.6965 193.501 99.292 191.827 101.408C191.385 101.965 193.281 101.194 193.87 100.795C197.331 98.4482 200.521 95.7252 203.881 93.2352C208.555 89.7713 214.156 85.7002 219.204 82.8153C220.292 82.194 221.426 81.3851 222.678 81.3851C223.196 81.3851 223.644 82.4356 223.291 82.8153C219.741 86.6277 215.541 89.7776 211.645 93.2352C207.874 96.5817 203.838 99.6225 199.795 102.634C198.975 103.244 196.621 103.75 197.343 104.472C198.078 105.208 199.136 103.418 199.999 102.838C204.907 99.5388 209.611 95.9417 214.505 92.6223C218.82 89.6961 223.223 86.9015 227.581 84.0411" fill="none" opacity="1" stroke="#9dfc7c" stroke-linecap="round" stroke-linejoin="round" stroke-width="12.5423" vectornator:layerName="Curve 20"/>
<path d="M127.059 107.333C129.235 100.804 135.296 96.2782 139.931 91.1921C140.872 90.1593 141.832 89.1433 142.791 88.1274C144.147 86.6915 145.673 85.4023 146.878 83.8368C147.409 83.1455 145.491 84.897 144.835 85.4713C142.221 87.7581 139.71 90.1609 137.071 92.418C133.623 95.3665 130.486 99.4965 126.038 100.386C125.697 100.454 126.013 99.6256 126.242 99.3646C128.498 96.7951 130.975 94.4273 133.393 92.0093C136.56 88.8419 142.62 82.8414 146.469 79.9549C146.694 79.7864 146.445 80.557 146.265 80.7721C144.654 82.6922 142.91 84.498 141.157 86.2886C139.438 88.0438 137.582 89.6594 135.845 91.3964" fill="none" opacity="1" stroke="#9dfc7c" stroke-linecap="round" stroke-linejoin="round" stroke-width="12.5423" vectornator:layerName="Curve 21"/>
<path d="M146.878 80.9764C145.268 80.1715 146.514 78.916 147.286 77.9117C148.201 76.7229 149.007 75.4131 150.147 74.4384C155.401 69.9454 161.168 65.9688 167.309 62.7926" fill="none" opacity="1" stroke="#9dfc7c" stroke-linecap="round" stroke-linejoin="round" stroke-width="12.5423" vectornator:layerName="Curve 22"/>
<path d="M149.738 137.163C150.313 129.971 151.668 122.864 152.598 115.71C152.774 114.357 153.413 112.843 152.803 111.623C152.432 110.882 150.789 110.511 150.351 111.215C148.232 114.618 147.18 118.602 146.06 122.452C143.646 130.752 142.945 139.458 141.565 147.991C141.246 149.97 140.925 151.949 140.544 153.916C140.515 154.066 140.298 154.471 140.34 154.325C143.036 144.782 145.627 135.208 148.512 125.721C149.647 121.991 152.123 110.799 152.394 114.688C152.86 121.367 150.09 127.881 149.125 134.506C148.592 138.168 148.353 141.867 147.899 145.539C147.671 147.384 147.913 152.718 147.082 151.056C145.955 148.801 146.438 145.978 146.878 143.496C148.017 137.055 146.12 121.218 151.781 124.495C157.918 128.048 150.945 138.655 150.76 145.744C150.537 154.254 150.678 162.77 150.555 171.283C150.542 172.239 150.199 175.087 150.351 174.143C153.448 154.944 158.075 136.379 162.201 117.344C162.536 115.8 162.814 114.225 162.814 112.645C162.814 111.934 162.313 113.986 162.201 114.688C161.835 116.991 161.618 119.315 161.384 121.635C160.8 127.42 160.207 133.205 159.749 139.001C159.009 148.383 158.319 157.786 158.319 167.197C158.319 169.035 158.22 170.877 158.319 172.713C158.357 173.407 158.283 175.29 158.728 174.756C159.438 173.904 159.148 172.579 159.341 171.487C159.761 169.105 160.15 166.718 160.567 164.336C161.839 157.068 162.969 149.775 164.04 142.475C164.529 139.139 164.933 135.791 165.47 132.463C165.524 132.127 165.486 133.145 165.47 133.485C164.873 146.153 164.212 158.818 163.631 171.487C163.422 176.047 163.365 180.613 163.223 185.176C163.216 185.38 163.198 184.766 163.223 184.563C163.675 180.814 164.15 177.068 164.653 173.326C165.671 165.756 166.681 158.183 167.922 150.647C168.35 148.051 167.582 140.936 169.352 142.883C171.601 145.357 169.774 149.557 169.965 152.895C170.299 158.734 170.704 168.812 171.395 174.756C171.675 177.158 171.919 184.221 172.621 181.907C175.108 173.711 175.504 165.021 176.912 156.572C177.07 155.622 177.202 154.668 177.32 153.712C177.815 149.696 176.941 145.277 178.75 141.657C180.121 138.916 178.691 147.787 178.75 150.852C178.881 157.598 179.075 164.349 179.568 171.078C179.772 173.877 179.763 176.72 180.385 179.455C180.486 179.901 181.522 180.516 181.611 180.068C183.845 168.736 182.649 157.273 184.267 145.948C184.363 145.274 184.238 147.311 184.267 147.991C184.443 152.147 184.633 156.302 184.88 160.454C185.103 164.209 185.33 167.974 185.901 171.691C186.115 173.079 186.383 174.482 186.923 175.778C187.091 176.18 187.703 176.958 187.945 176.595C190.538 172.704 190.215 167.514 191.009 162.906C191.799 158.325 192.022 154.43 192.439 149.421C192.683 146.496 192.803 143.561 193.052 140.636C193.076 140.356 193.227 139.539 193.257 139.819C194.15 148.308 194.249 156.886 195.504 165.358C195.88 167.895 194.676 171.701 196.934 172.917C198.769 173.905 197.914 168.857 198.16 166.788C198.596 163.126 198.795 159.438 198.977 155.755C199.136 152.557 199.098 149.353 199.182 146.152C199.234 144.177 199.276 142.2 199.386 140.227C199.413 139.746 199.412 138.35 199.59 138.797C200.603 141.33 199.818 144.248 199.999 146.97C200.495 154.406 201.438 164.42 203.268 171.283C203.49 172.115 203.961 169.683 204.085 168.831C204.848 163.607 205.41 158.354 205.924 153.099C206.363 148.613 206.639 144.112 206.946 139.614C207.048 138.118 206.882 136.595 207.15 135.119C207.187 134.918 207.738 134.917 207.763 135.119C208.932 144.471 208.848 153.996 210.623 163.315C210.841 164.458 211.087 165.704 211.849 166.584C212.165 166.948 213.17 166.848 213.279 166.379C213.996 163.317 213.96 160.123 214.097 156.981C214.301 152.286 214.257 147.583 214.301 142.883C214.326 140.227 214.238 137.57 214.301 134.915C214.306 134.7 214.488 134.087 214.505 134.302C214.976 140.228 215.171 146.182 215.935 152.077C216.226 154.322 216.213 156.621 216.753 158.82C217.109 160.27 217.695 164.101 218.592 162.906C220.068 160.938 219.045 158.006 219.204 155.551C219.662 148.503 218.584 140.381 220.226 133.485C220.305 133.154 220.765 133.97 220.839 134.302C221.182 135.844 221.238 137.436 221.452 139.001C222.123 143.906 222.667 148.831 223.495 153.712C223.962 156.465 224.589 159.193 225.334 161.884C225.48 162.414 225.704 162.995 226.151 163.315C226.351 163.457 226.714 163.146 226.764 162.906C227.071 161.433 227.127 159.915 227.173 158.411C227.263 155.416 227.208 152.418 227.173 149.421C227.113 144.312 226.996 139.202 226.764 134.098C226.73 133.349 226.685 135.6 226.764 136.345C227.366 142.007 227.902 147.682 228.807 153.303C229.198 155.733 229.905 158.107 230.646 160.454C230.733 160.73 231.055 161.271 231.259 161.067C231.747 160.579 231.542 153.489 231.463 152.282C230.99 144.99 230.444 137.702 229.829 130.42C229.276 123.877 228.631 117.341 227.99 110.806C227.949 110.394 228.094 109.857 227.786 109.58C227.305 109.148 226.131 108.348 225.947 108.967C222.679 119.946 222.583 131.656 221.861 143.088C221.796 144.116 221.804 145.184 221.452 146.152C221.348 146.439 221.047 145.64 221.043 145.335C220.979 140.159 221.062 134.98 221.248 129.807C221.646 118.727 222.863 109.267 222.269 98.343C222.16 96.3418 221.775 94.3515 221.248 92.418C221.146 92.0463 220.644 91.2802 220.43 91.6007C219.413 93.1265 218.7 94.9016 218.387 96.7085C217.125 104.009 216.39 111.395 215.731 118.774C215.368 122.847 215.416 126.946 215.323 131.033C215.28 132.871 215.323 134.711 215.323 136.55C215.323 137.026 215.352 138.456 215.323 137.98C214.664 127.446 215.008 116.852 215.323 106.311C215.422 102.973 215.731 99.6398 215.731 96.2999C215.731 95.4041 215.774 94.4176 215.323 93.6438C215.148 93.3439 214.43 93.5257 214.301 93.8482C213.681 95.3983 213.565 97.1066 213.279 98.7517C212.679 102.216 212.103 105.686 211.645 109.172C210.362 118.941 209.863 128.799 208.784 138.593C208.685 139.496 208.521 140.41 208.172 141.249C208.113 141.389 207.774 141.196 207.763 141.044C207.564 138.395 207.585 135.733 207.559 133.076C207.517 128.99 207.495 124.903 207.559 120.817C207.631 116.185 207.84 111.556 207.967 106.924C208.044 104.132 209.472 101.019 208.172 98.5474C207.391 97.065 206.256 101.4 205.924 103.042C205.083 107.2 204.925 111.474 204.698 115.71C204.183 125.358 204.587 133.669 204.903 143.292C204.914 143.632 204.889 142.611 204.903 142.27C205.094 137.366 205.338 132.464 205.515 127.56C205.678 123.066 205.804 118.57 205.924 114.075C206.008 110.943 206.205 107.809 206.128 104.677C206.068 102.217 207.383 98.9226 205.515 97.3215C204.15 96.1514 203.693 100.478 203.268 102.225C202.455 105.566 202.221 109.024 201.838 112.441C200.88 120.978 200.807 129.595 200.612 138.184C200.596 138.865 200.612 140.908 200.612 140.227C200.612 127.536 200.829 114.943 200.612 102.225C200.606 101.878 200.646 100.951 200.408 101.203C196.54 105.313 195.865 111.729 195.3 117.344C194.74 122.907 194.729 128.512 194.483 134.098C194.32 137.774 195.042 148.681 194.074 145.131C192.71 140.13 193.393 134.784 193.257 129.603C193.054 121.902 193.903 114.21 194.278 106.516C194.438 103.248 194.901 99.9734 194.687 96.7085C194.623 95.7355 194.436 94.0525 193.461 94.0525C192.455 94.0525 192.216 95.7202 192.031 96.7085C190.776 103.401 189.818 110.157 189.17 116.936C188.659 122.295 188.686 127.694 188.557 133.076C188.481 136.276 188.51 139.478 188.557 142.679C188.579 144.111 188.672 148.399 188.762 146.97C189.233 139.424 188.767 131.848 188.966 124.291C189.165 116.726 189.988 109.179 189.988 101.612C189.988 100.57 189.869 99.4646 189.375 98.5474C189.23 98.2792 188.684 98.6787 188.557 98.956C187.969 100.251 187.485 101.628 187.332 103.042C186.324 112.348 185.631 121.689 185.084 131.033C184.881 134.501 185.084 137.98 185.084 141.453C185.084 142.747 185.213 146.623 185.084 145.335C183.477 129.267 186.077 112.745 186.514 96.7085C186.55 95.4079 187.376 92.5443 186.106 92.8266C184.243 93.2405 183.602 95.7776 182.837 97.5258C182.141 99.1165 181.988 100.906 181.815 102.634C180.491 115.872 180.895 128.842 180.181 142.066C180.117 143.24 180.251 144.583 179.568 145.539C179.164 146.105 179.159 144.191 179.159 143.496C179.159 137.501 179.333 131.507 179.568 125.517C179.81 119.315 180.298 113.124 180.589 106.924C180.775 102.976 181.398 99.0062 180.998 95.074C180.942 94.5278 179.558 94.3562 179.363 94.8697C178.436 97.3202 178.371 100.024 178.138 102.634C177.553 109.158 177.241 115.705 176.912 122.248C176.696 126.535 176.595 130.828 176.503 135.119C176.459 137.162 177.948 142.693 176.503 141.249C174.907 139.653 175.934 136.763 175.89 134.506C175.73 126.336 175.84 118.161 175.89 109.989C175.908 106.992 176.258 103.992 176.094 100.999C176.051 100.203 175.712 98.0833 175.277 98.7517C174.079 100.595 173.749 102.909 173.438 105.085C172.927 108.664 172.825 112.299 172.825 115.914C172.825 122.864 173.197 129.808 173.438 136.754C173.469 137.641 174.04 140.204 173.643 139.41C171.355 134.835 172.871 129.201 172.825 124.086C172.793 120.477 172.984 116.864 172.825 113.258C172.711 110.658 172.55 108.039 172.008 105.494C171.855 104.773 171.402 103.257 170.782 103.655C169.654 104.381 169.468 106.03 169.148 107.333C168.372 110.486 167.785 113.7 167.513 116.936C167.171 121.008 167.215 125.109 167.309 129.194C167.351 131.044 167.718 132.872 167.922 134.711C167.99 135.324 168.355 135.977 168.126 136.55C168 136.866 167.629 136.053 167.513 135.732C167.009 134.333 166.532 132.909 166.287 131.442C165.984 129.623 166.015 127.764 165.879 125.925" fill="none" opacity="1" stroke="#9dfc7c" stroke-linecap="round" stroke-linejoin="round" stroke-width="12.5423" vectornator:layerName="Curve 23"/>
</g>
<g id="Untitled" vectornator:layerName="Untitled">
<path d="M12.8914 180.114C9.22472 171.633 4.60221 163.93 2.18265 155.587C0.109283 148.438-0.090461 140.547 0.026089 133.003C0.270396 117.187 5.43903 102.728 13.3357 89.0595C19.7992 77.8714 27.6041 67.8014 36.7673 58.7948C53.6149 42.2353 73.3293 29.8389 94.7533 20.173C110.044 13.2743 126.012 8.44906 142.485 4.9889C160.664 1.17056 178.958-0.650791 197.434 0.210197C218.128 1.17453 238.27 5.18217 257.515 13.2041C274.18 20.1507 288.691 30.2114 300.152 44.0771C310.056 56.0583 316.215 69.8274 318.019 85.6676C321.245 113.989 310.41 137.24 293.732 158.861C280.394 176.151 263.509 189.057 244.969 200.13C224.462 212.377 202.314 220.549 179.194 225.957C169.467 228.233 159.369 229.18 149.38 230.003C139.226 230.84 128.957 231.526 118.813 230.953C99.9218 229.886 81.4099 226.45 63.7651 219.142C47.8006 212.53 33.2399 203.852 21.4135 191.073C18.3651 187.779 15.7211 184.111 12.8914 180.114M96.8914 24.6142C90.175 28.1142 83.3099 31.3586 76.7717 35.1647C60.691 44.526 45.9719 55.5373 33.6298 69.722C20.6305 84.662 10.8907 100.906 6.66764 120.609C3.03661 137.549 4.94741 153.565 12.2539 168.758C20.4838 185.871 34.0763 198.168 50.6063 207.367C71.8375 219.182 94.9481 224.231 118.831 225.95C128.117 226.619 137.603 226.028 146.879 224.972C159.445 223.543 172.012 221.654 184.372 219.001C209.325 213.645 232.228 203.143 253.384 189.011C268.581 178.859 281.902 166.551 292.773 151.737C306.932 132.442 315.695 111.635 313.027 86.908C311.345 71.3204 305.297 57.8853 295.352 46.2441C285.602 34.8331 273.5 26.4497 259.809 19.9888C239.2 10.2632 217.409 6.14374 194.979 5.3014C183.966 4.88781 172.873 6.36001 161.828 7.13605C147.649 8.13216 133.983 11.6639 120.528 16.0233C112.758 18.5409 105.1 21.4057 96.8914 24.6142Z" fill="#000000" fill-rule="nonzero" opacity="1" stroke="none" vectornator:layerName="path"/>
</g>
</svg>
