<?xml version="1.0" encoding="UTF-8" standalone="no"?>
<!DOCTYPE svg PUBLIC "-//W3C//DTD SVG 1.1//EN" "http://www.w3.org/Graphics/SVG/1.1/DTD/svg11.dtd">
<!-- Created with Vectornator (http://vectornator.io/) -->
<svg height="100%" stroke-miterlimit="10" style="fill-rule:nonzero;clip-rule:evenodd;stroke-linecap:round;stroke-linejoin:round;" version="1.1" viewBox="0 0 233.923 334.335" width="100%" xml:space="preserve" xmlns="http://www.w3.org/2000/svg" xmlns:vectornator="http://vectornator.io" xmlns:xlink="http://www.w3.org/1999/xlink">
<defs/>
<g id="Layer-1" vectornator:layerName="Layer 1">
<path d="M19.6649 301.685C19.5924 301.322 19.6079 300.263 19.4472 300.597C17.3578 304.93 15.6335 309.431 13.7879 313.874C13.3546 314.917 13.2159 316.222 12.4819 317.139C11.5976 318.245 10.9681 320.394 9.86995 321.492C9.46925 321.893 8.91795 322.138 8.56395 322.581C8.37707 322.814 8.04714 323.451 8.34629 323.451C10.525 323.451 12.7415 321.226 14.6586 320.404C18.1774 318.896 22.117 317.962 25.7596 316.921C26.5408 316.698 27.6047 316.959 28.3715 316.704C39.889 312.865 51.3855 309.517 62.9804 306.038C66.3163 305.037 69.8421 304.654 73.2107 303.644C75.272 303.025 77.0327 301.866 79.0877 301.25C82.4954 300.227 86.3929 299.513 89.5357 297.767C96.1036 294.118 102.274 289.828 109.126 286.666C114.128 284.357 119.38 282.995 124.145 280.136C130.434 276.362 135.975 271.566 142.211 267.729C149.038 263.528 155.733 259.771 162.889 256.193C170.083 252.596 177.871 247.087 183.567 241.391C186.095 238.863 188.932 236.562 191.621 234.208C192.32 233.597 193.141 231.81 193.798 232.467C193.887 232.557 192.788 233.748 191.839 234.644C189.892 236.482 187.898 238.241 185.962 240.085C176.689 248.917 165.881 256.078 155.706 263.811C152.973 265.888 150.327 268.046 147.435 269.906C146.196 270.702 145.443 271.01 144.17 271.647C143.845 271.809 142.955 272.185 143.299 272.3C143.643 272.415 144.057 272.45 144.387 272.3C149.767 269.855 154.894 265.268 159.624 261.852C165.231 257.803 170.669 253.538 175.731 248.792C191.389 234.113 211.617 221.066 219.264 200.035C220.704 196.075 220.252 191.337 220.57 187.193C220.793 184.295 221.217 181.395 221.441 178.486C222.216 168.418 222.555 159.914 216.653 151.06" fill="none" opacity="1" stroke="#b8ff9f" stroke-linecap="round" stroke-linejoin="round" stroke-width="14.7408" vectornator:layerName="Curve 1"/>
<path d="M16.6176 304.297C15.3098 301.027 18.142 291.942 19.2296 288.407C22.6862 277.173 26.4034 266.015 30.1129 254.887C34.7509 240.973 37.8933 226.215 40.7785 211.789C42.0088 205.637 41.9817 199.174 43.3905 193.07C44.4738 188.375 45.2771 183.564 46.4378 178.921C48.3821 171.144 51.4312 163.762 52.7501 155.849C52.9831 154.451 54.1348 153.005 54.7091 151.713C55.7314 149.413 56.8299 146.333 57.3211 143.877C58.7269 136.848 59.4062 129.534 60.8038 122.546C61.5084 119.023 63.6271 115.35 61.8921 111.88" fill="none" opacity="1" stroke="#b8ff9f" stroke-linecap="round" stroke-linejoin="round" stroke-width="14.7408" vectornator:layerName="Curve 2"/>
<path d="M50.7911 151.278C50.7911 142.176 55.0023 133.418 57.3211 124.723" fill="none" opacity="1" stroke="#b8ff9f" stroke-linecap="round" stroke-linejoin="round" stroke-width="14.7408" vectornator:layerName="Curve 3"/>
<path d="M27.9362 300.379C28.51 297.51 28.0664 294.257 26.6302 291.672C26.3811 291.224 25.8779 290.196 25.5419 290.584C24.5183 291.765 23.9701 293.384 23.8006 294.937C23.5247 297.466 23.7475 300.059 24.2359 302.556C24.495 303.88 26.6413 305.99 27.5009 304.95C30.4716 301.354 31.2012 296.119 31.2012 291.455C31.2012 289.589 30.6084 287.737 29.8952 286.013C29.6952 285.529 29.0006 284.819 28.5892 285.142C26.2785 286.958 26.4501 291.962 26.4126 294.067C26.3737 296.244 26.122 298.479 26.6302 300.597C27.0167 302.207 27.6997 303.956 29.0245 304.95C29.6221 305.398 30.7253 304.562 30.9835 303.862C32.3221 300.228 32.7487 296.321 33.5955 292.543C34.703 287.602 34.3215 281.52 32.0719 276.871C31.8171 276.344 31.0942 275.79 30.5482 276C29.8157 276.282 29.42 277.195 29.2422 277.959C28.6796 280.379 28.5341 282.881 28.3715 285.36C28.1219 289.166 28.2239 295.035 30.1129 298.42C30.7801 299.615 32.2275 300.647 33.5955 300.597C34.7234 300.555 35.5786 299.253 35.9899 298.202C37.5806 294.137 38.8731 289.902 39.4725 285.578C39.9013 282.484 39.3729 279.323 39.0372 276.218C38.6794 272.908 38.6536 268.899 36.2075 266.641C35.8832 266.341 35.0357 266.438 34.9015 266.858C33.8675 270.098 33.5404 273.523 32.9425 276.871C32.0111 282.087 32.1444 287.474 32.5072 292.761C32.705 295.642 33.1375 298.583 34.2485 301.25C34.6671 302.254 35.7754 303.125 36.8605 303.209C37.9928 303.296 39.2881 302.637 39.9078 301.685C41.4371 299.336 42.1953 296.546 42.9552 293.849C44.8086 287.269 44.7096 279.779 43.6082 273.171C43.3625 271.697 42.4509 270.345 41.4315 269.253C41.184 268.987 40.7004 269.571 40.5608 269.906C39.5901 272.235 38.7511 274.633 38.1665 277.089C36.864 282.559 35.8707 291.322 38.1665 296.679C38.6722 297.858 39.7873 298.859 40.9962 299.291C44.4915 300.539 46.3953 296.455 47.5261 294.284C49.2456 290.983 50.2674 287.755 49.9205 284.054C49.8348 283.14 49.8072 281.96 49.0498 281.442C48.1496 280.826 46.5402 280.437 45.7848 281.224C44.4023 282.664 44.3189 284.949 43.8258 286.884C42.4414 292.315 41.0085 299.962 49.0498 297.549" fill="none" opacity="1" stroke="#b8ff9f" stroke-linecap="round" stroke-linejoin="round" stroke-width="14.7408" vectornator:layerName="Curve 4"/>
<path d="M45.5671 299.508C47.1771 302.728 57.0599 296.221 59.4978 295.155C64.5258 292.955 69.8311 291.638 74.952 289.931C78.3629 288.794 81.7062 287.179 85.1823 286.231C86.2531 285.939 87.4081 285.967 88.4473 285.578C93.3617 283.735 98.0971 281.406 102.813 279.048C107.322 276.793 111.743 274.463 116.309 272.3C120.804 270.171 124.862 266.748 129.151 264.246C130.64 263.377 132.428 262.909 133.939 262.07C140.079 258.659 146.081 254.957 152.006 251.186C164.169 243.446 175.773 234.873 186.397 225.066C188.398 223.219 190.699 221.743 192.492 219.625C207.449 201.948 218.119 180.177 211.864 156.719C210.668 152.235 206.394 148.032 203.593 144.53" fill="none" opacity="1" stroke="#b8ff9f" stroke-linecap="round" stroke-linejoin="round" stroke-width="14.7408" vectornator:layerName="Curve 5"/>
<path d="M54.2738 285.142C59.5583 284.085 64.1489 281.308 69.0751 279.265C72.026 278.042 75.2098 277.477 78.217 276.436C82.4387 274.974 86.4496 272.808 90.624 271.212C93.1543 270.244 95.7985 269.551 98.2423 268.382C106.207 264.573 113.368 259.23 120.88 254.669C134.758 246.243 147.876 236.771 161.583 228.114C167.298 224.505 172.325 220.22 177.69 216.142C191.118 205.937 201.19 194.222 203.375 176.745C203.912 172.447 203.946 167.334 202.504 163.249C201.447 160.255 199.257 157.874 197.933 154.978C196.232 151.256 195.505 147.416 194.668 143.442" fill="none" opacity="1" stroke="#b8ff9f" stroke-linecap="round" stroke-linejoin="round" stroke-width="14.7408" vectornator:layerName="Curve 6"/>
<path d="M30.1129 242.48C30.1129 237.3 31.7911 232.238 33.1602 227.243C35.3818 219.137 37.5139 211.407 41.6492 204.171" fill="none" opacity="1" stroke="#b8ff9f" stroke-linecap="round" stroke-linejoin="round" stroke-width="14.7408" vectornator:layerName="Curve 7"/>
<path d="M39.0372 251.839C37.6605 250.922 39.5799 255.16 40.3432 256.628C41.4813 258.817 42.6417 260.994 43.8258 263.158C44.746 264.84 45.6896 266.509 46.6555 268.164C47.3957 269.433 47.7358 271.208 49.0498 271.865C49.1949 271.937 49.3167 271.584 49.2675 271.429C48.7936 269.94 48.0625 268.544 47.5261 267.076C46.6836 264.77 46.0114 262.403 45.1318 260.111C43.6162 256.161 41.9814 252.257 40.3432 248.357C40.2273 248.081 40.4355 248.956 40.5608 249.227C40.8739 249.906 41.3287 250.512 41.6492 251.186C42.7081 253.416 43.519 255.765 44.6965 257.934C46.2816 260.854 48.1022 263.642 49.9205 266.423C51.3344 268.585 52.6916 270.904 54.7091 272.518C54.9495 272.71 55.39 272.171 55.3621 271.865C55.2331 270.445 54.703 269.088 54.2738 267.729C53.3963 264.95 52.4572 262.19 51.4441 259.458C48.412 251.28 45.3143 243.123 42.5198 234.861C42.3728 234.427 42.2296 233.12 42.0845 233.555C41.8767 234.179 42.0944 234.891 42.3022 235.514C44.3487 241.654 46.5052 247.76 48.8321 253.798C49.5556 255.676 50.5273 257.449 51.4441 259.24C53.6476 263.545 55.7802 267.891 58.1918 272.082C58.836 273.202 59.74 274.153 60.5861 275.13C60.6923 275.252 60.9896 275.506 61.0214 275.347C61.1779 274.565 61.2497 273.718 61.0214 272.953C59.7873 268.819 58.1973 264.798 56.6681 260.764C52.5415 249.877 49.677 243.246 45.1318 232.685C44.5668 231.372 44.0654 230.027 43.3905 228.767C42.9723 227.986 41.9595 225.709 41.8668 226.59C41.6433 228.714 42.4118 230.838 42.9552 232.902C43.8661 236.364 44.8101 239.843 46.2201 243.133C49.3904 250.53 53.0689 257.701 56.6681 264.899C57.9981 267.559 61.593 273.069 63.4157 275.13C63.6609 275.407 64.5041 275.717 64.5041 275.347C64.5041 266.49 58.9406 257.324 55.7974 249.445C51.9585 239.821 48.2783 230.135 44.4788 220.496C44.3598 220.194 44.2729 219.395 44.0435 219.625C43.7819 219.886 44.1548 220.359 44.2612 220.713C44.8084 222.537 45.3656 224.36 46.0025 226.155C46.9623 228.86 47.9782 231.546 49.0498 234.208C52.5995 243.029 56.9582 251.516 61.4568 259.893C62.8406 262.47 64.0334 265.188 65.8101 267.511C66.9048 268.943 68.2092 270.512 69.9457 270.994C70.7179 271.208 69.9499 269.37 69.7281 268.6C68.7117 265.072 67.5124 261.597 66.2454 258.152C61.5621 245.415 56.5458 232.803 51.8795 220.06C50.8852 217.345 50.1487 214.543 49.2675 211.789C48.9878 210.915 48.1269 208.3 48.3968 209.177C54.1499 227.874 61.4322 245.507 71.6871 262.287C73.2178 264.792 75.0848 267.163 77.3464 269.035C77.7721 269.387 78.0397 268.062 77.9994 267.511C77.8166 265.013 77.3322 262.533 76.6934 260.111C75.5874 255.917 74.2407 251.786 72.7754 247.704C71.1912 243.291 69.2927 238.997 67.5514 234.644C66.5356 232.104 63.3897 224.528 64.5041 227.025C67.722 234.238 70.5262 241.634 73.8637 248.792C76.0443 253.469 78.5798 257.973 81.0467 262.505C81.7012 263.707 82.1194 265.178 83.2233 265.988C83.6371 266.291 84.3239 265.412 84.3117 264.899C84.2469 262.18 83.5848 259.503 83.0057 256.846C80.7277 246.394 75.9152 236.734 73.4284 226.372C73.3905 226.215 73.7943 226.444 73.8637 226.59C75.1158 229.233 76.0657 232.014 77.3464 234.644C81.5091 243.191 85.8629 251.645 90.1886 260.111C90.9422 261.585 91.5132 263.2 92.583 264.464C93.1702 265.158 94.1417 266.128 94.9773 265.77C95.8022 265.416 95.7059 264.052 95.6303 263.158C95.2657 258.843 94.5984 254.546 93.6713 250.316C92.2734 243.938 90.2109 237.722 88.665 231.379C88.1057 229.084 85.3661 225.682 87.359 224.413C89.2096 223.236 90.0387 227.914 91.0593 229.855C95.2634 237.853 98.5258 246.483 102.378 254.669C102.696 255.345 102.737 256.466 103.466 256.628C104.037 256.755 104.399 255.686 104.337 255.104C103.806 250.123 102.781 245.201 101.725 240.303C100.167 233.078 98.0824 225.974 96.501 218.754C96.4065 218.323 96.4217 217.122 96.7186 217.448C97.6574 218.481 98.1182 219.87 98.6776 221.149C101.167 226.84 103.398 232.641 105.861 238.344C106.157 239.03 106.632 239.627 106.949 240.303C108.229 243.039 108.152 246.876 110.649 248.574C111.998 249.491 112.391 245.634 112.391 244.003C112.391 241.257 111.276 238.624 110.649 235.95C108.759 227.887 105.47 220.004 104.337 211.789C104.306 211.562 104.891 211.799 104.99 212.007C106.374 214.914 107.438 217.964 108.69 220.931C111.226 226.941 114.208 232.755 117.179 238.562C118.229 240.614 119.126 242.766 120.444 244.656C120.836 245.218 122.132 246.427 122.186 245.745C123.252 232.147 116.934 219.964 113.697 207.218C113.6 206.839 114.524 207.363 114.785 207.653C115.219 208.136 115.415 208.792 115.656 209.395C116.867 212.422 117.913 215.514 119.138 218.537C122.184 226.048 125.653 233.839 129.586 240.956C129.986 241.68 130.37 242.545 131.11 242.915C131.488 243.104 132.207 242.685 132.198 242.262C132.13 239.041 131.422 235.863 130.892 232.685C129.745 225.799 126.941 217.468 125.233 211.354C124.404 208.387 123.374 205.462 122.839 202.429C122.71 201.701 122.935 199.595 123.274 200.253C125.942 205.426 127.715 211.015 130.021 216.36C132.464 222.02 135.325 227.499 138.293 232.902C138.971 234.137 139.862 235.243 140.687 236.385C140.935 236.728 141.783 237.461 141.775 237.038C141.542 223.481 137.955 211.306 134.592 198.294C134.051 196.198 133.39 194.122 133.069 191.981C132.95 191.189 132.794 188.954 133.286 189.587C136.34 193.512 137.17 198.744 139.163 203.3C141.142 207.822 143.216 212.302 145.258 216.795C146.118 218.687 146.9 220.617 147.87 222.454C148.934 224.468 150.523 230.452 151.353 228.331C152.688 224.92 150.61 221.027 149.829 217.448C147.38 206.224 142.284 195.83 140.034 184.581C139.951 184.166 140.535 185.274 140.687 185.669C142.352 189.997 143.834 194.393 145.476 198.729C148.257 206.076 150.114 213.867 153.965 220.713C155.139 222.801 156.046 227.823 158.1 226.59C160.354 225.238 157.7 221.34 157.23 218.754C155.199 207.587 151.876 196.694 149.176 185.669C148.827 184.244 148.698 182.773 148.523 181.316C148.48 180.955 148.312 179.932 148.523 180.227C151.491 184.383 152.578 189.605 154.4 194.376C157.255 201.853 159.194 209.858 163.542 216.578C164.355 217.833 166.09 220.575 167.025 219.407C168.52 217.538 167.38 214.592 167.025 212.224C166.286 207.298 164.932 202.482 163.76 197.641C161.991 190.336 159.669 183.174 157.883 175.874C157.497 174.298 156.357 169.601 157.012 171.085C161.254 180.7 163.796 190.978 167.242 200.906C168.251 203.81 169.231 206.725 170.29 209.612C170.828 211.08 171.332 212.568 172.031 213.966C172.215 214.333 172.732 215.21 172.902 214.836C174.265 211.838 172.395 208.237 171.596 205.041C170.614 201.115 169.545 197.21 168.548 193.287C166.403 184.844 163.903 176.445 162.671 167.82C162.641 167.605 163.241 167.619 163.324 167.82C164.312 170.218 164.831 172.785 165.719 175.221C168.668 183.311 171.779 191.342 174.861 199.382C175.792 201.81 176.775 204.224 177.908 206.565C178.338 207.453 180.232 209.291 180.302 208.306C180.712 202.571 178.482 196.946 177.255 191.328C176.177 186.392 175.089 181.458 173.99 176.527C172.55 170.067 171.014 163.628 169.637 157.155C169.561 156.8 169.488 155.736 169.637 156.066C170.428 157.824 171.013 159.67 171.596 161.508C173.336 167 174.845 172.564 176.602 178.051C177.82 181.853 179.208 185.598 180.52 189.369C181.53 192.273 182.385 195.238 183.567 198.076C183.846 198.746 184.169 199.993 184.873 199.817C185.596 199.637 185.336 196.538 184.873 194.593C183.296 187.968 181.309 181.441 179.867 174.786C178.478 168.374 177.451 161.887 176.384 155.413C176.358 155.253 176.554 154.823 176.602 154.978C179.609 164.668 182.325 174.448 185.309 184.145C186.267 187.261 187.074 190.424 188.138 193.505C188.456 194.425 188.851 195.345 189.444 196.117C189.627 196.354 190.191 196.607 190.315 196.335C191.708 193.27 189.691 189.618 189.009 186.322C188.649 184.58 188.293 182.837 187.921 181.098C186.552 174.711 185.026 168.356 183.785 161.943C183.284 159.354 183.041 156.722 182.697 154.107C182.678 153.964 182.651 153.534 182.697 153.672C185.388 161.746 187.659 169.961 190.315 178.051C190.888 179.795 191.205 181.649 192.056 183.275C192.199 183.547 192.676 182.928 192.709 182.622C192.903 180.818 192.876 178.986 192.709 177.18C192.44 174.258 191.864 171.372 191.403 168.473C190.849 164.987 190.203 161.514 189.662 158.025C189.404 156.362 187.376 153.427 189.009 153.019C190.634 152.613 190.042 156.206 190.533 157.808C191.42 160.705 192.284 163.609 193.145 166.514C193.647 168.208 193.506 170.417 194.886 171.521C195.175 171.752 195.125 170.802 195.104 170.432C194.906 167.016 194.599 163.605 194.233 160.202C194.106 159.028 193.58 155.538 193.58 156.719" fill="none" opacity="1" stroke="#b8ff9f" stroke-linecap="round" stroke-linejoin="round" stroke-width="14.7408" vectornator:layerName="Curve 8"/>
<path d="M51.0088 188.063C50.4413 187.921 49.3721 187.27 49.2675 187.846C48.9819 189.416 49.1255 191.044 49.2675 192.634C49.6992 197.47 50.4463 202.3 51.6618 207C52.1616 208.933 52.7766 210.851 53.6208 212.66C53.8172 213.081 54.6515 213.991 54.7091 213.53C55.9707 203.438 53.1517 192.878 52.7501 182.839C52.6624 180.645 53.2392 187.207 53.6208 189.369C54.8782 196.495 56.9823 203.481 59.4978 210.265C60.3558 212.579 61.3423 214.858 62.5451 217.013C63.0974 218.002 64.8052 220.755 64.7217 219.625C63.8544 207.876 61.6861 196.261 60.1508 184.581C59.6546 180.806 57.7453 169.559 58.6271 173.262C59.8704 178.484 60.0034 183.928 61.2391 189.152C63.2007 197.444 65.8 205.573 68.2044 213.748C69.305 217.49 70.4331 221.237 71.9047 224.849C71.9659 224.999 72.357 224.793 72.34 224.631C72.0553 221.926 71.4954 219.258 71.0341 216.578C69.9717 210.406 68.7288 204.264 67.7691 198.076C66.6243 190.694 65.6909 183.281 64.7217 175.874C64.6747 175.514 64.607 174.442 64.7217 174.786C66.0963 178.909 66.7875 183.232 67.9867 187.41C70.9701 197.804 73.5295 206.297 77.3464 216.36C78.0257 218.151 77.8543 221.917 79.7407 221.584C81.7169 221.235 81.1421 217.711 81.0467 215.707C80.7748 209.998 79.4186 204.393 78.6524 198.729C77.7498 192.058 76.8598 185.385 76.0404 178.704C75.9164 177.693 75.5007 176.622 75.8227 175.656C75.9463 175.286 76.7702 175.727 76.911 176.092C80.5169 185.425 83.5549 194.967 86.9237 204.388C87.8358 206.939 88.7175 209.503 89.7533 212.007C90.508 213.83 93.236 218.769 93.236 216.795C93.236 206.524 90.1677 196.483 88.665 186.322C88.1949 183.144 87.6396 179.957 87.5767 176.745C87.5652 176.16 88.1973 174.692 88.4473 175.221C92.1936 183.146 94.3594 191.727 97.154 200.035C98.5657 204.232 99.7347 208.513 101.29 212.66C101.489 213.19 102.394 214.532 102.378 213.966C102.044 201.943 97.2686 189.762 94.9773 178.051C94.5695 175.966 94.1066 173.862 94.1066 171.738C94.1066 170.821 94.6781 173.483 94.9773 174.35C95.4037 175.587 95.8569 176.814 96.2833 178.051C97.308 181.022 98.2734 184.015 99.3306 186.975C101.176 192.141 102.962 197.332 104.99 202.429C105.65 204.087 106.551 205.64 107.384 207.218C107.93 208.253 108.446 211.217 109.126 210.265C110.309 208.608 109.649 206.205 109.561 204.171C109.431 201.177 108.939 198.207 108.473 195.246C107.705 190.368 106.612 185.544 105.861 180.663C105.015 175.166 104.365 169.64 103.684 164.12C103.639 163.76 103.509 162.714 103.684 163.032C108.649 172.032 111.577 182.199 115.22 191.764C116.239 194.437 117.812 198.332 119.356 200.47C119.653 200.882 119.406 199.452 119.356 198.947C118.971 195.096 118.606 191.24 118.05 187.41C116.497 176.716 113.655 166.188 112.826 155.413C112.753 154.47 114.011 156.924 114.35 157.808C116.05 162.242 117.408 166.801 118.921 171.303C120.88 177.132 122.705 183.017 125.015 188.716C125.516 189.952 125.32 191.875 126.539 192.417C127.411 192.804 127.051 190.538 126.974 189.587C126.685 186.007 126.001 182.47 125.451 178.921C124.003 169.583 121.533 160.293 121.533 150.842C121.533 150.48 122.495 150.502 122.621 150.842C125.192 157.769 127.104 164.923 129.369 171.956C130.86 176.588 132.246 181.293 134.375 185.669C134.708 186.355 134.942 184.002 134.81 183.057C133.937 176.807 132.958 170.572 131.98 164.338C131.003 158.103 129.321 151.927 129.151 145.618C129.143 145.319 129.848 145.593 130.021 145.836C130.625 146.681 130.955 147.696 131.327 148.666C132.407 151.472 133.368 154.322 134.375 157.155C137.095 164.813 139.81 172.478 142.864 180.01C143.06 180.495 143.213 181.268 143.734 181.316C146.69 181.584 145.192 174.842 144.823 171.738C144.068 165.401 143.017 159.101 141.993 152.801C141.319 148.657 139.399 144.572 139.816 140.394C139.853 140.026 140.683 140.316 140.905 140.612C141.414 141.292 141.51 142.2 141.775 143.006C143.397 147.932 144.979 152.87 146.564 157.808C148.273 163.132 150.019 168.553 152.223 173.697C152.531 174.416 154.294 175.342 154.4 174.568C155.463 166.771 153.574 158.813 152.223 151.06C151.386 146.252 150.121 141.52 149.394 136.694C149.315 136.172 149.593 134.698 149.829 135.17C150.886 137.284 151.282 139.668 152.006 141.918C154.387 149.316 156.404 156.056 159.189 163.249C159.763 164.733 160.28 166.269 161.148 167.603C161.306 167.846 161.954 167.886 162.018 167.603C162.372 166.045 162.353 164.408 162.236 162.814C161.844 157.5 161.266 152.197 160.495 146.924C159.609 140.869 157.23 134.978 157.23 128.858C157.23 128.435 158.158 127.813 158.318 128.205C160.742 134.155 162.329 140.412 164.413 146.489C165.899 150.824 167.376 155.259 169.854 159.114C170.293 159.796 171.808 160.982 172.031 160.202C172.828 157.412 172.227 154.391 172.031 151.495C171.863 149.008 171.361 146.553 170.943 144.095C169.436 135.234 167.928 129.88 167.46 121.458C167.449 121.253 167.815 121.704 167.895 121.893C168.62 123.606 169.197 125.377 169.854 127.117C171.882 132.487 173.881 137.869 175.949 143.224C176.711 145.197 177.493 147.164 178.343 149.101C178.8 150.141 179.195 151.233 179.867 152.148C180.044 152.39 180.682 152.66 180.738 152.366C182.099 145.218 178.419 136.95 176.384 130.382C175.52 127.592 173.499 124.727 174.208 121.893C174.302 121.514 174.501 122.617 174.643 122.981C176.315 127.261 177.914 131.569 179.649 135.823C181.391 140.094 183.304 144.295 185.309 148.448C185.931 149.737 186.128 151.696 187.485 152.148C188.451 152.47 187.55 150.08 187.268 149.101C185.366 142.509 183.009 136.057 180.955 129.511C180.687 128.655 179.742 126.198 180.302 126.899C182.737 129.942 183.504 134.006 185.091 137.565C186.624 141.004 188.17 144.44 189.88 147.795C190.137 148.3 190.693 149.596 190.968 149.101C191.496 148.15 191.058 146.921 190.968 145.836C190.84 144.302 190.684 142.759 190.315 141.265C189.23 136.872 187.84 132.561 186.615 128.205C186.389 127.403 185.972 125.561 186.397 126.029C187.67 127.429 188.222 129.373 189.444 130.817C189.553 130.945 192.063 134.476 192.492 131.906C192.73 130.472 192.637 129.003 192.709 127.552" fill="none" opacity="1" stroke="#b8ff9f" stroke-linecap="round" stroke-linejoin="round" stroke-width="14.7408" vectornator:layerName="Curve 9"/>
<path d="M58.4094 162.596C58.0467 161 57.8805 156.269 57.3211 157.808C56.5025 160.059 57.0613 162.643 57.5388 164.991C57.947 166.998 59.0855 168.785 59.9331 170.65C60.1752 171.183 60.3358 171.823 60.8038 172.174C61.0359 172.348 60.8194 171.593 60.8038 171.303C60.6743 168.908 60.5582 166.511 60.3684 164.12C60.1954 161.939 59.9248 159.768 59.7154 157.59C59.562 155.995 58.7732 154.322 59.2801 152.801C59.5072 152.12 60.4743 153.687 60.8038 154.325C61.6567 155.978 62.0381 157.836 62.7628 159.549C63.6355 161.612 64.5513 163.661 65.5924 165.644C66.0788 166.57 66.7791 167.368 67.3337 168.256C67.5057 168.531 67.8359 169.444 67.7691 169.126C66.2887 162.095 64.5971 155.101 63.4157 148.013C62.994 145.482 60.6852 142.365 62.3274 140.394C63.7523 138.685 63.7074 144.629 64.5041 146.707C67.0456 153.337 69.6284 159.952 72.34 166.514C73.2574 168.734 74.4065 170.852 75.3874 173.044C75.6405 173.61 75.7782 174.224 76.0404 174.786C76.2877 175.316 76.8845 176.894 76.911 176.309C77.2317 169.255 74.8132 162.338 73.4284 155.413C72.5856 151.2 71.6991 146.995 70.8164 142.789C70.4656 141.117 70.0311 139.463 69.7281 137.782C69.2327 135.036 67.2954 126.957 68.4221 129.511C70.6185 134.49 71.3699 139.989 72.993 145.183C74.6246 150.404 76.9994 155.364 79.0877 160.42" fill="none" opacity="1" stroke="#b8ff9f" stroke-linecap="round" stroke-linejoin="round" stroke-width="14.7408" vectornator:layerName="Curve 10"/>
<path d="M81.9173 166.079C81.9173 156.865 74.3412 143.68 81.9173 138.435C88.3204 134.003 89.3167 167.913 90.4063 160.202C92.3732 146.283 83.1946 132.382 84.747 118.41C85.7463 109.416 89.3663 135.919 92.1476 144.53C93.1462 147.622 94.5503 150.581 96.0656 153.454C96.6681 154.597 97.3225 155.889 98.46 156.502C98.925 156.752 98.8855 155.506 98.8953 154.978C98.9584 151.568 99.1351 148.128 98.6776 144.748C97.8246 138.445 96.2348 132.263 94.9773 126.029C94.4934 123.629 93.9336 121.246 93.4536 118.846C93.353 118.342 93.05 116.844 93.236 117.322C95.7321 123.741 97.0737 130.551 99.1129 137.129C99.8875 139.628 100.863 142.06 101.725 144.53C102.813 147.648 103.68 151.313 105.861 153.89C106.054 154.118 106.616 154.384 106.731 154.107C107.095 153.234 107.017 152.221 106.949 151.278C106.654 147.202 106.203 143.136 105.643 139.088C104.661 131.985 102.374 124.9 101.725 117.757C101.687 117.336 102.24 118.446 102.378 118.846C102.896 120.343 103.263 121.889 103.684 123.417C105.444 129.796 106.946 136.25 108.908 142.571C109.724 145.201 110.506 147.847 111.52 150.407C112.034 151.705 112.705 152.946 113.479 154.107C113.606 154.298 114.103 154.553 114.132 154.325C115.39 144.574 111.815 133.412 109.561 124.287C109.302 123.24 109.551 121.24 108.473 121.24C107.434 121.24 108.874 123.279 109.126 124.287C110.76 130.826 112.001 137.483 114.132 143.877C114.573 145.199 116.195 148.423 116.744 147.142C117.776 144.733 116.462 141.901 116.091 139.306C115.445 134.783 114.514 130.306 113.697 125.811C113.208 123.123 112.602 120.455 112.173 117.757C112.093 117.256 111.921 115.793 112.173 116.234C114.484 120.278 115.037 125.098 116.526 129.511C117.517 132.448 118.663 135.331 119.791 138.218C121.13 141.644 123.857 152.126 123.927 148.448C124.138 137.281 121.419 126.251 120.227 115.145C120.04 113.408 119.449 111.635 119.791 109.921C119.938 109.189 120.638 111.173 120.88 111.88C121.659 114.163 122.123 116.542 122.839 118.846C125.025 125.88 127.155 132.933 129.369 139.959C129.79 141.296 129.759 143.053 130.892 143.877C131.524 144.337 131.763 142.482 131.763 141.7C131.763 137.989 131.388 134.278 130.892 130.6C129.934 123.492 127.985 116.551 126.757 109.486C126.632 108.768 126.072 106.749 126.539 107.309C127.333 108.262 127.524 109.594 127.845 110.792C129.122 115.551 130.152 120.373 131.327 125.158C132.256 128.934 133.134 132.725 134.157 136.476C134.658 138.314 135.296 140.111 135.898 141.918C135.95 142.072 136.077 142.511 136.116 142.353C136.365 141.358 136.633 140.329 136.551 139.306C136.123 133.915 135.475 128.535 134.592 123.199C133.877 118.874 132.645 114.65 131.763 110.357C131.556 109.351 131.182 108.325 131.327 107.309C131.406 106.762 131.825 108.303 131.98 108.833C132.697 111.282 133.321 113.758 133.939 116.234C135.505 122.497 136.237 126.094 137.64 132.341C137.852 133.285 137.73 134.383 138.293 135.17C138.56 135.544 138.699 134.322 138.728 133.864C138.845 132.054 138.817 130.235 138.728 128.423C138.599 125.805 138.474 123.177 138.075 120.587C137.352 115.889 135.751 111.354 135.028 106.656C134.923 105.976 135.502 107.951 135.681 108.615C136.518 111.725 137.243 114.864 138.075 117.975C138.912 121.104 139.784 124.224 140.687 127.335C141.09 128.723 141.536 130.099 141.993 131.47C142.159 131.967 142.799 133.295 142.864 132.776C143.815 125.166 142.554 118.648 140.905 111.227C140.5 109.406 140.023 107.602 139.599 105.786C139.515 105.425 139.231 104.359 139.381 104.697C142.1 110.814 143.341 118.324 145.04 124.723C145.424 126.168 145.656 127.657 146.129 129.076C146.243 129.42 146.667 130.291 146.782 129.947C148.46 124.912 146.085 115.384 145.258 110.574C144.959 108.834 144.27 107.112 144.387 105.35C144.437 104.605 145.236 106.602 145.476 107.309C146.619 110.679 147.449 114.147 148.523 117.54C149.052 119.211 149.088 121.638 150.7 122.328C151.122 122.509 151.104 121.48 151.135 121.022C151.323 118.271 151.512 115.504 151.353 112.751C151.221 110.476 150.647 108.249 150.264 106.003C150.066 104.839 148.874 103.443 149.611 102.521C150.202 101.782 150.795 104.032 151.135 104.915C152.618 108.77 153.656 112.782 155.053 116.669C155.415 117.677 155.505 119.499 156.577 119.499C158.057 119.499 157.538 116.622 157.447 115.145C157.232 111.65 156.701 108.182 156.359 104.697C156.31 104.192 156 102.814 156.359 103.174C159.509 106.323 159.603 111.819 161.583 115.581C162.022 116.415 162.544 113.903 162.671 112.969C162.77 112.246 162.816 111.517 162.889 110.792" fill="none" opacity="1" stroke="#b8ff9f" stroke-linecap="round" stroke-linejoin="round" stroke-width="14.7408" vectornator:layerName="Curve 11"/>
<path d="M82.6351 9.03967C83.6683 11.1059 82.8472 13.9382 82.8472 16.2493C82.8472 25.4342 78.9756 33.9182 77.9701 42.9671C77.3869 48.2158 75.8119 53.3836 74.3653 58.4466C73.0319 63.1136 72.2034 67.9767 70.9726 72.6537C69.2788 79.0899 66.7399 85.3491 64.8232 91.7379C60.6648 105.599 58.2498 121.963 58.2498 136.268" fill="none" opacity="1" stroke="#b8ff9f" stroke-linecap="round" stroke-linejoin="round" stroke-width="14.7408" vectornator:layerName="Curve 12"/>
<path d="M87.0881 13.9167C88.971 15.172 90.4559 17.2638 92.1772 18.7938C95.7265 21.9487 99.7134 24.6336 102.992 27.9118C103.618 28.5382 103.663 29.6439 104.264 30.2443C106.113 32.0929 107.485 33.8992 109.141 35.9696C110.202 37.2958 112.173 38.1532 113.382 39.3623C115.594 41.5739 118.064 44.3395 119.319 47.2081C121.49 52.1705 122.164 58.0582 123.136 63.3236C125.023 73.544 126.756 83.7842 128.225 94.0704C129.311 101.673 130.714 109.076 131.194 116.759C131.317 118.736 131.32 120.718 131.406 122.697C131.418 122.979 131.689 123.545 131.406 123.545C131.105 123.545 130.439 120.832 130.346 120.576C129.699 118.813 129.003 117.066 128.437 115.275C127.73 113.035 127.139 110.759 126.529 108.49C122.406 93.1543 117.456 78.2663 112.746 63.1116C111.372 58.6918 110.815 53.9273 109.353 49.5406C109.241 49.2053 109.289 50.2533 109.353 50.6008C109.785 52.9458 110.211 55.2977 110.837 57.5984C114.245 70.1145 117.207 82.8115 121.864 94.9186C122 95.2738 121.56 94.2195 121.44 93.8583C120.853 92.0982 120.365 90.3054 119.743 88.5572C117.325 81.7517 114.816 74.9787 112.322 68.2007C110.291 62.6839 108.398 57.1085 106.808 51.449C106.039 48.7093 105.406 45.9328 104.688 43.1792C104.558 42.6813 104.179 41.1873 104.264 41.6949C105.174 47.1536 105.615 49.2351 107.445 54.4177C108.428 57.2028 109.507 59.9539 110.625 62.6875C111.416 64.6204 112.322 66.5043 113.17 68.4127C113.453 69.0489 113.707 69.6985 114.018 70.3212C114.118 70.5211 113.909 69.8832 113.806 69.685C113.06 68.2547 112.274 66.8449 111.473 65.4441C110.577 63.8759 109.532 62.3909 108.717 60.7791C106.42 56.2368 104.224 51.6414 102.143 46.996C101.183 44.8517 100.521 42.5838 99.5989 40.4226C98.4698 37.7752 97.8893 34.7428 95.9941 32.5769C95.0067 31.4484 96.2128 35.5897 96.6302 37.0298C97.6322 40.4868 98.8405 43.89 100.235 47.2081C100.8 48.5524 102.413 51.5063 103.84 52.9333C103.952 53.0451 103.725 52.6335 103.628 52.5092C102.946 51.6411 102.063 50.9189 101.507 49.9647C99.2964 46.1665 97.3234 42.233 95.3579 38.3021C93.6294 34.8449 93.3433 30.6328 91.3291 27.2757C91.2262 27.1043 90.884 27.501 90.905 27.6998C91.175 30.2653 91.5423 32.8332 92.1772 35.3335C93.8072 41.7513 95.8624 48.0535 97.6905 54.4177C97.7709 54.6978 97.9025 54.9744 97.9025 55.2659C97.9025 55.4894 97.7735 54.8372 97.6905 54.6297C96.6424 52.0096 95.4435 49.447 94.5098 46.784C92.4902 41.0246 91.4038 35.9088 89.8447 30.0323C89.6555 29.319 89.5386 27.2518 89.2086 27.9118C88.7028 28.9234 89.0227 30.189 89.2086 31.3046C90.7926 40.8083 92.3782 50.3227 94.5098 59.7188C95.8458 65.6083 97.849 71.3267 99.5989 77.1067C100.564 80.2948 101.078 83.6694 102.568 86.6488C102.952 87.4179 102.363 84.9356 102.143 84.1042C101.372 81.1848 100.385 78.3258 99.5989 75.4103C98.1934 70.1963 96.7745 64.9829 95.57 59.7188C94.8649 56.6375 91.6385 52.6239 93.8736 50.3888C96.0315 48.2309 95.1581 56.3598 95.9941 59.2947C99.2149 70.602 102.112 82.1147 107.021 92.7981C108.301 95.5844 109.724 98.3027 111.049 101.068C111.35 101.696 111.237 102.756 111.898 102.976C112.438 103.157 111.84 101.828 111.686 101.28C111.061 99.0641 110.233 96.9099 109.565 94.7065C108.112 89.9119 106.7 85.1046 105.324 80.2874C103.166 72.7349 101.612 64.9929 98.9627 57.5984C97.9986 54.9069 99.68 63.2757 100.235 66.0802C101.024 70.0664 101.84 74.0579 102.992 77.9548C105.715 87.1722 109.165 96.1598 112.11 105.309C112.883 107.713 113.83 110.068 114.442 112.518C114.683 113.481 115.146 116.348 114.654 115.487C113.065 112.706 112.116 109.601 111.049 106.581C108.369 98.9942 105.873 91.3424 103.416 83.6801C101.702 78.3357 100.151 72.9403 98.5386 67.5646C97.8188 65.1652 97.779 62.4581 96.4182 60.355C95.7643 59.3444 96.159 62.757 96.2061 63.9598C96.3007 66.3704 96.5114 68.7796 96.8423 71.1694C98.1507 80.6195 99.6297 90.063 101.719 99.3716C102.424 102.512 102.929 105.706 103.204 108.914C103.217 109.071 103.097 109.455 102.992 109.338C102.31 108.58 101.578 107.773 101.295 106.793C97.4641 93.5164 93.9353 80.1491 90.6929 66.7164C89.4795 61.6893 89.2596 56.4482 87.9363 51.449C87.8205 51.0115 86.9817 51.8571 86.8761 52.2972C86.5293 53.7422 86.7104 55.2649 86.664 56.7502C86.4984 62.0506 86.1516 67.3514 86.2399 72.6537C86.2932 75.8465 86.8192 79.0139 87.0881 82.1958C87.2433 84.0324 87.3502 85.873 87.5122 87.709C87.5623 88.2766 87.6727 89.9729 87.7243 89.4054C88.198 84.1945 87.3339 78.9462 87.3002 73.7139C87.2546 66.6455 87.4462 59.5775 87.5122 52.5092C87.5168 52.0145 87.5122 51.5197 87.5122 51.0249C87.5122 50.0354 87.9928 47.1912 87.5122 48.0563C84.1994 54.0193 84.6761 61.4227 83.9074 68.2007C83.6348 70.6051 83.3662 73.0101 83.0592 75.4103C82.5887 79.0889 82.0349 82.7567 81.5749 86.4367C81.5398 86.7173 81.5319 87.5643 81.5749 87.2849C82.2669 82.7872 82.5487 78.2358 83.0592 73.7139C83.2835 71.7273 83.6981 69.7648 83.9074 67.7766C83.9814 67.0737 84.5135 65.2925 83.9074 65.6561C83.0632 66.1627 83.0558 67.4506 82.8472 68.4127C81.7806 73.3308 81.011 78.3086 80.0906 83.256C79.3147 87.4266 78.5812 91.6053 77.7581 95.7668C77.3088 98.0381 76.7712 100.291 76.2737 102.552C75.9937 103.825 75.8377 107.606 75.4256 106.369C74.755 104.357 75.2845 102.123 75.4256 100.008C75.6763 96.246 76.2815 92.5163 76.6978 88.7692C76.847 87.4271 77.4312 86.0548 77.1219 84.7403C77.0195 84.3052 76.0129 84.7483 75.8497 85.1644C74.5346 88.5178 73.7685 92.0638 72.881 95.5547C72.706 96.2432 72.762 96.971 72.669 97.6752C71.4928 106.58 68.8521 116.258 68.8521 125.241C68.8521 126.022 69.0292 123.689 69.0642 122.909C69.2413 118.952 69.2929 114.99 69.4883 111.034C69.7477 105.78 70.3055 100.53 71.1846 95.3427C71.3118 94.5921 71.4945 92.6839 72.0328 93.2222C72.7842 93.9736 72.1806 95.3423 72.2449 96.4029C72.4633 100.007 72.6206 103.616 72.881 107.217C73.3874 114.223 74.3609 121.056 75.6376 127.998C76.0258 130.109 76.3555 132.361 77.546 134.147C77.7971 134.524 78.4332 135.414 78.6063 134.995C80.528 130.351 80.1956 126.047 79.8785 121.212C79.461 114.845 78.6252 108.505 78.3942 102.128C78.2713 98.7347 78.3971 95.3194 78.8183 91.9499C78.901 91.2883 79.3802 89.8105 79.8785 90.2536C80.7498 91.028 80.525 92.4982 80.7267 93.6463C81.4445 97.7324 81.9531 101.853 82.6351 105.945C83.1548 109.063 83.6953 112.179 84.3315 115.275C84.7559 117.341 85.3621 119.365 85.8158 121.424C86.2812 123.536 86.121 125.852 87.0881 127.786C87.4791 128.568 87.6427 126.112 87.7243 125.241C87.8562 123.834 87.8292 122.41 87.7243 121C87.3341 115.761 86.51 110.556 86.2399 105.309C86.0147 100.932 85.1771 96.4134 86.2399 92.162C86.6542 90.5049 87.9942 95.1586 88.3604 96.827C89.2777 101.006 89.5495 105.302 90.0568 109.55C90.2237 110.948 89.6654 113.008 90.2688 114.215C90.6798 115.037 90.3228 112.376 90.2688 111.458C90.1813 109.97 89.7982 108.496 89.8447 107.005C89.8699 106.2 89.675 104.673 90.4809 104.673C91.6845 104.673 92.5072 106.048 93.2375 107.005C94.8556 109.126 95.8122 111.708 97.4784 113.791" fill="none" opacity="1" stroke="#b8ff9f" stroke-linecap="round" stroke-linejoin="round" stroke-width="14.7408" vectornator:layerName="Curve 13"/>
<path d="M104.052 26.2155C103.84 26.0741 103.416 26.0462 103.416 25.7914C103.416 25.2215 104.497 26.2366 104.9 26.6395C106.208 27.9476 107.499 29.2822 108.929 30.4564C110.801 31.9943 112.659 32.5208 114.23 34.4853C115.895 36.5667 118.946 37.7064 121.016 39.3623C123.309 41.1973 125.079 43.5374 126.953 45.7238C129.736 48.9707 133.437 51.5426 136.071 55.0538C138.966 58.9138 142.281 60.42 146.249 62.6875C147.248 63.2581 148.449 63.5831 149.43 64.1718C149.701 64.3344 150.278 64.912 150.278 64.5959C150.278 63.3443 148.18 61.9125 147.521 61.2032C143.944 57.3511 139.761 54.291 136.071 50.6008C135.095 49.6252 133.584 48.7133 132.466 47.8442C131.908 47.4103 130.138 46.888 130.77 46.5719C131.402 46.2558 131.945 47.3666 132.466 47.8442C134.585 49.7867 136.432 51.9723 138.828 53.5695C145.251 57.8515 150.414 64.3076 155.791 69.685C157.728 71.6223 160.915 73.051 163.213 74.7741C164.9 76.0398 167.171 77.1918 168.514 78.803C168.774 79.1152 170.897 82.1704 171.271 81.9837C171.749 81.7447 170.097 79.5488 169.998 79.4392C168.681 77.9759 166.766 77.0547 165.333 75.6223C164.547 74.8355 163.823 74.5427 163.001 73.926C162.718 73.7139 162.153 72.9364 162.153 73.2898C162.153 74.8665 166.88 77.1685 167.878 78.1669C169.7 79.9887 170.897 81.8843 172.331 83.8922C175.284 88.0271 179.746 91.4297 183.569 94.7065C189.724 99.9822 193.33 107.268 198.413 113.367C200.86 116.303 203.727 120.069 205.622 123.545C207.384 126.774 208.811 130.424 210.711 133.511C213.875 138.653 218.345 145 218.345 151.323" fill="none" opacity="1" stroke="#b8ff9f" stroke-linecap="round" stroke-linejoin="round" stroke-width="14.7408" vectornator:layerName="Curve 14"/>
<path d="M130.346 55.0538C129.247 54.3213 129.205 57.5527 129.285 58.8706C129.413 60.9468 130.001 62.9687 130.346 65.02C131.854 74.0047 132.941 83.0779 135.011 91.9499C135.786 95.2725 136.503 98.6095 137.343 101.916C137.563 102.783 137.851 103.634 138.191 104.461C138.348 104.842 138.498 105.768 138.828 105.521C139.283 105.179 139.084 104.393 139.04 103.825C138.73 99.8558 138.261 95.9 137.767 91.9499C136.979 85.6415 135.896 79.3733 135.011 73.0778C134.862 72.0186 134.738 70.9559 134.587 69.8971C134.526 69.4715 134.3 68.2013 134.375 68.6248C135.935 77.541 138.298 86.3313 141.16 94.9186C142.1 97.7381 142.457 101.401 144.977 102.976C145.193 103.111 145.408 102.595 145.401 102.34C145.336 100.14 145.072 97.9466 144.765 95.7668C143.809 88.9824 142.665 84.5164 141.16 77.7428C140.453 74.5621 139.782 71.3733 139.04 68.2007C139.004 68.0468 138.81 67.6195 138.828 67.7766C140.127 79.4714 144.57 90.9042 149.006 101.704C149.736 103.481 151.144 107.821 152.399 107.641C152.824 107.581 152.657 106.797 152.611 106.369C152.231 102.891 151.784 99.415 151.126 95.9788C149.572 87.8631 146.017 80.1554 144.765 72.0175C144.717 71.7051 145.089 72.5658 145.189 72.8657C145.868 74.9018 146.41 76.9819 147.097 79.0151C148.107 82.0014 149.113 84.9919 150.278 87.921C151.588 91.2154 153.058 94.4449 154.519 97.6752C156.084 101.134 156.995 105.363 160.032 107.641C160.202 107.769 160.079 107.212 160.032 107.005C159.23 103.46 158.447 99.9085 157.488 96.4029C155.881 90.5311 153.116 84.8697 152.611 78.803C152.519 77.7005 153.69 80.7422 154.095 81.7717C155.388 85.0591 156.425 88.4431 157.7 91.7379C160.849 99.8807 162.78 104.762 166.606 112.094C167.039 112.926 168.632 115.312 168.938 114.639C169.348 113.738 169.101 112.646 168.938 111.67C168.532 109.235 167.966 106.821 167.242 104.461C165.544 98.924 163.077 93.6465 161.304 88.1331C160.859 86.7458 159.37 85.0579 160.244 83.8922C161.003 82.8806 161.423 86.1314 161.941 87.2849C162.978 89.5964 163.851 91.9801 164.909 94.2824C167.628 100.2 170.443 106.075 173.391 111.882C174.589 114.242 175.477 117.272 177.844 118.456C178.072 118.57 178.318 118.07 178.268 117.82C177.737 115.163 177.069 112.522 176.148 109.974C174.298 104.858 171.739 100.024 169.362 95.1306C168.989 94.3624 167.79 92.1149 168.302 92.7981C171.301 96.7965 173.165 101.532 175.512 105.945C178.483 111.534 181.465 117.131 184.842 122.485C186.396 124.95 187.692 128.087 190.355 129.27C191.362 129.718 190.478 126.64 189.719 124.817C188.855 122.745 187.685 120.81 186.538 118.88C184.785 115.93 182.777 113.137 181.025 110.186C180.089 108.609 179.185 107.001 178.48 105.309C178.419 105.163 178.806 104.973 178.904 105.097C185.087 112.826 189.801 122.046 194.808 130.542C195.774 132.182 196.688 133.858 197.776 135.419C198.32 136.2 198.747 137.696 199.685 137.54C200.48 137.407 199.424 135.921 199.049 135.207C197.998 133.212 196.63 131.4 195.444 129.482C193.465 126.282 190.881 123.206 190.143 119.516C190.086 119.23 190.77 119.114 190.991 119.304C191.871 120.058 192.403 121.143 193.111 122.061C194.312 123.617 195.533 125.157 196.716 126.726C198.572 129.186 200.38 131.682 202.229 134.147C203.137 135.357 204.028 136.581 204.986 137.752C205.303 138.139 206.046 139.312 206.046 138.812C206.046 134.926 203.82 131.09 202.229 127.786C201.338 125.935 200.392 124.11 199.473 122.273C199.402 122.131 199.188 121.708 199.261 121.849C202.1 127.337 204.942 132.78 207.531 138.388" fill="none" opacity="1" stroke="#b8ff9f" stroke-linecap="round" stroke-linejoin="round" stroke-width="14.7408" vectornator:layerName="Curve 15"/>
</g>
<clipPath id="ArtboardFrame">
<rect height="334.335" width="233.923" x="0" y="0"/>
</clipPath>
<g clip-path="url(#ArtboardFrame)" id="Untitled" vectornator:layerName="Untitled">
<path d="M202.787 99.2856C220.666 121.551 235.358 148.547 233.811 177.06C232.667 198.163 222.559 218.086 208.586 233.941C194.612 249.796 176.937 261.952 158.671 272.583C110.858 300.411 58.1206 318.726 4.93137 333.94C3.66351 334.303 2.19364 334.634 1.11281 333.879C-0.339283 332.864-0.093041 330.681 0.313302 328.957C25.7715 220.916 51.2296 112.876 76.6878 4.83623C77.0394 3.34395 77.4625 1.7354 78.6657 0.785224C80.9162-0.992061 84.1725 0.58609 86.5591 2.17593C128.75 30.2805 171.047 59.7578 202.787 99.2856M168.622 70.6107C141.835 46.3429 112.769 24.5932 81.9295 5.74158C56.3302 113.284 30.9714 220.883 5.85322 328.538C69.1696 309.028 134.09 288.692 186.085 247.63C201.474 235.478 215.919 221.061 223.13 202.827C232.478 179.191 228.294 151.793 216.874 129.085C205.454 106.376 187.459 87.6766 168.622 70.6107Z" fill="#000000" fill-rule="nonzero" opacity="1" stroke="none" vectornator:layerName="path"/>
</g>
</svg>
