<?xml version="1.0" encoding="UTF-8" standalone="no"?>
<!DOCTYPE svg PUBLIC "-//W3C//DTD SVG 1.1//EN" "http://www.w3.org/Graphics/SVG/1.1/DTD/svg11.dtd">
<!-- Created with Vectornator (http://vectornator.io/) -->
<svg height="100%" stroke-miterlimit="10" style="fill-rule:nonzero;clip-rule:evenodd;stroke-linecap:round;stroke-linejoin:round;" version="1.1" viewBox="0 0 283.081 283.004" width="100%" xml:space="preserve" xmlns="http://www.w3.org/2000/svg" xmlns:vectornator="http://vectornator.io" xmlns:xlink="http://www.w3.org/1999/xlink">
<defs/>
<g id="Layer-1" vectornator:layerName="Layer 1">
<g opacity="0.985428" vectornator:layerName="Curve 1">
<path d="M76.4688 100.5C75.2872 100.509 75.0522 101.184 74.5938 102.062C74.5645 102.118 74.569 102.187 74.5625 102.25C74.5473 102.397 74.5458 102.541 74.5312 102.688C74.5275 102.723 74.5042 102.728 74.5 102.75C74.4667 102.922 74.4428 103.012 74.4062 103.188C74.3888 103.271 74.3935 103.354 74.375 103.438C74.3443 103.576 74.2867 103.767 74.25 103.906C74.1746 104.192 74.0818 104.499 74 104.781C73.8743 105.215 73.7747 105.659 73.5625 106.062C73.4913 106.198 73.4057 106.266 73.3125 106.375C72.9835 106.76 72.67 107.144 72.3438 107.531C71.7485 108.238 70.9432 109.172 70.3438 109.875C69.6846 110.648 69.0101 111.421 68.3438 112.188C66.3332 114.501 64.1816 116.676 62.1875 119C61.5314 119.765 60.9225 120.593 60.25 121.344C59.5722 122.1 58.841 122.812 58.1562 123.562C55.107 126.902 52.3021 130.46 49.375 133.906C47.4176 136.376 47.811 139.949 50.2812 141.906C52.7515 143.864 56.3551 143.47 58.3125 141C60.7676 137.676 63.2292 134.34 65.4375 130.844C66.2724 129.522 66.9639 128.13 67.75 126.781C68.2711 125.888 68.8831 125.049 69.4062 124.156C70.1869 122.824 70.8631 121.422 71.5938 120.062C72.0969 119.126 72.5888 118.186 73.0938 117.25C72.8748 119.561 72.66 121.877 72.4375 124.188C73.4275 120.653 74.4193 117.097 75.4062 113.562C75.5173 113.165 75.6389 112.773 75.75 112.375C75.8341 112.219 75.9159 112.062 76 111.906C76.5609 110.866 77.1963 109.841 77.7188 108.781C78.0241 108.162 78.2154 107.464 78.3125 106.781C78.3937 106.21 78.4115 105.636 78.4688 105.062C78.5549 104.199 78.8424 102.18 78.1562 101.312C77.741 100.788 77.1535 100.495 76.4688 100.5Z" fill="#79f7ff" stroke="none"/>
</g>
<path d="M46.3229 109.11C46.8809 103.256 47.0861 97.3316 46.597 91.472C46.5395 90.7833 46.0502 89.9065 45.3668 89.803C44.6835 89.6996 44.0838 90.46 43.6979 91.0332C42.2898 93.1246 40.7622 95.2457 40.07 97.67C37.8597 105.412 36.4961 113.376 35.057 121.297C33.3164 130.879 32.8549 140.758 33.5387 150.472C33.8886 155.444 33.0615 161.37 36.2875 165.168C37.9969 167.181 41.8906 164.37 43.7422 162.487C45.4391 160.762 45.3013 157.891 45.7778 155.518C48.9329 139.807 49.4412 125.206 47.8853 109.187C47.6766 107.038 47.8527 104.463 46.3745 102.89C45.1487 101.586 42.6609 101.1 41.0871 101.953C39.2029 102.974 38.64 105.516 37.8511 107.508C36.2266 111.611 34.5713 115.78 33.8864 120.139C32.2816 130.354 30.8207 140.687 31.0141 151.025C31.2353 162.853 32.7129 174.694 35.1233 186.276C35.892 189.969 37.7557 193.612 40.4311 196.272C41.9115 197.744 44.7203 198.646 46.5444 197.631C49.2013 196.153 50.8429 192.99 51.6155 190.049C53.5915 182.529 53.983 174.666 54.6148 166.916C55.7613 152.853 54.6799 138.65 53.3076 124.607C52.815 119.567 52.0964 114.517 50.7844 109.625C50.5312 108.681 49.4622 106.889 48.7284 107.535C46.6036 109.404 45.3175 112.24 44.679 114.997C43.0467 122.046 41.3635 129.333 42.0119 136.539C43.7199 155.52 46.9435 174.431 51.6876 192.889C52.3065 195.297 56.1049 199.322 57.6474 197.372C60.9283 193.225 60.2928 187.05 60.4884 181.765C60.899 170.675 60.2514 159.556 59.4571 148.486C58.3157 132.581 58.2207 116.435 54.6849 100.886C54.2256 98.8655 50.3185 102.257 49.363 104.095C47.1603 108.333 45.0844 113.252 45.8027 117.973C49.2165 140.416 54.7275 205.881 61.5525 184.231C69.0923 160.312 56.975 133.694 48.2598 110.179C45.1867 101.887 44.4915 127.514 43.8 136.33C43.201 143.967 43.417 151.707 44.4066 159.303C45.8847 170.647 48.0503 181.944 51.1767 192.948C52.4737 197.514 54.8786 201.762 57.5785 205.665C58.4175 206.878 61.0274 209.215 61.4524 207.803C64.3708 198.105 65.6338 187.881 65.9764 177.76C66.3567 166.525 64.736 155.304 63.6083 144.119C62.5246 133.371 61.5121 122.576 59.3456 111.993C58.876 109.699 57.0074 103.934 55.7913 105.935C51.7395 112.601 48.7083 120.66 49.3522 128.434C51.3048 152.009 55.6219 175.659 63.4159 197.994C65.0314 202.624 71.7184 207.347 76.1784 205.31C80.7155 203.237 79.0466 195.671 79.3941 190.695C79.9579 182.62 79.3239 174.499 78.894 166.416C78.1648 152.706 77.2288 139.003 75.9178 125.337C75.2218 118.082 76.6873 109.897 72.8759 103.684C71.3518 101.2 67.7094 106.564 65.6892 108.665C64.9376 109.446 64.9629 110.766 65.0247 111.849C66.209 132.581 66.2495 153.47 69.4209 173.993C70.1721 178.854 72.632 183.994 76.6187 186.876C81.2374 190.214 87.496 190.631 93.1705 191.16C94.0898 191.246 93.7898 189.404 93.8945 188.487C94.5596 182.657 95.5352 176.822 95.4756 170.955C95.3534 158.935 94.4022 146.93 93.3503 134.956C92.8175 128.89 91.9603 122.841 90.7253 116.879C89.3901 110.433 91.8598 99.985 85.6525 97.7935C80.4465 95.9554 78.7089 106.822 77.4942 112.208C75.6645 120.32 75.7174 128.898 76.7766 137.147C78.5443 150.912 82.2493 164.38 85.9131 177.766C86.7793 180.931 88.3786 183.919 90.3058 186.575C92.642 189.794 94.9133 193.603 98.5598 195.192C100.718 196.132 104.356 195.264 105.308 193.111C107.729 187.634 107.514 181.251 107.37 175.265C106.951 157.851 104.957 140.511 103.624 123.143C103.46 121.006 103.268 118.865 102.88 116.757C101.618 109.903 100.788 102.918 98.6798 96.2749C98.2578 94.9447 96.5763 92.6338 95.5127 93.5371C93.081 95.6022 92.2189 99.1449 91.6122 102.277C90.0419 110.383 88.6844 118.665 89.047 126.913C89.6833 141.388 92.0225 155.764 94.5902 170.023C95.2204 173.523 96.9254 176.771 98.591 179.913C101.034 184.521 103.169 189.514 106.87 193.188C108.829 195.133 112.227 197.138 114.695 195.9C117.265 194.612 117.501 190.663 117.633 187.791C118.119 177.223 117.318 166.623 116.525 156.074C115.747 145.731 114.903 135.347 112.922 125.166C110.803 114.277 111.013 101.834 104.257 93.0356C101.599 89.5742 98.319 99.5258 96.1333 103.303C95.2899 104.761 95.5631 106.627 95.4219 108.306C95.0201 113.081 94.5081 117.86 94.5052 122.652C94.5014 128.925 94.8944 135.196 95.4017 141.448C95.7625 145.895 96.5455 150.306 97.461 154.672" fill="none" opacity="0.985428" stroke="#79f7ff" stroke-linecap="round" stroke-linejoin="round" stroke-width="12.5423" vectornator:layerName="Curve 2"/>
<path d="M133.089 120.485C132.655 118.982 132.543 117.346 131.787 115.976C129.564 111.949 127.524 101.222 124.227 104.43C116.808 111.648 115.613 123.462 113.649 133.625C112.428 139.947 113.898 146.536 114.861 152.902C115.79 159.052 117.016 165.242 119.303 171.026C120.982 175.269 123.11 179.672 126.608 182.602C128.568 184.244 132.688 185.571 134.224 183.526C139.383 176.655 142.109 168.03 143.865 159.619C145.98 149.478 146.564 138.917 145.685 128.596C144.908 119.464 145.079 108.754 138.953 101.937C135.981 98.6295 129.748 104.289 126.943 107.738C123.603 111.844 122.664 117.57 121.969 122.817C120.717 132.263 120.145 141.917 121.157 151.391C122.049 159.745 124.497 167.953 127.622 175.752C129.192 179.671 131.562 183.618 135.033 186.021C136.866 187.291 140.363 187.285 141.704 185.502C146.893 178.604 150.917 170.568 152.966 162.182C156.481 147.802 159.045 132.856 158.181 118.078C157.623 108.526 152.354 99.8345 148.805 90.9495C148.604 90.446 147.715 90.4127 147.213 90.6173C144.648 91.6626 141.732 92.4922 139.907 94.5758C136.756 98.1744 134.337 102.517 132.818 107.053C129.813 116.026 127.345 125.299 126.463 134.72C125.752 142.324 127.15 149.995 128.092 157.574C128.56 161.341 128.665 165.446 130.679 168.664C134.766 175.195 138.235 185.374 145.91 186.048C151.768 186.562 152.204 176.081 154.745 170.778C155.908 168.352 156.343 165.635 156.947 163.013C158.407 156.673 160.024 150.349 160.933 143.907C161.824 137.597 162.892 131.19 162.336 124.843C161.578 116.184 159.495 107.647 157.029 99.3115C156.323 96.922 154.785 94.726 152.935 93.0572C151.823 92.0547 150.091 91.3797 148.639 91.7456C146.556 92.2706 144.403 93.5785 143.377 95.4659C139.015 103.491 135.35 111.981 132.863 120.77C131.091 127.033 130.169 133.694 130.724 140.179C131.62 150.641 132.089 161.823 137.167 171.015C138.669 173.733 143.277 168.407 144.835 165.719C147.533 161.064 148.032 155.433 149.238 150.189C153.325 132.417 156.126 114.556 153.322 96.3779C153.09 94.8767 152.609 93.2621 151.538 92.1844C151.133 91.7764 150.321 92.6004 150.095 93.1293C148.651 96.5163 146.989 99.9602 146.658 103.627C145.21 119.699 144.13 135.879 144.789 152.002C144.979 156.639 146.365 161.522 149.177 165.213C150.269 166.647 153.241 166.059 154.571 164.843C157.028 162.597 157.96 159.088 159.238 156.014C161.137 151.447 162.463 146.663 164.075 141.987" fill="none" opacity="0.985428" stroke="#79f7ff" stroke-linecap="round" stroke-linejoin="round" stroke-width="12.5423" vectornator:layerName="Curve 3"/>
<path d="M181.436 106.564C180.661 105.101 180.759 102.007 179.112 102.174C173.711 102.724 167.61 104.248 164.036 108.333C160.389 112.503 160.538 118.9 159.692 124.374C158.708 130.739 158.349 137.227 158.575 143.664C158.687 146.852 159.186 150.187 160.698 152.996C162.056 155.519 164.137 159.969 166.837 159.012C172.051 157.163 175.11 151.477 178.103 146.824C180.26 143.471 181.463 139.457 181.961 135.501C182.823 128.643 183.392 121.563 182.133 114.768C181.462 111.147 179.911 106.365 176.374 105.342C173.351 104.467 170.865 108.574 168.736 110.892C166.869 112.925 165.448 115.455 164.657 118.1C161.945 127.165 157.519 136.337 158.302 145.767C158.892 152.858 161.712 162.424 168.514 164.512C173.382 166.007 174.057 155.906 176.025 151.209C178 146.496 181.171 141.504 180.262 136.475C177.881 123.298 172.468 110.727 166.54 98.7207C165.876 97.3761 163.94 100.317 162.977 101.466C159.819 105.231 156.526 108.994 154.265 113.356C151.195 119.279 148.892 125.62 147.124 132.053C145.542 137.81 143.172 143.864 144.266 149.733C145.816 158.048 149.055 166.577 154.728 172.851C156.476 174.785 159.691 170.591 161.208 168.471C164.211 164.273 166.661 159.51 167.863 154.491C170.357 144.078 171.894 133.363 172.179 122.66C172.316 117.5 170.647 112.411 169.115 107.482C168.546 105.652 167.709 103.467 165.965 102.671C159.954 99.9275 154.002 104.861 152.09 110.244C146.937 124.749 143.393 139.808 140.204 154.867C139.581 157.807 140.131 160.923 140.735 163.867C142.068 170.369 144.363 179.313 148.818 177.683C154.887 175.462 157.968 167.574 159.442 162.204C161.021 156.453 163.121 150.654 163.096 144.69C163.052 134.317 160.75 124.074 159.238 113.812C159.003 112.223 156.155 107.199 155.083 107.047C152.634 106.698 149.825 107.858 148.139 109.669C144.435 113.647 141.308 118.42 139.666 123.602C136.693 132.987 135.168 142.86 134.512 152.683C134.089 159.013 134.154 165.705 136.46 171.615C137.829 175.123 141.516 177.431 144.85 179.181C146.22 179.899 150.471 175.024 151.965 171.361C154.341 165.534 156.94 159.608 157.633 153.353C159.188 139.328 158.722 125.143 158.655 111.032C158.651 110.248 157.152 104.39 154.815 104.748C149.531 105.556 146.52 116.032 145.801 118.485C144.437 123.143 142.856 127.937 143.067 132.785C143.534 143.496 144.696 154.337 147.811 164.596C148.767 167.747 151.714 170.491 154.834 171.544C157.373 172.401 160.592 171.334 162.634 169.599C167.023 165.872 170.671 161.107 173.21 155.939C178.976 144.203 182.773 131.597 187.326 119.341C188.885 115.146 189.247 110.594 190.465 106.288C190.706 105.439 191.264 102.983 191.475 103.84C192.618 108.506 189.763 113.304 189.251 118.081C188.582 124.317 188.838 135.673 189.376 141.368C189.837 146.237 190.573 155.62 194.471 153.978C196.651 153.06 197.629 150.397 198.729 148.304C200.407 145.112 201.809 141.741 202.736 138.257C204.519 131.55 206.017 124.736 206.829 117.844C207.375 113.212 207.315 102.727 203.931 101.87C202.288 101.454 198.586 108.139 197.94 112.666C196.945 119.642 196.744 126.727 196.776 133.774C196.793 137.545 196.342 141.669 198.086 145.013C199.026 146.815 201.925 148.032 203.778 147.197C206.038 146.18 210.885 134.653 211.426 132.843C214.85 121.366 217.125 109.252 216.601 97.2864C216.553 96.1698 216.804 94.7264 215.959 93.9955C212.232 90.7739 212.034 102.236 211.407 108.248C210.924 112.869 210.696 131.406 215.466 134.184C220.038 136.848 222.411 132.116 223.9 128.799C229.447 116.444 228.97 105.29 227.65 92.1149C227.622 91.8452 227.523 91.2175 227.305 91.3784C216.93 99.0255 220.687 124.077 222.796 134.883C223.032 136.087 223.645 137.426 224.716 138.025C227.898 139.802 229.945 132.531 230.916 129.017C233.016 121.41 233.371 116.977 232.995 109.098C232.856 106.186 233.53 102.883 231.983 100.413C231.076 98.9651 227.889 98.0184 226.951 99.4458C224.849 102.644 225.515 106.976 225.166 110.787C224.33 119.903 223.458 132.106 228.335 140.192C228.533 140.52 229.161 139.921 229.297 139.562C230.115 137.404 230.53 135.113 231.107 132.878C231.541 131.198 232.058 129.531 232.329 127.817C233.997 117.279 234.703 111.92 234.46 101.677C234.385 98.5201 233.092 98.2587 231.727 100.442" fill="none" opacity="0.985428" stroke="#79f7ff" stroke-linecap="round" stroke-linejoin="round" stroke-width="12.5423" vectornator:layerName="Curve 4"/>
<path d="M23.6645 167.934C18.571 160.847 19.9273 148.519 20.1634 140.121C20.6878 121.469 23.9275 105.762 32.8676 89.1888C36.0659 83.2596 39.5185 77.3449 43.8231 72.1183C45.4841 70.1014 47.4118 68.3166 49.1026 66.3246C49.5734 65.7701 51.1371 64.3564 50.4566 64.6133C43.7087 67.1612 37.7517 76.8541 34.1369 82.3092C23.2752 98.7006 17.4153 114.31 17.1498 134.259C17.0688 140.345 18.3037 146.379 19.0085 152.425C19.1874 153.96 20.6655 157.755 19.289 157.052C16.6487 155.705 15.6953 136.045 15.7833 133.641C16.2736 120.252 18.5453 108.295 23.2754 95.7441C24.5396 92.3897 32.3587 81.3246 32.3833 78.3711C32.3929 77.2052 30.007 78.9564 29.1817 79.7799C27.0373 81.9198 25.6119 84.6125 24.366 87.3319C21.2295 94.178 19.7602 101.691 18.093 109.035C15.1394 122.045 12.5922 135.141 14.1301 148.333C14.1614 148.602 13.8563 147.858 13.7853 147.597C13.4011 146.18 13.0823 144.747 12.7682 143.314C12.3462 141.388 12.3116 139.397 12.0833 137.439C11.377 131.379 12.5162 124.392 13.4858 118.375C16.2115 101.459 23.7562 89.5679 33.9927 76.63" fill="none" opacity="0.985428" stroke="#79f7ff" stroke-linecap="round" stroke-linejoin="round" stroke-width="12.5423" vectornator:layerName="Curve 5"/>
<path d="M14.3978 108.43C13.7335 102.731 18.222 95.0055 20.8322 90.3329C26.4225 80.3255 32.4681 70.3899 39.7329 61.462C43.3785 56.9817 47.5789 53.4588 52.1098 49.9217C53.2283 49.0485 57.067 48.1703 55.733 47.687C53.0991 46.7327 45.8823 54.993 44.5909 56.4942C42.8906 58.4706 41.3497 60.5845 39.8818 62.7392C37.5149 66.2134 35.3437 69.8171 33.0947 73.3689C32.8654 73.731 32.6423 74.0982 32.4475 74.48C30.7387 77.8276 29.2575 80.6763 27.3294 83.8795C26.7042 84.9182 25.4466 87.8849 25.0728 86.7317C24.3105 84.38 28.8601 76.8615 29.4716 75.6036C35.0391 64.1505 41.9865 53.203 54.6046 49.1131C55.5164 48.8176 52.7224 49.5452 51.8544 49.9515C51.2631 50.2283 50.6695 50.5236 50.1556 50.9262C48.0769 52.5549 46.0536 54.2891 44.3057 56.2685C37.6343 63.8237 33.0162 72.5177 28.0534 81.206C27.2131 82.677 24.7281 85.9964 24.9662 88.0386C25.1418 89.545 26.4232 84.7619 27.9296 84.5863" fill="none" opacity="0.985428" stroke="#79f7ff" stroke-linecap="round" stroke-linejoin="round" stroke-width="12.5423" vectornator:layerName="Curve 6"/>
<path d="M17.6434 136.273C13.0388 131.717 13.2586 142.387 13.3089 143.51C13.7257 152.821 15.499 162.904 18.913 171.595C19.7458 173.715 20.8019 175.75 21.9564 177.713C22.4264 178.512 23.1817 180.561 23.757 179.833C25.3721 177.792 21.7223 175.04 20.5945 172.694C18.1354 167.578 15.7886 162.119 14.572 156.567C14.2082 154.906 13.6774 149.069 13.696 146.83C13.7045 145.798 14.6229 143.819 13.5941 143.735C11.7596 143.586 11.555 147.046 11.6055 148.886C11.6806 151.628 12.2407 154.336 12.5583 157.06C12.9316 160.263 12.2363 167.472 14.7837 169.487C15.3257 169.916 14.8259 168.105 14.8009 167.414C14.748 165.955 14.6483 164.498 14.5501 163.042C14.1913 157.719 13.5768 152.472 12.9594 147.175C12.8894 146.574 11.8662 142.957 11.2356 143.492C10.3371 144.255 12.3228 153.707 12.6351 155.498C13.5463 160.725 13.7727 170.239 17.6484 174.073C17.8207 174.243 18.0977 173.745 18.0997 173.502C18.1154 171.615 17.8705 169.733 17.7001 167.853C17.5685 166.402 17.3626 164.958 17.1939 163.511C16.9629 161.529 15.6425 149.404 15.2709 149.236C14.4421 148.861 13.4155 150.775 13.4061 151.007C13.2246 155.48 13.5488 165.712 16.0906 169.594C16.2785 169.881 16.0112 168.913 15.9715 168.572C15.8127 167.21 15.7062 165.84 15.4951 164.485C15.3626 163.634 15.0569 162.814 14.9419 161.961C13.9408 154.529 13.1912 146.942 12.3216 139.482C12.2119 138.542 12.3261 135.96 11.7386 136.702C9.82267 139.124 12.2321 146.414 12.2057 149.593C12.202 150.03 12.5333 150.849 12.0991 150.9C11.3806 150.984 11.0389 142.103 10.9974 141.449C10.9539 140.764 11.0709 138.795 10.7592 139.405C9.43182 142.006 10.9226 145.25 11.2607 148.15C12.1768 156.008 12.0623 169.421 19.0447 174.946C20.1895 175.851 19.1848 171.98 18.7939 170.573C18.1464 168.243 16.6775 164.108 15.4528 161.901C14.9383 160.974 14.7851 164.027 15.0438 165.056C17.9719 176.695 22.6172 188.24 27.8081 199.038C28.4404 200.354 31.4595 204.817 32.218 205.774C32.6339 206.298 33.8622 207.8 33.6738 207.157C30.709 197.043 24.8813 186.296 20.3046 176.87C19.3384 174.88 17.6002 170.602 15.8478 171.953C13.3206 173.9 16.8444 178.3 17.9713 181.285C20.2423 187.299 22.7537 193.228 25.4794 199.051C26.4388 201.101 27.6664 203.028 29.0038 204.854C29.8347 205.988 31.8763 209.281 31.9453 207.877C32.3429 199.787 23.1573 184.497 19.5383 176.959C18.5874 174.979 17.6366 172.992 16.5247 171.097C16.4278 170.932 16.0302 170.715 15.9841 170.901C14.5503 176.692 19.2114 183.821 21.1933 188.935C22.185 191.494 23.1054 194.082 24.1599 196.616C24.5454 197.542 25.5485 200.309 25.5092 199.306C25.166 190.574 18.8515 177.304 14.6176 170.284C14.4776 170.051 14.3724 170.82 14.4515 171.08C15.2215 173.606 16.1477 176.084 17.1328 178.534C18.3366 181.528 19.7254 184.444 21.0146 187.403C22.8557 191.627 22.5429 198.354 26.8757 199.924C27.3592 200.099 26.8819 198.871 26.697 198.391C25.7613 195.962 24.6236 193.616 23.5345 191.251C22.7746 189.602 22.0632 187.922 21.1509 186.351C20.9683 186.037 20.3132 185.311 20.2953 185.674C20.1421 188.791 22.5248 191.512 23.8919 194.317C27.0417 200.779 30.6149 208.259 34.9887 213.995C35.4881 214.65 41.7183 221.923 41.4718 220.747C39.8766 213.14 33.2806 206.184 28.7233 200.226C27.5086 198.638 26.3866 196.973 25.0625 195.475C24.7786 195.154 24.0735 194.417 23.9514 194.828C22.9166 198.31 26.7889 201.55 28.7186 204.628C31.3659 208.851 34.1589 212.98 36.9084 217.137C39.5606 221.146 41.301 226.702 45.7454 228.534C46.5728 228.875 45.1189 226.85 44.6813 226.069C44.0253 224.899 43.2702 223.783 42.4764 222.702C38.7616 217.639 35.3395 212.221 30.6681 208.026C30.1422 207.553 31.094 209.381 31.4172 210.01C32.1016 211.341 32.8495 212.644 33.6817 213.888C37.5473 219.669 41.5005 225.458 46.239 230.548C46.8143 231.166 48.9344 232.099 48.6571 231.302C46.4303 224.899 40.2691 220.649 35.9337 215.438C34.3522 213.537 32.7465 211.657 31.132 209.784C30.6505 209.225 29.2337 207.534 29.6464 208.145C33.0804 213.231 36.4855 218.346 40.2072 223.225C41.9961 225.57 44.1083 227.653 46.1497 229.782C46.5692 230.219 47.712 231.501 47.5758 230.91C47.1005 228.849 42.8571 224.091 41.9953 223.017C39.4648 219.863 36.9219 216.719 34.4182 213.543C32.8708 211.581 31.5276 209.45 29.8423 207.604C29.6688 207.414 28.9472 207.471 29.0759 207.693C33.0543 214.575 37.5986 219.877 42.608 226.052C43.3869 227.012 44.1259 228.014 45.0089 228.879C46.1785 230.025 49.3997 233.57 48.7464 232.068C44.6914 222.745 37.2402 215.295 31.0897 207.2C28.4124 203.676 26.2186 199.672 22.8827 196.764C21.6755 195.712 23.895 199.827 24.6958 201.213C26.0192 203.505 27.4007 205.765 28.8503 207.979C32.0191 212.819 35.8568 220.568 40.552 223.962C41.2467 224.464 40.7343 222.117 40.2542 221.407C37.7635 217.722 35.2825 214.031 32.754 210.372C30.9221 207.721 29.0628 205.088 27.1734 202.478C26.1821 201.109 25.7025 199.009 24.1129 198.433C23.6652 198.271 26.8182 204.429 26.9008 204.581C28.4024 207.353 29.9063 210.124 31.4893 212.849C32.6898 214.916 34.8831 218 35.1203 217.345C36.2483 214.232 32.3773 211.275 30.4722 208.566C28.4167 205.644 26.2166 202.826 24.0361 199.996C23.4702 199.261 21.9079 197.008 22.2355 197.876C25.121 205.518 29.7811 211.498 35.6014 217.03" fill="none" opacity="0.985428" stroke="#79f7ff" stroke-linecap="round" stroke-linejoin="round" stroke-width="12.5423" vectornator:layerName="Curve 7"/>
<path d="M46.792 190.87C41.5835 179.267 37.8504 166.944 31.5798 155.879C30.9183 154.711 29.9291 158.351 30.2086 159.663C31.5047 165.747 33.6921 171.64 36.1544 177.353C41.1686 188.986 47.2009 200.429 54.3126 210.965C56.6742 214.464 59.0642 217.956 61.7236 221.235C62.4109 222.082 63.4337 223.941 64.2905 223.266C66.8206 221.27 62.4157 211.186 60.6265 207.381C55.9169 197.367 51.5049 187.128 45.5288 177.813C42.455 173.023 39.2583 166.834 33.7331 165.466C30.5711 164.683 34.0585 172.017 34.8646 175.173C35.9761 179.524 37.6826 183.713 39.4485 187.843C43.9937 198.471 51.0699 211.228 57.9688 220.119C61.49 224.657 64.4363 231.088 70.0199 232.436C73.2793 233.223 69.3153 225.686 68.0923 222.563C65.5999 216.201 62.2324 210.209 58.9622 204.21C52.9499 193.179 44.3883 176.911 34.1202 168.787C33.5498 168.336 32.7981 169.771 32.7662 170.498C32.6722 172.641 33.1235 174.808 33.7661 176.854C35.3295 181.833 37.0653 186.789 39.3545 191.479C45.9564 205.003 58.2363 226 72.1825 233.22C73.0505 233.669 72.9794 231.23 72.6213 230.321C70.2273 224.241 67.2187 218.41 64.0914 212.673C60.5123 206.108 51.9005 192.799 46.7966 186.468C43.8257 182.784 40.8434 179.045 37.2827 175.927C36.8501 175.548 35.8464 176.297 35.8394 176.872C35.7038 187.914 44.7987 202.234 50.9026 210.586C57.0631 219.016 63.414 227.361 70.5731 234.961C72.3839 236.883 74.8563 238.918 77.495 238.814C78.8682 238.76 77.7497 235.987 77.274 234.698C75.8291 230.781 73.8992 227.043 71.8173 223.424C68.9114 218.373 65.582 213.576 62.3378 208.735C56.481 199.997 50.4079 191.433 43.1186 183.79C41.5702 182.167 39.7613 178.807 37.7293 179.758C35.7822 180.67 37.4384 184.119 37.9629 186.204C38.7442 189.31 40.0743 192.28 41.5892 195.102C47.7544 206.586 54.0767 218.324 63.0086 227.816C65.4681 230.43 67.9875 233.032 70.8583 235.186C71.84 235.923 74.0839 237.528 74.3577 236.332C75.5175 231.263 71.9598 224.939 69.4463 220.852C66.3935 215.889 63.2958 210.946 59.9667 206.164C56.3464 200.963 52.5037 195.917 48.6098 190.917C45.6001 187.053 42.7619 183.006 39.262 179.579C38.8288 179.155 37.47 179.438 37.5037 180.043C37.6577 182.815 38.5193 185.572 39.7337 188.069C43.3132 195.427 47.1579 202.71 51.8053 209.445C57.0588 217.059 63.1955 224.04 69.3304 230.963C72.1293 234.122 80.8425 242.444 81.3438 236.294" fill="none" opacity="0.985428" stroke="#79f7ff" stroke-linecap="round" stroke-linejoin="round" stroke-width="12.5423" vectornator:layerName="Curve 8"/>
<path d="M85.5211 136.645C86.9943 150.023 88.2977 163.421 89.9406 176.779C89.964 176.969 90.301 176.909 90.4812 176.975" fill="none" opacity="0.985428" stroke="#79f7ff" stroke-linecap="round" stroke-linejoin="round" stroke-width="12.5423" vectornator:layerName="Curve 9"/>
<path d="M81.771 131.127C80.839 126.145 80.624 120.99 81.0359 115.937" fill="none" opacity="0.985428" stroke="#79f7ff" stroke-linecap="round" stroke-linejoin="round" stroke-width="12.5423" vectornator:layerName="Curve 10"/>
<path d="M74.8008 186.829C72.3391 184.881 70.61 191.991 70.3299 195.117C69.54 203.934 73.2593 210.606 81.4738 212.977C81.9946 213.128 82.4558 212.518 82.9468 212.288" fill="none" opacity="0.985428" stroke="#79f7ff" stroke-linecap="round" stroke-linejoin="round" stroke-width="12.5423" vectornator:layerName="Curve 11"/>
<path d="M42.9219 57.7244C46.0657 50.3524 52.6851 44.6608 58.6712 39.5772C75.7334 25.0874 109.874 11.1286 132.754 11.0052C143.896 10.9452 154.713 12.4778 165.216 16.283C168.45 17.4549 172.164 17.8399 175.535 18.187C176.798 18.3171 178.014 18.0005 179.2 18.5364C179.83 18.821 181.793 19.4386 181.108 19.3498C175.546 18.6287 169.223 18.0183 164.104 15.6358C162.048 14.6787 161.792 14.8077 160.064 14.2944C159.423 14.1037 157.967 13.7209 158.383 13.1959C160.885 10.0341 169.146 13.6703 171.482 14.5169" fill="none" opacity="0.985428" stroke="#79f7ff" stroke-linecap="round" stroke-linejoin="round" stroke-width="12.5423" vectornator:layerName="Curve 12"/>
<path d="M172.593 15.1641C178.055 11.5885 180.741 15.1362 185.242 17.0555C195.27 21.3321 204.319 26.8161 212.793 33.5209C216.457 36.4197 221.281 38.1167 225.27 40.6104C227.638 42.0908 229.604 45.174 231.468 47.1374C233.444 49.2176 236.898 50.4469 239.08 52.4639C253.616 65.9012 264.211 89.6954 269.173 108.505C270.706 114.314 271.456 121.674 271.407 127.663C271.384 130.399 270.222 133.053 270.542 135.79" fill="none" opacity="0.985428" stroke="#79f7ff" stroke-linecap="round" stroke-linejoin="round" stroke-width="12.5423" vectornator:layerName="Curve 13"/>
<path d="M272.015 135.1C271.925 134.329 272.406 136.605 272.538 137.37C272.987 139.964 272.62 140.507 272.516 143.845C272.389 147.952 271.821 151.63 271.302 155.637C269.67 168.223 265.813 181.252 261.451 193.292C257.416 204.43 248.006 215.906 239.694 224.308C234.338 229.722 231.226 236.746 225.703 241.991C223.385 244.192 216.103 247.553 215.042 250.484C214.627 251.627 215.165 252.015 214.288 252.902C213.827 253.367 210.503 255.415 210.784 256.158C211.411 257.818 217.173 252.67 217.579 252.259C221.868 247.924 226.201 243.711 230.288 239.127C233.042 236.037 235.199 232.548 238.246 229.655C244.692 223.533 256.752 215.467 257.997 205.863" fill="none" opacity="0.985428" stroke="#79f7ff" stroke-linecap="round" stroke-linejoin="round" stroke-width="12.5423" vectornator:layerName="Curve 14"/>
<path d="M50.4154 230.838C48.2407 228.277 52.6241 235.282 53.3694 236.19C56.5607 240.077 60.6178 242.922 65.2591 244.901C73.0268 248.214 80.3682 252.115 87.3617 256.823C93.9232 261.241 100.298 266.78 108.353 268.099C116.105 269.367 123.905 274.097 131.844 274.163C141.863 274.246 154.888 276.283 164.672 273.702C193.522 266.091 219.75 254.204 238.816 230.106" fill="none" opacity="0.985428" stroke="#79f7ff" stroke-linecap="round" stroke-linejoin="round" stroke-width="12.5423" vectornator:layerName="Curve 15"/>
<path d="M45.7705 233.192C46.397 238.567 52.7987 243.194 56.919 246.65C64.5233 253.028 92.7291 267.468 101.644 261.631" fill="none" opacity="0.985428" stroke="#79f7ff" stroke-linecap="round" stroke-linejoin="round" stroke-width="12.5423" vectornator:layerName="Curve 16"/>
<path d="M81.726 201.815C82.0441 199.361 82.4544 196.918 82.6803 194.454C82.9107 191.942 83.511 184.41 83.094 186.898C81.6607 195.448 80.2435 204.027 79.6261 212.675C79.0767 220.37 78.5623 228.919 82.306 235.664C82.7241 236.418 84.4265 235.872 84.8306 235.111C86.6477 231.69 87.5321 227.833 88.4631 224.072C89.7269 218.969 91.8639 206.422 90.9218 200.743C90.6141 198.888 89.8947 195.684 88.0273 195.902C86.0838 196.129 86.2971 199.443 85.813 201.338C84.9273 204.807 84.3376 208.356 83.9388 211.913C83.2042 218.466 83.1128 225.781 84.2477 232.331C84.5032 233.806 84.279 236.592 85.7756 236.554C87.7835 236.503 89.1271 234.029 89.9268 232.187C91.1791 229.302 91.4481 226.054 91.6945 222.919C92.3537 214.531 92.8254 206.107 92.6377 197.695C92.5987 195.947 92.0084 194.148 91.0204 192.705C90.7258 192.275 89.7581 192.677 89.5176 193.139C88.1915 195.69 87.2883 198.463 86.5793 201.249C85.7431 204.536 85.337 207.92 84.901 211.283C83.881 219.15 84.3648 227.181 85.0861 235.081C85.17 236.001 85.6524 236.983 86.4056 237.517C88.4479 238.965 89.8072 233.556 90.3186 231.106C92.0479 222.818 93.3641 214.439 94.3867 206.035C94.707 203.402 94.2905 195.75 91.9059 193.638C91.3656 193.159 88.4239 193.922 86.6686 202.015C84.4119 212.42 82.8352 227.608 87.968 237.593C88.5611 238.747 90.9234 238.556 91.8591 237.658C93.5772 236.008 94.0234 233.388 94.7206 231.11C96.122 226.533 98.9586 214.539 99.1162 208.85C99.2136 205.332 99.0265 201.781 98.4062 198.317C98.2637 197.521 97.6158 196.064 96.8908 196.422C86.6043 201.507 87.8834 225.616 90.7057 234.426C91.1192 235.717 92.0601 237.731 93.3918 237.479C96.9467 236.805 98.4137 231.82 99.1398 229.042C100.752 222.876 108.046 199.014 97.0099 197.444C96.5856 197.384 96.5136 198.154 96.3627 198.555C95.3912 201.139 94.1609 203.667 93.6501 206.38C91.8753 215.806 92.4714 225.142 93.5751 234.61C93.8202 236.713 93.9187 243.4 97.3801 245.04C100.722 246.624 103.216 239.956 104.405 236.454C106.242 231.046 107.887 219.482 107.66 213.291C107.506 209.093 108.067 204.537 106.201 200.774C105.462 199.283 102.52 199.268 101.229 200.318C99.323 201.868 99.1205 204.774 98.3969 207.121C95.0796 217.882 95.004 229.679 97.6402 240.609C97.9912 242.064 98.4316 244.22 99.9047 244.487C104.045 245.238 104.846 237.354 105.581 233.21C107.255 223.762 107.655 220.9 106.085 210.885C105.708 208.476 105.402 205.858 103.974 203.882C103.21 202.823 101.204 201.908 100.219 202.766C94.1448 208.063 93.5679 217.821 93.0736 225.865C92.6032 233.519 92.3877 241.269 93.4247 248.867C93.6222 250.314 95.2165 251.465 96.6217 251.86C97.7253 252.171 100.117 244.715 101.187 239.936C102.798 232.733 105.196 211.943 100.096 206.146C96.8581 202.467 93.3045 211.744 91.2478 219.087C88.4082 229.227 88.5498 236.905 90.1213 247.181C90.1792 247.56 90.9867 247.89 91.2026 247.573C92.8059 245.219 93.415 242.121 93.0893 239.327C92.6521 235.576 93.5391 231.163 91.2683 228.147C86.82 222.238 81.3756 215.403 74.0958 214.096C70.349 213.424 69.7424 220.459 68.5264 224.066C65.6755 232.524 68.2596 236.5 71.6748 244.412C72.5077 246.341 70.6224 240.31 69.683 238.43C67.1629 233.388 64.5191 227.958 60.0374 224.538C57.1525 222.337 54.9577 224.338 54.1153 227.041C52.9984 230.624 55.7827 236.729 56.8218 239.153C57.5406 240.83 61.5966 242.242 62.3349 239.805C63.5844 235.679 62.3586 230.729 60.5906 227.063C60.3522 226.568 59.7038 227.91 59.7177 228.459C59.755 229.926 60.2444 231.359 60.7348 232.742C61.3263 234.41 64.3104 242.039 67.9545 239.15C72.5907 235.474 71.4052 225.937 71.0087 220.929C70.8326 218.705 72.0116 215.236 69.979 214.317C68.1553 213.493 69.6045 218.311 69.6421 220.312C69.6711 221.854 69.8478 223.402 70.1781 224.909C70.8738 228.084 73.6636 238.285 75.9154 240.811C77.482 242.568 80.2678 245.247 82.2371 243.958C85.8388 241.599 86.8982 236.647 88.424 232.621C91.2989 225.036 90.7959 216.417 90.2824 208.585C90.0999 205.8 90.4783 199.815 87.7969 200.589C86.9817 200.825 86.3434 201.747 86.2173 202.586C85.2555 208.986 84.3064 215.469 84.5892 221.935C84.8297 227.433 84.9802 233.392 87.7721 238.134C89.497 241.064 93.4797 243.165 96.8567 242.771C99.0325 242.517 98.9053 238.866 99.5223 236.764C100.828 232.316 102.185 227.818 102.602 223.201C103.058 218.146 103.298 212.919 102.122 207.981C101.376 204.848 100.231 200.053 97.0225 199.773C94.2513 199.531 93.7072 204.465 93.2286 207.206C91.97 214.411 91.923 221.795 91.8982 229.109C91.8805 234.354 94.0582 246.693 96.5323 251.094C97.2671 252.401 99.6737 254.1 100.632 252.946C103.771 249.168 104.591 243.948 106.295 239.341C107.713 235.508 107.708 231.111 106.939 227.097C105.772 221.004 106.296 212.985 101.249 209.378C98.2374 207.225 96.2588 215.015 94.7942 218.415C91.8612 225.224 95.1403 239.515 97.9803 245.747C98.7987 247.543 99.9753 250.776 101.867 250.213C104.946 249.297 106.87 245.78 107.989 242.768C110.246 236.694 110.844 230.111 111.721 223.692C112.451 218.34 111.138 207.757 110.36 203.137C110.184 202.092 110.136 200.723 109.237 200.161C108.65 199.795 107.654 200.706 107.568 201.392C106.952 206.287 106.873 211.268 107.221 216.19C107.542 220.729 108.482 225.219 109.566 229.639C110.582 233.782 111.528 241.034 115.789 240.823C121.423 240.544 123.268 231.691 124.173 226.124C125.079 220.545 125.21 214.841 125.047 209.193C124.89 203.739 124.659 197.295 120.872 193.368C120.286 192.76 118.841 193.827 118.692 194.658C117.635 200.583 117.09 206.661 117.426 212.67C117.734 218.164 119.205 223.548 120.609 228.869C121.073 230.625 121.176 233.76 122.993 233.769C126.178 233.786 129.709 231.724 131.231 228.926C133.951 223.925 133.877 217.838 134.719 212.208C135.993 203.688 135.622 190.004 129.762 183.011C129.081 182.198 126.979 183.092 126.786 184.134C124.974 193.955 123.853 203.984 124.05 213.969C124.156 219.317 126.189 224.463 127.685 229.598C127.932 230.445 128.411 231.418 129.23 231.748C130.602 232.301 132.94 233.3 133.662 232.008C137.122 225.814 138.417 218.629 140.369 211.808C142.88 203.034 140.803 190.908 138.251 182.539C137.804 181.072 136.971 177.787 135.731 178.69C132.334 181.166 130.395 185.374 128.944 189.32C126.233 196.697 127.438 210.345 128.329 217.354C128.659 219.953 130.394 228.452 131.968 228.581C133.729 228.724 135.994 228.209 136.927 226.708C143.886 215.521 145.574 194.878 139.588 182.901C138.719 181.163 137.15 178.595 135.25 179.005C133.104 179.468 132.451 182.507 131.759 184.59C130.187 189.325 128.751 194.222 128.543 199.205C128.201 207.439 128.911 215.726 130.125 223.876C130.52 226.532 131.55 229.25 133.317 231.271C136.242 234.617 139.128 228.241 141.198 223.362C145.204 213.92 145.52 202.693 144.355 192.702C143.733 187.362 144.358 180.24 137.549 178.737C136.644 178.538 135.764 179.673 135.429 180.538C133.197 186.3 130.862 192.143 129.987 198.26C128.834 206.322 129.032 215.316 132.815 222.527C133.717 224.245 135.656 227.029 137.379 226.138C140.724 224.408 142.17 220.238 143.804 216.845C149.194 205.654 148.062 192.309 146.051 180.594C145.84 179.364 145.708 177.734 144.612 177.137C141.221 175.291 139.236 182.183 139.077 182.961C138.162 187.443 137.552 192.026 137.56 196.601C137.578 206.331 137.611 215.8 143.586 223.861C145.074 225.868 149.172 222.544 150.155 220.247C152.693 214.317 154.607 208.073 155.764 201.728C156.729 196.432 156.645 190.974 156.472 185.593C156.381 182.761 156.93 179.278 154.979 177.223C153.895 176.082 152.082 178.723 151.16 179.999C150.348 181.121 150.216 182.631 150.074 184.009C149.646 188.158 149.437 192.337 149.459 196.508C149.503 204.663 151.817 213.667 157.337 219.668C158.403 220.827 160.299 218.213 161.156 216.893C162.871 214.254 163.951 211.213 164.801 208.183C167.759 197.641 172.147 179.064 165.099 168.535C164.435 167.543 162.357 169.085 161.927 170.2C159.517 176.453 157.983 183.058 156.949 189.68C156.053 195.417 157.226 209.03 161.31 213.768C163.192 215.951 167.293 211.294 168.212 208.562C170.191 202.676 171.563 196.576 172.573 190.448C174.316 179.866 174.029 171.147 172.98 160.626C172.926 160.087 172.587 158.699 172.29 159.153C164.799 170.621 164.949 179.852 166.651 192.951C166.994 195.592 167.154 198.315 168.085 200.81C169.144 203.652 172.953 208.985 174.989 206.737C184.176 196.593 185.153 174.694 185.598 162.262C185.666 160.377 185.51 158.441 184.943 156.642C184.259 154.47 183.949 149.53 181.9 150.524C177.851 152.489 175.983 157.539 174.406 161.754C169.769 174.149 170.066 188.298 172.035 201.385C172.485 204.373 175.566 206.812 178.791 206.034C180.328 205.664 181.305 203.967 182.01 202.552C184.628 197.298 186.933 191.856 188.653 186.243C190.667 179.667 192.003 171.079 191.486 163.906C191.258 160.741 191.933 157.094 190.129 154.484C188.861 152.651 185.26 151.053 183.7 152.645C180.157 156.26 179.277 161.838 178.097 166.761C177.397 169.676 178.047 182.771 179.023 185.813C179.749 188.076 180.607 191.005 182.832 191.841C184.636 192.519 187.074 190.884 187.958 189.172C191.497 182.327 193.514 174.764 195.509 167.321C196.655 163.043 197.101 158.584 197.341 154.162C197.568 149.953 197.312 145.72 196.903 141.526C196.862 141.099 196.363 140.339 196.018 140.594C185.857 148.083 186.384 168.581 186.227 178.759C186.172 182.296 186.335 191.254 189.665 194.928C190.126 195.436 191.377 195.291 191.709 194.69C194.026 190.491 195.724 185.95 197.146 181.37C200.507 170.548 197.246 158.551 195.004 147.443C194.714 146.008 192.009 145.658 190.738 146.387C178.359 153.491 177.325 170.794 178.47 183.288C178.752 186.372 178.113 190.21 180.308 192.394C182.019 194.097 186.179 194.314 187.549 192.327C191.642 186.393 192.782 178.847 194.482 171.842C195.958 165.761 195.138 155.679 194.22 149.606C194.012 148.226 193.726 146.786 192.978 145.608C192.195 144.376 190.637 141.433 189.781 142.615C184.549 149.835 180.928 158.182 177.811 166.536C176.653 169.639 177.154 173.138 177.155 176.451C177.157 182.882 175.549 190.812 179.899 195.549C180.834 196.567 183.114 196.604 184.045 195.583C186.434 192.966 187.613 189.385 188.623 185.988C190.237 180.557 191.281 174.937 191.856 169.3C192.213 165.794 191.857 162.232 191.401 158.738C191.033 155.912 191.632 152.195 189.397 150.427C187.309 148.775 183.119 148.79 181.419 150.839C177.378 155.71 176.086 162.381 174.414 168.485C171.404 179.475 173.069 190.015 174.079 201.147C174.225 202.765 175.914 205.855 178.357 204.532C182.178 202.461 186.201 184.649 186.435 180.547C186.779 174.526 186.604 168.47 186.139 162.458C185.92 159.626 186.356 156.168 184.39 154.118C183.085 152.757 180.361 153.759 178.77 154.773C177.367 155.668 176.975 157.612 176.437 159.187C174.971 163.481 173.46 167.813 172.787 172.299C171.218 182.768 170.047 194.088 173.64 204.046C174.14 205.433 176.16 206.768 177.514 206.183C179.469 205.339 180.409 202.889 181.035 200.854C183.195 193.832 184.5 186.564 185.775 179.329C186.468 175.404 186.67 158.304 184.088 155.965C182.268 154.318 178.125 157.371 177.803 159.805C176.854 166.988 176.453 174.242 176.188 181.483C176.097 183.977 179.251 201.807 184.675 196.546C186.473 194.803 187.915 192.546 188.588 190.135C190.688 182.613 192.113 174.877 192.895 167.107C193.281 163.266 192.615 159.375 192.066 155.553C191.697 152.985 191.791 150.019 190.151 148.009C189.071 146.686 186.506 146.045 185.119 147.042C178.073 152.106 179.769 177.297 181.939 184.178C183.098 187.852 186.422 195.838 189.201 193.17C198.112 184.614 198.406 165.778 197.656 154.643C197.417 151.109 197.074 140.857 194.741 140.742C192.903 140.652 191.963 147.577 191.679 152.232C191.368 157.316 191.389 162.425 191.647 167.512C192.023 174.903 192.359 187.504 198.134 185.397C199.117 185.039 199.301 183.63 199.624 182.634C200.705 179.303 201.579 175.903 202.324 172.481C204.576 162.132 203.913 153.925 203.302 143.11C203.248 142.151 202.952 138.389 200.782 139.261C195.408 141.422 196.125 153.74 196.255 158.172C196.368 162.031 196.495 165.91 197.084 169.726C197.958 175.394 199.565 181.053 201.459 180.608C210.075 178.582 211.179 159.011 211.104 152.298C211.098 151.692 210.601 143.006 208.41 142.515C205.969 141.967 203.682 148.13 203.292 151.914C202.679 157.873 202.03 167.256 203.299 174.18C203.859 177.236 205.331 183.547 208.113 182.163C209.695 181.375 210.366 179.354 210.957 177.688C212.466 173.443 213.732 169.069 214.352 164.606C215.007 159.887 214.79 155.083 214.757 150.319C214.734 146.987 213.858 142.695 212.361 143.09C205.278 144.959 208.02 167.315 208.603 173.044C208.845 175.417 208.804 182.969 213.882 182.785C215.287 182.734 215.663 180.518 216.049 179.166C217.64 173.587 219.141 167.931 219.763 162.163C220.234 157.791 219.459 147.475 216.989 142.809C216.555 141.99 215.13 140.854 214.511 141.545C207.781 149.057 209.621 166.963 212.026 175.751C212.271 176.646 213.015 177.424 213.827 177.872C217.23 179.75 219.043 171.906 220.477 168.294C222.748 162.573 222.553 156.091 222.48 149.936C222.433 145.919 221.779 139.899 219.846 140.664C214.832 142.647 214.354 166.275 216.735 169.507C218.486 171.882 221.157 164.636 222.394 160.303C223.748 155.557 224.48 150.643 225.099 145.748C225.325 143.96 225.681 139.361 224.218 140.413C221.877 142.096 219.891 164.692 223.019 165.667C224.497 166.128 226.432 159.677 227.507 155.305C228.207 152.458 228.535 149.526 228.824 146.608C229.011 144.714 229.025 142.8 228.935 140.899C228.906 140.293 228.978 138.809 228.471 139.141C226.405 140.493 225.905 149.033 229.513 148.081" fill="none" opacity="0.985428" stroke="#79f7ff" stroke-linecap="round" stroke-linejoin="round" stroke-width="12.5423" vectornator:layerName="Curve 17"/>
<path d="M117.569 49.5405C117.636 47.8929 119.316 45.1703 117.77 44.5978C112.88 42.7874 107.008 41.947 102.146 43.83C94.8383 46.66 88.4109 51.9613 83.336 57.9326C79.1755 62.828 76.9066 69.2267 75.2797 75.4419C74.8604 77.0435 76.2146 78.9306 77.6037 79.8313C79.2438 80.8949 81.7404 81.7386 83.402 80.7089C92.6628 74.97 101.669 68.443 108.994 60.3786C112.741 56.2543 114.745 50.571 115.756 45.0915C116.126 43.0877 114.804 40.1225 112.802 39.7398C108.99 39.0108 105.007 40.7885 101.456 42.357C96.9322 44.3556 92.8148 47.2454 88.918 50.2913C84.4738 53.7651 79.6543 57.1277 76.5411 61.8316C72.3863 68.1092 67.4334 75.0282 67.5648 82.555C67.6218 85.8188 74.0077 86.754 76.9518 85.3444C86.1808 80.9257 93.6927 73.4653 101.16 66.47C104.834 63.0283 107.863 58.8064 110.097 54.2951C111.446 51.5727 111.771 48.3476 111.639 45.3125C111.558 43.442 111.139 40.9981 109.482 40.1269C104.102 37.2991 96.4157 41.4103 92.3202 43.9398C87.6518 46.823 82.9689 49.8025 78.9387 53.5259C73.7203 58.3471 68.7914 63.5854 64.7393 69.4211C62.0645 73.2733 60.4643 77.8097 58.9865 82.2605C58.6353 83.3181 58.6285 84.7525 59.3736 85.5812C63.5328 90.2069 72.4712 83.8321 77.063 79.6355C83.9681 73.3247 90.2363 66.2736 95.8651 58.8022C98.0148 55.9487 99.2591 52.4391 100.157 48.9811C100.834 46.3758 101.888 43.2269 100.511 40.9137C99.4995 39.2129 96.558 39.1464 94.6833 39.7807C89.9919 41.3679 85.605 44.028 81.83 47.2339C74.2073 53.7074 67.1055 60.862 60.7588 68.5906C58.5383 71.2946 57.5432 74.8369 56.4368 78.1562C56.1104 79.1355 55.5085 81.1855 56.5387 81.2513C61.3324 81.5576 66.1289 80.2593 70.7836 79.0729C75.9015 77.7684 78.7364 72.1102 82.4836 68.3883C83.8625 67.0187 85.4532 65.7591 86.3794 64.0505C88.6851 59.7975 91.5643 55.5113 92.0726 50.7003C92.366 47.9235 91.0079 44.4849 88.5951 43.0795C85.4252 41.233 75.761 46.5261 73.9114 48.157C68.1977 53.1952 61.5702 57.8116 57.9537 64.5161C54.8118 70.3407 52.1194 77.9134 54.5375 84.0736C55.8232 87.3491 61.8298 83.9669 64.9509 82.3419C68.9375 80.2663 71.9366 76.6481 75.0414 73.3984C82.2668 65.8359 89.0704 55.8512 85.1679 44.7735C83.5164 40.0856 77.2493 43.4148 75.5976 44.8535C71.3348 48.5666 67.4857 52.7945 64.1061 57.3262C59.8402 63.0463 56.3169 69.2929 52.7588 75.4781C51.5711 77.5426 50.145 79.6566 49.8973 82.0255C49.5138 85.6925 48.2764 90.4712 50.9222 93.0391C52.9146 94.9727 56.4699 92.0624 58.9474 90.809C62.0975 89.2154 64.8161 86.8648 67.5476 84.6283C78.106 75.9833 91.602 65.4773 97.2237 52.6889C98.6861 49.3621 99.2894 44.5259 94.815 43.1312C93.503 42.7222 91.8598 43.0421 90.7578 43.863C81.5671 50.7091 72.493 57.809 64.3224 65.845C61.2392 68.8774 59.137 72.8404 57.3096 76.7599C55.445 80.7595 53.5716 84.9838 53.345 89.3908C53.2321 91.5852 54.2076 94.8046 56.3585 95.2534C60.4083 96.0984 64.7505 94.3565 68.4707 92.5469C73.0985 90.2959 76.879 86.5964 80.8602 83.3354C85.6804 79.3871 96.2516 69.3381 99.33 64.0943C102.146 59.2977 104.279 54.0259 105.551 48.6113C106.061 46.44 106.392 43.2143 104.522 41.9996C102.068 40.4063 98.4562 41.1397 95.7474 42.2457C91.662 43.9138 88.2238 46.9614 84.9971 49.9716C81.0927 53.6141 77.3855 57.5785 74.4976 62.0698C69.9582 69.1292 66.0095 76.6182 62.8604 84.398C62.0505 86.3987 61.1093 89.5815 62.8385 90.8733C65.6701 92.9885 69.9981 93.3463 73.3538 92.2366C78.5962 90.5029 82.6937 86.3066 87.0205 82.8762C97.3522 74.6849 110.649 62.8431 111.486 48.4373C111.676 45.1573 110.555 41.1188 107.83 39.2838C105.553 37.751 102.01 39.0324 99.6855 40.4921C93.1423 44.602 87.4761 50.0293 82.0165 55.4973C76.3761 61.1464 70.7647 72.5469 69.0551 79.7922C68.5429 81.963 69.0388 84.4339 70.0848 86.4038C70.9375 88.0099 72.594 90.21 74.363 89.7888C81.2193 88.156 87.4559 84.4285 93.513 80.8248C101.88 75.8469 107.837 67.4611 113.562 59.5872C115.55 56.8543 116.08 48.7381 115.679 46.6539C115.303 44.6959 114.207 42.6173 112.5 41.5874C107.993 38.8693 101.674 43.4115 97.5606 46.6947C92.9774 50.3533 88.7575 54.5141 85.0175 59.0311C79.589 65.5875 73.932 73.168 73.1547 81.6445C72.8412 85.0634 72.8133 89.0436 74.8566 91.8025C77.452 95.3067 86.5315 91.3268 88.3949 90.2243C92.1284 88.0153 95.6496 85.4127 98.8897 82.5282C104.039 77.9437 109.245 73.3104 113.493 67.8804C116.233 64.3788 119.097 60.448 119.621 56.033C120.288 50.4089 119.734 44.1608 116.889 39.2634C115.72 37.2496 111.851 38.0254 109.903 39.3011C102.482 44.1596 95.8091 50.246 89.9476 56.9029C84.355 63.2546 80.2044 73.2676 81.2222 81.9986C82.1956 90.349 95.3649 81.3813 97.285 79.8673C107.858 71.5306 122.157 58.8001 116.599 43.4397C115.631 40.7644 109.194 43.6813 106.02 45.9675C102.152 48.7535 98.9681 52.4074 95.793 55.9626C91.0542 61.2687 84.7596 71.3503 83.8705 78.0652C83.4579 81.1818 84.5026 84.8345 86.7306 87.0525C88.2 88.5153 91.166 88.16 92.9504 87.1042C100.2 82.8146 106.78 77.3763 112.889 71.5756C116.188 68.4427 118.76 64.544 120.923 60.5415C123.811 55.1996 127.08 48.3716 124.803 42.7423C121.956 35.7042 111.565 45.9467 106.449 51.8724C100.904 58.2954 87.8951 76.7381 93.057 85.7972C95.9822 90.931 105.621 82.6439 110.627 78.8297C120.268 71.4855 128.906 60.0598 129.771 47.6003C129.908 45.6316 130.374 43.3772 129.341 41.6955C127.307 38.3824 121.281 43.1724 118.43 45.8155C115.313 48.7046 112.459 51.9083 109.961 55.3467C107.23 59.1058 104.818 63.1221 102.812 67.3131C100.776 71.5665 98.9638 75.9835 97.8852 80.574C97.2113 83.4418 96.0912 86.8899 97.6204 89.4078C98.9738 91.6361 102.327 92.2326 104.934 92.18C107.211 92.134 109.211 90.4779 111.052 89.1366C121.351 81.6328 131.793 72.2815 136.113 59.8065C137.297 56.388 137.109 52.6376 137.447 49.0357C137.495 48.5237 137.688 47.7994 137.268 47.5031C135.73 46.419 133.845 44.5877 132.087 45.259C127.953 46.8377 124.893 50.4535 121.652 53.4661C113.29 61.2373 97.1965 80.5817 103.146 92.3884C103.867 93.819 110.425 90.9284 110.72 90.7288C116.129 87.0728 121.422 83.2247 126.447 79.0569C129.312 76.6809 132.999 74.624 134.328 71.1476C137.07 63.9765 137.376 56.0734 138.153 48.4355C138.205 47.9238 137.034 48.3082 136.621 48.6142C132.684 51.5283 128.682 54.4356 125.283 57.9621C118.478 65.0205 110.356 76.5033 111.58 87.0038C111.718 88.1897 112.078 89.9225 113.244 90.1756C122.353 92.1511 129.358 83.7285 134.936 78.5851C142.922 71.222 147.796 63.3755 147.149 52.3062C146.698 44.6065 136.22 49.3937 134.287 53.0287C126.161 68.3129 117.711 83.9751 114.24 100.934C113.374 105.16 122.253 97.5185 125.709 94.9364C130.269 91.5297 134.171 87.3002 138.056 83.1407C144.361 76.3921 152.42 64.4519 149.745 54.5926C148.709 50.7726 141.328 54.6742 138.114 56.9841C134.884 59.3054 132.069 62.2045 129.497 65.2381C126.278 69.0335 123.053 72.9385 120.815 77.3832C117.194 84.5759 112.931 91.8906 112.047 99.8948C111.793 102.197 115.609 103.791 117.918 103.612C120.861 103.383 123.104 100.726 125.39 98.8573C138.048 88.5081 146.537 77.0985 152.938 61.9878C154.301 58.7679 156.465 53.7838 153.79 51.532C152.787 50.6876 150.412 50.0189 149.869 51.2124C143.642 64.8895 137.623 78.9141 134.62 93.6387C133.917 97.0866 140.118 89.2253 142.62 86.7513C150.624 78.8372 154.833 74.5817 158.885 64.1425C160.929 58.8757 160.523 53.5969 157.753 54.4359C141.252 59.4346 133.557 79.0341 127.8 92.8803C127.116 94.5239 128.222 97.4914 130.635 97.2102C141.134 95.9863 148.449 85.5231 155.835 77.9613C157.701 76.0513 159.332 73.8546 160.515 71.4609C162.569 67.3014 164.168 62.908 165.471 58.4554C165.736 57.5505 166.037 55.3426 165.144 55.6456C159.598 57.5273 154.234 66.3603 152.132 70.6257C149.368 76.2347 146.294 81.8785 145.097 88.0159C144.869 89.1878 147.438 89.2945 148.567 88.906C150.389 88.2792 151.6 86.5284 153.063 85.275C160.881 78.576 162.418 77.5956 168.45 68.4645C170.851 64.8306 172.893 58.7016 171.947 58.4773C164.027 56.6002 149.706 79.9817 147.128 85.449C146.311 87.1828 144.79 88.9766 145.17 90.8555C145.576 92.8697 148.705 92.5305 155.03 86.5992C159.025 82.8528 163.29 79.2262 166.325 74.6671C168.323 71.6668 170.541 67.9501 169.792 64.4245C169.402 62.5932 166.023 65.3589 164.606 66.5825C161.529 69.2393 158.805 72.371 156.619 75.7987C153.946 79.9895 151.975 84.6112 150.159 89.2382C149.813 90.1196 149.513 91.4611 150.231 92.0778C153.044 94.4922 158.937 88.224 159.325 87.9108C163.736 84.3546 176.994 70.1394 170.754 63.7945C169.432 62.4501 163.596 66.4536 160.455 70.95C155.239 78.4155 147.142 90.3292 153.475 93.2531C156.852 94.8118 160.028 89.6346 162.872 87.2385C168.974 82.0971 173.369 74.6908 175.799 67.0901C176.19 65.8653 176.59 63.6072 175.352 63.2586C165.189 60.396 159.121 72.8676 155.758 79.5237C154.925 81.1726 152.505 86.4295 155.494 88.3575C157.848 89.8763 164.422 84.149 165.039 83.62C167.574 81.4449 174.829 71.0868 178.544 70.6537" fill="none" opacity="0.985428" stroke="#79f7ff" stroke-linecap="round" stroke-linejoin="round" stroke-width="12.5423" vectornator:layerName="Curve 18"/>
<path d="M66.316 98.4941C66.0349 96.0828 62.7462 101.879 61.5175 103.973C60.1929 106.23 59.309 108.718 58.2047 111.091" fill="none" opacity="0.985428" stroke="#79f7ff" stroke-linecap="round" stroke-linejoin="round" stroke-width="12.5423" vectornator:layerName="Curve 19"/>
<path d="M51.0145 62.7359C50.315 61.6675 55.5415 56.0147 56.341 55.1245C63.1487 47.5445 71.4092 42.0971 79.813 36.5949C100.568 23.0057 128.785 18.0817 152.98 22.3698C160.612 23.7225 167.708 22.8639 174.925 26.2842C179.384 28.3974 199.315 31.1727 199.915 36.3167" fill="none" opacity="0.985428" stroke="#79f7ff" stroke-linecap="round" stroke-linejoin="round" stroke-width="12.5423" vectornator:layerName="Curve 20"/>
<path d="M105.987 34.5794C104.759 35.154 101.463 37.3662 102.304 36.3032C103.213 35.1545 104.93 35.0021 106.213 34.2942C110.282 32.0476 114.231 29.5787 118.359 27.4411C120.262 26.4557 122.27 25.6791 124.281 24.9384C124.683 24.7903 125.786 24.4261 125.558 24.7895C123.532 28.0306 115.708 32.8885 113.71 34.197C112.297 35.1219 110.725 35.7969 109.35 36.7764C109.098 36.9558 108.647 37.7293 108.928 37.6023C118.499 33.2887 128.037 27.1773 138.134 23.8414C138.316 23.7812 138.604 24.2087 138.449 24.3225C134.561 27.1888 130.508 29.8287 126.452 32.4527C124.647 33.6204 122.673 34.5143 120.874 35.6919C119.14 36.8277 115.627 37.3231 115.867 39.3825C116.08 41.2027 119.404 38.3988 121.113 37.7354C123.539 36.7932 125.879 35.6429 128.252 34.573C132.849 32.5003 137.396 30.3171 142.021 28.3076C143.642 27.6033 145.237 26.1494 146.981 26.4349C148.23 26.6393 144.927 27.9167 143.868 28.61C138.237 32.2971 131.515 35.2817 126.234 39.4686C126.032 39.6284 126.101 40.1055 126.323 40.2349C128.526 41.5178 130.937 38.061 133.178 36.8468C138.993 33.6957 144.983 30.8518 151.08 28.2872C153.707 27.1823 156.315 26.0279 158.986 25.0354C160.043 24.6426 162.444 23.0272 162.247 24.1374C161.873 26.2507 152.064 31.6544 150.309 32.7785C146.597 35.1562 142.917 37.5851 139.244 40.0233C137.87 40.9352 136.234 41.569 135.17 42.8284C134.833 43.2267 135.094 44.4429 135.604 44.3313C145.242 42.2194 154.225 34.6562 163.307 31.0044C165.101 30.283 166.846 28.9772 168.778 29.0722C169.585 29.1118 165.607 31.7691 163.064 33.3629C156.728 37.3341 149.928 40.6261 143.986 45.1665C143.4 45.6142 142.657 46.4136 142.917 47.1035C143.131 47.6705 144.186 47.4074 144.735 47.1505C150.142 44.6196 155.282 41.5533 160.594 38.829C164.648 36.7503 168.744 34.7565 172.83 32.7423C173.56 32.3827 174.259 31.9337 175.04 31.708C175.781 31.4939 177.895 30.9052 177.339 31.44C171.398 37.1536 163.72 40.7453 156.651 44.9846C155.86 45.4595 154.92 45.7065 154.216 46.3042C153.477 46.9319 151.485 48.2973 152.411 48.5859C156.169 49.7572 169.294 39.6555 174.643 37.1913C176.911 36.1469 179.208 35.1589 181.557 34.3141C181.738 34.2492 182.253 34.3968 182.098 34.5099C175.414 39.3996 168.126 43.4049 161.126 47.8289C159.505 48.8529 157.811 49.7815 156.315 50.9788C155.886 51.3217 154.893 52.3997 155.442 52.3751C161.807 52.0901 166.976 46.9403 172.578 43.9048C175.251 42.4563 177.908 40.9758 180.62 39.6015C180.957 39.4308 188.437 35.5002 190.285 35.8858C190.94 36.0226 189.458 36.97 188.901 37.3417C185.838 39.3858 182.602 41.1578 179.475 43.1008C175.208 45.7517 170.884 48.3133 166.681 51.065C165.525 51.8221 163.183 52.1524 163.343 53.5253C163.483 54.7295 165.765 53.1185 166.86 52.5976C169.634 51.2771 172.216 49.5846 174.872 48.0388C180.554 44.7316 186.168 41.2557 192.145 38.517C193.324 37.9766 196.677 36.5081 195.917 37.5594C191.98 43.0054 185.289 45.8036 179.708 49.5463C178.212 50.5501 176.497 51.2444 175.123 52.411C173.882 53.4653 178.508 52.5495 179.976 51.8453C183.55 50.1314 186.996 48.1603 190.454 46.2224C192.384 45.1405 192.864 42.8987 196.091 43.4941C196.959 43.6542 195.686 45.2985 195.082 45.9419C193.34 47.7964 182.525 53.4285 185.319 57.6953" fill="none" opacity="0.985428" stroke="#79f7ff" stroke-linecap="round" stroke-linejoin="round" stroke-width="12.5423" vectornator:layerName="Curve 21"/>
<path d="M114.715 247.162C108.065 246.073 107.063 263.904 117.801 255.864C119.945 254.259 121.703 252.163 123.336 250.041C124.497 248.532 127.163 246.648 126.121 245.056C125.037 243.4 121.788 244.068 120.186 245.23C110.937 251.94 107.081 269.55 119.887 258.21C121.441 256.834 123.213 255.585 124.294 253.813C126.375 250.399 129.13 246.878 129.233 242.881C129.277 241.197 125.894 243.737 124.529 244.724C121.458 246.942 118.57 252.826 118.627 256.286C118.772 265.108 138.617 251.605 134.593 246.657C131.631 243.016 120.241 256.478 121.266 261.156C121.898 264.039 128.886 261.727 129.334 261.51C131.992 260.226 134.429 258.507 136.805 256.756C137.416 256.306 147.218 248.629 143.111 246.441C140.475 245.037 125.985 256.436 131.526 262.549C134.099 265.389 148.47 253.476 146.909 250.141C143.988 243.901 134.325 259.654 137.597 261.324C143.552 264.364 156.888 252.492 153.55 249.367C151.827 247.754 140.441 257.579 142.088 262.095C144.404 268.444 159.4 255.25 159.527 251.777C159.744 245.859 151.418 253.67 149.667 256.033C147.951 258.348 147.029 261.191 146.188 263.947C145.61 265.84 150.324 264.599 152.122 263.773C155.047 262.431 160.257 257.49 161.642 254.378C161.886 253.831 162.982 247.345 159.847 247.856C154.674 248.698 149.666 250.875 145.252 253.7C141.749 255.942 139.117 263.183 140.866 267.157C141.064 267.607 145.333 265.906 145.541 265.058C146.357 261.726 147.075 258.236 146.678 254.828C146.588 254.057 145.036 254.479 144.349 254.841C142.412 255.863 140.556 257.165 139.117 258.816C137.64 260.511 135.854 265.221 136.268 267.693C136.685 270.181 141.521 267.081 143.527 265.552C146.723 263.115 156.215 255.049 155.41 251.998C155.034 250.572 152.683 253.601 152.132 254.969C151.043 257.669 148.589 262.116 151.071 263.637C155.526 266.368 163.845 257.464 163.597 253.374C163.346 249.233 153.469 258.866 155.924 263.071C158.656 267.75 172.587 254.979 172.073 250.573C171.525 245.869 158.824 256.941 159.922 261.828C160.308 263.546 163.489 262.774 164.128 262.374C166.809 260.695 177.631 253.827 177.033 248.701C176.848 247.115 166.38 255.558 169.991 259.36C174.317 263.916 186.154 248.823 186.02 245.841C185.731 239.368 168.923 258.44 175.729 259.727C180.352 260.601 189.681 247.678 186.638 244.474C183.857 241.546 175.481 255.444 178.948 256.245C185.169 257.681 200.056 246.499 198.827 240.205C198.745 239.784 198.132 239.456 197.716 239.558C193.261 240.65 187.39 247.953 188.898 252.755C189.653 255.16 193.894 251.293 195.782 249.622C199.546 246.289 204.977 241.094 206.103 235.991C206.247 235.337 205.135 234.149 204.647 234.607C202.214 236.894 200.571 239.917 198.869 242.789C198.673 243.12 196.694 247.563 198.247 248.558C202.959 251.576 214.567 236.289 215.422 231.539C215.558 230.784 214.907 229.799 214.162 229.614C208.744 228.273 204.425 239.805 204.578 242.9C204.612 243.591 204.386 244.825 205.072 244.914C212.07 245.822 217.716 237.302 219.569 231.573C220.259 229.439 221.516 225.943 219.561 224.843C215.636 222.633 211.006 235.97 213.101 238.282C214.502 239.827 217.179 238.233 218.18 237.431C220.002 235.975 221.726 234.388 223.324 232.689C225.848 230.005 231.819 222.525 229.664 218.228C226.623 212.163 218.631 228.934 226.857 229.688C227.508 229.748 228.092 229.172 228.556 228.713C231.283 226.023 234.502 223.633 236.378 220.293C238.527 216.467 240.103 210.865 237.699 207.194C234.168 201.802 229.297 213.617 229.022 214.937C228.506 217.406 228.551 219.971 228.608 222.493C228.615 222.802 228.904 223.255 229.208 223.2C237.227 221.754 239.619 205.512 231.483 202.74C225.939 200.851 222.62 214.396 222.333 217.529C222.172 219.289 223.894 223.567 224.942 222.144C230.298 214.874 230.513 207.049 225.898 199.249C225.126 197.943 223.721 196.786 222.22 196.57C218.49 196.034 214.136 199.391 212.824 202.585C211.124 206.724 209.499 211.167 209.685 215.638C209.764 217.539 211.917 218.857 213.542 219.848C216.716 221.785 222.217 213.954 223.424 209.117C224.29 205.643 221.996 194.392 220.377 191.866C219.704 190.815 217.633 190.453 216.682 191.261C213.217 194.204 210.327 197.969 208.362 202.07C206.624 205.697 201.953 220.955 211.362 221.138C213.84 221.186 216.298 217.869 216.731 216.111C217.819 211.686 218.52 207.026 217.992 202.5C217.552 198.721 216.545 194.581 213.902 191.844C212.584 190.479 207.144 195.496 206.656 196.314C201.749 204.522 192.413 218.204 202.928 226.523C205.694 228.711 210.721 221.885 214.538 215.072C216.361 211.819 216.572 201.899 216.358 199.584C215.993 195.643 216.546 190.955 213.966 187.953C212.638 186.407 209.798 188.823 208.27 190.17C205.813 192.337 204.097 195.259 202.462 198.097C200.747 201.075 195.577 212.424 195.321 216.794C195.135 219.962 194.582 223.833 196.678 226.216C197.171 226.776 203.108 227.128 204.567 225.037C207.18 221.292 209.812 217.542 212.031 213.552C213.329 211.217 214.533 202.725 214.493 201.355C214.337 196.042 215.273 190.138 212.647 185.518C211.58 183.641 208.026 185.668 206.35 187.028C202.82 189.893 200.403 193.922 197.745 197.611C196.452 199.406 195.246 201.326 194.539 203.422C191.961 211.07 188.516 218.667 187.934 226.717C187.785 228.776 190.718 229.9 192.557 230.839C197.405 233.313 202.685 226.075 206.283 221.989C210.398 217.315 212.043 209.178 210.584 203.364C209.988 200.986 207.969 197.555 205.557 197.995C201.132 198.803 197.953 202.959 194.866 206.232C188.798 212.667 180.774 226.801 184.633 236.164C185.697 238.744 190.792 235.78 192.629 233.678C194.752 231.248 196.724 228.562 197.896 225.556C200.439 219.028 199.908 211.633 197.842 205.108C197.39 203.679 196.586 201.371 195.097 201.545C192.317 201.869 189.707 203.923 188.136 206.24C183.518 213.047 180.088 220.636 176.98 228.253C174.135 235.223 173.495 239.063 178.826 244.09C181.395 246.513 188.025 236.953 190.074 233.976C194.008 228.26 192.963 217.603 191.856 211.502C191.41 209.046 191.377 203.895 188.979 204.588C176.712 208.131 169.173 224.685 165.974 236.009C165.016 239.398 164.826 245.005 169.523 246.469C175.489 248.328 184.675 234.898 185.541 230.621C186.799 224.405 186.904 217.941 186.432 211.616C186.238 209.007 183.572 203.765 181.571 205.451C176.771 209.499 172.22 213.93 168.381 218.899C162.935 225.947 159.713 235.497 160.226 244.446C160.314 245.989 161.742 247.551 163.227 247.98C167.628 249.25 171.911 244.14 173.585 241.335C175.672 237.838 178.125 234.203 178.495 230.148C178.955 225.104 178.587 219.503 175.972 215.166C174.737 213.119 171.082 213.283 168.867 214.182C165.8 215.425 163.686 218.385 161.633 220.98C158.31 225.18 155.267 229.655 152.845 234.432C150.644 238.771 146.952 246.064 150.906 248.898C153.844 251.003 157.728 248.428 159.412 246.353C161.598 243.66 164.297 241.027 165.131 237.66C166.658 231.49 168.523 224.573 166.278 218.626C165.305 216.049 160.659 218.039 158.014 218.813C153.468 220.143 140.919 239.633 145.113 243.619C147.559 245.944 153.141 243.642 153.559 240.563C154.403 234.347 155.552 219.697 144.625 221.668C140.991 222.324 128.008 245.823 138.003 247.037C141.235 247.429 147.032 238.266 147.825 235.794C149.023 232.063 148.641 227.978 148.529 224.061C148.498 223.001 148.286 221.675 147.405 221.085C145.524 219.827 143.039 218.126 140.947 218.99C138.367 220.055 137.474 223.38 136.042 225.776C133.126 230.653 126.067 242.56 129.407 248.815C132.107 253.873 139.893 246.488 144.725 240.298C151.691 231.376 154.433 223.468 157.555 212.653C157.7 212.152 157.427 210.727 157.121 211.15C153.007 216.841 153.547 240.679 165.765 234.221C184.15 224.503 201.298 202.577 204.477 182.069C204.726 180.461 200.856 182.72 200.058 184.137C198.497 186.91 197.585 190.017 196.698 193.073C196.101 195.131 195.348 197.287 195.625 199.412C196.196 203.8 195.951 209.182 199.187 212.201C201.509 214.368 205.682 212.608 208.698 211.61C211.141 210.802 212.983 208.73 214.892 207.004C221.318 201.197 230.617 192.367 230.153 182.441C229.968 178.488 230.682 173.481 227.761 170.81C226.04 169.237 223.881 173.592 222.618 175.552C218.969 181.219 212.387 203.269 220.346 207.145C224.306 209.074 229.417 203.667 231.139 202.004C236.15 197.161 244.004 183.263 241.307 175.963C240.858 174.746 238.458 176.009 237.535 176.92C235.791 178.643 234.789 181.026 233.878 183.302C231.433 189.406 229.567 199.142 229.993 205.503C230.078 206.766 230.923 208.843 232.168 208.615C240.674 207.057 247.39 198.465 248.143 190.183C248.7 184.058 249.101 177.543 246.429 177.696C241.11 178.001 235.944 204.932 241.696 205.951C248.654 207.184 252.228 194.087 252.741 189.647C252.91 188.188 252.706 183.076 250.405 182.929C247.917 182.77 245.169 190.198 244.912 191.336C243.87 195.941 242.89 200.605 242.658 205.321C242.633 205.842 243.779 205.675 244.221 205.398C254.36 199.034 255.117 183.054 255.689 172.733C255.775 171.183 257.046 168.781 255.664 168.076C254.421 167.441 253.616 170.133 253.211 171.468C251.904 175.775 251.223 180.258 250.613 184.717C250.574 185.002 249.999 190.558 252.575 190.443C255.799 190.299 257.129 185.468 257.842 182.321C259.105 176.743 259.236 170.967 259.738 165.27C260.11 161.048 259.779 156.093 259.177 156.015C255.057 155.481 250.315 171.585 253.688 175.555C254.974 177.07 258.86 171.696 260.202 167.029C260.907 164.577 263.128 152.211 260.987 149.331C260.094 148.13 258.016 150.405 257.108 151.596C255.912 153.166 252.407 165.537 253.982 166.977C257.454 170.151 261.93 161.218 262.753 155.598C263.279 152.011 263.258 148.315 262.78 144.721C260.65 128.737 245.749 161.743 255.294 162.682C260.837 163.227 263.865 149.495 263.814 146.93C263.73 142.723 263.112 138.426 261.589 134.503C261.277 133.7 259.592 133.916 259.004 134.546C256.839 136.865 255.435 139.812 253.993 142.638C251.38 147.758 249.601 152.133 251.378 157.96C251.957 159.862 255.804 157.96 257.163 156.509C259.28 154.248 261.024 151.625 262.49 148.897C263.183 147.607 263.607 146.095 263.546 144.632C263.364 140.263 263.601 135.606 261.772 131.634C261.399 130.823 256.728 132.44 253.759 136.193C247.52 144.079 242.494 153.497 241.951 163.719C241.834 165.924 241.94 170.201 246.183 168.922C252.191 167.111 253.029 152.9 252.485 147.474C252.169 144.317 252.812 140.742 251.128 138.053C250.298 136.727 247.796 137.04 246.441 137.823C243.913 139.283 242.186 141.866 240.455 144.216C237.364 148.412 230.372 166.271 234.313 169.27C236.108 170.635 240.003 171.502 241.074 169.517C244.704 162.788 245.437 154.772 246.236 147.167C246.449 145.141 245.677 142.654 244.018 141.471C242.485 140.377 235.429 146.285 235.175 150.01C234.725 156.604 236.545 163.243 238.49 169.56C238.853 170.741 239.686 167.391 240.176 166.256C240.707 165.024 241.243 163.779 241.547 162.472C242.051 160.304 242.562 158.103 242.591 155.877C242.649 151.413 242.135 146.958 241.809 142.505C241.758 141.812 241.226 133.998 239.489 133.714C237.4 133.372 235.325 135.148 233.882 136.697C231.592 139.157 229.711 142.134 228.675 145.331C227.252 149.722 225.887 154.477 226.647 159.03C227.129 161.916 229.399 164.798 232.108 165.902C233.941 166.649 236.005 164.733 237.52 163.459C240.026 161.35 241.919 158.594 243.898 155.984C249.679 148.356 253.196 138.684 252.926 129.04C252.754 122.931 254.123 114.423 248.567 116.085C241.097 118.32 233.706 137.672 236.534 143.897C237.747 146.566 239.779 150.402 242.702 150.168C246.308 149.88 248.192 145.431 250.642 142.77C254.849 138.201 254.499 130.846 255.004 124.656C255.369 120.177 254.477 112.466 252.778 112.229C252.193 112.147 246.803 115.368 247.184 117.541C248.349 124.192 249.003 131.254 252.316 137.138C253.174 138.661 255.964 136.641 257.306 135.52C258.456 134.559 258.925 132.902 259.158 131.421C259.663 128.211 259.127 122.988 258.299 119.611C257.833 117.711 255.995 113.213 254.894 114.83C252.158 118.846 249.808 125.804 252.849 130.603C255.058 134.089 260.129 132.885 261.504 129.335C262.67 126.325 263.885 122.423 262.19 119.675C260.392 116.76 259.105 110.665 255.814 111.616C252.517 112.568 254.339 118.431 254.676 121.846C255.345 128.614 261.507 129.423 262.939 121.659C263.235 120.055 262.911 118.383 262.629 116.776C262.137 113.97 262.577 110.541 260.625 108.466C259.327 107.087 256.61 107.708 254.946 108.61C252.722 109.815 248.316 125.841 256.762 124.192C258.949 123.765 259.173 116.266 259.13 115.631C258.872 111.867 259.654 107.563 257.564 104.421C256.18 102.34 252.835 102.272 250.34 102.415C249.429 102.468 247.03 109.519 246.529 111.921C245.972 114.588 244.534 117.569 245.664 120.048C247.022 123.029 249.868 126.254 253.139 126.427C255.621 126.557 256.632 122.827 257.907 120.692C260.313 116.666 263.259 99.3066 257.016 97.4946C253.111 96.3612 250.031 102.116 247.857 105.553C245.159 109.821 244.848 120.473 245.059 123.744C245.123 124.741 245.89 126.098 246.889 126.119C257.872 126.35 254.582 111.222 253.762 105.123C253.313 101.776 252.411 95.772 250.992 96.9023C247.198 99.9246 244.638 104.314 242.25 108.537C240.425 111.764 239.559 120.91 244.625 122.241C251.019 123.921 253.864 110.512 253.745 107.197C253.558 101.971 253.174 96.6936 251.929 91.6148C251.639 90.4315 250.52 89.1045 249.302 89.073C241.995 88.8841 235.792 104.986 235.021 110.933C234.955 111.444 233.907 120.538 238.618 119.575C249.393 117.374 248.893 104.388 247.582 96.5231C247.316 94.9272 246.804 87.3006 242.844 86.9778C233.909 86.2493 230.065 108.071 239.049 109.945C251.016 112.442 251.196 92.2207 248.63 85.5267C248.087 84.1105 246.671 82.2969 245.178 82.5633C239.621 83.5548 235.016 97.4944 235.827 102.295C236.439 105.922 237.05 110.724 242.28 108.792C249.335 106.186 249.275 94.7489 247.995 88.9665C247.254 85.6164 247.963 79.4115 244.535 79.2724C238.239 79.0169 234.916 86.7587 234.095 91.8814C233.379 96.3483 232.601 100.97 233.344 105.432C233.556 106.7 235.405 107.559 236.678 107.374C248.66 105.629 245.59 88.5653 244.262 81.3754C244.009 80.0032 244.381 77.6848 243.02 77.3777C232.686 75.0471 222.879 92.6742 229.398 100.455C233.444 105.283 239.9 100.383 241.932 96.9227C246.757 88.7064 245.323 86.1534 243.667 76.2667C243.505 75.3027 243.339 74.1526 242.573 73.5462C232.375 65.4773 221.563 89.7298 225.316 96.5295C226.435 98.5572 228.937 99.697 231.187 100.247C234 100.934 238.268 94.7627 238.735 93.9295C241.873 88.3365 241.02 84.6549 240.269 78.2162C239.941 75.4012 240.671 71.9537 238.776 69.8463C236.75 67.5935 233.126 67.5622 230.155 66.9675C227.818 66.4997 226.211 69.8882 225.042 71.9651C221.928 77.4952 215.663 90.0767 222.162 96.1205C225.253 98.9956 231.269 96.962 233.282 93.7885C238.662 85.3056 239.117 76.6528 236.12 67.049C235.663 65.5852 235.115 63.4368 233.6 63.2002C222.586 61.4803 212.545 84.9485 222.481 92.1996C225.853 94.6601 231.084 91.5319 232.971 88.9054C235.877 84.8632 238.69 67.6913 233.659 63.7111C230.281 61.0381 225.855 62.8208 224.072 65.8643C221.379 70.4593 218.388 75.0357 216.935 80.1595C215.456 85.3777 216.191 90.3351 221.43 92.0632C225.507 93.4083 230.342 88.9404 232.269 85.1036C235.88 77.9172 235.634 71.3861 233.974 64.1922C233.745 63.2001 232.441 58.157 229.939 58.4487C218.898 59.7358 204.65 84.2116 218.203 88.8146C224.822 91.0628 232.326 80.1323 230.538 74.6902C228.298 67.8758 227.207 60.2543 222.761 54.6251C221.417 52.9232 218.56 56.0251 216.869 57.3832C215.073 58.8257 213.619 60.7456 212.582 62.8023C209.418 69.0759 208.112 77.8258 215.777 81.3302C219.565 83.0621 223.54 79.3036 225.637 77.0738C230.792 71.5947 229.139 66.661 227.925 58.9424C227.269 54.7691 224.294 49.8446 222.57 50.7637C216.393 54.0569 208.144 63.8931 212.121 72.1767C213.486 75.0203 216.223 77.6848 219.311 78.3291C221.859 78.8608 224.429 76.8058 226.451 75.1667C232.03 70.6437 228.568 61.1262 226.546 55.9962C225.631 53.6738 225.759 50.4475 223.669 49.0822C221.178 47.4547 217.751 48.2653 214.775 48.3065C212.715 48.335 205.993 59.4397 205.732 61.7884C205.209 66.4866 205.025 71.4184 206.348 75.9566C206.78 77.4402 208.968 77.7331 210.477 78.0643C217.691 79.6474 221.426 69.2061 220.738 63.9227C220.14 59.3198 219.061 54.791 218.109 50.2482C217.737 48.4738 216.491 42.0949 213.188 43.5723C206.704 46.4724 200.37 56.2423 201.508 63.3164C202.214 67.6994 202.542 72.6181 205.326 76.0757C206.68 77.7568 209.792 76.8849 211.801 76.0976C218.214 73.5856 216.056 60.4057 215.188 56.2847C214.081 51.0295 214.277 45.003 211.043 40.7155C209.736 38.9828 206.313 40.9496 204.776 42.4817C201.995 45.2534 200.645 49.1805 198.981 52.7368C195.245 60.7213 197.161 66.0096 203.572 72.1376C205.807 74.2732 209.183 68.8613 210.64 66.1355C213.349 61.0682 210.194 54.613 209.156 48.9616C208.764 46.827 209.287 43.7489 207.39 42.6948C205.286 41.526 202.266 42.656 200.297 44.0394C198.106 45.579 197.213 48.4298 195.903 50.7654C191.793 58.0906 191.681 64.6462 194.572 72.6689C194.823 73.3626 195.78 73.8445 196.509 73.7377C208.327 72.0066 209.828 60.4301 208.568 50.5836C208.26 48.176 209.091 37.6508 203.188 37.7474C199.06 37.8151 196.68 43.2464 194.945 46.9934C191.835 53.7119 186.872 66.124 193.836 73.0137C194.691 73.8598 196.51 73.1699 197.382 72.3414C201.809 68.1377 203.141 63.9678 203.242 58.195C203.303 54.6768 202.993 51.151 202.532 47.6625C202.26 45.6071 202.424 43.1748 201.051 41.6213C200.31 40.7839 198.423 41.3644 197.76 42.2639C193.974 47.397 191.373 53.3075 188.307 58.9003C184.381 66.0619 182.922 74.5055 182.272 82.6467C182.056 85.3624 183.382 88.1531 184.983 90.3569C186.629 92.621 190.592 88.1123 191.945 85.6618C195.347 79.496 194.722 72.4992 193.769 65.7721C193.389 63.0921 193.387 59.7715 191.313 58.0321C189.445 56.4653 186.016 56.1999 184.012 57.5887C180.565 59.9772 179.016 64.3494 176.939 67.9928C175.418 70.6626 174.191 73.5175 173.265 76.4473C171.661 81.5173 169.945 86.6312 169.372 91.9178C169.174 93.7397 169.496 96.1441 171.019 97.1629C177.206 101.301 183.339 90.0594 187.441 82.5621C189.125 79.4833 189.457 70.9604 188.042 67.7341C187.182 65.7713 185.686 62.5193 183.615 63.072C180.084 64.0147 178.324 68.1386 175.99 70.9515C171.455 76.4165 164.029 96.901 172.607 101.897C175.531 103.601 181.912 96.3636 182.935 94.9971C187.992 88.2449 190.044 76.0399 186.029 68.2278C185.391 66.9867 184.031 65.78 182.636 65.7753C181.327 65.7709 180.292 67.1257 179.553 68.2059C177.298 71.5046 175.451 75.0829 173.788 78.7165C170.291 86.3579 170.561 92.9407 174.501 100.382C175.581 102.422 179.24 99.3868 180.934 97.8195C182.497 96.3736 183.517 94.4011 184.455 92.4897C187.277 86.7438 187.093 79.2683 184.806 73.2895C184.407 72.2456 182.836 71.4417 181.788 71.829C173.348 74.9471 169.508 89.8694 167.924 97.2648C167.596 98.7944 167.684 102.032 169.226 101.773C176.222 100.601 186.939 86.5743 183.133 78.9217C182.117 76.8805 179.179 79.7248 177.223 83.7532C175.251 87.8145 170.639 98.6377 174.348 103.507C175.506 105.027 179.934 101.764 183.203 97.2961C188.23 90.4256 194.019 80.3598 191.554 71.2084C191.392 70.6058 190.203 71.4305 189.826 71.9277C188.344 73.881 187.233 76.1007 186.168 78.309C184.935 80.8662 183.79 83.4825 182.945 86.1931C181.243 91.6505 179.013 99.0852 181.738 104.716C183.025 107.374 187.6 102.629 191.918 96.5391C195.381 91.6556 197.564 85.8052 198.786 79.9449C198.858 79.6012 198.331 76.6952 197.693 77.2245C192.936 81.1696 187.613 95.6356 192.454 101.137C194.108 103.017 196.361 97.908 197.793 95.8542C201.361 90.7362 201.461 88.4219 202.345 81.6014C202.512 80.3149 202.425 77.0504 201.388 77.8293C196.608 81.4186 194.502 90.5941 195.524 96.3777C195.732 97.5534 196.568 100.57 197.188 99.5495C200.377 94.3061 201.907 88.2142 203.997 82.4445C204.143 82.0415 203.318 82.9841 203.065 83.3299C202.345 84.3127 201.686 85.3432 201.093 86.4077C199.596 89.0973 197.308 93.5292 198.423 96.8164C199.664 100.474 204.565 90.9625 203.975 88.9197C203.823 88.3924 203.264 87.461 202.805 87.7617C200.911 89.0012 198.535 97.2869 203.234 93.6665" fill="none" opacity="0.985428" stroke="#79f7ff" stroke-linecap="round" stroke-linejoin="round" stroke-width="12.5423" vectornator:layerName="Curve 22"/>
</g>
<clipPath id="ArtboardFrame">
<rect height="283.004" width="283.081" x="0" y="0"/>
</clipPath>
<g clip-path="url(#ArtboardFrame)" id="Untitled" vectornator:layerName="Untitled">
<path d="M256.122 224.088C247.782 236.001 237.82 245.929 226.605 254.476C213.179 264.707 198.282 272.307 182.05 277.168C171.07 280.455 159.953 282.596 148.416 282.921C130.787 283.417 113.567 281.756 96.8223 275.873C80.938 270.292 66.354 262.521 53.2934 251.816C37.188 238.615 24.2376 222.943 14.85 204.331C8.36647 191.476 3.66122 178.033 1.9416 163.715C0.89969 155.04-0.183541 146.265 0.026302 137.566C0.434826 120.63 4.19974 104.346 10.5409 88.5038C19.3974 66.377 33.6403 48.222 51.4428 33.0829C69.9788 17.3201 91.4713 6.66566 115.824 2.92272C125.66 1.41087 135.705-0.417674 145.543 0.084942C170.371 1.35332 193.851 7.61603 215.141 21.3679C225.623 28.1387 235.575 35.441 243.931 44.5628C262.017 64.3068 274.711 86.8813 280.081 113.557C282.754 126.829 283.711 140.099 282.669 153.324C280.753 177.648 272.574 200.069 258.847 220.357C258.05 221.536 257.199 222.679 256.122 224.088M43.3725 47.8383C33.0973 58.1572 25.0974 70.0927 19.0289 83.2513C8.69134 105.666 4.10901 129.058 6.72593 153.881C8.03901 166.336 10.3641 178.342 14.7979 190.069C20.8589 206.101 29.2957 220.669 40.8781 233.223C54.5018 247.99 70.4872 259.502 89.3655 266.923C103.846 272.615 118.638 276.635 134.245 276.765C142.934 276.838 151.667 276.562 160.314 275.747C173.429 274.511 185.936 270.693 197.933 265.268C217.342 256.491 233.753 243.821 247.04 227.158C255.945 215.989 263.223 203.975 268.035 190.361C271.873 179.505 275.46 168.666 275.793 157.123C276.146 144.912 277.171 132.502 275.495 120.516C273.929 109.32 269.672 98.395 265.765 87.6541C259.605 70.7161 248.912 56.4425 236.233 43.9955C224.517 32.4931 210.711 23.4654 195.489 17.0577C182.787 11.7106 169.498 8.0656 155.726 6.94712C148.22 6.33759 140.579 6.31993 133.08 6.96791C123.436 7.80124 113.541 8.44569 104.34 11.1574C81.2072 17.9745 60.5114 29.4049 43.3725 47.8383Z" fill="#000000" fill-rule="nonzero" opacity="1" stroke="none" vectornator:layerName="path"/>
</g>
</svg>
