<?xml version="1.0" encoding="UTF-8" standalone="no"?>
<!DOCTYPE svg PUBLIC "-//W3C//DTD SVG 1.1//EN" "http://www.w3.org/Graphics/SVG/1.1/DTD/svg11.dtd">
<!-- Created with Vectornator (http://vectornator.io/) -->
<svg height="100%" stroke-miterlimit="10" style="fill-rule:nonzero;clip-rule:evenodd;stroke-linecap:round;stroke-linejoin:round;" version="1.1" viewBox="0 0 251.323 174.082" width="100%" xml:space="preserve" xmlns="http://www.w3.org/2000/svg" xmlns:vectornator="http://vectornator.io" xmlns:xlink="http://www.w3.org/1999/xlink">
<defs/>
<g id="Layer-1" vectornator:layerName="Layer 1">
<path d="M163.828 58.6309C164.705 57.9617 165.968 57.6115 166.458 56.6233C168.195 53.1193 171.247 41.7454 170.314 45.5431C168.631 52.3946 166.187 59.037 164.202 65.807C164.081 66.2182 164.605 65.0428 164.716 64.629C165.836 60.455 167.78 56.379 167.89 52.0588C167.914 51.1082 165.917 51.6433 165.038 52.0057C164.148 52.3727 163.566 53.2784 163.015 54.0681C160.156 58.1668 158.12 63.098 157.671 68.0752C157.608 68.7699 157.975 69.5508 158.519 69.9882C160.117 71.2749 163.82 69.2941 164.553 68.6957C166.873 66.8022 168.744 64.4073 170.658 62.1037C171.124 61.5424 171.529 60.872 171.65 60.1524C171.846 58.9857 172.333 56.6538 171.15 56.6382C170.393 56.6283 169.531 56.4441 168.887 56.8423C165.903 58.6864 162.304 68.7241 166.008 70.6635C168.132 71.7751 171.281 72.351 173.184 70.2902C176.283 66.9347 179.129 63.3054 181.512 59.4091C182.601 57.6287 182.894 55.4681 183.477 53.4642C183.699 52.699 185.013 49.0759 183.344 48.1464C182.917 47.9087 182.663 48.8615 182.425 49.2879C180.632 52.4948 178.539 55.5812 177.261 59.0258C176.267 61.7057 175.576 64.5984 175.685 67.4546C175.764 69.5446 175.823 72.6926 177.805 73.3598C180.189 74.1619 182.62 71.7829 184.796 70.5208C185.641 70.0305 186.15 69.0867 186.634 68.2378C188.259 65.3848 189.772 62.4606 191.099 59.4572C191.743 57.9987 192.138 56.4381 192.531 54.8928C193.086 52.7103 193.45 50.4832 193.943 48.2858C194.047 47.823 194.34 46.4786 194.071 46.8688C191.692 50.3138 188.812 56.0265 187.805 59.7725C187.013 62.7195 186.136 65.8257 186.579 68.845C186.725 69.8415 188.444 70.6054 189.322 70.1127C191.438 68.9261 193.003 66.7879 194.102 64.6257C196.523 59.8641 197.92 54.6468 199.74 49.6248C200.093 48.6505 200.26 47.6145 200.621 46.6432C200.801 46.1596 201.356 44.765 201.356 45.2809C201.361 51.3288 197.624 56.8415 196.714 62.8205C196.419 64.7535 196.243 67.2274 197.62 68.6161C198.429 69.4326 199.476 67.2397 200.268 66.406C200.916 65.7235 201.442 64.9246 201.904 64.1047C204.036 60.3231 206.139 56.5204 208.041 52.618C209.065 50.518 209.762 48.274 210.668 46.1205C210.975 45.3895 211.296 44.6619 211.678 43.9669C212.437 42.5857 212.619 40.4738 214.086 39.8985C215.165 39.4751 213.714 42.1957 213.371 43.3032C212.421 46.3634 210.986 49.2829 210.304 52.4139C210.146 53.1421 210.121 53.8955 210.104 54.6406C210.097 54.9198 209.954 55.4781 210.233 55.4685C212.393 55.3941 213.163 52.2277 214.167 50.3133C216.59 45.6925 217.997 40.9729 221.297 36.8754" fill="none" opacity="1" stroke="#46faff" stroke-linecap="round" stroke-linejoin="round" stroke-width="14.7408" vectornator:layerName="Curve 1"/>
<path d="M103.363 9.50834C99.1154 6.54532 94.861 14.145 93.1376 16.545C89.9929 20.9242 87.8466 26.67 85.2547 31.5476C80.0725 41.2997 76.5031 51.7776 71.3289 61.5146C65.3363 72.7918 58.3852 83.6012 52.014 94.6689C48.694 100.436 46.0661 106.613 42.8635 112.414C38.2939 120.691 33.4128 128.884 28.9891 137.284C27.5414 140.033 26.0104 142.795 24.3765 145.439C23.849 146.293 21.9303 149.937 22.0238 148.9" fill="none" opacity="1" stroke="#46faff" stroke-linecap="round" stroke-linejoin="round" stroke-width="14.7408" vectornator:layerName="Curve 2"/>
<path d="M31.2291 155.444C30.4489 155.75 32.91 155.296 33.7129 155.056C34.9376 154.69 35.9835 153.88 37.1342 153.324C39.9008 151.986 42.8277 150.635 45.6509 149.398C50.4428 147.299 55.5766 146.445 60.5523 144.824C65.984 143.054 71.4559 141.231 76.7777 139.144C84.1369 136.258 91.6795 134.16 99.0924 131.565C109.779 127.824 120.094 123.196 130.954 119.949C135.462 118.601 139.965 116.645 144.273 114.823C149.943 112.426 156.264 111.001 162.136 109.088C165.181 108.095 168.089 106.559 171.205 105.824C172.626 105.488 174.77 104.309 176.227 104.44C176.771 104.489 175.246 104.923 174.737 105.122C173.719 105.522 172.625 105.701 171.592 106.063C168.903 107.004 166.278 108.125 163.571 109.013C160.788 109.926 156.502 110.938 153.49 112.185C147.385 114.713 141.566 117.74 135.426 120.148C133.746 120.806 125.981 123.154 125.253 124.332C124.994 124.752 126.223 124.154 126.707 124.055C128.591 123.67 127.743 123.767 130.073 122.93C131.899 122.275 133.731 121.635 135.555 120.976C142.268 118.551 149.196 116.778 155.939 114.447C163.453 111.848 171.607 110.645 178.99 107.75C186.077 104.971 193.217 102.388 200.495 100.098C205.558 98.5047 214.291 96.465 214.841 90.3717" fill="none" opacity="1" stroke="#46faff" stroke-linecap="round" stroke-linejoin="round" stroke-width="14.7408" vectornator:layerName="Curve 3"/>
<path d="M241.564 22.5813C242.956 19.3919 239.837 27.7948 239.618 28.3238C238.145 31.8792 236.519 35.4215 234.988 38.9262C230.156 49.9939 227.402 61.6023 222.556 72.7011C221.209 75.7861 220.083 78.7455 218.478 81.7205C218.384 81.8938 216.376 87.6591 217.064 86.0826" fill="none" opacity="1" stroke="#46faff" stroke-linecap="round" stroke-linejoin="round" stroke-width="14.7408" vectornator:layerName="Curve 4"/>
<path d="M104.284 10.6117C102.397 9.78774 107.704 10.4504 109.602 10.479C110.832 10.4975 114.356 10.6061 115.895 10.8423C122.992 11.9319 130.331 12.7561 137.5 13.4025C142.909 13.8903 147.872 15.0406 153.198 15.8382C163.061 17.3157 173.197 17.8455 183.138 18.7419C187.311 19.1182 191.696 19.9326 195.891 19.8917C203.104 19.8214 210.402 21.2001 217.55 21.8446C218.771 21.9547 228.884 22.3503 228.463 23.0326" fill="none" opacity="1" stroke="#46faff" stroke-linecap="round" stroke-linejoin="round" stroke-width="14.7408" vectornator:layerName="Curve 5"/>
<path d="M233.137 23.25C233.854 22.0902 234.57 20.9304 235.287 19.7706" fill="none" opacity="1" stroke="#46faff" stroke-linecap="round" stroke-linejoin="round" stroke-width="14.7408" vectornator:layerName="Curve 6"/>
<path d="M232.475 23.8025C228.908 25.201 225.394 36.0049 223.93 39.3576C222.337 43.0045 220.82 46.7893 219.651 50.6037C219.073 52.4885 218.961 54.5365 218.312 56.401C216.731 60.9425 214.582 65.3771 213.409 70.0397C211.91 75.9947 210.154 79.0236 206.593 84.5263C205.459 86.2775 205.105 87.5054 203.173 88.5034C199.523 90.389 195.304 90.9141 191.418 92.137C188.099 93.1814 184.714 94.4587 181.336 95.3095C179.425 95.7909 177.292 95.5167 175.356 95.9947C170.274 97.2499 165.444 99.2742 160.437 100.772C155.878 102.135 151.183 103.039 146.639 104.425C134.356 108.17 122.158 112.192 110.048 116.431C100.295 119.845 90.9415 124.284 81.0933 127.493C71.365 130.663 60.9063 132.381 51.5113 136.458C48.9385 137.574 46.2521 138.848 43.8225 140.254C42.0792 141.263 40.6231 142.808 38.82 143.68C35.7189 145.18 32.9234 146.355 30.212 148.618" fill="none" opacity="1" stroke="#46faff" stroke-linecap="round" stroke-linejoin="round" stroke-width="14.7408" vectornator:layerName="Curve 7"/>
<path d="M38.3537 135.271C45.4608 123.772 54.8302 113.798 61.9377 102.298C72.7773 84.7589 81.8805 66.2877 91.3207 48.012C92.9528 44.8525 95.002 41.1973 95.9134 37.8145C96.925 34.0596 97.0782 31.3027 98.4454 27.8393C99.0072 26.4161 98.296 22.5915 100.392 22.0968C108.99 20.0668 119.244 22.0904 127.901 22.5365C136.096 22.9587 144.087 21.9234 152.338 23.1072C161.644 24.4424 170.805 26.5508 180.054 28.055C188.637 29.4511 197.368 29.4429 206.037 29.5815C207.129 29.599 208.221 29.5152 209.312 29.4687C210.269 29.4278 211.225 29.3337 212.183 29.3194C212.516 29.3144 218.82 29.3882 218.899 29.5168C219.153 29.927 218.778 30.4036 218.587 30.7131" fill="none" opacity="1" stroke="#46faff" stroke-linecap="round" stroke-linejoin="round" stroke-width="14.7408" vectornator:layerName="Curve 8"/>
<path d="M106.287 31.4033C105.937 31.5078 105.568 31.5609 105.238 31.7169C104.355 32.1346 101.973 33.8086 102.663 33.1172C106.474 29.3006 111.942 27.4799 117.01 25.6359C117.398 25.495 116.992 26.5434 116.698 26.8322C115.671 27.8414 114.392 28.5602 113.204 29.3741C109.389 31.9869 105.531 34.5362 101.691 37.111C100.97 37.5941 98.7017 38.8345 99.5205 38.5478C103.974 36.9891 107.631 33.5283 112.139 32.135C113.306 31.7743 116.688 31.8664 115.764 32.6659C111.124 36.684 105.366 39.1917 100.186 42.4851C99.0877 43.1834 97.6147 43.5334 96.9305 44.6405C96.3868 45.5201 98.7892 43.7329 99.708 43.2583C104.283 40.8951 108.753 38.3203 113.411 36.1271C120.764 32.6656 128.191 29.3496 135.725 26.3029C136.227 26.0997 137.751 26.0916 137.344 26.4489C133.471 29.8446 128.51 31.7525 123.991 34.2239C119.49 36.6853 114.945 39.0666 110.471 41.5759C107.422 43.2864 104.444 45.1226 101.422 46.882C99.9927 47.7143 98.5183 48.4708 97.118 49.351C96.9897 49.4316 96.7453 49.8086 96.8791 49.7375C108.771 43.419 120.805 37.3219 133.171 31.9906C134.618 31.3668 136.086 30.7727 137.604 30.3497C138.681 30.0497 140.878 28.7153 140.916 29.832C140.961 31.1326 138.79 31.3398 137.661 31.9873C133.765 34.2219 129.765 36.2686 125.852 38.4732C117.796 43.0124 109.753 47.5742 101.757 52.2181C99.9176 53.2865 94.3116 56.2173 96.3498 55.6078C99.4115 54.6922 102.059 52.7342 104.903 51.2773C108.834 49.2637 112.719 47.16 116.675 45.1963C126.228 40.4541 136.117 36.2557 146.329 33.177C146.796 33.036 145.826 34.0642 145.409 34.3185C141.912 36.4514 138.257 38.3138 134.668 40.2884C124.558 45.8505 114.342 51.2515 104.558 57.3683C103.58 57.9798 100.682 59.8487 101.726 59.3576C111.63 54.699 121.176 49.2837 131.193 44.8728C135.297 43.0656 139.477 41.4293 143.684 39.8769C145.112 39.3498 146.559 38.6052 148.081 38.6408C148.705 38.6554 147.283 39.6423 146.738 39.9482C141.316 42.9947 135.703 45.6925 130.239 48.6641C119.813 54.3341 110.41 59.2102 100.921 66.0194C100.701 66.1774 101.488 66.2136 101.731 66.0924C105.445 64.2349 108.946 61.9678 112.675 60.1408C119.27 56.9096 125.933 53.8073 132.688 50.9256C137.263 48.9741 141.871 46.7543 146.798 46.0757C146.948 46.055 146.691 46.3884 146.559 46.4623C143.737 48.038 140.835 49.4665 137.988 50.9952C128.202 56.2485 118.447 61.5771 108.963 67.3567C106.73 68.7176 104.465 70.0282 102.268 71.4467C102.141 71.5288 101.897 71.9064 102.029 71.8333C114.283 65.078 126.214 58.4264 139.222 53.1472C141.862 52.076 144.536 51.086 147.243 50.1972C148.118 49.9096 150.143 48.7243 149.947 49.6247C149.682 50.8454 147.977 51.1745 146.894 51.7983C138.787 56.4717 130.474 60.7857 122.394 65.5067C117.258 68.5075 112.294 71.792 107.257 74.9575C106.236 75.5995 103.646 75.869 104.223 76.9287C104.802 77.9934 106.529 76.1538 107.608 75.6013C110.601 74.0678 113.4 72.1676 116.418 70.6818C123.799 67.0478 131.262 63.579 138.786 60.2503C140.975 59.2815 143.265 58.5538 145.537 57.798C146.005 57.6423 147.403 57.2499 146.991 57.5209C139.719 62.3025 131.834 66.0839 124.385 70.5839C118.262 74.2833 112.281 78.2139 106.214 82.0059C105.432 82.4943 102.969 83.7216 103.841 83.4245C109.533 81.4857 114.371 77.6132 119.715 74.8563C124.981 72.1395 130.301 69.5171 135.718 67.1161C139.236 65.557 142.832 64.1551 146.498 62.9864C146.89 62.8612 148.015 63.04 147.694 63.2983C142.287 67.6466 135.757 70.3757 129.798 73.9288C123.059 77.9464 116.301 81.9379 109.713 86.1987C107.983 87.3177 103.056 91.0141 104.876 90.0481C114.951 84.7003 124.376 78.1017 134.747 73.3548C137.751 71.9799 140.788 70.6697 143.871 69.4838C145.092 69.0142 146.365 68.6785 147.643 68.3954C147.907 68.3367 148.631 68.2644 148.452 68.4684C147.726 69.2985 146.769 69.9093 145.822 70.476C135.904 76.4168 125.758 81.9729 115.879 87.979C111.15 90.8541 107.114 94.8554 102.177 97.3552C100.721 98.0922 104.768 95.3692 106.113 94.445C110.28 91.58 114.443 88.7027 118.711 85.9896C124.801 82.1188 132.016 77.8349 138.704 74.7319C141.839 73.2777 144.961 71.7501 148.252 70.6951C148.721 70.5444 150.006 70.9062 149.632 71.2277C143.733 76.2975 136.564 79.6689 129.934 83.7364C122.589 88.2429 116.748 91.8197 109.592 96.5953C108.033 97.6354 104.328 98.1112 105.013 99.8557C105.678 101.554 108.319 98.309 109.924 97.4415C114.899 94.7519 119.807 91.9374 124.749 89.1869C130.861 85.7854 137.118 82.6163 143.548 79.8622C145.306 79.1091 147.138 78.4929 149.011 78.1101C149.308 78.0494 150.02 78.3971 149.785 78.5879C139.976 86.5424 128.212 91.9272 117.745 98.963C115.55 100.439 113.372 101.942 111.216 103.476C110.826 103.754 109.682 104.606 110.113 104.397C116.081 101.496 121.921 98.3394 127.863 95.3858C131.536 93.5601 135.221 91.7574 138.955 90.0597C141.465 88.9181 144.013 87.8564 146.589 86.8707C147.47 86.5334 148.385 85.918 149.312 86.0958C149.758 86.1815 148.958 86.9825 148.595 87.2556C146.667 88.7054 144.598 89.963 142.526 91.1979C138.845 93.3913 135.006 95.3144 131.343 97.5361C128.167 99.4617 125.118 101.589 122.018 103.634C120.49 104.641 118.562 105.233 117.457 106.692C116.705 107.683 119.759 105.741 120.86 105.162C122.191 104.461 123.416 103.573 124.741 102.859C128.065 101.066 131.436 99.358 134.802 97.6439C138.702 95.658 141.566 93.6899 145.803 93.33C147.388 93.1953 143.822 95.9054 142.199 97.0864C139.546 99.016 136.763 100.763 133.959 102.466C131.485 103.968 128.884 105.26 126.252 106.464C125.808 106.668 127.099 105.974 127.54 105.764C130.938 104.143 134.329 102.506 137.767 100.972C139.15 100.355 140.566 99.8082 141.998 99.3131C143.377 98.8362 144.766 97.7484 146.192 98.0587C146.905 98.2139 145.705 99.4834 145.2 100.01C144.137 101.118 142.664 101.752 141.485 102.736" fill="none" opacity="1" stroke="#46faff" stroke-linecap="round" stroke-linejoin="round" stroke-width="14.7408" vectornator:layerName="Curve 9"/>
<path d="M152.474 32.9148C152.21 32.823 151.56 32.8901 151.683 32.6394C152.131 31.7275 152.943 31.0257 153.724 30.3746C154.431 29.7841 155.287 29.3962 156.096 28.956C157.219 28.3453 158.338 27.7151 159.518 27.2237C159.705 27.1456 160.26 27.1267 160.125 27.2785C156.668 31.1614 153.43 33.6147 149.459 36.9285C149.165 37.174 148.489 37.2922 148.577 37.6652C148.656 38.0014 149.287 37.6826 149.607 37.554C152.899 36.2333 156.115 34.7304 159.375 33.333C160.295 32.9384 164.955 30.9299 166.144 30.6782C166.383 30.6276 165.884 31.1073 165.685 31.249C164.349 32.2002 162.954 33.0667 161.565 33.9386C159.637 35.1487 157.675 36.3041 155.735 37.4943C153.217 39.0386 150.539 40.3476 148.175 42.1185C147.883 42.3372 148.888 41.9478 149.224 41.8049C151.791 40.7118 154.336 39.5672 156.876 38.4135C163.201 35.541 169.515 32.1913 176.191 30.1556C177.072 29.8868 178.797 28.667 178.896 29.5832C179.005 30.5935 177.195 30.7005 176.302 31.1859C173.974 32.452 171.591 33.6147 169.239 34.8345C165.669 36.6859 162.124 38.5867 158.534 40.3995C156.065 41.646 153.51 42.7189 151.066 44.0116C150.642 44.2356 149.516 45.1074 149.962 44.9325C158.087 41.7461 165.994 38.0183 174.134 34.8677C177.477 33.5737 182.514 31.7782 186.146 30.645C186.555 30.5174 187.74 30.0928 187.397 30.3497C184.523 32.5024 181.025 33.6648 177.777 35.1963C170.463 38.6454 163.161 42.1309 155.998 45.8849C154.533 46.6527 152.933 47.2582 151.694 48.3538C151.441 48.5782 151.91 49.3337 152.229 49.2182C158.781 46.8421 165.063 43.7753 171.525 41.1628C178.579 38.3109 185.734 35.6688 193.03 33.5105C194.202 33.1641 197.427 31.7249 196.581 32.6062C195.189 34.0573 193.049 34.5341 191.228 35.3887C187.577 37.1031 183.839 38.6271 180.173 40.3099C177.026 41.7544 173.92 43.286 170.792 44.7699C168.377 45.9152 164.614 45.7487 163.544 48.1978C162.653 50.2401 167.918 47.2752 170.02 46.537C173.48 45.3223 176.775 43.6785 180.193 42.3524C186.754 39.8074 193.381 37.3639 200.19 35.5845C201.289 35.2974 202.405 35.0832 203.52 34.8644C204.068 34.7568 205.605 34.2476 205.176 34.6056C203.906 35.6654 202.374 36.3819 200.872 37.0745C194.346 40.0836 187.713 42.8521 181.116 45.7007C179.502 46.3974 177.59 46.5839 176.241 47.71C175.433 48.3839 178.347 47.4898 179.35 47.1741C181.72 46.4283 183.984 45.3783 186.322 44.5376C191.035 42.843 195.748 41.0867 200.616 39.9084C202.181 39.5296 205.133 37.5226 205.381 39.1137C205.646 40.803 202.416 40.8235 200.875 41.5643C198.005 42.9443 195.084 44.2197 192.156 45.4718C191.403 45.7936 190.405 45.6924 189.838 46.2831C189.51 46.6253 190.793 46.5198 191.255 46.4109C193.324 45.9223 195.33 45.1923 197.344 44.5111C201.365 43.1512 205.341 41.6627 209.357 40.2884C209.905 40.101 210.473 39.9809 211.031 39.8271" fill="none" opacity="1" stroke="#46faff" stroke-linecap="round" stroke-linejoin="round" stroke-width="14.7408" vectornator:layerName="Curve 10"/>
<path d="M160.73 74.8812C157.918 79.4313 154.777 84.5044 152.736 88.8535C152.184 90.0316 154.617 87.0447 155.439 86.0361C157.569 83.4247 159.398 80.5806 161.285 77.7882C161.624 77.286 161.922 76.7573 162.24 76.2418C162.32 76.1129 162.572 75.7352 162.479 75.8552C160.316 78.6623 158.954 80.6867 156.855 83.919C155.864 85.4436 153.91 86.7419 153.987 88.5581C154.035 89.6846 156.15 87.7483 156.986 86.9918C159.74 84.5001 162.082 81.5881 164.653 78.9081C165.085 78.4574 165.516 78.0009 165.995 77.6007C166.328 77.3227 167.268 76.4914 167.08 76.8823C164.411 82.4264 159.422 86.6718 156.916 92.2913C156.329 93.6068 159.304 90.6723 160.41 89.7494C161.223 89.0713 161.924 88.2699 162.653 87.5029C166.08 83.8981 169.346 80.1415 172.821 76.5836C173.458 75.9316 175.247 73.9154 174.825 74.7236C173.271 77.7063 171.225 80.4071 169.367 83.2105C168.076 85.1575 166.679 87.033 165.378 88.9729C164.871 89.7277 163.613 90.4463 163.944 91.2925C164.212 91.9747 165.32 90.7199 165.876 90.2422C167.843 88.5514 169.643 86.6744 171.466 84.8282C174.439 81.8154 177.376 78.7644 180.439 75.8419C180.559 75.7274 184.702 72.0928 184.356 73.1341C182.853 77.6545 177.003 82.6648 174.226 85.8934C173.711 86.4925 172.813 87.0183 172.829 87.8082C172.839 88.2871 173.864 87.9968 174.265 87.7335C177.108 85.862 179.707 83.6411 182.375 81.5264C184.177 80.098 185.947 78.6281 187.671 77.1063C189.323 75.6483 192.122 72.1936 194.273 71.7835C195.138 71.6186 193.571 73.4171 193.042 74.1213C191.552 76.105 189.861 77.9296 188.243 79.8108C187.201 81.0231 186.073 82.1622 185.063 83.4013C184.16 84.5088 183.217 85.6037 182.508 86.8442C182.306 87.197 182.063 88.2882 182.398 88.0587C188.533 83.8624 193.161 78.08 199.188 73.8592C200.188 73.1586 201.197 72.2806 202.407 72.1087C202.831 72.0484 202.93 72.997 202.702 73.3598C200.711 76.5276 198.234 79.3625 195.974 82.3444C195.531 82.9284 194.913 83.3964 194.595 84.0567C194.502 84.2497 195.042 84.0273 195.22 83.909C195.78 83.5388 196.231 83.0257 196.765 82.6198C197.912 81.7481 199.12 80.9593 200.259 80.0779C201.472 79.1399 202.613 78.1134 203.79 77.1312" fill="none" opacity="1" stroke="#46faff" stroke-linecap="round" stroke-linejoin="round" stroke-width="14.7408" vectornator:layerName="Curve 11"/>
<path d="M94.2758 62.7673C94.6126 62.0494 95.9962 60.2604 95.2862 60.6137C93.7399 61.3832 92.6792 62.889 91.4983 64.1494C88.3854 67.4718 85.4459 70.9523 82.4157 74.3503C81.9648 74.8559 80.4979 76.2454 81.0552 75.8601C84.9295 73.1821 88.2263 69.3725 92.0889 66.6515C92.3713 66.4526 93.2283 66.2126 93.1193 66.5404C92.6891 67.8341 91.7759 68.9208 90.969 70.0197C85.5518 77.3967 79.4001 84.2103 73.3564 91.0834C72.6282 91.9116 71.7008 92.5422 70.9108 93.3117C70.8022 93.4174 70.5628 93.8035 70.6718 93.6983C77.5045 87.1018 84.3457 80.4942 91.5978 74.3619C92.6643 73.4601 93.7858 72.5624 95.0738 72.0224C95.3315 71.9144 95.3578 72.6177 95.2033 72.8503C90.7121 79.6114 84.3277 84.9065 78.6925 90.7482C75.1513 94.4191 71.4574 97.9406 67.9175 101.613C65.3031 104.325 62.7539 107.1 60.2321 109.899C59.1249 111.128 55.7419 114.725 57.0331 113.692C64.1879 107.964 70.3018 101.042 77.0946 94.8896C78.5149 93.6032 79.9784 92.3603 81.5081 91.2062C82.3194 90.5941 84.5784 88.706 84.1015 89.6034C83.0076 91.662 81.1169 93.1875 79.542 94.9062C76.7398 97.9641 73.7907 100.885 70.9738 103.929C68.2131 106.913 65.3987 109.854 62.8105 112.988C58.5987 118.089 54.5967 123.36 50.5854 128.62C50.2725 129.03 49.5238 130.381 49.8504 129.982C54.548 124.236 58.7034 118.014 63.8591 112.675C69.8314 106.49 76.0571 100.547 82.4124 94.7569C85.0338 92.3685 87.5977 89.7651 90.7616 88.1632C92.2871 87.3908 88.7193 90.9163 87.5443 92.1586C85.6305 94.1819 83.4528 95.9423 81.5131 97.9409C77.0769 102.512 72.7475 107.186 68.4219 111.862C66.416 114.03 64.3448 116.149 62.5201 118.472C60.4957 121.049 58.1705 123.517 56.8954 126.536C56.28 127.993 59.3558 124.534 60.4445 123.387C67.328 116.132 73.7675 108.458 80.798 101.346C86.7592 95.3154 93.2605 89.7575 100.236 84.936C100.485 84.7638 99.9715 85.4944 99.7578 85.7092C96.6742 88.8089 93.3966 91.7141 90.3617 94.8614C84.7648 100.666 79.232 106.536 73.8691 112.557C71.4321 115.293 69.2119 118.216 66.9751 121.118C66.5127 121.718 65.1411 123.457 65.7805 123.051C73.7645 117.981 79.4594 109.986 86.3198 103.476C89.7602 100.211 93.4649 97.2335 97.1512 94.2492C98.4591 93.1903 99.7455 92.0271 101.289 91.3572C101.6 91.2223 102.025 91.9494 101.824 92.2216C94.909 101.557 84.7808 110.256 76.5969 118.517C75.1073 120.02 70.1707 122.163 72.1104 123.01C74.1299 123.892 75.4544 120.137 77.1859 118.774C83.3631 113.911 89.5675 109.082 95.8338 104.334C99.0517 101.896 100.007 101.745 103.982 99.9668C104.12 99.905 104.499 99.682 104.405 99.8009C98.7809 106.932 91.2009 112.853 84.5279 118.824C84.2423 119.079 83.9519 119.331 83.6452 119.56C83.2217 119.878 81.9677 120.84 82.3394 120.463C86.0749 116.678 90.0019 112.976 94.4948 110.131C97.0081 108.54 99.7823 107.359 102.588 106.371C103.104 106.19 104.477 106.255 104.19 106.72C102.715 109.106 100.563 111.014 98.5266 112.944C96.6833 114.69 94.5932 116.157 92.5867 117.714C92.2082 118.007 93.296 117.065 93.6901 116.793C95.3526 115.644 97.0402 114.531 98.6926 113.367C102.064 110.991 105.519 109.18 109.564 108.225" fill="none" opacity="1" stroke="#46faff" stroke-linecap="round" stroke-linejoin="round" stroke-width="14.7408" vectornator:layerName="Curve 12"/>
<path d="M21.6405 153.151C21.9016 150.256 16.2057 159.25 15.7204 159.964" fill="none" opacity="1" stroke="#46faff" stroke-linecap="round" stroke-linejoin="round" stroke-width="14.7408" vectornator:layerName="Curve 13"/>
<path d="M18.1313 160.385C15.8439 161.282 13.6877 163.62 11.9706 165.34" fill="none" opacity="1" stroke="#46faff" stroke-linecap="round" stroke-linejoin="round" stroke-width="14.7408" vectornator:layerName="Curve 14"/>
<path d="M21.5542 160.898C24.9957 159.026 28.6789 157.646 32.2047 155.94" fill="none" opacity="1" stroke="#46faff" stroke-linecap="round" stroke-linejoin="round" stroke-width="14.7408" vectornator:layerName="Curve 15"/>
</g>
<g id="Untitled" vectornator:layerName="Untitled">
<path d="M0 173.202C29.5336 117.93 59.0672 62.6574 88.6007 7.38499C89.7851 5.16848 91.0536 2.85793 93.1593 1.48626C95.984-0.353716 99.6347-0.094662 102.99 0.231733C150.433 4.84697 197.875 9.46221 245.318 14.0774C247.418 14.2817 249.845 14.6899 250.868 16.5347C251.766 18.1524 251.162 20.1562 250.542 21.8992C241.918 46.1394 233.294 70.3796 224.67 94.6198C223.701 97.3419 222.677 100.155 220.661 102.225C218.406 104.539 215.209 105.624 212.139 106.631C145.129 128.616 78.119 150.6 11.1092 172.584C7.48606 173.773 3.39695 174.935 0 173.202M220.876 90.2506C229.212 66.735 237.547 43.2194 245.883 19.7038C198.379 14.4717 150.827 9.67853 103.235 5.32512C100.939 5.11513 98.4575 4.94716 96.4988 6.16273C94.9332 7.13435 93.9855 8.8242 93.1043 10.4424C64.5955 62.7967 36.4444 115.346 8.65361 168.084C75.3574 146.138 142.061 124.191 208.765 102.245C211.501 101.345 214.331 100.39 216.428 98.4163C218.708 96.2709 219.83 93.2015 220.876 90.2506Z" fill="#000000" fill-rule="nonzero" opacity="1" stroke="none" vectornator:layerName="path"/>
</g>
</svg>
