<?xml version="1.0" encoding="UTF-8" standalone="no"?>
<!DOCTYPE svg PUBLIC "-//W3C//DTD SVG 1.1//EN" "http://www.w3.org/Graphics/SVG/1.1/DTD/svg11.dtd">
<!-- Created with Vectornator (http://vectornator.io/) -->
<svg height="100%" stroke-miterlimit="10" style="fill-rule:nonzero;clip-rule:evenodd;stroke-linecap:round;stroke-linejoin:round;" version="1.1" viewBox="0 0 248.33 429.539" width="100%" xml:space="preserve" xmlns="http://www.w3.org/2000/svg" xmlns:vectornator="http://vectornator.io" xmlns:xlink="http://www.w3.org/1999/xlink">
<defs/>
<g id="Layer-1" vectornator:layerName="Layer 1">
<path d="M100.171 161.65C102.009 159.263 106.718 151.657 105.686 154.488C101.955 164.726 81.2367 182.265 91.9672 184.16C106.936 186.803 115.865 164.742 129.835 158.752C133.17 157.322 128.457 165.97 126.829 169.213C122.467 177.899 115.485 185.297 112.239 194.458C111.813 195.661 110.966 198.775 112.143 198.284C115.798 196.759 117.331 191.021 121.277 190.687C123.622 190.489 123.529 194.96 123.737 197.304C123.882 198.945 122.366 200.382 122.28 202.027C122.135 204.786 122.797 207.528 123.056 210.279" fill="none" opacity="1" stroke="#ffc29f" stroke-linecap="round" stroke-linejoin="round" stroke-width="12.5423" vectornator:layerName="Curve 1"/>
<path d="M27.4064 166.213C41.972 152.742 58.7979 142.433 74.4111 130.397C88.9172 119.214 103.229 107.814 117.657 96.536C130.928 86.1621 145.551 77.3167 158.503 66.545C174.179 53.5067 189.252 39.5907 205.327 27.1334C209.454 23.9351 213.477 20.3547 217.505 17.0045C218.471 16.2016 220.597 14.5888 221.15 13.5048C221.278 13.2535 223.109 10.7935 223.181 10.8794C223.955 11.8106 222.292 16.0804 222.092 17.1702C221.537 20.179 220.343 23.8682 220.676 27.01C220.866 28.8008 221.515 30.6518 221.708 32.4732C221.78 33.1551 221.796 39.3834 222.6 39.4573C222.948 39.4893 222.992 37.9722 223.156 36.1852C223.429 33.2182 222.933 30.2663 223.211 27.2429C223.225 27.0915 223.658 23.2759 224.505 24.2941C225.277 25.2229 224.895 32.0331 224.934 33.5365C225.001 36.1667 226.434 38.2775 226.563 40.844C226.753 44.6314 227.081 48.3872 227.566 52.1842C228.682 60.9181 231.336 69.8003 231.781 78.6464C232.188 86.7303 231.493 95.0646 233.371 103.078C235.23 111.013 237.177 119.428 237.772 127.512C238.102 131.996 239.327 136.148 238.612 140.627C238.23 143.023 235.424 144.312 233.79 145.808C229.85 149.416 224.95 152.123 220.644 155.337C210.525 162.89 203.07 173.907 193.86 182.529C189.068 187.016 182.952 192.481 181.606 199.042" fill="none" opacity="1" stroke="#ffc29f" stroke-linecap="round" stroke-linejoin="round" stroke-width="12.5423" vectornator:layerName="Curve 2"/>
<path d="M25.7545 166.811C25.9642 166.391 26.8462 165.225 25.7545 165.225C24.7166 165.225 21.9514 167.564 21.5247 167.868C19.7417 169.142 18.6378 171.239 16.7662 172.362C14.9652 173.443 12.1477 173.995 11.2146 176.328C10.7704 177.438 13.8865 181.755 14.6513 182.672C16.4774 184.864 18.9788 186.562 20.7316 188.753C22.9984 191.586 24.7188 194.991 27.0763 197.741C29.1272 200.134 30.5752 203.062 32.6279 205.408C37.384 210.843 41.3203 216.331 45.3173 222.327C46.9006 224.702 49.2217 226.739 50.8688 228.936C58.3755 238.945 65.0759 249.718 72.0178 260.13C76.2482 266.476 83.2195 271.824 88.1438 277.843C89.4428 279.43 91.3169 281.413 92.1092 283.394C92.4678 284.291 92.6025 286.795 93.1667 287.36C94.0889 288.282 95.9244 288.393 97.1321 290.003C101.208 295.438 106.401 299.425 110.879 304.543C114.652 308.855 117.629 313.969 120.66 318.819C123.119 322.753 126.533 325.941 128.855 329.922C129.473 330.981 130.375 333.292 131.235 334.152C131.374 334.291 131.624 334.555 131.763 334.416C131.853 334.327 130.968 333.091 129.913 331.772C128.336 329.801 126.499 328.15 124.626 326.485C121.76 323.937 119.716 320.253 116.959 317.497C114.469 315.006 110.164 313.781 108.235 310.888C107.28 309.455 106.614 307.645 105.856 306.129C105.252 304.921 103.898 303.955 103.477 302.693C103.359 302.338 104.024 303.204 104.27 303.486C104.641 303.91 104.989 304.356 105.327 304.807C105.856 305.512 106.376 306.224 106.913 306.922C108.93 309.544 111.113 311.822 113.258 314.324C121.291 323.696 130.893 331.067 138.108 341.289C140.476 344.644 144.141 348.262 145.246 352.128C145.642 353.513 146.944 354.638 147.625 355.829C147.934 356.37 148.947 357.774 148.947 357.151C148.947 355.332 145.109 353.222 143.924 352.128C141.452 349.846 138.718 347.553 136.522 344.99C135.185 343.431 134.692 341.373 133.085 339.968C131.622 338.687 130.074 337.907 128.591 336.795C128.433 336.677 128.062 336.728 128.062 336.531C128.062 336.056 129.027 336.747 129.384 337.06C131.002 338.475 132.351 340.291 133.878 341.818C137.575 345.515 140.059 349.507 143.395 353.45C146.435 357.043 150.37 359.721 153.441 363.231C155.803 365.93 157.691 368.995 160.05 371.691C162.005 373.925 164.454 375.772 166.395 378.036C169.276 381.397 170.572 385.768 173.268 389.139C176.606 393.312 178.711 398.298 181.463 402.886C182.294 404.27 183.01 405.727 183.843 407.115C183.883 407.182 184.795 408.913 184.9 408.701C185.374 407.753 182.475 403.77 181.992 402.886C179.757 398.789 176.25 393.82 172.475 390.989C170.198 389.282 167.236 388.614 165.073 386.76C164.32 386.114 159.02 381.391 159.257 380.679C159.496 379.963 162.615 382.29 162.958 382.53C166.286 384.86 169.906 387.012 173.004 389.667C175.432 391.749 179.966 394.338 181.463 397.334C182.647 399.701 183.065 402.569 184.107 405C184.901 406.854 185.54 413.798 186.222 414.253" fill="none" opacity="1" stroke="#ffc29f" stroke-linecap="round" stroke-linejoin="round" stroke-width="12.5423" vectornator:layerName="Curve 3"/>
<path d="M183.578 396.805C183.578 393.424 184.448 390.13 184.636 386.76C185.445 372.199 184.9 357.47 184.9 342.876C184.9 335.254 185.466 327.085 184.107 319.612C181.52 305.384 181.252 290.962 180.142 276.521C179.866 272.937 179.986 269.231 179.613 265.682C179.178 261.551 178.578 259.014 180.142 254.843" fill="none" opacity="1" stroke="#ffc29f" stroke-linecap="round" stroke-linejoin="round" stroke-width="12.5423" vectornator:layerName="Curve 4"/>
<path d="M187.544 195.891C185.696 199.587 185.536 204.287 184.9 208.316C183.752 215.585 182.907 222.662 182.521 229.993C181.538 248.663 181.633 267.024 183.314 285.509C183.617 288.847 182.658 292.538 183.314 295.819C183.756 298.031 185.169 299.629 185.693 301.899C188.774 315.249 190.195 333.607 183.843 346.312" fill="none" opacity="1" stroke="#ffc29f" stroke-linecap="round" stroke-linejoin="round" stroke-width="12.5423" vectornator:layerName="Curve 5"/>
<path d="M177.498 378.564C177.498 378.829 177.685 379.544 177.498 379.357C176.849 378.708 176.969 369.57 176.969 368.254C176.969 363.199 177.076 358.231 177.234 353.186C177.54 343.373 179.564 333.654 180.142 323.841C180.452 318.568 180.047 313.244 179.877 307.98C179.678 301.794 179.885 295.648 179.348 289.474C178.896 284.268 177.921 279.118 177.762 273.877C177.461 263.922 177.346 253.821 175.383 244.004C172.712 230.65 170.486 216.902 169.303 203.293C168.487 193.907 169.787 185.756 170.36 176.592C170.597 172.811 169.567 169.198 169.567 165.489" fill="none" opacity="1" stroke="#ffc29f" stroke-linecap="round" stroke-linejoin="round" stroke-width="12.5423" vectornator:layerName="Curve 6"/>
<path d="M175.647 201.707C175.647 204.561 174.885 207.367 174.326 210.166C173.76 212.995 173.514 217.869 172.211 220.476" fill="none" opacity="1" stroke="#ffc29f" stroke-linecap="round" stroke-linejoin="round" stroke-width="12.5423" vectornator:layerName="Curve 7"/>
<path d="M33.9497 175.799C48.4872 164.896 62.1343 152.814 77.305 142.754C93.8916 131.754 111.888 122.302 129.384 112.881C138.392 108.031 147.75 103.97 157.142 99.9274C159.863 98.7563 162.587 97.5908 165.337 96.4907C167.434 95.6518 172.396 91.9686 171.682 94.1114C170.846 96.6207 167.059 96.6869 164.809 98.0768C158.506 101.969 152.288 105.996 146.039 109.973C128.745 120.978 112.205 132.652 96.339 145.662C92.2409 149.022 88.2627 152.571 84.7071 156.501C84.2808 156.972 83.2003 157.638 83.6497 158.087C84.1635 158.601 85.1522 157.949 85.7645 157.558C88.3636 155.898 90.6281 153.758 93.1667 152.007C108.865 141.175 125.039 131.263 142.074 122.662C149.71 118.807 157.284 114.711 165.337 111.824C167.673 110.986 170.034 110.153 172.475 109.709C173.023 109.609 174.506 109.902 174.061 110.237C159.176 121.446 143.658 131.79 128.591 142.754C119.208 149.582 109.809 156.686 101.362 164.696C99.6414 166.327 97.7701 167.919 96.6034 169.983C96.3505 170.43 97.4991 171.063 97.9252 170.776C105.597 165.604 112.183 158.858 120.132 154.121C133.843 145.95 148.328 139.136 162.694 132.179C165.102 131.013 167.774 130.485 170.36 129.8C170.786 129.687 171.62 129.364 171.682 129.8C171.782 130.504 171.163 131.187 170.625 131.651C167.954 133.951 165.026 135.937 162.165 137.995C147.163 148.79 131.463 158.782 116.959 170.247C112.153 174.047 107.519 178.065 102.948 182.144C101.785 183.182 98.4465 186.395 99.7757 185.58C104.93 182.422 109.363 178.208 114.316 174.742C127.768 165.325 141.287 156.336 156.349 149.627C161.88 147.164 167.503 144.869 173.268 143.018C174.697 142.56 178.376 141.385 177.762 142.754C176.233 146.165 172.719 148.309 169.831 150.685C165.734 154.056 161.218 156.885 156.878 159.937C142.043 170.368 126.763 180.35 113.258 192.454C111.053 194.43 107.1 196.762 107.971 199.592C108.691 201.932 112.299 197.28 114.316 195.891C116.276 194.54 118.008 192.884 119.867 191.396C124.176 187.949 128.498 184.517 132.821 181.086C139.025 176.162 146.055 172.362 152.912 168.397C157.826 165.555 163.031 163.243 167.981 160.466C168.473 160.19 169.807 159.661 169.303 159.409C167.893 158.704 165.473 159.489 164.016 159.937C161.192 160.806 158.413 161.831 155.556 162.581C149.685 164.123 143.843 165.888 137.844 166.811C130.061 168.008 122.186 169.18 114.316 168.926C111.057 168.821 105.117 169.013 105.063 165.753C104.977 160.571 110.449 156.791 114.051 153.064C120.735 146.15 128.428 140.288 135.729 134.03C137.683 132.355 139.82 130.905 141.809 129.271C142.291 128.876 143.649 127.604 143.131 127.95C133.222 134.556 121.814 142.999 112.201 149.892C108.246 152.727 104.365 155.67 100.304 158.351C99.6762 158.766 97.6316 159.65 98.1895 159.144C104.371 153.542 113.744 146.846 120.925 142.754C124.931 140.471 128.945 138.037 133.35 136.674C134.291 136.382 132.716 138.612 132.028 139.317C125.454 146.051 118.191 152.093 111.672 158.88C107.428 163.298 103.217 167.822 99.7757 172.891C98.3039 175.059 94.5155 180.159 97.1321 180.293C102.014 180.544 105.902 175.947 110.086 173.42C119.041 168.011 127.405 161.633 136.522 156.501C142.159 153.328 147.853 149.633 154.234 148.57C155.888 148.294 155.06 152.319 153.97 153.593C146.96 161.784 138.381 168.492 130.706 176.063C125.25 181.446 119.906 186.942 114.58 192.454C112.327 194.786 109.954 197.026 107.971 199.592C106.934 200.933 103.93 203.753 105.592 204.086C107.683 204.504 108.959 201.465 110.615 200.12C114.599 196.883 118.329 193.317 122.511 190.339C131.21 184.142 140.158 178.294 149.211 172.627C151.717 171.059 154.387 169.733 157.142 168.661C157.642 168.467 159.095 168.535 158.728 168.926C147.462 180.918 134.914 191.638 123.04 203.028C120.296 205.66 117.532 208.271 114.844 210.959C114.533 211.271 113.719 212.306 114.051 212.017C125.754 201.814 137.496 191.605 150.004 182.408C153.511 179.83 157.302 177.649 161.108 175.535C162.082 174.993 163.819 173.463 164.28 174.477C164.883 175.805 163.406 177.359 162.429 178.443C157.715 183.673 152.358 188.286 147.361 193.247C140.109 200.447 132.758 207.55 125.683 214.925C122.355 218.394 119.278 222.098 116.166 225.763C115.311 226.771 112.783 229.796 113.787 228.936C122.965 221.069 130.406 211.336 139.43 203.293C145.378 197.991 151.569 192.909 158.2 188.488C159.153 187.853 161.945 187.385 161.636 188.488C160.876 191.205 158.218 192.984 156.349 195.097C154.161 197.571 151.722 199.814 149.476 202.235C143.791 208.362 138.052 214.443 132.557 220.741C129.588 224.141 126.785 227.689 124.097 231.315C122.99 232.808 119.526 236.905 121.189 236.073C124.312 234.512 126.408 231.426 128.855 228.936C138.722 218.896 147.973 206.847 159.786 198.534C161.592 197.263 163.403 195.571 165.602 195.362C166.483 195.278 165.877 197.303 165.337 198.005C159.092 206.141 152.056 213.638 145.51 221.534C140.512 227.562 135.631 233.686 130.706 239.775C129.286 241.529 127.761 243.206 126.476 245.062C126.159 245.52 125.534 247.022 125.947 246.648C134.273 239.128 141.067 230.042 149.211 222.327C152.488 219.222 156.098 216.47 159.786 213.867C160.628 213.272 163.131 211.876 162.694 212.81C160.424 217.658 157.061 221.922 153.97 226.292C148.581 233.91 142.311 240.869 136.258 247.97C135.449 248.918 132.905 251.638 133.614 250.613C140.021 241.359 148.073 232.77 156.613 225.499C159.164 223.328 161.754 221.058 164.809 219.683C165.6 219.327 167.549 219.951 167.188 220.741C164.341 226.968 160.17 232.507 156.349 238.188C153.467 242.473 150.218 246.5 147.096 250.613C144.667 253.815 142.117 256.924 139.694 260.13C139.12 260.891 137.37 263.113 138.108 262.51C143.575 258.037 147.177 251.676 151.855 246.384C154.001 243.956 156.407 241.771 158.728 239.51C159.744 238.521 162.96 235.257 164.016 235.545C164.663 235.721 165.133 236.808 164.809 237.395C162.176 242.168 158.711 246.433 155.556 250.878C153.094 254.347 150.098 257.404 147.361 260.659C146.032 262.239 144.739 263.85 143.395 265.418C143.152 265.701 142.367 266.501 142.602 266.211C148.698 258.708 154.64 250.426 162.165 244.269C163.204 243.419 166.116 241.364 165.866 242.683C165.082 246.826 162.311 250.336 160.314 254.05C158.519 257.391 156.431 260.567 154.499 263.831C153.875 264.885 153.221 265.922 152.648 267.004C152.426 267.423 151.743 268.615 152.119 268.326C158.744 263.23 163.187 255.788 169.038 249.82C169.293 249.561 169.456 250.548 169.303 250.878C168.184 253.275 166.79 255.541 165.337 257.751C161.591 263.453 157.147 268.678 153.441 274.406C153.268 274.673 154.036 274.125 154.234 273.877C155.456 272.349 156.415 270.619 157.671 269.119C160.033 266.296 162.438 263.494 165.073 260.923C166.07 259.95 167.13 258.741 168.51 258.544C169.127 258.456 169.019 259.822 168.774 260.395C166.601 265.466 164.002 270.349 161.372 275.199C160.032 277.671 158.382 279.961 156.878 282.337C156.708 282.605 156.115 283.345 156.349 283.13C157.635 281.951 158.893 280.734 160.05 279.429C162.333 276.854 164.44 274.128 166.659 271.498C167.985 269.927 164.596 275.055 163.487 276.785C161.192 280.365 158.414 283.642 156.349 287.36C156.015 287.961 157.449 286.524 157.935 286.038C158.598 285.375 159.162 284.622 159.786 283.923C161.365 282.154 162.902 280.346 164.544 278.636C165.021 278.139 165.644 276.827 166.13 277.314C167.161 278.345 165.541 280.431 165.073 281.279C162.942 285.148 160.86 289.043 158.728 292.911C158.48 293.361 158.165 293.773 157.935 294.233C157.811 294.482 157.442 295.185 157.671 295.026C161.93 292.077 164.337 288.242 167.717 284.187C168.237 283.563 168.804 282.978 169.303 282.337C169.424 282.181 169.672 281.641 169.567 281.808C167.874 284.517 164.698 288.518 164.016 291.589C163.92 292.019 164.738 292.668 165.073 292.382C167.402 290.399 169.156 287.826 171.153 285.509C171.361 285.268 171.946 284.54 171.682 284.716C168.376 286.92 166.869 292.636 165.337 296.084C164.28 298.463 163.132 300.804 162.165 303.221C162.067 303.467 161.986 304.209 162.165 304.014C165.475 300.417 169.557 296.675 170.36 291.854C170.561 290.646 168.957 293.887 168.51 295.026C167.012 298.839 165.873 302.783 164.544 306.658C163.758 308.951 162.892 311.218 162.165 313.531C161.921 314.306 161.149 315.261 161.636 315.911C162.01 316.409 162.723 315.166 162.958 314.589C164.682 310.356 166.635 306.132 167.452 301.635C168.096 298.093 164.685 308.286 163.487 311.681C162.568 314.284 161.884 316.963 161.108 319.612C160.386 322.074 156.74 328.243 158.993 327.014C162.006 325.37 162.567 321.137 164.016 318.026C164.956 316.004 165.47 313.81 166.13 311.681C166.264 311.252 166.524 309.929 166.395 310.359C166.002 311.669 165.61 312.984 165.337 314.324C164.463 318.627 163.725 322.956 162.958 327.278C162.756 328.419 161.344 330.308 162.429 330.715C163.596 331.152 164.497 329.176 165.073 328.071C168.044 322.376 168.636 316.288 171.153 310.623C171.266 310.369 171.443 311.139 171.418 311.416C171.352 312.14 171.059 312.825 170.889 313.531C170.443 315.381 169.94 317.218 169.567 319.083C169.147 321.185 168.921 323.323 168.51 325.428C168.128 327.379 167.34 329.261 167.188 331.244C167.121 332.109 167.917 329.668 168.245 328.864C170.296 323.851 172.41 318.862 174.326 313.796C175.144 311.632 175.767 309.4 176.441 307.187C177.001 305.346 178.493 299.768 178.027 301.635C174.949 313.944 172.183 326.22 169.567 338.646C169.215 340.32 170.412 335.321 170.625 333.623C170.68 333.177 170.678 332.619 170.36 332.301C170.163 332.104 170.184 332.83 170.096 333.094C169.655 334.416 169.112 335.708 168.774 337.06C167.667 341.487 167.011 346.02 166.395 350.542C166.346 350.902 166.106 351.962 166.13 351.599C166.748 342.334 168.954 333.24 170.625 324.106C170.672 323.846 170.643 324.635 170.625 324.899C170.555 325.87 170.407 326.835 170.36 327.807C170.142 332.387 169.982 336.971 169.831 341.554C169.629 347.721 169.413 353.889 169.303 360.059C169.237 363.759 169.121 367.466 169.303 371.162C169.386 372.855 169.037 374.861 170.096 376.185C170.868 377.151 170.324 373.72 170.36 372.484C170.412 370.722 170.337 368.959 170.36 367.197C170.425 362.35 170.438 357.501 170.625 352.657C170.703 350.624 171.088 348.61 171.153 346.577C171.176 345.866 171.563 344.686 170.889 344.462C170.28 344.259 170.451 345.677 170.36 346.312C170.185 347.537 170.152 348.778 170.096 350.013C169.976 352.656 169.928 355.301 169.831 357.944C169.642 363.146 169.85 368.399 169.038 373.541C168.832 374.85 168.723 370.9 168.774 369.576C168.9 366.307 169.227 363.048 169.567 359.795C171.301 343.225 173.163 326.669 174.854 310.095C174.926 309.388 175.09 308.69 175.119 307.98C175.179 306.483 176.178 302.426 175.119 303.486C173.928 304.676 174.769 306.834 174.59 308.509C174.064 313.444 173.533 318.378 173.004 323.313C172.239 330.454 171.561 337.606 170.625 344.726C170.356 346.766 169.982 348.791 169.567 350.806C169.365 351.79 169.646 353.216 168.774 353.714C168.157 354.067 167.874 352.557 167.717 351.864C167.423 350.572 167.482 349.223 167.452 347.898C167.394 345.344 167.327 342.784 167.452 340.232C167.591 337.403 167.981 334.592 168.245 331.772" fill="none" opacity="1" stroke="#ffc29f" stroke-linecap="round" stroke-linejoin="round" stroke-width="12.5423" vectornator:layerName="Curve 8"/>
<path d="M29.9843 175.27C29.9843 174.389 30.5719 173.283 29.9843 172.627C28.8541 171.364 26.6034 168.969 25.4901 170.247C23.1039 172.987 23.3503 177.224 22.8465 180.822C22.719 181.733 22.8859 182.938 23.6396 183.466C24.5788 184.123 26.6439 181.422 26.812 181.086C28.0125 178.685 29.0669 176.207 29.9843 173.684C30.0385 173.535 30.1086 170.39 29.1912 170.776C27.4646 171.503 25.7607 172.783 24.9614 174.477C23.4567 177.667 23.2739 181.329 22.5822 184.787C22.4785 185.306 22.0978 186.162 22.5822 186.374C27.9627 188.728 29.8411 182.782 30.2486 178.707C30.4249 176.945 30.8264 174.803 29.7199 173.42C28.9492 172.456 27.0295 172.712 26.0189 173.42C24.9193 174.19 24.7017 175.806 24.4327 177.121C23.9003 179.724 23.4044 182.405 23.6396 185.052C23.7688 186.505 24.0542 188.761 25.4901 189.017C27.5079 189.377 29.5924 187.823 31.0417 186.374C33.2287 184.187 35.5359 179.023 35.5359 175.535C35.5359 174.273 35.4998 172.843 34.7428 171.834C34.2553 171.184 32.8861 170.683 32.3635 171.305C28.851 175.487 28.2547 182.7 28.6625 187.695C28.7717 189.033 29.3954 190.36 30.2486 191.396C31.9167 193.422 35.8929 191.048 36.8577 190.339C39.4788 188.412 42.4945 184.511 43.7311 181.351C44.7368 178.78 46.1103 176.18 46.1103 173.42C46.1103 171.567 45.5681 168.157 43.7311 168.397C41.4525 168.694 41.1165 172.188 40.03 174.213C37.0473 179.772 36.0646 186.41 36.0646 192.718C36.0646 194.098 36.7996 195.608 37.9151 196.419C38.9936 197.204 40.7793 197.7 41.8806 196.948C44.7694 194.975 47.2746 192.187 48.7539 189.017C50.4641 185.353 51.1332 181.165 51.1332 177.121C51.1332 176.253 49.5538 175.727 48.7539 176.063C47.4853 176.598 46.6621 177.975 46.1103 179.236C44.1668 183.678 42.1827 188.205 41.3518 192.983C40.7471 196.46 40.466 200.324 41.8806 203.557C42.6087 205.221 45.0938 205.832 46.9034 205.672C48.5362 205.528 49.6881 203.901 50.8688 202.764C52.0882 201.59 53.1974 200.266 54.0412 198.799C55.2409 196.712 56.5261 194.559 56.9492 192.189C57.4296 189.499 58.8952 185.602 56.6848 183.994C54.8456 182.657 52.6045 186.226 51.1332 187.96C50.0321 189.257 49.7502 191.082 49.2827 192.718C48.1612 196.643 46.7491 200.55 46.3747 204.614C46.1221 207.357 46.2003 210.346 47.4321 212.81C48.0845 214.114 49.9611 214.914 51.3976 214.66C53.3954 214.308 55.3611 212.954 56.4204 211.224C58.1525 208.394 58.8398 204.987 59.3284 201.707C59.4803 200.686 59.0003 199.528 58.271 198.799C57.6204 198.148 56.3311 197.413 55.6273 198.005C54.2103 199.199 53.8007 201.26 53.2481 203.028C52.4697 205.519 51.8067 208.089 51.6619 210.695C51.5388 212.91 51.4389 215.331 52.455 217.304C53.1057 218.567 54.7581 219.673 56.1561 219.419C58.2022 219.047 59.7565 217.235 61.1789 215.718C62.4503 214.362 63.5926 212.751 64.0869 210.959C65.0316 207.535 65.4998 203.936 65.4087 200.385C65.395 199.849 64.1035 200.193 63.8226 200.649C62.579 202.67 61.9293 205.007 61.1789 207.258C59.606 211.977 58.6509 218.212 58.7997 223.12C58.8492 224.752 61.6087 226.463 62.7651 226.292C64.3366 226.059 65.6252 224.79 66.7305 223.649C68.3984 221.927 69.6159 219.817 70.9603 217.833C71.7634 216.647 73.4695 213.359 73.3396 212.017C73.1756 210.323 73.1909 207.258 71.489 207.258C69.5827 207.258 69.1055 210.281 68.3167 212.017C66.8867 215.163 65.6715 218.434 64.88 221.798C64.2514 224.47 63.4615 227.321 64.0869 229.993C64.5138 231.817 66.1406 233.331 67.788 234.223C69.639 235.226 73.6042 230.49 75.1901 228.143C77.8245 224.244 77.6435 219.527 76.5119 215.189C75.8318 212.582 71.8315 216.712 70.9603 218.89C70.0073 221.273 69.3157 223.769 68.8454 226.292C68.3424 228.99 68.0988 231.743 68.0523 234.487C68.0104 236.961 67.3168 239.763 68.5811 241.889C69.5688 243.551 72.0062 244.786 73.8683 244.269C75.9773 243.683 76.9144 241.087 78.0981 239.246C80.9879 234.751 81.3993 232.892 81.5348 227.878C81.5753 226.378 81.7832 224.794 81.2704 223.384C81.0113 222.672 79.9448 221.515 79.4199 222.062C77.3156 224.254 76.0368 227.165 74.9257 229.993C72.9753 234.958 72.4017 240.537 72.8108 245.855C72.9414 247.552 73.4863 249.382 74.6614 250.613C75.5473 251.541 77.2852 252.368 78.3624 251.671C80.7893 250.101 82.2972 247.352 83.6497 244.797C85.4482 241.4 86.092 236.164 85.2358 232.372C85.0259 231.443 84.5022 229.567 83.6497 229.993C81.9446 230.846 81.1009 232.95 80.4773 234.752C79.4821 237.627 79.1939 240.713 78.8912 243.74C78.5754 246.898 78.0151 250.143 78.6268 253.257C79.0229 255.274 79.7837 258.141 81.7991 258.544C84.082 259.001 86.2587 256.779 87.8794 255.108C89.2248 253.72 89.7034 251.671 90.2587 249.82C91.1866 246.727 92.1355 238.215 89.4656 235.545C88.9518 235.031 87.6242 235.4 87.3507 236.073C85.2095 241.344 83.5943 246.864 82.5922 252.464C82.0797 255.328 82.3204 258.328 82.8566 261.188C83.1154 262.568 84.8056 266.534 87.3507 265.946C93.001 264.642 96.4122 257.88 98.1895 252.993C98.7102 251.561 98.0527 244.734 95.8103 245.855C89.5916 248.964 88.4353 260.611 89.2012 266.739C89.3682 268.075 90.8369 271.859 93.1667 271.762C100.861 271.442 102.291 262.45 103.212 256.694C103.713 253.564 101.072 250.891 98.9826 254.579C97.9096 256.472 97.0755 258.535 96.6034 260.659C96.008 263.338 95.2556 266.166 95.8103 268.854C96.4474 271.942 98.3475 274.654 100.04 277.314C100.798 278.505 103.981 276.436 105.592 274.67C108.938 271 112.849 263.609 111.143 258.28C110.89 257.488 109.73 256.512 109.028 256.958C107.274 258.075 106.257 260.121 105.327 261.981C102.868 266.899 101.511 277.405 103.477 282.601C103.962 283.883 105.137 284.942 106.385 285.509C107.271 285.912 108.661 285.985 109.293 285.245C111.442 282.724 113.063 279.682 114.051 276.521C114.868 273.908 114.717 271.06 114.58 268.326C114.532 267.372 113.329 264.711 111.672 265.153C109.688 265.682 108.512 268.92 108.235 270.44C107.744 273.141 107.482 275.891 107.442 278.636C107.377 283.118 107.043 289.588 110.086 293.704C112.017 296.317 114.504 293.737 115.637 292.118C119.21 287.015 119.854 280.56 118.545 274.67C118.476 274.36 118.054 274.041 117.752 274.142C115.228 274.983 114.845 279.59 114.58 281.015C113.805 285.18 113.996 290.708 114.316 294.762C114.536 297.553 115.76 298.253 118.545 299.785C120.054 300.614 122.021 298.471 122.511 297.67C123.929 295.348 125.051 292.836 125.947 290.268C126.501 288.682 127.58 280.843 124.89 280.222C123.407 279.88 121.822 283.632 121.189 285.773C119.489 291.526 119.131 297.887 120.396 303.75C120.855 305.878 124.062 308.274 125.947 307.187C127.581 306.244 128.541 304.379 129.384 302.693C130.945 299.571 132.099 295.452 131.499 291.854C131.007 288.899 129.656 286.572 128.591 287.888C125.302 291.951 125.084 295.563 125.419 300.578C125.62 303.599 125.801 306.687 126.741 309.566C127.815 312.856 132.096 316.592 134.143 311.681C135.347 308.79 136.829 302.455 135.993 298.992C135.773 298.081 135.017 297.213 134.143 296.877C133.591 296.664 132.748 297.111 132.557 297.67C131.626 300.384 131.053 303.261 130.97 306.129C130.875 309.407 131.417 312.689 132.028 315.911C132.621 319.037 133.554 322.388 136.522 324.106C138.515 325.26 141.922 323.391 142.867 321.991C144.505 319.563 145.209 316.605 146.039 313.796C146.365 312.694 146.628 311.461 146.303 310.359C146.124 309.749 145.25 308.955 144.717 309.302C143.09 310.359 141.855 312.046 141.016 313.796C139.787 316.361 138.481 319.151 138.637 321.991C138.849 325.859 139.252 330.439 142.074 333.094C143.566 334.499 146.055 331.768 147.625 330.451C150.554 327.994 151.819 323.872 152.648 320.14C152.744 319.71 151.944 318.652 151.855 319.083C150.208 327.042 148.128 335.016 147.889 343.14C147.847 344.574 149.642 346.251 151.062 346.048C152.514 345.84 152.821 343.676 153.441 342.347C154.267 340.576 155.556 335.603 155.292 333.623C155.24 333.232 154.387 333.788 154.234 334.152C153.637 335.57 153.414 337.125 153.177 338.646C152.73 341.504 152.467 350.892 154.763 352.128C157.422 353.56 159.15 348.942 159.521 347.898C160.431 345.341 160.988 342.655 161.372 339.968C161.417 339.653 160.684 340.196 160.579 340.496C160.042 342.03 159.751 343.646 159.521 345.255C159.142 347.913 158.549 352.648 159.521 355.565C159.739 356.218 160.157 357.204 160.843 357.151C161.777 357.079 162.407 356.058 162.958 355.3C163.165 355.015 162.958 353.891 162.958 354.243C162.958 355.212 162.629 356.239 162.958 357.151C163.801 359.486 163.917 363.6 166.395 363.76C168.963 363.926 169.567 359.707 171.153 357.68" fill="none" opacity="1" stroke="#ffc29f" stroke-linecap="round" stroke-linejoin="round" stroke-width="12.5423" vectornator:layerName="Curve 9"/>
<path d="M58.271 163.374C56.7729 164.608 55.2566 165.82 53.7768 167.075C52.3483 168.287 48.1764 172.053 49.547 170.776C54.7945 165.887 60.0076 160.956 65.4087 156.236C69.0878 153.022 72.8857 149.939 76.7763 146.984C82.054 142.975 87.504 139.197 92.9023 135.352C93.9374 134.614 94.9379 133.805 96.0746 133.237C96.2509 133.149 96.7517 133.372 96.6034 133.501C90.9059 138.487 84.9127 143.125 79.1555 148.041C71.1898 154.843 63.8777 162.376 56.1561 169.454C53.394 171.986 50.8141 174.778 47.6965 176.857C44.8408 178.76 52.6026 172.023 55.363 169.983C68.4792 160.292 81.8997 151.018 95.2816 141.696C95.8951 141.269 94.2662 142.8 93.6954 143.283C89.6817 146.679 85.5826 149.973 81.5348 153.328C75.167 158.607 68.6531 163.707 62.2364 168.926C59.3741 171.254 56.5957 173.683 53.7768 176.063C52.6303 177.032 48.935 179.498 50.3401 178.971C52.4226 178.19 54.0908 176.575 55.8917 175.27C60.173 172.168 64.275 168.821 68.5811 165.753C71.328 163.796 74.1879 162.001 77.0406 160.202C79.9166 158.388 82.8122 156.602 85.7645 154.915C86.5448 154.469 88.7419 153.551 88.4082 154.386C87.3144 157.12 83.8345 158.098 81.5348 159.937C74.7708 165.349 67.5959 170.306 60.9146 175.799C58.8908 177.463 56.9032 179.187 55.0986 181.086C54.9165 181.278 55.6727 181.234 55.8917 181.086C58.9731 179.004 61.8851 176.682 64.88 174.477C68.2297 172.011 71.4391 169.343 74.9257 167.075C80.5251 163.433 86.0832 159.647 92.1092 156.765C94.136 155.796 88.8123 159.821 87.0864 161.259C83.5235 164.228 79.8782 167.097 76.2475 169.983C69.1904 175.593 62.1182 181.197 55.363 187.167C55.2153 187.297 54.9275 187.793 55.0986 187.695C58.3615 185.831 63.6886 181.484 66.2018 179.765C74.3734 174.173 82.6675 168.723 91.3161 163.903C92.5597 163.21 93.9598 161.788 95.2816 162.317C96.3293 162.736 93.5237 163.732 92.6379 164.432C90.1751 166.376 87.7138 168.322 85.2358 170.247C77.0512 176.606 68.7762 182.848 60.6502 189.282C60.3048 189.555 59.4297 190.232 59.8571 190.339C60.5082 190.502 61.1554 189.927 61.7077 189.546C64.8693 187.363 67.8443 184.92 70.9603 182.672C76.3542 178.782 82.1051 175.398 87.8794 172.098C88.8381 171.55 89.7758 170.954 90.7874 170.512C91.1991 170.332 92.3868 169.894 92.1092 170.247C88.9794 174.231 84.4608 176.899 80.4773 180.029C76.7763 182.937 73.0272 185.785 69.3741 188.753C67.3861 190.368 65.5217 192.131 63.5582 193.776C62.2607 194.863 60.6862 195.656 59.5928 196.948C59.3581 197.225 60.3382 197.399 60.6502 197.212C65.8972 194.081 70.8052 190.411 75.9832 187.167C78.1229 185.826 80.387 184.695 82.5922 183.466C85.5178 181.834 88.2308 178.971 91.5805 178.971C92.7791 178.971 90.3688 181.091 89.4656 181.879C86.1667 184.757 82.7949 187.551 79.4199 190.339C75.9398 193.214 72.3702 195.979 68.8454 198.799C68.5973 198.997 68.3031 199.132 68.0523 199.327C67.5091 199.75 65.8838 201.016 66.4662 200.649C74.6896 195.471 82.3975 189.024 91.5805 185.845C92.5832 185.498 90.0069 187.269 89.2012 187.96C87.5393 189.384 85.8628 190.792 84.1784 192.189C80.7999 194.993 77.1908 197.515 73.8683 200.385C72.8308 201.281 69.7076 203.849 70.9603 203.293C79.3403 199.568 87.8478 192.51 95.8103 187.96C96.5354 187.545 100.777 185.302 101.891 186.638C102.411 187.262 100.647 187.684 100.04 188.224C97.4748 190.504 94.9877 192.873 92.3736 195.097C89.0821 197.898 85.6251 200.499 82.3279 203.293C79.2792 205.876 76.2068 208.441 73.3396 211.224C73.1499 211.408 73.119 212.162 73.3396 212.017C85.3954 204.051 96.705 195.646 109.293 188.488C110.218 187.962 111.562 186.315 112.201 187.167C112.837 188.016 110.893 188.857 110.086 189.546C107.27 191.95 104.296 194.162 101.362 196.419C93.7473 202.277 85.4198 207.338 78.6268 214.131C78.2478 214.511 79.7598 214.153 80.213 213.867C86.4948 209.9 92.4142 205.374 98.7183 201.442C101.327 199.815 104.131 198.519 106.913 197.212C108.454 196.489 110.057 195.9 111.672 195.362C112.18 195.192 113.607 194.69 113.258 195.097C106.179 203.356 96.7878 209.312 88.4082 216.246C86.9131 217.484 85.3676 218.662 83.914 219.947C83.074 220.691 80.5316 222.828 81.5348 222.327C89.1719 218.508 95.9552 213.15 103.477 209.109C105.25 208.156 107.084 207.253 109.028 206.729C109.487 206.606 110.64 206.883 110.35 207.258C105.651 213.339 98.7713 217.366 92.9023 222.327C89.3692 225.313 85.7991 228.257 82.3279 231.315C82.0894 231.525 81.5285 232.275 81.7991 232.108C86.9408 228.944 93.725 223.813 99.5113 221.005C103.134 219.247 106.684 217.12 110.615 216.246C111.349 216.083 111.694 217.665 111.408 218.361C110.956 219.458 109.683 219.992 108.764 220.741C103.171 225.293 97.027 229.208 91.8449 234.223C91.5282 234.529 91.4331 235.702 91.8449 235.545C97.2133 233.5 101.371 229.096 106.385 226.292C108.485 225.117 110.688 224.076 112.994 223.384C113.448 223.248 114.638 223.565 114.316 223.913C110.016 228.543 104.638 232.039 99.7757 236.073C97.7526 237.752 95.7334 239.436 93.6954 241.096C93.3538 241.375 92.1973 241.889 92.6379 241.889C95.3555 241.889 97.6377 239.159 99.5113 237.924C103.624 235.213 108.117 233.045 112.729 231.315C113.618 230.982 114.459 230.512 115.373 230.258C116.058 230.067 117.853 229.384 117.488 229.993C113.828 236.093 107.082 239.704 101.626 244.269C100.812 244.95 99.4214 245.337 99.247 246.384C99.1275 247.1 100.717 246.189 101.362 245.855C103.12 244.943 104.681 243.691 106.385 242.683C109 241.135 111.56 239.47 114.316 238.188C115.382 237.693 116.577 237.395 117.752 237.395C118.07 237.395 118.47 237.933 118.281 238.188C115.391 242.098 108.719 247.311 105.592 250.349C104.96 250.963 103.148 252.666 104.005 252.464C109.102 251.265 113.796 246.602 118.81 244.797C119.396 244.586 120.077 244.314 120.66 244.533C121 244.661 121.182 245.334 120.925 245.59C116.997 249.518 112.671 253.026 108.5 256.694C107.559 257.521 104.429 259.538 105.592 259.073C113.085 256.076 118.76 248.639 127.269 248.234C127.621 248.217 127.506 249.03 127.269 249.292C125.762 250.958 123.967 252.341 122.246 253.786C119.559 256.043 116.792 258.202 114.051 260.395C113.707 260.67 112.553 261.188 112.994 261.188C116.975 261.188 120.068 257.532 123.568 255.636C125.094 254.81 126.707 254.144 128.327 253.521C129.153 253.203 131.426 252.498 130.97 253.257C130.163 254.602 128.978 255.684 128.062 256.958C126.95 258.506 123.304 260.659 124.89 261.717C126.663 262.899 128.499 259.421 130.442 258.544C131.261 258.174 132.21 258.218 133.085 258.015C133.357 257.953 133.681 257.554 133.878 257.751C134.128 258 134.096 258.531 133.878 258.809C131.218 262.194 127.02 264.664 123.833 267.532C123.092 268.199 121.718 268.65 121.718 269.647C121.718 270.358 123.197 269.701 123.833 269.383C127.645 267.477 130.966 264.592 134.936 263.038C135.692 262.742 137.741 262.875 137.315 263.567C134.212 268.609 128.715 271.712 124.626 275.992C124.051 276.593 123.387 277.28 123.304 278.107C123.265 278.499 123.98 278.736 124.361 278.636C125.772 278.264 127.041 277.473 128.327 276.785C131.045 275.331 133.38 273.133 136.258 272.027C137.195 271.666 138.173 271.386 139.166 271.234C139.36 271.204 139.825 271.351 139.694 271.498C137.542 273.92 135.204 276.176 132.821 278.371C130.189 280.796 126.892 282.45 124.361 284.98C124.026 285.316 125.268 284.682 125.683 284.452C126.068 284.238 126.387 283.921 126.741 283.659C129.118 281.894 131.473 280.098 133.878 278.371C136.632 276.395 139.671 274.511 142.867 273.348C144.232 272.852 146.714 270.889 147.096 272.291C147.557 273.979 144.897 275.02 143.66 276.256C140.13 279.786 136.306 283.007 132.557 286.302C131.122 287.562 128.124 289.66 128.327 290.268C128.522 290.853 129.644 290.578 130.177 290.268C133.516 288.326 136.358 285.605 139.694 283.659C142.725 281.891 146.012 280.604 149.211 279.164C149.543 279.015 150.412 278.566 150.269 278.9C148.746 282.453 144.762 284.337 141.809 286.831C140.085 288.287 138.236 289.592 136.522 291.061C136.094 291.428 134.939 292.587 135.464 292.382C139.766 290.71 143.445 287.913 147.889 286.567C148.677 286.328 152.107 286.26 152.119 286.302C152.296 286.919 152.013 287.67 151.591 288.153C149.498 290.545 147.028 292.579 144.717 294.762C143.855 295.576 142.832 296.23 142.074 297.141C141.904 297.344 141.823 297.85 142.074 297.934C144.251 298.66 147.528 296.494 149.476 298.198C151.265 299.764 143.651 302.979 147.889 302.164C150.933 301.579 153.816 300.268 156.878 299.785C157.4 299.702 158.66 299.294 158.464 299.785C158.155 300.556 157.059 300.674 156.349 301.106C153.446 302.877 150.521 304.612 147.625 306.394C147.084 306.727 146.323 306.883 146.039 307.451C145.897 307.735 146.514 307.98 146.832 307.98C149.382 307.98 152.595 305.883 155.027 305.072C155.372 304.957 156.382 304.598 156.085 304.807C153.208 306.838 149.973 308.328 147.096 310.359C146.689 310.647 145.566 311.259 146.039 311.416C146.676 311.629 147.266 310.873 147.889 310.623C149.47 309.991 151.022 309.276 152.648 308.773C154.73 308.128 156.865 307.66 158.993 307.187C159.251 307.129 159.786 306.922 159.786 307.187C159.786 308.95 151.823 312.631 150.269 313.531C149.994 313.691 149.167 314.134 149.476 314.06C151.971 313.461 154.316 312.096 156.878 311.945C157.624 311.901 158.657 312.809 158.464 313.531C158.158 314.677 156.795 315.236 155.82 315.911C155.615 316.053 155.18 315.605 155.292 315.382" fill="none" opacity="1" stroke="#ffc29f" stroke-linecap="round" stroke-linejoin="round" stroke-width="12.5423" vectornator:layerName="Curve 10"/>
<path d="M82.7624 134.655C85.4831 131.028 91.773 126.095 95.0088 123.244C103.637 115.643 113.028 108.896 122.285 102.091C144.091 86.0626 166.173 69.7365 186.579 51.9922C194.103 45.4496 201.966 39.0986 209.68 32.7876C211.194 31.5485 212.785 29.5887 214.411 28.6127C214.589 28.506 214.802 28.2099 214.968 28.3344C216.507 29.4885 215.599 37.2714 215.525 38.9108C215.122 47.7688 217.204 57.4327 218.586 66.1869C220.601 78.948 223.283 91.5329 224.988 104.318C225.882 111.027 228.99 117.313 229.441 124.079C229.716 128.205 229.536 132.774 229.163 136.882C229.146 137.06 229.255 140.346 228.884 140.779C225.866 144.3 220.634 145.691 216.916 148.294C207.028 155.215 197.388 162.602 189.083 171.395C182.808 178.039 178.679 184.976 175.445 193.383C174.876 194.862 175.279 197.335 173.775 197.836C172.616 198.222 173.434 194.233 173.497 193.939C174.034 191.434 174.536 189.172 175.445 186.703C176.178 184.714 176.868 182.68 177.95 180.858C180.684 176.257 183.758 171.862 186.857 167.498C193.998 157.442 204.511 151.025 213.855 143.284C216.761 140.875 224.032 137.007 224.988 132.707C225.154 131.96 223.398 132.839 222.761 133.264C220.383 134.849 218.144 136.635 215.803 138.274C214.433 139.233 212.989 140.085 211.628 141.057C200.257 149.179 189.413 158.322 179.62 168.333C176.866 171.148 174.334 174.176 171.549 176.961C170.677 177.833 168.011 180.4 170.992 178.91" fill="none" opacity="1" stroke="#ffc29f" stroke-linecap="round" stroke-linejoin="round" stroke-width="12.5423" vectornator:layerName="Curve 11"/>
<path d="M189.362 55.3322C194.304 51.5308 199.332 47.842 204.391 44.1991C205.206 43.6127 207.689 41.913 206.896 42.5291C202.605 45.8669 198.114 48.9424 193.815 52.2706C193.608 52.4312 193.024 52.9446 193.258 52.8272C197.898 50.5073 202.329 47.4807 206.896 45.0341C207.155 44.8955 207.925 44.5349 207.731 44.7557C205.441 47.3735 200.23 51.1651 197.99 52.8272C197.184 53.4252 194.511 54.7406 195.485 54.4972C199.43 53.511 202.703 50.7491 206.34 48.9306C207.419 48.3913 210.128 46.4192 209.68 47.539C208.924 49.4282 206.793 50.4157 205.226 51.7139C203.54 53.1109 201.726 54.3461 199.938 55.6105C197.921 57.037 195.086 57.6671 193.815 59.7854C192.79 61.4935 197.347 57.9417 199.103 57.0021C202.579 55.1431 206.006 53.1425 209.68 51.7139C210.036 51.5753 211.091 51.1952 210.793 51.4356C205.359 55.8243 197.4 59.6843 192.145 64.2386C191.169 65.085 194.597 63.4026 195.763 62.847C200.896 60.4031 205.805 57.4716 211.071 55.3322C211.594 55.1198 212.964 54.5351 212.741 55.0538C212.301 56.0807 211.17 56.6672 210.236 57.2805C204.943 60.757 199.378 63.8102 194.093 67.3002C193.699 67.5609 195.057 67.2239 195.485 67.0219C198.412 65.6399 201.19 63.9573 204.113 62.5687C204.908 62.191 205.796 62.047 206.618 61.7337C207.745 61.3043 209.289 59.3385 209.958 60.3421C210.658 61.392 208.681 62.5727 207.731 63.4037C204.457 66.2688 196.641 70.7923 193.258 73.1451C192.848 73.4304 194.213 72.8298 194.65 72.5885C196.907 71.3432 199.055 69.905 201.33 68.6919C203.234 67.6764 205.209 66.798 207.175 65.9086C209.106 65.0349 211.256 62.2279 213.02 63.4037C214.552 64.4252 210.326 65.9283 208.845 67.0219C206.422 68.8098 203.848 70.3819 201.33 72.0318C198.467 73.9075 189.334 78.2106 192.702 77.5984C197.03 76.8115 200.445 73.418 204.391 71.4752C206.479 70.4474 208.611 69.5 210.793 68.6919C211.141 68.563 212.156 68.4173 211.906 68.6919C207.749 73.2646 202.019 76.1187 196.877 79.5467C195.632 80.3765 194.236 80.9606 192.98 81.7733C192.65 81.9871 191.761 82.6936 192.145 82.6083C195.284 81.9108 200.177 78.146 202.165 77.0417C204.885 75.5305 207.654 74.0926 210.515 72.8668C210.941 72.6841 212.234 72.5388 211.906 72.8668C208.449 76.3239 203.74 78.2441 199.66 80.9383C197.104 82.6262 194.626 84.43 192.145 86.2265C191.933 86.3804 191.35 86.8931 191.588 86.7832C197.376 84.1119 202.443 80.1961 208.288 77.5984C208.905 77.3241 209.934 76.4376 210.236 77.0417C210.536 77.6401 209.116 77.7742 208.566 78.155C207.91 78.6093 207.268 79.0828 206.618 79.5467C202.722 82.3299 198.835 85.1267 194.928 87.8965C193.732 88.745 192.43 89.4539 191.31 90.4014C191.168 90.5213 191.126 90.9786 191.31 90.9581C194.776 90.573 197.538 87.7965 200.495 85.9482C201.979 85.0204 203.408 83.9973 204.948 83.1649C206.846 82.1388 208.795 81.1958 210.793 80.3816C211.316 80.1687 212.743 79.6133 212.463 80.1033C211.874 81.1349 210.644 81.6365 209.68 82.3299C207.674 83.7717 205.589 85.1012 203.556 86.5048C201.693 87.7918 199.843 89.0992 197.99 90.4014C196.41 91.5114 194.623 92.3763 193.258 93.7414C192.988 94.0118 194.024 94.18 194.372 94.0197C196.524 93.0262 198.447 91.596 200.495 90.4014C202.9 88.9982 205.279 87.5468 207.731 86.2265C208.901 85.5967 212.2 83.5361 211.35 84.5566C207.062 89.7015 200.009 92.0548 195.485 97.0813C195.207 97.3897 196.236 96.7261 196.598 96.5246C198.741 95.3343 200.842 94.0684 203 92.9064C205.667 91.4703 208.362 90.0861 211.071 88.7315C211.243 88.6458 212.96 88.1154 213.02 88.1748C213.256 88.4113 212.456 88.5353 212.185 88.7315C209.765 90.4837 207.349 92.2414 204.948 94.0197C201.234 96.7709 196.867 98.9502 194.093 102.648C193.936 102.858 194.415 103.322 194.65 103.204C197.183 101.938 199.453 100.201 201.887 98.7513C203.814 97.6028 205.724 96.4148 207.731 95.4113C209.998 94.2781 215.664 90.0107 214.69 92.3497C213.341 95.5871 209.139 96.6385 206.34 98.7513C204.222 100.35 197.38 104.186 199.938 103.483C206.105 101.787 211.603 98.2304 217.473 95.6897C217.824 95.5377 218.586 95.0288 218.586 95.4113C218.586 95.8752 217.854 95.9814 217.473 96.2463C215.72 97.466 213.923 98.6231 212.185 99.8646C208.32 102.625 204.466 105.503 200.773 108.493C200.007 109.113 197.611 110.753 198.547 110.441C200.83 109.68 202.818 108.222 204.948 107.101C208.107 105.439 211.197 103.643 214.411 102.091C216.584 101.042 218.751 99.8929 221.091 99.3079C221.991 99.0829 219.617 100.436 218.865 100.978C217.298 102.106 215.712 103.208 214.133 104.318C210.277 107.028 206.478 109.821 202.722 112.668C201.612 113.508 197.99 115.173 199.382 115.173C201.085 115.173 202.358 113.517 203.835 112.668C208.815 109.804 217.527 103.093 223.318 102.648C224.372 102.567 221.667 103.972 220.813 104.596C219.254 105.735 217.67 106.839 216.081 107.936C213.773 109.53 211.409 111.043 209.123 112.668C207.171 114.054 204.836 115.025 203.278 116.843C203.107 117.042 203.602 117.52 203.835 117.399C206.279 116.132 208.432 114.363 210.793 112.946C214 111.022 217.222 109.115 220.534 107.379C221.133 107.066 222.818 106.236 222.483 106.823C220.861 109.66 217.14 110.591 214.411 112.389C210.35 115.066 206.018 117.44 202.443 120.739C202.17 120.991 203.237 120.927 203.556 120.739C204.868 119.968 205.905 118.794 207.175 117.956C210.548 115.729 213.931 113.502 217.473 111.554C219.512 110.433 223.545 106.468 223.874 108.771C224.239 111.325 219.821 111.963 217.751 113.503C213.538 116.638 209.15 119.536 204.948 122.687C203.893 123.479 200.626 125.58 201.887 125.192C206.847 123.666 210.815 119.86 215.525 117.678C216.936 117.024 218.488 116.733 219.978 116.286C220.344 116.176 221.371 115.747 221.091 116.008C219.056 117.907 216.669 119.39 214.411 121.017C210.859 123.578 207.318 126.157 203.835 128.811C203.417 129.129 202.23 130.108 202.722 129.924C207.985 127.95 212.612 123.705 217.751 121.296C218.734 120.835 219.882 119.624 220.813 120.182C221.546 120.623 219.816 121.604 219.143 122.131C217.663 123.289 215.963 124.134 214.411 125.192C211.881 126.918 209.412 128.733 206.896 130.481C206.072 131.053 203.494 132.599 204.391 132.151C208.974 129.859 213.014 126.603 217.473 124.079C219.531 122.914 221.59 121.632 223.874 121.017C224.322 120.897 225.029 121.794 224.709 122.131C220.809 126.236 215.504 128.731 210.793 131.872C210.065 132.358 209.313 132.807 208.566 133.264C207.643 133.828 204.815 135.418 205.783 134.934C210.857 132.397 214.905 128.408 220.256 126.306C220.861 126.068 222.586 125.78 222.204 126.306C221.189 127.701 219.431 128.361 218.03 129.367C214.035 132.235 209.539 134.518 206.061 137.995C205.06 138.997 208.494 136.543 209.68 135.769C213.041 133.574 216.238 131.121 219.699 129.089C220.535 128.599 221.984 127.423 222.483 128.254C222.99 129.1 221.268 129.821 220.534 130.481C219.403 131.499 218.131 132.347 216.916 133.264C213.584 135.78 210.23 138.265 206.896 140.779C203.576 143.282 199.65 145.245 197.155 148.572C196.676 149.21 198.472 147.669 199.103 147.18C202.184 144.793 205.244 142.379 208.288 139.944C208.956 139.409 209.54 138.771 210.236 138.274C210.845 137.839 212.185 136.412 212.185 137.16C212.185 138.147 211.006 138.771 210.236 139.387C204.498 143.977 198.595 148.358 192.702 152.747C186.88 157.082 181.244 161.765 174.889 165.272C174.234 165.633 175.51 163.886 176.002 163.323C179.417 159.42 182.911 155.579 186.579 151.912C189.782 148.708 193.118 145.628 196.598 142.727C198.694 140.98 201.075 139.605 203.278 137.995C203.49 137.841 204.049 137.287 203.835 137.439C193.05 145.078 183.251 154.182 172.384 161.653C171.894 161.99 173.077 160.682 173.497 160.262C177.069 156.689 180.653 153.126 184.352 149.685C190.919 143.576 197.536 137.322 205.226 132.707C205.624 132.469 204.731 133.505 204.391 133.821C202.127 135.923 199.834 137.999 197.433 139.944C192.502 143.939 187.462 147.8 182.404 151.633C178.647 154.48 175.179 157.818 170.992 159.983C169.409 160.802 173.11 157.105 174.332 155.808C176.178 153.851 178.201 152.068 180.177 150.242C186.776 144.141 191.104 140.008 198.547 134.934C199.372 134.371 202.036 133.114 201.33 133.821C197.026 138.124 191.665 141.222 186.857 144.954C182.736 148.152 178.696 151.452 174.61 154.695C172.851 156.091 171.331 159.874 169.322 158.87C167.441 157.929 172.038 155.653 173.497 154.138C176.957 150.548 180.453 146.99 184.074 143.562C189.892 138.053 196.881 133.676 201.887 127.419C202.146 127.095 201.109 127.732 200.773 127.976C197.022 130.704 193.356 133.549 189.64 136.325C185.285 139.579 180.938 142.845 176.559 146.067C176.02 146.463 175.427 146.783 174.889 147.18C173.664 148.083 170.473 151.259 171.271 149.964C175.568 142.979 182.691 138.173 188.805 132.707C193.774 128.265 199.059 124.181 204.391 120.182C205.551 119.313 202.218 122.106 201.052 122.966C198.69 124.706 196.208 126.278 193.815 127.976C188.274 131.908 182.796 135.937 177.115 139.665C176.384 140.146 175.701 140.732 174.889 141.057C174.696 141.134 174.208 140.945 174.332 140.779C179.478 133.918 187.138 127.967 193.815 122.687C195.228 121.57 196.751 120.597 198.268 119.626C199.073 119.111 200.773 117.279 200.773 118.234C200.773 118.936 197.398 121.02 196.598 121.574C191.499 125.104 186.483 128.759 181.29 132.151C178.812 133.769 176.307 135.348 173.775 136.882C173.243 137.205 171.696 138.185 172.105 137.717C175.274 134.096 179.438 131.481 183.239 128.532C186.068 126.337 188.897 124.132 191.867 122.131C193.175 121.249 194.677 120.694 196.042 119.904C196.443 119.672 197.523 118.787 197.155 119.069C193.632 121.763 190.191 124.568 186.579 127.141C183.414 129.395 180.087 131.413 176.837 133.542C174.295 135.208 172.083 138.274 169.044 138.274C168.781 138.274 169.415 137.903 169.601 137.717C171.363 135.954 173.051 134.113 174.889 132.429C177.507 130.029 180.272 127.793 182.96 125.471C187.358 121.673 191.936 118.083 196.598 114.616C197.032 114.293 198.412 113.443 197.99 113.781C190.182 120.027 181.671 125.458 173.219 130.759C171.669 131.731 170.076 132.634 168.487 133.542C168.127 133.748 167.087 134.398 167.374 134.099C174.923 126.222 183.738 120.337 191.867 113.224C192.335 112.814 190.722 113.725 190.197 114.059C188.677 115.026 187.252 116.137 185.744 117.121C181.372 119.972 176.914 122.862 172.384 125.471C170.837 126.361 169.231 127.144 167.652 127.976C167.469 128.072 166.952 128.404 167.096 128.254C172.176 122.932 177.771 118.099 183.517 113.503C187.082 110.651 190.699 107.864 194.372 105.153C194.608 104.979 195.299 104.596 195.207 104.874C195.041 105.372 194.517 105.678 194.093 105.988C188.296 110.228 182.414 114.352 176.559 118.513C175.363 119.362 174.17 120.217 172.94 121.017C170.18 122.815 167.402 124.588 164.591 126.306C164.06 126.63 162.618 127.685 162.921 127.141C165.667 122.197 171.173 119.366 175.724 116.008C181.376 111.836 186.975 107.459 193.258 104.318C193.493 104.2 192.914 104.72 192.702 104.874C189.85 106.949 186.986 109.01 184.074 110.998C178.654 114.697 173.089 118.179 167.652 121.852C166.714 122.486 165.811 123.173 164.869 123.801C164.696 123.916 164.181 124.24 164.312 124.079C170.411 116.625 179.211 110.437 186.579 104.318C188.763 102.503 191.017 100.773 193.258 99.0296C193.522 98.8242 194.342 98.2492 194.093 98.4729C184.97 106.684 173.968 114.37 163.477 120.739C163.227 120.891 163.54 120.103 163.756 119.904C168.3 115.717 172.925 111.614 177.672 107.658C182.418 103.702 187.848 99.8087 193.258 96.803C193.551 96.6405 192.697 97.1678 192.423 97.3596C188.986 99.7656 185.549 102.171 182.125 104.596C175.91 108.999 169.702 113.434 163.199 117.399C162.491 117.831 160.414 119.127 160.972 118.513C169.726 108.884 180.849 101.502 191.032 93.463C191.294 93.2558 190.469 93.8246 190.197 94.0197C186.85 96.4224 183.613 98.9826 180.177 101.256C175.031 104.662 168.942 107.805 163.477 110.719C163.294 110.817 162.811 111.174 162.921 110.998C165.41 107.015 170.832 103.342 173.775 100.978C176.872 98.4915 180.007 96.0494 183.239 93.7414C185.207 92.3352 191.33 88.4386 189.362 89.8448C181.661 95.3456 173.03 101.057 164.869 105.988C163.342 106.911 159.198 110.01 160.137 108.493C162.209 105.146 165.527 102.738 168.487 100.143C172.311 96.7902 176.394 93.7406 180.455 90.6798C183.333 88.5114 186.017 85.8946 189.362 84.5566C189.554 84.4795 189.242 84.9796 189.083 85.1132C187.465 86.476 185.843 87.8504 184.074 89.0098C177.525 93.3 170.82 97.3522 164.034 101.256C160.292 103.409 156.502 105.485 152.623 107.379C152.436 107.47 151.919 107.248 152.066 107.101C158.935 100.232 167.142 94.4423 175.167 89.0098C178.875 86.4999 182.548 83.9381 186.3 81.495C186.546 81.3349 187.361 81.0288 187.135 81.2166C177.822 88.9775 167.002 94.8112 156.797 101.256C154.577 102.658 152.665 104.794 150.118 105.431C149.715 105.532 150.356 104.584 150.674 104.318C156.693 99.273 162.89 94.4448 169.044 89.5664C173.802 85.7947 178.927 81.9062 184.074 78.7117C184.572 78.4022 185.558 77.5984 185.744 78.155C185.951 78.7774 184.871 79.1455 184.352 79.5467C182.824 80.7271 181.211 81.7929 179.62 82.8866C174.425 86.4584 169.08 89.8083 163.756 93.1847C158.54 96.4924 153.374 99.8792 148.169 103.204C146.694 104.147 145.236 105.119 143.716 105.988C142.635 106.605 139.607 108.636 140.376 107.658C142.123 105.434 144.582 103.873 146.778 102.091C150.986 98.6761 155.28 95.3686 159.581 92.0714C166.548 86.73 173.707 81.6331 181.012 76.7634C181.29 76.5778 180.457 77.1377 180.177 77.32C178.602 78.3438 177.004 79.3323 175.445 80.3816C172.457 82.3941 169.537 84.5064 166.539 86.5048C155.555 93.8272 144.516 101.067 133.418 108.214C132.789 108.619 132.117 108.953 131.47 109.328C130.354 109.973 127.18 112.147 128.13 111.276C134.628 105.319 141.488 99.7704 148.169 94.0197C153.965 89.0313 160.441 84.8798 166.817 80.66C167.478 80.2225 169.531 79.1993 169.044 79.825C167.95 81.2317 166.338 82.1553 164.869 83.1649C160.395 86.2409 155.779 89.1054 151.231 92.0714C145.411 95.8667 139.659 99.7666 133.975 103.761C130.983 105.863 127.984 107.958 125.068 110.163C124.177 110.836 121.733 113.137 122.563 112.389C135.419 100.819 147.81 90.2329 161.807 79.825C167.569 75.5408 173.549 71.4865 179.899 68.1352C180.89 67.612 183.843 66.0527 182.96 66.7436C174.125 73.6582 164.29 79.1944 155.128 85.6699C148.839 90.1146 142.64 94.6873 136.48 99.3079C134.103 101.09 131.827 103.001 129.521 104.874C128.858 105.414 126.808 106.927 127.573 106.544C133.833 103.415 138.43 97.7067 143.994 93.463C152.331 87.1056 160.771 80.8801 169.322 74.8151C173.856 71.5998 178.493 68.523 183.239 65.6303C188.24 62.5817 193.398 59.7947 198.547 57.0021C198.883 56.8198 199.943 56.4665 199.66 56.7238C198.383 57.8847 196.924 58.833 195.485 59.7854C190.613 63.0094 185.579 65.9852 180.734 69.2485C171.939 75.1713 163.218 81.2035 154.571 87.3398C146.869 92.8057 138.444 98.7352 131.748 105.431C130.947 106.232 133.656 104.202 134.531 103.483C138.855 99.9314 142.938 96.0889 147.334 92.628C159.534 83.0241 172.543 74.0692 185.744 65.9086C186.449 65.4723 187.183 65.0577 187.97 64.7953C188.483 64.6242 187.033 65.3364 186.579 65.6303C183.878 67.3777 181.151 69.0861 178.507 70.9185C171.354 75.8769 164.596 81.3986 157.354 86.2265C156.534 86.7736 158.792 84.87 159.581 84.2782C161.764 82.6411 164.016 81.0981 166.261 79.5467C170.325 76.7375 174.309 73.8024 178.507 71.1968C180.029 70.2519 181.725 69.2485 183.517 69.2485C183.81 69.2485 182.936 69.3805 182.682 69.5269C179.869 71.1464 177.185 72.9882 174.332 74.5368C173.916 74.7625 172.657 75.1935 172.94 74.8151C174.625 72.5686 180.394 70.2532 182.96 68.9702C183.79 68.5553 185.843 67.9563 185.187 67.3002C183.765 65.8785 180.734 69.3343 180.734 65.9086" fill="none" opacity="1" stroke="#ffc29f" stroke-linecap="round" stroke-linejoin="round" stroke-width="12.5423" vectornator:layerName="Curve 12"/>
</g>
<clipPath id="ArtboardFrame">
<rect height="429.539" width="248.33" x="0" y="0"/>
</clipPath>
<g clip-path="url(#ArtboardFrame)" id="Untitled" vectornator:layerName="Untitled">
<path d="M247.742 141.604C246.812 144.304 244.715 146.412 242.682 148.419C227.71 163.201 212.738 177.984 197.765 192.766C193.277 197.198 192.989 204.229 192.988 210.537C192.976 283.538 192.964 356.538 192.951 429.539C184.456 421.728 177.428 412.482 170.449 403.291C114.309 329.356 58.17 255.421 2.03061 181.486C0.962109 180.079-0.163044 178.483 0.019629 176.725C0.215035 174.845 1.82719 173.475 3.31837 172.314C76.5761 115.26 149.979 58.3929 223.525 1.71201C225.018 0.561719 227.051-0.629004 228.642 0.381057C229.773 1.0992 230.058 2.59585 230.24 3.92326C236.13 46.9445 242.02 89.9657 247.91 132.987C248.303 135.861 248.686 138.861 247.742 141.604M196.67 186.822C210.61 173.114 224.549 159.405 238.489 145.696C243.73 140.543 243.088 132.071 242.07 124.792C236.563 85.4075 231.055 46.0233 225.548 6.63907C153.379 62.4762 81.2096 118.313 9.04031 174.15C8.009 174.948 6.90711 175.855 6.64588 177.133C6.33253 178.665 7.33406 180.126 8.2815 181.371C68.0865 259.928 127.891 338.486 187.696 417.043C187.844 347.122 187.992 277.201 188.139 207.28C188.148 203.344 188.181 199.283 189.737 195.668C191.227 192.203 193.981 189.467 196.67 186.822Z" fill="#000000" fill-rule="nonzero" opacity="1" stroke="none" vectornator:layerName="path"/>
</g>
</svg>
